<svg width="19" height="21" viewBox="0 0 19 21" fill="none" xmlns="http://www.w3.org/2000/svg">
<g clip-path="url(#clip0_8_1087)">
<path d="M9.28624 11.2297C10.3565 11.9891 11.6565 12.3421 12.9582 12.2269C14.2598 12.1117 15.4798 11.5356 16.4038 10.5997C18.8186 8.15584 19.513 4.41785 18.6528 0.36222C14.6419 -0.496154 10.9523 0.196845 8.5478 2.64072C7.59806 3.60334 7.02444 4.88178 6.93299 6.23967C6.84154 7.59756 7.23844 8.94308 8.05032 10.0275L8.03477 10.0432C6.97765 11.1093 6.29964 12.5006 6.10705 13.9991H0V15.75H1.21001L1.55721 19.2596C1.61337 19.733 1.83652 20.1698 2.18553 20.4896C2.53455 20.8095 2.98591 20.9907 3.45643 21H10.3641C10.8348 20.9902 11.2862 20.8089 11.6355 20.4892C11.9848 20.1695 12.2087 19.733 12.2659 19.2596L12.6105 15.75H13.8205V13.9991H7.86117C8.03247 12.9665 8.51486 12.0129 9.24219 11.2691L9.28624 11.2297ZM10.8745 15.75L10.5377 19.2491H3.28283L2.946 15.75H10.8745ZM9.02455 4.9481C9.49554 5.75331 10.0639 6.4958 10.7165 7.15835L11.9369 5.92197C11.2328 5.20889 10.6443 4.38765 10.1931 3.4886C10.6391 3.11081 11.1322 2.79398 11.6596 2.54622C12.0362 3.33898 12.5426 4.06143 13.1572 4.68297L14.3802 3.4466C13.9575 3.01406 13.6004 2.52045 13.3205 1.98185C14.5841 1.71802 15.8835 1.67893 17.1604 1.86635C17.3453 3.15998 17.3067 4.47635 17.0464 5.7566C16.5134 5.47524 16.0258 5.11321 15.6006 4.68297L14.3802 5.92197C14.9964 6.545 15.7121 7.05798 16.4971 7.43922C16.2494 7.97363 15.9341 8.47308 15.5591 8.92497C14.6721 8.466 13.8617 7.869 13.1572 7.15572L11.9369 8.39997C12.5905 9.05968 13.3224 9.63458 14.1159 10.1115C13.4029 10.4621 12.5997 10.5788 11.8181 10.4453C11.0365 10.3118 10.3155 9.93472 9.75531 9.36663C9.19514 8.79854 8.82372 8.06766 8.69275 7.27571C8.56177 6.48376 8.67775 5.67014 9.02455 4.9481Z" fill="#B5C547"/>
</g>
<defs>
<clipPath id="clip0_8_1087">
<rect width="19" height="21" fill="white"/>
</clipPath>
</defs>
</svg>
