<svg width="13" height="20" viewBox="0 0 13 20" fill="none" xmlns="http://www.w3.org/2000/svg">
<g clip-path="url(#clip0_8_1077)">
<path d="M13.0024 6.66748V4.99998H11.3765C11.3756 4.62894 11.2923 4.263 11.1328 3.92998L12.5953 2.42998L11.4472 1.24998L9.98462 2.74998C9.65849 2.58796 9.30124 2.50256 8.93887 2.49998C8.63823 2.50128 8.34052 2.56064 8.06132 2.67498C7.93283 2.02962 7.62076 1.43779 7.16451 0.974228C6.70825 0.510663 6.12829 0.196157 5.49786 0.0704306C4.86743 -0.0552961 4.2148 0.0133955 3.62242 0.26783C3.03003 0.522265 2.52444 0.951031 2.16951 1.49998L0.624039 0.842476L0 2.38248L1.65029 3.07498C1.65029 3.16248 1.62591 3.24498 1.62591 3.32498V4.99998H0V6.66748H1.62591V8.33248H0V9.99998H1.62591V11.6675H0V13.3325H1.62591V15H0V18.3325C0.00128605 18.7743 0.173 19.1977 0.47764 19.5101C0.782279 19.8226 1.19509 19.9987 1.62591 20H11.3765C11.8073 19.9987 12.2202 19.8226 12.5248 19.5101C12.8294 19.1977 13.0011 18.7743 13.0024 18.3325V15H11.3765V13.3325H13.0024V11.6675H11.3765V9.99998H13.0024V8.33248H11.3765V6.66748H13.0024ZM8.12713 4.99998C8.12713 4.77918 8.21266 4.56743 8.36489 4.41131C8.51712 4.25519 8.72358 4.16748 8.93887 4.16748C9.15416 4.16748 9.36063 4.25519 9.51286 4.41131C9.66509 4.56743 9.75061 4.77918 9.75061 4.99998V15H8.12713V4.99998ZM3.25183 11.6675V9.99998H4.8753V8.33248H3.25183V6.66748H4.8753V4.99998H3.25183V3.33248C3.2681 2.90173 3.44639 2.49418 3.7493 2.19532C4.05221 1.89647 4.4562 1.72953 4.87652 1.72953C5.29684 1.72953 5.70083 1.89647 6.00374 2.19532C6.30665 2.49418 6.48495 2.90173 6.50122 3.33248V15H3.25183V13.3325H4.8753V11.6675H3.25183ZM11.3765 18.3325H1.62591V16.6675H11.3765V18.3325Z" fill="#B5C547"/>
</g>
<defs>
<clipPath id="clip0_8_1077">
<rect width="13" height="20" fill="white"/>
</clipPath>
</defs>
</svg>
