<svg width="19" height="19" viewBox="0 0 19 19" fill="none" xmlns="http://www.w3.org/2000/svg">
<path fill-rule="evenodd" clip-rule="evenodd" d="M9.4991 14.2498C12.7651 14.2498 15.0876 12.1975 16.4478 10.4883C16.9195 9.89553 16.9195 9.10415 16.4478 8.51133C15.0876 6.80214 12.7651 4.74984 9.4991 4.74984C6.23308 4.74984 3.91056 6.80214 2.55043 8.51133C2.07868 9.10415 2.07868 9.89553 2.55043 10.4883C3.91056 12.1975 6.23308 14.2498 9.4991 14.2498ZM17.6867 11.4743C18.6177 10.3044 18.6177 8.6953 17.6867 7.52542C16.2076 5.66679 13.4784 3.1665 9.4991 3.1665C5.51976 3.1665 2.79056 5.66679 1.3115 7.52542C0.38054 8.6953 0.38054 10.3044 1.3115 11.4743C2.79056 13.3329 5.51975 15.8332 9.4991 15.8332C13.4784 15.8332 16.2076 13.3329 17.6867 11.4743Z" fill="white"/>
<path fill-rule="evenodd" clip-rule="evenodd" d="M11.082 9.50016C11.082 10.3746 10.3731 11.0835 9.4987 11.0835C8.62425 11.0835 7.91536 10.3746 7.91536 9.50016C7.91536 9.47769 7.91583 9.45533 7.91676 9.43308C8.04017 9.47653 8.17293 9.50016 8.3112 9.50016C8.96704 9.50016 9.4987 8.9685 9.4987 8.31266C9.4987 8.17439 9.47506 8.04164 9.43162 7.91822C9.45386 7.9173 9.47623 7.91683 9.4987 7.91683C10.3731 7.91683 11.082 8.62571 11.082 9.50016ZM12.6654 9.50016C12.6654 11.2491 11.2476 12.6668 9.4987 12.6668C7.7498 12.6668 6.33203 11.2491 6.33203 9.50016C6.33203 7.75126 7.7498 6.3335 9.4987 6.3335C11.2476 6.3335 12.6654 7.75126 12.6654 9.50016Z" fill="white"/>
</svg>
