<svg width="22" height="22" viewBox="0 0 22 22" fill="none" xmlns="http://www.w3.org/2000/svg">
<path fill-rule="evenodd" clip-rule="evenodd" d="M10.1096 13.7507C10.6155 13.7316 11.0411 14.1262 11.0602 14.6321C11.1033 15.7726 11.1638 16.605 11.2232 17.2018C11.2818 17.7896 11.6366 18.1432 12.1312 18.2037C12.7144 18.275 13.5372 18.3334 14.6662 18.3334C15.7953 18.3334 16.618 18.275 17.2012 18.2037C17.6956 18.1433 18.0506 17.7895 18.1092 17.2016C18.2195 16.0937 18.3329 14.1798 18.3329 11C18.3329 7.82027 18.2195 5.90629 18.1092 4.79847C18.0506 4.21057 17.6956 3.85677 17.2012 3.79633C16.618 3.72504 15.7953 3.66668 14.6662 3.66668C13.5372 3.66668 12.7144 3.72503 12.1312 3.79633C11.6366 3.85679 11.2818 4.21043 11.2232 4.79819C11.1638 5.39501 11.1033 6.22743 11.0602 7.36793C11.0411 7.87383 10.6155 8.26846 10.1096 8.24937C9.60374 8.23027 9.20911 7.80467 9.2282 7.29877C9.2724 6.12816 9.33505 5.25749 9.39891 4.61646C9.53316 3.2688 10.4728 2.15208 11.9088 1.97654C12.5772 1.89483 13.4753 1.83335 14.6662 1.83335C15.8572 1.83335 16.7552 1.89483 17.4237 1.97655C18.8598 2.15211 19.7992 3.26936 19.9335 4.61674C20.0517 5.80314 20.1662 7.78112 20.1662 11C20.1662 14.2189 20.0517 16.1969 19.9335 17.3833C19.7992 18.7307 18.8598 19.8479 17.4237 20.0235C16.7552 20.1052 15.8572 20.1667 14.6662 20.1667C13.4753 20.1667 12.5772 20.1052 11.9088 20.0235C10.4728 19.848 9.53316 18.7312 9.39891 17.3836C9.33505 16.7425 9.2724 15.8719 9.2282 14.7013C9.20911 14.1954 9.60374 13.7698 10.1096 13.7507Z" fill="#FE4D4D"/>
<path fill-rule="evenodd" clip-rule="evenodd" d="M6.60619 13.5602C6.96417 13.9181 6.96417 14.4985 6.60619 14.8565C6.24821 15.2145 5.66781 15.2145 5.30983 14.8565L2.10149 11.6482C1.74351 11.2902 1.74351 10.7098 2.10149 10.3518L5.30983 7.14349C5.66781 6.7855 6.24821 6.7855 6.60619 7.14349C6.96417 7.50147 6.96417 8.08187 6.60619 8.43985L4.9627 10.0833H13.7497C14.2559 10.0833 14.6663 10.4937 14.6663 11C14.6663 11.5063 14.2559 11.9167 13.7497 11.9167L4.9627 11.9167L6.60619 13.5602Z" fill="#FE4D4D"/>
</svg>
