<svg width="24" height="24" viewBox="0 0 24 24" fill="none" xmlns="http://www.w3.org/2000/svg">
<path fill-rule="evenodd" clip-rule="evenodd" d="M13.5851 5.40079L12.7964 4.36064C12.3963 3.83291 11.6029 3.83291 11.2028 4.36064L10.4141 5.40079C9.95556 6.00549 9.20648 6.31577 8.45468 6.2124L7.16149 6.0346C6.50537 5.94439 5.94439 6.50537 6.0346 7.16149L6.2124 8.45468C6.31577 9.20648 6.00549 9.95556 5.40079 10.4141L4.36064 11.2028C3.83291 11.6029 3.83291 12.3963 4.36064 12.7964L5.40079 13.5851C6.00549 14.0436 6.31577 14.7927 6.2124 15.5445L6.0346 16.8377C5.94438 17.4938 6.50537 18.0548 7.16149 17.9646L8.45468 17.7868C9.20648 17.6834 9.95556 17.9937 10.4141 18.5984L11.2028 19.6386C11.6029 20.1663 12.3963 20.1663 12.7964 19.6386L13.5851 18.5984C14.0436 17.9937 14.7927 17.6834 15.5445 17.7868L16.8377 17.9646C17.4938 18.0548 18.0548 17.4938 17.9646 16.8377L17.7868 15.5445C17.6834 14.7927 17.9937 14.0436 18.5984 13.5851L19.6386 12.7964C20.1663 12.3963 20.1663 11.6029 19.6386 11.2028L18.5984 10.4141C17.9937 9.95556 17.6834 9.20647 17.7868 8.45468L17.9646 7.16149C18.0548 6.50537 17.4938 5.94438 16.8377 6.0346L15.5445 6.2124C14.7927 6.31577 14.0436 6.00549 13.5851 5.40079ZM14.3901 3.15224C13.1896 1.56904 10.8096 1.56904 9.6091 3.15224L8.8204 4.19239C8.79857 4.22119 8.7629 4.23596 8.7271 4.23104L7.43391 4.05324C5.46556 3.7826 3.7826 5.46556 4.05324 7.43391L4.23104 8.7271C4.23596 8.7629 4.22119 8.79857 4.19239 8.8204L3.15224 9.6091C1.56904 10.8096 1.56904 13.1896 3.15224 14.3901L4.19239 15.1788C4.22119 15.2006 4.23596 15.2363 4.23104 15.2721L4.05324 16.5653C3.7826 18.5336 5.46556 20.2166 7.43391 19.946L8.7271 19.7682C8.7629 19.7632 8.79857 19.778 8.8204 19.8068L9.6091 20.847C10.8096 22.4302 13.1896 22.4302 14.3901 20.847L15.1788 19.8068C15.2006 19.778 15.2363 19.7632 15.2721 19.7682L16.5653 19.946C18.5336 20.2166 20.2166 18.5336 19.946 16.5653L19.7682 15.2721C19.7632 15.2363 19.778 15.2006 19.8068 15.1788L20.847 14.3901C22.4302 13.1896 22.4302 10.8096 20.847 9.6091L19.8068 8.8204C19.778 8.79857 19.7632 8.7629 19.7682 8.7271L19.946 7.43391C20.2166 5.46556 18.5336 3.7826 16.5653 4.05324L15.2721 4.23104C15.2363 4.23596 15.2006 4.22119 15.1788 4.19239L14.3901 3.15224Z" fill="white"/>
<path d="M14.7071 10.7071L10.7071 14.7071C10.3166 15.0976 9.68342 15.0976 9.29289 14.7071C8.90237 14.3166 8.90237 13.6834 9.29289 13.2929L13.2929 9.29289C13.6834 8.90237 14.3166 8.90237 14.7071 9.29289C15.0976 9.68342 15.0976 10.3166 14.7071 10.7071Z" fill="white"/>
<path d="M11 10C11 10.5523 10.5523 11 10 11C9.44772 11 9 10.5523 9 10C9 9.44772 9.44772 9 10 9C10.5523 9 11 9.44772 11 10Z" fill="white"/>
<path d="M13 14C13 14.5523 13.4477 15 14 15C14.5523 15 15 14.5523 15 14C15 13.4477 14.5523 13 14 13C13.4477 13 13 13.4477 13 14Z" fill="white"/>
</svg>
