<svg width="32" height="29" viewBox="0 0 32 29" fill="none" xmlns="http://www.w3.org/2000/svg">
<path d="M32 0V3.76895H31.0526C29.0175 3.76895 27.3333 4.15283 26 4.92058C24.7368 5.61853 23.7895 6.90975 23.1579 8.79422C22.5965 10.6089 22.3158 13.1215 22.3158 16.3321V22.4043L20.9474 20.1011C21.2982 19.8219 21.7895 19.5776 22.4211 19.3682C23.0526 19.1588 23.7544 19.0541 24.5263 19.0541C26 19.0541 27.193 19.5078 28.1053 20.4152C29.0175 21.3225 29.4737 22.5439 29.4737 24.0794C29.4737 25.5451 29.0526 26.7316 28.2105 27.639C27.3684 28.5463 26.1404 29 24.5263 29C23.3333 29 22.2807 28.7208 21.3684 28.1625C20.4561 27.6041 19.7193 26.6619 19.1579 25.3357C18.5965 23.9398 18.3158 22.0554 18.3158 19.6823V17.6931C18.3158 12.8773 18.807 9.213 19.7895 6.70036C20.8421 4.11793 22.3158 2.37305 24.2105 1.4657C26.1754 0.488568 28.4561 0 31.0526 0H32ZM13.6842 0V3.76895H12.7368C10.7018 3.76895 9.01754 4.15283 7.68421 4.92058C6.42105 5.61853 5.47368 6.90975 4.84211 8.79422C4.2807 10.6089 4 13.1215 4 16.3321V22.4043L2.63158 20.1011C2.98246 19.8219 3.47368 19.5776 4.10526 19.3682C4.73684 19.1588 5.4386 19.0541 6.21053 19.0541C7.68421 19.0541 8.87719 19.5078 9.78947 20.4152C10.7018 21.3225 11.1579 22.5439 11.1579 24.0794C11.1579 25.5451 10.7368 26.7316 9.89474 27.639C9.05263 28.5463 7.82456 29 6.21053 29C5.01754 29 3.96491 28.7208 3.05263 28.1625C2.14035 27.6041 1.40351 26.6619 0.842105 25.3357C0.280702 23.9398 0 22.0554 0 19.6823V17.6931C0 12.8773 0.491228 9.213 1.47368 6.70036C2.52632 4.11793 4 2.37305 5.89474 1.4657C7.85965 0.488568 10.1404 0 12.7368 0H13.6842Z" fill="#B5C547"/>
</svg>
