<svg width="5" height="11" viewBox="0 0 5 11" fill="none" xmlns="http://www.w3.org/2000/svg">
<path fill-rule="evenodd" clip-rule="evenodd" d="M2.2893 1.22668e-07C2.53275 -3.64722e-06 2.7301 0.197347 2.73011 0.440795L2.73024 9.05212L3.73649 8.0163C3.90612 7.84168 4.18519 7.83764 4.35981 8.00727C4.53443 8.17691 4.53847 8.45598 4.36884 8.6306L2.60563 10.4456C2.52263 10.5311 2.40858 10.5793 2.28946 10.5793C2.17033 10.5793 2.05628 10.5311 1.97328 10.4456L0.210076 8.6306C0.0404431 8.45598 0.0444845 8.17691 0.219103 8.00727C0.393721 7.83764 0.672792 7.84168 0.842425 8.0163L1.84864 9.05208L1.8485 0.440808C1.8485 0.197361 2.04585 3.91883e-06 2.2893 1.22668e-07Z" fill="white"/>
</svg>
