<svg width="103" height="51" viewBox="0 0 103 51" fill="none" xmlns="http://www.w3.org/2000/svg">
<path d="M4.36135 22.4L4.36135 18.5762L9.56426 18.5762C10.5254 18.5762 11.2777 18.2941 11.8209 17.7299C12.3642 17.1658 12.6359 16.4762 12.6359 15.6613C12.6359 15.0972 12.5105 14.5957 12.2597 14.1569C12.009 13.7181 11.6538 13.3733 11.1941 13.1226C10.7553 12.8718 10.212 12.7464 9.56426 12.7464L4.36135 12.7464L4.36135 9.01665H9.1568C9.97171 9.01665 10.6299 8.81815 11.1314 8.42114C11.6329 8.00323 11.8836 7.37638 11.8836 6.54057C11.8836 5.72566 11.6329 5.1197 11.1314 4.72269C10.6299 4.30478 9.97171 4.09583 9.1568 4.09583L4.36135 4.09583V0.272011L10.0971 0.272011C11.518 0.272011 12.7194 0.5332 13.7015 1.05558C14.7045 1.57796 15.4671 2.27795 15.9895 3.15555C16.5119 4.03315 16.7731 5.00477 16.7731 6.07043C16.7731 7.42862 16.3343 8.57785 15.4567 9.51814C14.5791 10.4584 13.2836 11.1062 11.5702 11.4614L11.6956 9.80022C13.5552 10.1554 14.9866 10.8763 15.9895 11.9629C17.0134 13.0494 17.5253 14.3867 17.5253 15.9748C17.5253 17.1867 17.2223 18.2837 16.6164 19.2657C16.0313 20.2269 15.1746 20.9896 14.0463 21.5538C12.9388 22.1179 11.6015 22.4 10.0344 22.4L4.36135 22.4ZM0.600217 22.4L0.600217 0.272011L5.45835 0.272011L5.45835 22.4H0.600217ZM25.9134 22.4L34.6894 0.272011L39.1401 0.272011L47.8221 22.4H42.6192L35.9745 4.03315H37.761L31.0223 22.4L25.9134 22.4ZM30.8969 18.3881V14.3763H42.9639V18.3881H30.8969ZM60.82 22.4V18.5762H66.0229C66.9841 18.5762 67.7363 18.2941 68.2796 17.7299C68.8229 17.1658 69.0945 16.4762 69.0945 15.6613C69.0945 15.0972 68.9691 14.5957 68.7184 14.1569C68.4677 13.7181 68.1124 13.3733 67.6527 13.1226C67.2139 12.8718 66.6707 12.7464 66.0229 12.7464H60.82V9.01665H65.6155C66.4304 9.01665 67.0886 8.81815 67.5901 8.42114C68.0915 8.00323 68.3423 7.37638 68.3423 6.54057C68.3423 5.72566 68.0915 5.1197 67.5901 4.72269C67.0886 4.30478 66.4304 4.09583 65.6155 4.09583L60.82 4.09583V0.272011L66.5557 0.272011C67.9766 0.272011 69.1781 0.5332 70.1602 1.05558C71.1631 1.57796 71.9258 2.27795 72.4482 3.15555C72.9706 4.03315 73.2318 5.00477 73.2318 6.07043C73.2318 7.42862 72.793 8.57785 71.9154 9.51814C71.0378 10.4584 69.7423 11.1062 68.0289 11.4614L68.1542 9.80022C70.0139 10.1554 71.4452 10.8763 72.4482 11.9629C73.4721 13.0494 73.984 14.3867 73.984 15.9748C73.984 17.1867 73.681 18.2837 73.075 19.2657C72.49 20.2269 71.6333 20.9896 70.5049 21.5538C69.3975 22.1179 68.0602 22.4 66.4931 22.4H60.82ZM57.0589 22.4L57.0589 0.272011L61.917 0.272011V22.4H57.0589ZM89.947 14.1569L81.4218 0.272011L87.1262 0.272011L93.6768 11.4927L90.0097 11.4927L96.5603 0.272011L102.139 0.272011L93.5514 14.1569H89.947ZM89.3515 22.4V11.9002L94.2723 11.9002V22.4H89.3515ZM10.0046 50.4L10.0046 29.275H12.9509L12.9509 50.4H10.0046ZM2.60775 31.3436V28.6481L20.3164 28.6481L20.3164 31.3436L2.60775 31.3436ZM39.0349 50.7135C37.4887 50.7135 36.0469 50.4314 34.7096 49.8672C33.3723 49.2821 32.2022 48.4777 31.1992 47.4538C30.1963 46.409 29.4127 45.2076 28.8485 43.8494C28.3052 42.4912 28.0336 41.039 28.0336 39.4927C28.0336 37.9256 28.3052 36.4734 28.8485 35.1361C29.4127 33.7779 30.1858 32.5869 31.1679 31.563C32.1709 30.5391 33.3305 29.7451 34.6469 29.181C35.9842 28.6168 37.426 28.3347 38.9722 28.3347C40.5185 28.3347 41.9498 28.6168 43.2662 29.181C44.6035 29.7451 45.7736 30.5391 46.7766 31.563C47.7796 32.5869 48.5631 33.7779 49.1273 35.1361C49.6915 36.4943 49.9736 37.9569 49.9736 39.5241C49.9736 41.0703 49.6915 42.5225 49.1273 43.8807C48.5631 45.2389 47.7796 46.4299 46.7766 47.4538C45.7945 48.4777 44.6348 49.2821 43.2975 49.8672C41.9812 50.4314 40.5603 50.7135 39.0349 50.7135ZM38.9722 47.8926C40.5394 47.8926 41.908 47.5374 43.0781 46.8269C44.2692 46.0956 45.2095 45.1031 45.899 43.8494C46.5885 42.5748 46.9333 41.1226 46.9333 39.4927C46.9333 38.2808 46.7348 37.1734 46.3378 36.1704C45.9408 35.1465 45.3871 34.2585 44.6766 33.5063C43.9662 32.754 43.1304 32.1794 42.1692 31.7824C41.208 31.3645 40.1424 31.1555 38.9722 31.1555C37.426 31.1555 36.0574 31.5108 34.8663 32.2212C33.6962 32.9316 32.7664 33.9137 32.0768 35.1674C31.4082 36.4211 31.0739 37.8629 31.0739 39.4927C31.0739 40.7047 31.2619 41.833 31.638 42.8778C32.035 43.9016 32.5783 44.7897 33.2679 45.5419C33.9783 46.2732 34.8141 46.8478 35.7753 47.2657C36.7574 47.6836 37.823 47.8926 38.9722 47.8926ZM65.8776 41.5614L57.321 28.6481H60.7374L67.6328 39.2106H66.097L73.0237 28.6481H76.3774L67.7582 41.5614H65.8776ZM65.3761 50.4L65.3761 39.6181H68.3223L68.3223 50.4H65.3761ZM90.5671 50.7135C88.8537 50.7135 87.3911 50.4 86.1791 49.7732C84.9672 49.1463 83.8911 48.2374 82.9508 47.0463L84.9568 45.0404C85.6463 46.0016 86.4403 46.7329 87.3388 47.2344C88.2373 47.715 89.3448 47.9553 90.6612 47.9553C91.9567 47.9553 92.991 47.6732 93.7641 47.109C94.5581 46.5449 94.9551 45.7717 94.9551 44.7897C94.9551 43.9748 94.7671 43.3166 94.391 42.8151C94.0148 42.3136 93.5029 41.9061 92.8552 41.5927C92.2283 41.2584 91.5388 40.9658 90.7865 40.7151C90.0343 40.4435 89.2821 40.1614 88.5298 39.8688C87.7776 39.5554 87.0881 39.1793 86.4612 38.7405C85.8344 38.2808 85.3224 37.6853 84.9254 36.954C84.5493 36.2226 84.3613 35.3032 84.3613 34.1958C84.3613 32.963 84.6538 31.9182 85.2389 31.0615C85.8448 30.1839 86.6597 29.5153 87.6836 29.0556C88.7284 28.575 89.8985 28.3347 91.194 28.3347C92.6149 28.3347 93.8895 28.6168 95.0178 29.181C96.1461 29.7242 97.0655 30.4451 97.776 31.3436L95.77 33.3495C95.1223 32.5973 94.4223 32.0331 93.6701 31.657C92.9387 31.2809 92.0925 31.0929 91.1313 31.0929C89.9612 31.0929 89.0313 31.3541 88.3418 31.8764C87.6522 32.3779 87.3075 33.0884 87.3075 34.0077C87.3075 34.7391 87.4955 35.3346 87.8716 35.7943C88.2687 36.2331 88.7806 36.6092 89.4074 36.9226C90.0343 37.2361 90.7238 37.5286 91.4761 37.8002C92.2492 38.051 93.0119 38.333 93.7641 38.6465C94.5163 38.9599 95.2059 39.3569 95.8327 39.8375C96.4596 40.3181 96.9611 40.9449 97.3372 41.7181C97.7342 42.4703 97.9327 43.421 97.9327 44.5703C97.9327 46.4926 97.264 47.9971 95.9267 49.0836C94.6104 50.1702 92.8238 50.7135 90.5671 50.7135Z" fill="black"/>
</svg>
