<svg width="52" height="9" viewBox="0 0 52 9" fill="none" xmlns="http://www.w3.org/2000/svg">
<path d="M0.0124392 3.13933C0.0422985 3.0474 0.121754 2.98042 0.217392 2.96652L2.90409 2.5761L4.10564 0.141527C4.14841 0.0548607 4.23667 0 4.33332 0C4.42996 0 4.51824 0.0548776 4.56101 0.141527L5.76263 2.57612L8.44927 2.96652C8.54491 2.98042 8.62437 3.04742 8.65423 3.13933C8.6841 3.23124 8.65919 3.33215 8.58999 3.3996L6.64595 5.29467L7.10481 7.97056C7.12114 8.06581 7.08197 8.16209 7.00379 8.21888C6.92562 8.27567 6.82199 8.28317 6.73639 8.23821L4.33334 6.97484L1.93036 8.23822C1.8932 8.25776 1.85265 8.26739 1.81223 8.26739C1.75958 8.26739 1.70718 8.25104 1.66296 8.21889C1.58478 8.16209 1.54561 8.06582 1.56194 7.97056L2.02094 5.29467L0.0766941 3.39962C0.00747938 3.33215 -0.0174371 3.23124 0.0124392 3.13933ZM2.47098 5.02419C2.53083 5.08253 2.55815 5.16659 2.544 5.24895L2.14941 7.54931L4.21516 6.46323C4.28913 6.42435 4.3775 6.42435 4.45148 6.46323L6.51734 7.54933L6.12287 5.24894C6.10875 5.16657 6.13606 5.08254 6.19588 5.02421L7.8671 3.39508L5.55749 3.05943C5.47478 3.04742 5.40332 2.99548 5.36632 2.92055L4.33334 0.827582L3.3004 2.92053C3.2634 2.99547 3.19193 3.04742 3.10923 3.05943L0.799581 3.39506L2.47098 5.02419Z" fill="#F1BD36"/>
<path d="M3.07647 2.66653L4.03526 0.988659C4.16509 0.761458 4.4941 0.765604 4.61816 0.996005L5.43019 2.50406C5.47466 2.58664 5.55185 2.64666 5.64284 2.66941L7.65146 3.17157C7.8899 3.23117 7.98403 3.51953 7.82669 3.70834L6.59263 5.18921C6.53354 5.26012 6.5065 5.35236 6.51795 5.44395L6.75853 7.36859C6.79104 7.62873 6.52438 7.82286 6.2868 7.71199L4.47429 6.86615C4.38494 6.82446 4.28172 6.82446 4.19237 6.86615L2.42154 7.69254C2.17561 7.80731 1.90294 7.59579 1.95295 7.32905L2.30093 5.47318C2.3212 5.36503 2.28681 5.25385 2.209 5.17605L0.780189 3.74723C0.590646 3.55769 0.690999 3.2333 0.954462 3.1839L2.84849 2.82877C2.9446 2.81075 3.02796 2.75143 3.07647 2.66653Z" fill="#F1BD36"/>
<path d="M10.8454 3.13933C10.8753 3.0474 10.9548 2.98042 11.0504 2.96652L13.7371 2.5761L14.9386 0.141527C14.9814 0.0548607 15.0697 0 15.1663 0C15.263 0 15.3512 0.0548776 15.394 0.141527L16.5956 2.57612L19.2823 2.96652C19.3779 2.98042 19.4574 3.04742 19.4872 3.13933C19.5171 3.23124 19.4922 3.33215 19.423 3.3996L17.479 5.29467L17.9378 7.97056C17.9542 8.06581 17.915 8.16209 17.8368 8.21888C17.7586 8.27567 17.655 8.28317 17.5694 8.23821L15.1663 6.97484L12.7634 8.23822C12.7262 8.25776 12.6857 8.26739 12.6452 8.26739C12.5926 8.26739 12.5402 8.25104 12.496 8.21889C12.4178 8.16209 12.3786 8.06582 12.3949 7.97056L12.8539 5.29467L10.9097 3.39962C10.8405 3.33215 10.8156 3.23124 10.8454 3.13933ZM13.304 5.02419C13.3638 5.08253 13.3912 5.16659 13.377 5.24895L12.9824 7.54931L15.0482 6.46323C15.1221 6.42435 15.2105 6.42435 15.2845 6.46323L17.3503 7.54933L16.9559 5.24894C16.9418 5.16657 16.9691 5.08254 17.0289 5.02421L18.7001 3.39508L16.3905 3.05943C16.3078 3.04742 16.2363 2.99548 16.1993 2.92055L15.1663 0.827582L14.1334 2.92053C14.0964 2.99547 14.0249 3.04742 13.9422 3.05943L11.6326 3.39506L13.304 5.02419Z" fill="#F1BD36"/>
<path d="M13.9095 2.66653L14.8683 0.988659C14.9981 0.761458 15.3271 0.765604 15.4512 0.996005L16.2632 2.50406C16.3077 2.58664 16.3849 2.64666 16.4758 2.66941L18.4845 3.17157C18.7229 3.23117 18.817 3.51953 18.6597 3.70834L17.4256 5.18921C17.3665 5.26012 17.3395 5.35236 17.351 5.44395L17.5915 7.36859C17.6241 7.62873 17.3574 7.82286 17.1198 7.71199L15.3073 6.86615C15.2179 6.82446 15.1147 6.82446 15.0254 6.86615L13.2545 7.69254C13.0086 7.80731 12.7359 7.59579 12.786 7.32905L13.1339 5.47318C13.1542 5.36503 13.1198 5.25385 13.042 5.17605L11.6132 3.74723C11.4237 3.55769 11.524 3.2333 11.7875 3.1839L13.6815 2.82877C13.7776 2.81075 13.861 2.75143 13.9095 2.66653Z" fill="#F1BD36"/>
<path d="M21.6794 3.13933C21.7093 3.0474 21.7887 2.98042 21.8844 2.96652L24.5711 2.5761L25.7726 0.141527C25.8154 0.0548607 25.9037 0 26.0003 0C26.097 0 26.1852 0.0548776 26.228 0.141527L27.4296 2.57612L30.1163 2.96652C30.2119 2.98042 30.2914 3.04742 30.3212 3.13933C30.3511 3.23124 30.3262 3.33215 30.257 3.3996L28.3129 5.29467L28.7718 7.97056C28.7881 8.06581 28.749 8.16209 28.6708 8.21888C28.5926 8.27567 28.489 8.28317 28.4034 8.23821L26.0003 6.97484L23.5974 8.23822C23.5602 8.25776 23.5196 8.26739 23.4792 8.26739C23.4266 8.26739 23.3742 8.25104 23.33 8.21889C23.2518 8.16209 23.2126 8.06582 23.2289 7.97056L23.6879 5.29467L21.7437 3.39962C21.6745 3.33215 21.6496 3.23124 21.6794 3.13933ZM24.138 5.02419C24.1978 5.08253 24.2251 5.16659 24.211 5.24895L23.8164 7.54931L25.8821 6.46323C25.9561 6.42435 26.0445 6.42435 26.1185 6.46323L28.1843 7.54933L27.7899 5.24894C27.7757 5.16657 27.803 5.08254 27.8629 5.02421L29.5341 3.39508L27.2245 3.05943C27.1418 3.04742 27.0703 2.99548 27.0333 2.92055L26.0003 0.827582L24.9674 2.92053C24.9304 2.99547 24.8589 3.04742 24.7762 3.05943L22.4666 3.39506L24.138 5.02419Z" fill="#F1BD36"/>
<path d="M24.7435 2.66653L25.7022 0.988659C25.8321 0.761458 26.1611 0.765604 26.2852 0.996005L27.0972 2.50406C27.1416 2.58664 27.2188 2.64666 27.3098 2.66941L29.3185 3.17157C29.5569 3.23117 29.651 3.51953 29.4937 3.70834L28.2596 5.18921C28.2005 5.26012 28.1735 5.35236 28.1849 5.44395L28.4255 7.36859C28.458 7.62873 28.1914 7.82286 27.9538 7.71199L26.1413 6.86615C26.0519 6.82446 25.9487 6.82446 25.8594 6.86615L24.0885 7.69254C23.8426 7.80731 23.5699 7.59579 23.6199 7.32905L23.9679 5.47318C23.9882 5.36503 23.9538 5.25385 23.876 5.17605L22.4472 3.74723C22.2576 3.55769 22.358 3.2333 22.6215 3.1839L24.5155 2.82877C24.6116 2.81075 24.6949 2.75143 24.7435 2.66653Z" fill="#F1BD36"/>
<path d="M32.5124 3.13933C32.5423 3.0474 32.6218 2.98042 32.7174 2.96652L35.4041 2.5761L36.6056 0.141527C36.6484 0.0548607 36.7367 0 36.8333 0C36.93 0 37.0182 0.0548776 37.061 0.141527L38.2626 2.57612L40.9493 2.96652C41.0449 2.98042 41.1244 3.04742 41.1542 3.13933C41.1841 3.23124 41.1592 3.33215 41.09 3.3996L39.146 5.29467L39.6048 7.97056C39.6211 8.06581 39.582 8.16209 39.5038 8.21888C39.4256 8.27567 39.322 8.28317 39.2364 8.23821L36.8333 6.97484L34.4304 8.23822C34.3932 8.25776 34.3526 8.26739 34.3122 8.26739C34.2596 8.26739 34.2072 8.25104 34.163 8.21889C34.0848 8.16209 34.0456 8.06582 34.0619 7.97056L34.5209 5.29467L32.5767 3.39962C32.5075 3.33215 32.4826 3.23124 32.5124 3.13933ZM34.971 5.02419C35.0308 5.08253 35.0582 5.16659 35.044 5.24895L34.6494 7.54931L36.7152 6.46323C36.7891 6.42435 36.8775 6.42435 36.9515 6.46323L39.0173 7.54933L38.6229 5.24894C38.6088 5.16657 38.6361 5.08254 38.6959 5.02421L40.3671 3.39508L38.0575 3.05943C37.9748 3.04742 37.9033 2.99548 37.8663 2.92055L36.8333 0.827582L35.8004 2.92053C35.7634 2.99547 35.6919 3.04742 35.6092 3.05943L33.2996 3.39506L34.971 5.02419Z" fill="#F1BD36"/>
<path d="M35.5765 2.66653L36.5353 0.988659C36.6651 0.761458 36.9941 0.765604 37.1182 0.996005L37.9302 2.50406C37.9747 2.58664 38.0519 2.64666 38.1428 2.66941L40.1515 3.17157C40.3899 3.23117 40.484 3.51953 40.3267 3.70834L39.0926 5.18921C39.0335 5.26012 39.0065 5.35236 39.0179 5.44395L39.2585 7.36859C39.291 7.62873 39.0244 7.82286 38.7868 7.71199L36.9743 6.86615C36.8849 6.82446 36.7817 6.82446 36.6924 6.86615L34.9215 7.69254C34.6756 7.80731 34.4029 7.59579 34.4529 7.32905L34.8009 5.47318C34.8212 5.36503 34.7868 5.25385 34.709 5.17605L33.2802 3.74723C33.0906 3.55769 33.191 3.2333 33.4545 3.1839L35.3485 2.82877C35.4446 2.81075 35.528 2.75143 35.5765 2.66653Z" fill="#F1BD36"/>
<path d="M43.3454 3.13933C43.3753 3.0474 43.4548 2.98042 43.5504 2.96652L46.2371 2.5761L47.4386 0.141527C47.4814 0.0548607 47.5697 0 47.6663 0C47.763 0 47.8512 0.0548776 47.894 0.141527L49.0956 2.57612L51.7823 2.96652C51.8779 2.98042 51.9574 3.04742 51.9872 3.13933C52.0171 3.23124 51.9922 3.33215 51.923 3.3996L49.979 5.29467L50.4378 7.97056C50.4542 8.0658 50.415 8.16209 50.3368 8.21888C50.2586 8.27567 50.155 8.28317 50.0694 8.23821L47.6663 6.97484L45.2634 8.23822C45.2262 8.25776 45.1857 8.26739 45.1452 8.26739C45.0926 8.26739 45.0402 8.25104 44.996 8.21889C44.9178 8.16209 44.8786 8.06582 44.8949 7.97056L45.3539 5.29467L43.4097 3.39962C43.3405 3.33215 43.3156 3.23124 43.3454 3.13933ZM45.804 5.02419C45.8638 5.08253 45.8912 5.16658 45.877 5.24895L45.4824 7.54931L47.5482 6.46323C47.6221 6.42435 47.7105 6.42435 47.7845 6.46323L49.8503 7.54933L49.4559 5.24894C49.4418 5.16657 49.4691 5.08254 49.5289 5.02421L51.2001 3.39508L48.8905 3.05943C48.8078 3.04742 48.7363 2.99548 48.6993 2.92055L47.6663 0.827582L46.6334 2.92053C46.5964 2.99547 46.5249 3.04742 46.4422 3.05943L44.1326 3.39506L45.804 5.02419Z" fill="#B4B4B4"/>
<path d="M46.4095 2.66653L47.3683 0.988659C47.4981 0.761458 47.8271 0.765604 47.9512 0.996005L48.7632 2.50406C48.8077 2.58664 48.8849 2.64666 48.9758 2.66941L50.9845 3.17157C51.2229 3.23117 51.317 3.51953 51.1597 3.70834L49.9256 5.18921C49.8665 5.26012 49.8395 5.35236 49.851 5.44395L50.0915 7.36859C50.1241 7.62873 49.8574 7.82286 49.6198 7.71199L47.8073 6.86615C47.7179 6.82446 47.6147 6.82446 47.5254 6.86615L45.7545 7.69254C45.5086 7.80731 45.2359 7.59579 45.286 7.32905L45.6339 5.47318C45.6542 5.36503 45.6198 5.25385 45.542 5.17605L44.1132 3.74723C43.9237 3.55769 44.024 3.2333 44.2875 3.1839L46.1815 2.82877C46.2776 2.81075 46.361 2.75143 46.4095 2.66653Z" fill="#B4B4B4"/>
</svg>
