<svg width="130" height="29" viewBox="0 0 130 29" fill="none" xmlns="http://www.w3.org/2000/svg">
<path d="M0.72266 28L0.72266 1.41625L5.86546 1.41625L5.86546 28H0.72266ZM4.50413 17.1094V12.5338L17.8905 12.5338V17.1094L4.50413 17.1094ZM4.50413 5.95402V1.41625L18.5334 1.41625V5.95402L4.50413 5.95402ZM29.0657 28.3781C27.4018 28.3781 25.9018 27.9622 24.5657 27.1303C23.2296 26.2983 22.1834 25.1639 21.4271 23.7269C20.6708 22.29 20.2927 20.6765 20.2927 18.8867C20.2927 17.0715 20.6708 15.4455 21.4271 14.0086C22.1834 12.5716 23.2296 11.4372 24.5657 10.6052C25.9018 9.7733 27.4018 9.35734 29.0657 9.35734C30.3766 9.35734 31.5488 9.62204 32.5824 10.1515C33.6161 10.6809 34.4354 11.4245 35.0404 12.3825C35.6707 13.3153 36.011 14.3741 36.0614 15.559L36.0614 22.1387C36.011 23.3488 35.6707 24.4202 35.0404 25.353C34.4354 26.2857 33.6161 27.0294 32.5824 27.584C31.5488 28.1134 30.3766 28.3781 29.0657 28.3781ZM29.9732 23.8026C31.3598 23.8026 32.4816 23.3488 33.3387 22.4412C34.1959 21.5085 34.6244 20.311 34.6244 18.8488C34.6244 17.8909 34.4228 17.0463 34.0194 16.3153C33.6413 15.559 33.0993 14.9791 32.3934 14.5758C31.7127 14.1472 30.906 13.9329 29.9732 13.9329C29.0657 13.9329 28.259 14.1472 27.5531 14.5758C26.8724 14.9791 26.3304 15.559 25.9271 16.3153C25.5489 17.0463 25.3598 17.8909 25.3598 18.8488C25.3598 19.832 25.5489 20.7018 25.9271 21.4581C26.3304 22.1891 26.8724 22.769 27.5531 23.1975C28.259 23.6009 29.0657 23.8026 29.9732 23.8026ZM34.3597 28V23.0841L35.1539 18.6219L34.3597 14.2354V9.73549L39.2757 9.73549L39.2757 28H34.3597ZM49.9353 28.416C48.9017 28.416 47.8807 28.2773 46.8723 28C45.8891 27.7227 44.9815 27.3445 44.1496 26.8656C43.3177 26.3614 42.5992 25.7563 41.9942 25.0505L44.9437 22.0631C45.574 22.769 46.3051 23.2984 47.137 23.6513C47.9689 24.0042 48.8891 24.1807 49.8975 24.1807C50.7042 24.1807 51.3092 24.0673 51.7126 23.8404C52.1411 23.6135 52.3554 23.2732 52.3554 22.8194C52.3554 22.3152 52.1285 21.9244 51.6747 21.6471C51.2462 21.3698 50.679 21.1429 49.9731 20.9665C49.2672 20.7648 48.5235 20.5505 47.742 20.3236C46.9857 20.0715 46.2546 19.7564 45.5488 19.3782C44.8429 18.9749 44.2631 18.4329 43.8093 17.7522C43.3807 17.0463 43.1664 16.1388 43.1664 15.0296C43.1664 13.8699 43.4437 12.8615 43.9984 12.0044C44.5782 11.1472 45.3975 10.4792 46.4563 10.0002C47.5151 9.52121 48.763 9.28171 50.2 9.28171C51.7126 9.28171 53.0739 9.54642 54.284 10.0758C55.5192 10.6052 56.5402 11.3993 57.347 12.4581L54.3596 15.4455C53.805 14.7648 53.1747 14.2733 52.4689 13.9707C51.7882 13.6682 51.0445 13.517 50.2378 13.517C49.5067 13.517 48.9395 13.6304 48.5361 13.8573C48.158 14.0842 47.9689 14.3993 47.9689 14.8027C47.9689 15.2564 48.1832 15.6094 48.6118 15.8615C49.0655 16.1136 49.6454 16.3405 50.3512 16.5421C51.0571 16.7186 51.7882 16.9329 52.5445 17.185C53.326 17.4119 54.0571 17.7396 54.7377 18.1682C55.4436 18.5967 56.0108 19.164 56.4394 19.8698C56.8932 20.5757 57.1201 21.4833 57.1201 22.5925C57.1201 24.3824 56.4772 25.8067 55.1915 26.8656C53.9058 27.8992 52.1537 28.416 49.9353 28.416ZM72.7503 28V17.5253C72.7503 16.4413 72.4099 15.559 71.7293 14.8783C71.0486 14.1976 70.1662 13.8573 69.0822 13.8573C68.3763 13.8573 67.7461 14.0086 67.1915 14.3111C66.6369 14.6136 66.1957 15.0422 65.868 15.5968C65.5655 16.1514 65.4142 16.7942 65.4142 17.5253L63.4856 16.5421C63.4856 15.1052 63.7882 13.8573 64.3932 12.7985C64.9982 11.7145 65.8302 10.8699 66.889 10.2649C67.973 9.65986 69.2083 9.35734 70.5948 9.35734C71.9814 9.35734 73.204 9.65986 74.2628 10.2649C75.3469 10.8699 76.1914 11.7019 76.7964 12.7607C77.4015 13.8195 77.704 15.0422 77.704 16.4287V28L72.7503 28ZM60.4605 28L60.4605 0.659955L65.4142 0.659955V28H60.4605ZM81.6943 28V9.73549H86.6859V28H81.6943ZM84.1901 6.78594C83.3834 6.78594 82.7153 6.52124 82.1859 5.99183C81.6565 5.43722 81.3918 4.75655 81.3918 3.94984C81.3918 3.16833 81.6565 2.50027 82.1859 1.94566C82.7153 1.39104 83.3834 1.11373 84.1901 1.11373C85.022 1.11373 85.6901 1.39104 86.1943 1.94566C86.7237 2.50027 86.9884 3.16833 86.9884 3.94984C86.9884 4.75655 86.7237 5.43722 86.1943 5.99183C85.6901 6.52124 85.022 6.78594 84.1901 6.78594ZM99.6581 28.3781C97.8178 28.3781 96.1539 27.9622 94.6665 27.1303C93.2044 26.2731 92.0321 25.1261 91.1498 23.6891C90.2926 22.227 89.8641 20.6009 89.8641 18.811C89.8641 17.0211 90.2926 15.4203 91.1498 14.0086C92.0069 12.5716 93.1792 11.4372 94.6665 10.6052C96.1539 9.74809 97.8052 9.31953 99.6203 9.31953C101.486 9.31953 103.15 9.74809 104.612 10.6052C106.099 11.4372 107.271 12.5716 108.129 14.0086C108.986 15.4203 109.414 17.0211 109.414 18.811C109.414 20.6009 108.986 22.227 108.129 23.6891C107.271 25.1261 106.099 26.2731 104.612 27.1303C103.15 27.9622 101.498 28.3781 99.6581 28.3781ZM99.6203 23.7648C100.553 23.7648 101.372 23.5631 102.078 23.1597C102.809 22.7311 103.364 22.1513 103.742 21.4202C104.145 20.6639 104.347 19.8068 104.347 18.8488C104.347 17.8909 104.145 17.0463 103.742 16.3153C103.339 15.5842 102.784 15.0169 102.078 14.6136C101.372 14.185 100.553 13.9707 99.6203 13.9707C98.7127 13.9707 97.906 14.185 97.2001 14.6136C96.4942 15.0169 95.9396 15.5842 95.5363 16.3153C95.1329 17.0463 94.9312 17.8909 94.9312 18.8488C94.9312 19.8068 95.1329 20.6639 95.5363 21.4202C95.9396 22.1513 96.4942 22.7311 97.2001 23.1597C97.906 23.5631 98.7127 23.7648 99.6203 23.7648ZM124.893 28V17.5253C124.893 16.4413 124.553 15.559 123.872 14.8783C123.192 14.1976 122.309 13.8573 121.225 13.8573C120.519 13.8573 119.889 14.0086 119.334 14.3111C118.78 14.6136 118.339 15.0422 118.011 15.5968C117.708 16.1514 117.557 16.7942 117.557 17.5253L115.629 16.5421C115.629 15.1052 115.931 13.8573 116.536 12.7985C117.166 11.7145 118.024 10.8699 119.108 10.2649C120.217 9.65986 121.465 9.35734 122.851 9.35734C124.187 9.35734 125.385 9.69767 126.444 10.3783C127.502 11.0338 128.334 11.9035 128.939 12.9876C129.544 14.0464 129.847 15.1934 129.847 16.4287V28H124.893ZM112.603 28V9.73549L117.557 9.73549V28H112.603Z" fill="#3E4F46"/>
</svg>
