<svg width="9" height="6" viewBox="0 0 9 6" fill="none" xmlns="http://www.w3.org/2000/svg">
<path d="M8.68754 1.3529C8.8828 1.15764 8.8828 0.841058 8.68754 0.645796C8.49228 0.450533 8.17569 0.450533 7.98043 0.645796L8.68754 1.3529ZM4.66732 4.66602L4.31376 5.01957L4.66732 5.37312L5.02087 5.01957L4.66732 4.66602ZM1.35421 0.645795C1.15894 0.450533 0.84236 0.450533 0.647098 0.645795C0.451836 0.841057 0.451836 1.15764 0.647098 1.3529L1.35421 0.645795ZM7.98043 0.645796L4.31376 4.31246L5.02087 5.01957L8.68754 1.3529L7.98043 0.645796ZM5.02087 4.31246L1.35421 0.645795L0.647098 1.3529L4.31376 5.01957L5.02087 4.31246Z" fill="#D8D1C9"/>
</svg>
