<svg width="12" height="12" viewBox="0 0 12 12" fill="none" xmlns="http://www.w3.org/2000/svg">
<g clip-path="url(#clip0_6_4959)">
<path fill-rule="evenodd" clip-rule="evenodd" d="M6.00018 -2.18479e-07C5.72404 -4.53416e-06 5.50018 0.22385 5.50017 0.499992L5.50002 10.2678L4.35864 9.09287C4.16622 8.8948 3.84967 8.89022 3.6516 9.08263C3.45353 9.27504 3.44895 9.59159 3.64136 9.78966L5.64136 11.8484C5.73551 11.9454 5.86488 12 6 12C6.13512 12 6.26449 11.9454 6.35864 11.8484L8.35863 9.78966C8.55105 9.59159 8.54646 9.27505 8.3484 9.08263C8.15033 8.89022 7.83378 8.8948 7.64136 9.09287L6.50002 10.2678L6.50017 0.500008C6.50018 0.223865 6.27632 4.127e-06 6.00018 -2.18479e-07Z" fill="white"/>
</g>
<defs>
<clipPath id="clip0_6_4959">
<rect width="12" height="12" fill="white" transform="matrix(1 0 0 -1 0 12)"/>
</clipPath>
</defs>
</svg>
