<svg width="19" height="19" viewBox="0 0 19 19" fill="none" xmlns="http://www.w3.org/2000/svg">
<path fill-rule="evenodd" clip-rule="evenodd" d="M9.50007 14.2498C12.7661 14.2498 15.0886 12.1975 16.4487 10.4883C16.9205 9.89553 16.9205 9.10415 16.4487 8.51133C15.0886 6.80214 12.7661 4.74984 9.50007 4.74984C6.23405 4.74984 3.91153 6.80214 2.5514 8.51133C2.07965 9.10415 2.07965 9.89553 2.5514 10.4883C3.91153 12.1975 6.23405 14.2498 9.50007 14.2498ZM17.6877 11.4743C18.6186 10.3044 18.6186 8.6953 17.6877 7.52542C16.2086 5.66679 13.4794 3.1665 9.50007 3.1665C5.52073 3.1665 2.79153 5.66679 1.31248 7.52542C0.381517 8.6953 0.381517 10.3044 1.31248 11.4743C2.79153 13.3329 5.52073 15.8332 9.50007 15.8332C13.4794 15.8332 16.2086 13.3329 17.6877 11.4743Z" fill="white"/>
<path fill-rule="evenodd" clip-rule="evenodd" d="M11.083 9.50016C11.083 10.3746 10.3741 11.0835 9.49967 11.0835C8.62522 11.0835 7.91634 10.3746 7.91634 9.50016C7.91634 9.47769 7.91681 9.45533 7.91774 9.43308C8.04115 9.47653 8.1739 9.50016 8.31217 9.50016C8.96801 9.50016 9.49967 8.9685 9.49967 8.31266C9.49967 8.17439 9.47604 8.04164 9.4326 7.91822C9.45484 7.9173 9.4772 7.91683 9.49967 7.91683C10.3741 7.91683 11.083 8.62571 11.083 9.50016ZM12.6663 9.50016C12.6663 11.2491 11.2486 12.6668 9.49967 12.6668C7.75077 12.6668 6.33301 11.2491 6.33301 9.50016C6.33301 7.75126 7.75077 6.3335 9.49967 6.3335C11.2486 6.3335 12.6663 7.75126 12.6663 9.50016Z" fill="white"/>
</svg>
