<svg width="8" height="8" viewBox="0 0 8 8" fill="none" xmlns="http://www.w3.org/2000/svg">
<g clip-path="url(#clip0_6_4824)">
<path fill-rule="evenodd" clip-rule="evenodd" d="M7.72754 3.99989C7.72754 3.82416 7.58508 3.68171 7.40936 3.68171L1.1775 3.68171L3.17972 1.67942C3.30397 1.55516 3.30397 1.3537 3.17971 1.22944C3.05545 1.10519 2.85399 1.10519 2.72973 1.22945L0.184364 3.7749C0.0601117 3.89916 0.0601116 4.10062 0.184364 4.22487L2.72973 6.77033C2.85399 6.89459 3.05545 6.89459 3.17971 6.77034C3.30397 6.64608 3.30397 6.44462 3.17972 6.32036L1.1775 4.31807L7.40936 4.31807C7.58508 4.31807 7.72754 4.17562 7.72754 3.99989Z" fill="white"/>
</g>
<defs>
<clipPath id="clip0_6_4824">
<rect width="7.63636" height="7.63636" fill="white" transform="matrix(-1 0 0 1 7.72754 0.181763)"/>
</clipPath>
</defs>
</svg>
