<svg width="11" height="11" viewBox="0 0 11 11" fill="none" xmlns="http://www.w3.org/2000/svg">
<path fill-rule="evenodd" clip-rule="evenodd" d="M8.13449 3.27492H2.24988C1.65875 3.27492 1.1902 3.77367 1.22707 4.36365L1.48327 8.46285C1.51703 9.00296 1.96492 9.42373 2.50608 9.42373H7.87829C8.41945 9.42373 8.86734 9.00296 8.90109 8.46285L9.15729 4.36365C9.19417 3.77367 8.72561 3.27492 8.13449 3.27492ZM2.24988 2.25012C1.06762 2.25012 0.130521 3.24762 0.204268 4.42758L0.460469 8.52678C0.527982 9.60699 1.42376 10.4485 2.50608 10.4485H7.87829C8.96061 10.4485 9.85638 9.60699 9.9239 8.52678L10.1801 4.42757C10.2538 3.24762 9.31674 2.25012 8.13449 2.25012H2.24988Z" fill="white"/>
<path fill-rule="evenodd" clip-rule="evenodd" d="M2.62988 2.76256C2.62988 1.34761 3.77693 0.200562 5.19189 0.200562C6.60684 0.200562 7.75389 1.34761 7.75389 2.76256V3.78736C7.75389 4.07036 7.52448 4.29977 7.24149 4.29977C6.9585 4.29977 6.72909 4.07036 6.72909 3.78736V2.76256C6.72909 1.91359 6.04086 1.22536 5.19189 1.22536C4.34291 1.22536 3.65468 1.91359 3.65468 2.76256V3.78736C3.65468 4.07036 3.42527 4.29977 3.14228 4.29977C2.85929 4.29977 2.62988 4.07036 2.62988 3.78736V2.76256Z" fill="white"/>
</svg>
