<svg width="12" height="12" viewBox="0 0 12 12" fill="none" xmlns="http://www.w3.org/2000/svg">
<g clip-path="url(#clip0_6_4957)">
<path fill-rule="evenodd" clip-rule="evenodd" d="M6.00018 12C5.72404 12 5.50018 11.7762 5.50017 11.5L5.50002 1.7322L4.35864 2.90713C4.16622 3.1052 3.84967 3.10978 3.6516 2.91737C3.45353 2.72496 3.44895 2.40841 3.64136 2.21034L5.64136 0.15156C5.73551 0.0546439 5.86488 -4.36386e-05 6 -4.36505e-05C6.13512 -4.36623e-05 6.26449 0.0546438 6.35864 0.15156L8.35863 2.21034C8.55105 2.40841 8.54646 2.72495 8.3484 2.91737C8.15033 3.10978 7.83378 3.1052 7.64136 2.90713L6.50002 1.73224L6.50017 11.5C6.50018 11.7761 6.27632 12 6.00018 12Z" fill="white"/>
</g>
<defs>
<clipPath id="clip0_6_4957">
<rect width="12" height="12" fill="white"/>
</clipPath>
</defs>
</svg>
