<svg width="33" height="33" viewBox="0 0 33 33" fill="none" xmlns="http://www.w3.org/2000/svg">
<path fill-rule="evenodd" clip-rule="evenodd" d="M18.56 7.80894L17.5147 6.43038C16.9844 5.73095 15.9329 5.73095 15.4026 6.43038L14.3573 7.80894C13.7496 8.61037 12.7568 9.02159 11.7604 8.8846L10.0465 8.64894C9.17693 8.52938 8.43343 9.27288 8.553 10.1425L8.78865 11.8564C8.92565 12.8528 8.51442 13.8456 7.71299 14.4532L6.33444 15.4985C5.63501 16.0289 5.63501 17.0803 6.33444 17.6107L7.71299 18.656C8.51442 19.2637 8.92565 20.2565 8.78865 21.2528L8.553 22.9668C8.43343 23.8364 9.17694 24.5798 10.0465 24.4603L11.7604 24.2246C12.7568 24.0876 13.7496 24.4989 14.3573 25.3003L15.4026 26.6788C15.9329 27.3783 16.9844 27.3783 17.5147 26.6789L18.56 25.3003C19.1677 24.4989 20.1605 24.0876 21.1569 24.2246L22.8708 24.4603C23.7404 24.5798 24.4839 23.8363 24.3643 22.9668L24.1287 21.2528C23.9917 20.2565 24.4029 19.2637 25.2043 18.656L26.5829 17.6107C27.2823 17.0803 27.2823 16.0289 26.5829 15.4985L25.2043 14.4532C24.4029 13.8456 23.9917 12.8528 24.1287 11.8564L24.3643 10.1425C24.4839 9.27288 23.7404 8.52938 22.8708 8.64894L21.1569 8.8846C20.1605 9.02159 19.1677 8.61036 18.56 7.80894ZM19.6269 4.82884C18.0359 2.73056 14.8815 2.73056 13.2904 4.82884L12.2451 6.20739C12.2162 6.24556 12.1689 6.26514 12.1215 6.25862L10.4076 6.02296C7.79883 5.66428 5.56833 7.89478 5.92702 10.5035L6.16267 12.2174C6.16919 12.2649 6.14961 12.3122 6.11145 12.3411L4.73289 13.3864C2.63461 14.9774 2.63461 18.1318 4.73289 19.7228L6.11145 20.7681C6.14961 20.7971 6.16919 20.8443 6.16267 20.8918L5.92702 22.6057C5.56833 25.2145 7.79883 27.445 10.4076 27.0863L12.1215 26.8506C12.1689 26.8441 12.2162 26.8637 12.2451 26.9018L13.2904 28.2804C14.8815 30.3787 18.0359 30.3787 19.6269 28.2804L20.6722 26.9018C20.7011 26.8637 20.7484 26.8441 20.7958 26.8506L22.5098 27.0863C25.1185 27.445 27.349 25.2144 26.9903 22.6057L26.7547 20.8918C26.7481 20.8443 26.7677 20.7971 26.8059 20.7681L28.1844 19.7228C30.2827 18.1318 30.2827 14.9774 28.1844 13.3864L26.8059 12.3411C26.7677 12.3122 26.7481 12.2649 26.7547 12.2174L26.9903 10.5035C27.349 7.89478 25.1185 5.66428 22.5098 6.02296L20.7958 6.25862C20.7484 6.26514 20.7011 6.24556 20.6722 6.20739L19.6269 4.82884Z" fill="#173334"/>
<path d="M20.0468 14.8411L14.7454 20.1425C14.2278 20.6601 13.3887 20.6601 12.8711 20.1425C12.3535 19.6249 12.3535 18.7857 12.8711 18.2682L18.1725 12.9668C18.69 12.4492 19.5292 12.4492 20.0468 12.9668C20.5644 13.4844 20.5644 14.3235 20.0468 14.8411Z" fill="#173334"/>
<path d="M15.1336 13.904C15.1336 14.6359 14.5402 15.2293 13.8083 15.2293C13.0763 15.2293 12.4829 14.6359 12.4829 13.904C12.4829 13.172 13.0763 12.5786 13.8083 12.5786C14.5402 12.5786 15.1336 13.172 15.1336 13.904Z" fill="#173334"/>
<path d="M17.7843 19.2053C17.7843 19.9373 18.3777 20.5307 19.1096 20.5307C19.8416 20.5307 20.435 19.9373 20.435 19.2053C20.435 18.4734 19.8416 17.88 19.1096 17.88C18.3777 17.88 17.7843 18.4734 17.7843 19.2053Z" fill="#173334"/>
</svg>
