<svg width="33" height="33" viewBox="0 0 33 33" fill="none" xmlns="http://www.w3.org/2000/svg">
<path fill-rule="evenodd" clip-rule="evenodd" d="M3.24711 18.107C3.77907 17.575 4.64154 17.575 5.17349 18.107L9.65893 22.5924C10.1909 23.1244 10.1909 23.9868 9.65893 24.5188C9.12698 25.0508 8.26451 25.0508 7.73255 24.5188L3.24711 20.0334C2.71516 19.5014 2.71516 18.6389 3.24711 18.107Z" fill="#173334"/>
<path d="M29.7299 7.73458C30.2401 7.18178 30.2057 6.32 29.6529 5.80973C29.1001 5.29946 28.2383 5.33393 27.728 5.88673L12.3061 22.5939C11.7958 23.1466 11.8303 24.0084 12.3831 24.5187C12.9359 25.029 13.7976 24.9945 14.3079 24.4417L23.7106 14.2554C23.973 13.9712 24.4192 13.9623 24.6927 14.2358L26.4037 15.9468C26.9356 16.4787 27.7981 16.4787 28.3301 15.9468C28.862 15.4148 28.862 14.5524 28.3301 14.0204L26.5035 12.1938C26.245 11.9353 26.2367 11.5189 26.4846 11.2503L29.7299 7.73458Z" fill="#173334"/>
<path fill-rule="evenodd" clip-rule="evenodd" d="M8.13123 17.5429L5.73743 15.1491C4.14156 13.5532 4.14156 10.9658 5.73743 9.36995L10.8555 4.25183C12.4514 2.65596 15.0388 2.65597 16.6347 4.25183L19.0285 6.64563C20.6244 8.2415 20.6244 10.8289 19.0285 12.4248L13.9104 17.5429C12.3145 19.1388 9.72709 19.1388 8.13123 17.5429ZM7.66381 13.2227L10.0576 15.6165C10.5896 16.1485 11.452 16.1485 11.984 15.6165L17.1021 10.4984C17.6341 9.96644 17.6341 9.10397 17.1021 8.57201L14.7083 6.17822C14.1763 5.64626 13.3139 5.64626 12.7819 6.17821L7.66381 11.2963C7.13185 11.8283 7.13185 12.6908 7.66381 13.2227Z" fill="#173334"/>
<path fill-rule="evenodd" clip-rule="evenodd" d="M11.021 27.2431C11.7733 27.2431 12.3832 26.6332 12.3832 25.8809C12.3832 25.1286 11.7733 24.5187 11.021 24.5187C10.2687 24.5187 9.65889 25.1286 9.65889 25.8809C9.65889 26.6332 10.2687 27.2431 11.021 27.2431ZM11.021 29.9674C13.2779 29.9674 15.1075 28.1378 15.1075 25.8809C15.1075 23.624 13.2779 21.7944 11.021 21.7944C8.76415 21.7944 6.93457 23.624 6.93457 25.8809C6.93457 28.1378 8.76415 29.9674 11.021 29.9674Z" fill="#173334"/>
</svg>
