<svg width="12" height="6" viewBox="0 0 12 6" fill="none" xmlns="http://www.w3.org/2000/svg">
<path fill-rule="evenodd" clip-rule="evenodd" d="M12 3.00018C12 2.72404 11.7762 2.50018 11.5 2.50017L1.7322 2.50002L2.90713 1.35863C3.1052 1.16622 3.10978 0.849671 2.91737 0.651602C2.72496 0.453533 2.40841 0.448949 2.21034 0.641363L0.15156 2.64136C0.054644 2.73551 -4.35235e-05 2.86488 -4.35412e-05 3C-4.35589e-05 3.13512 0.0546439 3.26448 0.15156 3.35863L2.21034 5.35863C2.40841 5.55105 2.72495 5.54646 2.91737 5.3484C3.10978 5.15033 3.1052 4.83378 2.90713 4.64136L1.73224 3.50002L11.5 3.50017C11.7761 3.50018 12 3.27632 12 3.00018Z" fill="white"/>
</svg>
