<svg width="21" height="21" viewBox="0 0 21 21" fill="none" xmlns="http://www.w3.org/2000/svg">
<path fill-rule="evenodd" clip-rule="evenodd" d="M2.00628 11.6313C2.34799 11.2896 2.90201 11.2896 3.24372 11.6313L6.125 14.5126C6.46671 14.8543 6.46671 15.4083 6.125 15.75C5.78329 16.0917 5.22927 16.0917 4.88756 15.75L2.00628 12.8687C1.66457 12.527 1.66457 11.973 2.00628 11.6313Z" fill="white"/>
<path d="M19.0182 4.9685C19.346 4.61341 19.3238 4.05983 18.9687 3.73205C18.6137 3.40427 18.0601 3.42642 17.7323 3.78151L7.8258 14.5136C7.49802 14.8687 7.52017 15.4222 7.87526 15.75C8.23035 16.0778 8.78393 16.0556 9.11171 15.7005L15.1517 9.15725C15.3202 8.97466 15.6068 8.96894 15.7825 9.14464L16.8816 10.2437C17.2233 10.5854 17.7773 10.5854 18.119 10.2437C18.4607 9.90201 18.4607 9.34799 18.119 9.00628L16.9457 7.83296C16.7796 7.66691 16.7743 7.3994 16.9336 7.22685L19.0182 4.9685Z" fill="white"/>
<path fill-rule="evenodd" clip-rule="evenodd" d="M5.14442 11.2684L3.60674 9.73076C2.58161 8.70563 2.58161 7.04358 3.60673 6.01845L6.89443 2.73076C7.91955 1.70563 9.58161 1.70563 10.6067 2.73076L12.1444 4.26845C13.1695 5.29357 13.1695 6.95563 12.1444 7.98076L8.85673 11.2685C7.83161 12.2936 6.16955 12.2936 5.14442 11.2684ZM4.84417 8.49332L6.38186 10.031C6.72357 10.3727 7.27759 10.3727 7.6193 10.031L10.907 6.74332C11.2487 6.40161 11.2487 5.84759 10.907 5.50588L9.3693 3.9682C9.02759 3.62649 8.47357 3.62649 8.13186 3.96819L4.84417 7.25589C4.50246 7.59759 4.50246 8.15161 4.84417 8.49332Z" fill="white"/>
<path fill-rule="evenodd" clip-rule="evenodd" d="M7 17.5C7.48325 17.5 7.875 17.1082 7.875 16.625C7.875 16.1418 7.48325 15.75 7 15.75C6.51675 15.75 6.125 16.1418 6.125 16.625C6.125 17.1082 6.51675 17.5 7 17.5ZM7 19.25C8.44975 19.25 9.625 18.0747 9.625 16.625C9.625 15.1753 8.44975 14 7 14C5.55025 14 4.375 15.1753 4.375 16.625C4.375 18.0747 5.55025 19.25 7 19.25Z" fill="white"/>
</svg>
