<svg width="18" height="18" viewBox="0 0 18 18" fill="none" xmlns="http://www.w3.org/2000/svg">
<path d="M15.7142 9.00004C16.3349 8.61128 16.86 8.08756 17.2503 7.46783C17.6407 6.84811 17.8863 6.14834 17.9688 5.42059C18.0513 4.69284 17.9687 3.95584 17.7271 3.26444C17.4854 2.57303 17.091 1.94502 16.5731 1.42712C16.0552 0.909226 15.4272 0.51478 14.7358 0.273133C14.0443 0.0314857 13.3074 -0.0511414 12.5796 0.0313995C11.8519 0.11394 11.1521 0.359524 10.5324 0.749879C9.91264 1.14023 9.38891 1.66531 9.00016 2.28604C8.6114 1.66531 8.08768 1.14023 7.46796 0.749879C6.84823 0.359524 6.14846 0.11394 5.42071 0.0313995C4.69296 -0.0511414 3.95597 0.0314857 3.26456 0.273133C2.57316 0.51478 1.94514 0.909226 1.42724 1.42712C0.909348 1.94502 0.514902 2.57303 0.273255 3.26444C0.0316078 3.95584 -0.0510194 4.69284 0.0315216 5.42059C0.114062 6.14834 0.359646 6.84811 0.750001 7.46783C1.14035 8.08756 1.66543 8.61128 2.28616 9.00004C1.66543 9.38879 1.14035 9.91251 0.750001 10.5322C0.359646 11.152 0.114062 11.8517 0.0315216 12.5795C-0.0510194 13.3072 0.0316078 14.0442 0.273255 14.7356C0.514902 15.427 0.909348 16.0551 1.42724 16.5729C1.94514 17.0908 2.57316 17.4853 3.26456 17.7269C3.95597 17.9686 4.69296 18.0512 5.42071 17.9687C6.14846 17.8861 6.84823 17.6405 7.46796 17.2502C8.08768 16.8598 8.6114 16.3348 9.00016 15.714C9.38891 16.3348 9.91264 16.8598 10.5324 17.2502C11.1521 17.6405 11.8519 17.8861 12.5796 17.9687C13.3074 18.0512 14.0443 17.9686 14.7358 17.7269C15.4272 17.4853 16.0552 17.0908 16.5731 16.5729C17.091 16.0551 17.4854 15.427 17.7271 14.7356C17.9687 14.0442 18.0513 13.3072 17.9688 12.5795C17.8863 11.8517 17.6407 11.152 17.2503 10.5322C16.86 9.91251 16.3349 9.38879 15.7142 9.00004ZM13.1244 1.50079C13.969 1.53483 14.77 1.88452 15.3691 2.48073C15.9682 3.07693 16.3219 3.87625 16.36 4.72062C16.3982 5.56499 16.1182 6.39295 15.5753 7.04078C15.0324 7.68862 14.2662 8.10917 13.4282 8.21929C13.2674 7.31078 12.8313 6.47363 12.1789 5.82125C11.5266 5.16886 10.6894 4.73276 9.78091 4.57204C9.85645 3.73598 10.2408 2.95809 10.8591 2.39021C11.4773 1.82232 12.285 1.50522 13.1244 1.50079ZM1.50091 4.87579C1.53495 4.03124 1.88465 3.23021 2.48085 2.63108C3.07706 2.03194 3.87637 1.67833 4.72074 1.64016C5.56511 1.60198 6.39307 1.88202 7.04091 2.42491C7.68874 2.9678 8.1093 3.73401 8.21941 4.57204C7.3109 4.73276 6.47375 5.16886 5.82137 5.82125C5.16898 6.47363 4.73289 7.31078 4.57216 8.21929C3.73611 8.14375 2.95821 7.75935 2.39033 7.14112C1.82245 6.5229 1.50534 5.71523 1.50091 4.87579ZM4.87591 16.4993C4.03136 16.4652 3.23033 16.1155 2.6312 15.5193C2.03207 14.9231 1.67845 14.1238 1.64028 13.2795C1.6021 12.4351 1.88215 11.6071 2.42503 10.9593C2.96792 10.3115 3.73413 9.8909 4.57216 9.78079C4.73289 10.6893 5.16898 11.5264 5.82137 12.1788C6.47375 12.8312 7.3109 13.2673 8.21941 13.428C8.14387 14.2641 7.75947 15.042 7.14124 15.6099C6.52302 16.1777 5.71535 16.4949 4.87591 16.4993ZM9.00016 11.9993C8.40696 11.9993 7.82709 11.8234 7.33386 11.4938C6.84064 11.1643 6.45622 10.6958 6.22921 10.1478C6.00221 9.59976 5.94281 8.99671 6.05854 8.41491C6.17426 7.83311 6.45992 7.2987 6.87937 6.87925C7.29882 6.45979 7.83324 6.17414 8.41503 6.05842C8.99683 5.94269 9.59988 6.00208 10.1479 6.22909C10.696 6.4561 11.1644 6.84052 11.4939 7.33374C11.8235 7.82697 11.9994 8.40684 11.9994 9.00004C11.9994 9.79549 11.6834 10.5584 11.1209 11.1208C10.5585 11.6833 9.79561 11.9993 9.00016 11.9993ZM13.1244 16.4993C12.285 16.4949 11.4773 16.1777 10.8591 15.6099C10.2408 15.042 9.85645 14.2641 9.78091 13.428C10.6894 13.2673 11.5266 12.8312 12.1789 12.1788C12.8313 11.5264 13.2674 10.6893 13.4282 9.78079C14.2662 9.8909 15.0324 10.3115 15.5753 10.9593C16.1182 11.6071 16.3982 12.4351 16.36 13.2795C16.3219 14.1238 15.9682 14.9231 15.3691 15.5193C14.77 16.1155 13.969 16.4652 13.1244 16.4993Z" fill="#B5C547"/>
</svg>
