<svg width="24" height="24" viewBox="0 0 24 24" fill="none" xmlns="http://www.w3.org/2000/svg">
<path fill-rule="evenodd" clip-rule="evenodd" d="M8.9993 11.0292C9.02013 11.5811 8.58962 12.0454 8.03773 12.0662C6.79354 12.1132 5.88545 12.1791 5.23437 12.244C4.59318 12.3079 4.20739 12.695 4.14143 13.2345C4.06365 13.8708 4 14.7683 4 16C4 17.2317 4.06366 18.1292 4.14144 18.7655C4.20736 19.3048 4.59333 19.6921 5.23467 19.7559C6.44321 19.8763 8.53118 20 12 20C15.4688 20 17.5568 19.8763 18.7653 19.7559C19.4067 19.6921 19.7926 19.3048 19.8586 18.7655C19.9363 18.1292 20 17.2317 20 16C20 14.7683 19.9363 13.8708 19.8586 13.2345C19.7926 12.695 19.4068 12.3079 18.7656 12.244C18.1145 12.1791 17.2065 12.1132 15.9623 12.0662C15.4104 12.0454 14.9799 11.5811 15.0007 11.0292C15.0215 10.4773 15.4858 10.0468 16.0377 10.0676C17.3148 10.1158 18.2646 10.1842 18.9639 10.2538C20.4341 10.4003 21.6523 11.4253 21.8438 12.9919C21.9329 13.7211 22 14.7008 22 16C22 17.2992 21.9329 18.2789 21.8438 19.0082C21.6523 20.5748 20.4334 21.5997 18.9636 21.7461C17.6693 21.875 15.5115 22 12 22C8.48847 22 6.33068 21.875 5.03643 21.7461C3.56655 21.5997 2.34774 20.5748 2.15621 19.0082C2.06707 18.2789 2 17.2992 2 16C2 14.7008 2.06707 13.7211 2.15621 12.9919C2.3477 11.4253 3.56595 10.4003 5.03612 10.2538C5.73543 10.1842 6.68525 10.1158 7.96228 10.0676C8.51418 10.0468 8.97846 10.4773 8.9993 11.0292Z" fill="white"/>
<path fill-rule="evenodd" clip-rule="evenodd" d="M9.20711 7.20711C8.81658 7.59763 8.18342 7.59763 7.79289 7.20711C7.40237 6.81658 7.40237 6.18342 7.79289 5.79289L11.2929 2.29289C11.6834 1.90237 12.3166 1.90237 12.7071 2.29289L16.2071 5.79289C16.5976 6.18342 16.5976 6.81658 16.2071 7.20711C15.8166 7.59763 15.1834 7.59763 14.7929 7.20711L13 5.41421L13 15C13 15.5523 12.5523 16 12 16C11.4477 16 11 15.5523 11 15L11 5.41421L9.20711 7.20711Z" fill="white"/>
</svg>
