<svg width="5" height="5" viewBox="0 0 5 5" fill="none" xmlns="http://www.w3.org/2000/svg">
<path d="M3 0.499979C3 0.223848 2.77614 0 2.5 0C2.22386 0 2 0.223848 2 0.499979L2 3.29297L0.853554 2.14657C0.658291 1.95131 0.341709 1.95131 0.146447 2.14657C-0.0488155 2.34182 -0.0488156 2.65839 0.146447 2.85364L2.14645 4.85356C2.24021 4.94732 2.36739 5 2.5 5C2.63261 5 2.75978 4.94732 2.85355 4.85356L4.85355 2.85364C5.04882 2.65839 5.04882 2.34182 4.85355 2.14657C4.65829 1.95131 4.34171 1.95131 4.14645 2.14657L3 3.29297L3 0.499979Z" fill="black"/>
</svg>
