<svg width="17" height="18" viewBox="0 0 17 18" fill="none" xmlns="http://www.w3.org/2000/svg">
<path fill-rule="evenodd" clip-rule="evenodd" d="M4.21665 9C3.9978 9 3.83133 9.20808 3.86731 9.43665L4.54572 13.7466C4.65957 14.4699 5.25059 15 5.94311 15H11.0594C11.7519 15 12.3429 14.4699 12.4568 13.7466L13.1352 9.43665C13.1712 9.20808 13.0047 9 12.7859 9H4.21665ZM2.96241 7.5C2.52471 7.5 2.19176 7.91615 2.26372 8.3733L3.14833 13.9932C3.37603 15.4398 4.55807 16.5 5.94311 16.5H11.0594C12.4444 16.5 13.6265 15.4398 13.8542 13.9932L14.7388 8.3733C14.8107 7.91615 14.4778 7.5 14.0401 7.5H2.96241Z" fill="white"/>
<path d="M7.08333 10.5C6.69213 10.5 6.375 10.8358 6.375 11.25V12.75C6.375 13.1642 6.69213 13.5 7.08333 13.5C7.47453 13.5 7.79167 13.1642 7.79167 12.75V11.25C7.79167 10.8358 7.47453 10.5 7.08333 10.5Z" fill="white"/>
<path d="M9.91667 10.5C9.52547 10.5 9.20833 10.8358 9.20833 11.25V12.75C9.20833 13.1642 9.52547 13.5 9.91667 13.5C10.3079 13.5 10.625 13.1642 10.625 12.75V11.25C10.625 10.8358 10.3079 10.5 9.91667 10.5Z" fill="white"/>
<path d="M7.5855 2.78033C7.86212 2.48744 7.86212 2.01256 7.5855 1.71967C7.30888 1.42678 6.86039 1.42678 6.58377 1.71967L3.75043 4.71967C3.47381 5.01256 3.47381 5.48744 3.75043 5.78033C4.02706 6.07322 4.47555 6.07322 4.75217 5.78033L7.5855 2.78033Z" fill="white"/>
<path d="M9.4171 2.78033C9.14048 2.48744 9.14048 2.01256 9.4171 1.71967C9.69372 1.42678 10.1422 1.42678 10.4188 1.71967L13.2522 4.71967C13.5288 5.01256 13.5288 5.48744 13.2522 5.78033C12.9755 6.07322 12.5271 6.07322 12.2504 5.78033L9.4171 2.78033Z" fill="white"/>
<path fill-rule="evenodd" clip-rule="evenodd" d="M13.4596 6H3.54297C3.15177 6 2.83464 6.33579 2.83464 6.75C2.83464 7.16421 3.15177 7.5 3.54297 7.5H13.4596C13.8508 7.5 14.168 7.16421 14.168 6.75C14.168 6.33579 13.8508 6 13.4596 6ZM3.54297 4.5C2.36936 4.5 1.41797 5.50736 1.41797 6.75C1.41797 7.99264 2.36936 9 3.54297 9H13.4596C14.6332 9 15.5846 7.99264 15.5846 6.75C15.5846 5.50736 14.6332 4.5 13.4596 4.5H3.54297Z" fill="white"/>
</svg>
