<svg width="10" height="8" viewBox="0 0 10 8" fill="none" xmlns="http://www.w3.org/2000/svg">
<path fill-rule="evenodd" clip-rule="evenodd" d="M5.31473 1.76137C5.13885 1.92834 4.86115 1.92834 4.68527 1.76137L4.37055 1.46259C4.00217 1.11287 3.50452 0.899334 2.95455 0.899334C1.82487 0.899334 0.909091 1.80529 0.909091 2.92284C0.909091 3.99423 1.49536 4.87891 2.34171 5.6058C3.18878 6.33331 4.20155 6.8158 4.80666 7.06205C4.93318 7.11354 5.06682 7.11354 5.19334 7.06205C5.79845 6.8158 6.81122 6.33331 7.65829 5.6058C8.50464 4.87891 9.09091 3.99422 9.09091 2.92284C9.09091 1.80529 8.17513 0.899334 7.04545 0.899334C6.49548 0.899334 5.99783 1.11287 5.62946 1.46259L5.31473 1.76137ZM5 0.813705C4.46914 0.309733 3.74841 0 2.95455 0C1.3228 0 0 1.3086 0 2.92284C0 5.78643 3.16834 7.3678 4.46081 7.89376C4.80889 8.03541 5.19111 8.03541 5.53919 7.89376C6.83166 7.3678 10 5.78643 10 2.92284C10 1.3086 8.67721 0 7.04545 0C6.25159 0 5.53086 0.309733 5 0.813705Z" fill="white"/>
</svg>
