<svg width="18" height="18" viewBox="0 0 18 18" fill="none" xmlns="http://www.w3.org/2000/svg">
<path fill-rule="evenodd" clip-rule="evenodd" d="M8.2725 11.2505C8.68642 11.2349 9.03463 11.5578 9.05026 11.9717C9.08548 12.9048 9.13496 13.5859 9.18361 14.0742C9.23151 14.5551 9.52183 14.8445 9.92652 14.8939C10.4037 14.9523 11.0769 15 12.0006 15C12.9244 15 13.5975 14.9523 14.0747 14.8939C14.4792 14.8445 14.7696 14.555 14.8176 14.074C14.9079 13.1676 15.0006 11.6016 15.0006 9C15.0006 6.39839 14.9079 4.83241 14.8176 3.92601C14.7696 3.445 14.4792 3.15552 14.0747 3.10608C13.5975 3.04774 12.9244 3 12.0006 3C11.0769 3 10.4037 3.04774 9.92651 3.10607C9.52183 3.15554 9.23151 3.44488 9.18361 3.92578C9.13496 4.41409 9.08548 5.09515 9.05026 6.02829C9.03463 6.44221 8.68642 6.76509 8.2725 6.74947C7.85858 6.73384 7.5357 6.38563 7.55133 5.97171C7.58748 5.01393 7.63875 4.30157 7.691 3.77709C7.80084 2.67446 8.56959 1.76078 9.74451 1.61715C10.2914 1.5503 11.0262 1.5 12.0006 1.5C12.975 1.5 13.7098 1.5503 14.2567 1.61716C15.4317 1.7608 16.2004 2.67491 16.3102 3.77732C16.4069 4.74801 16.5006 6.36636 16.5006 9C16.5006 11.6336 16.4069 13.252 16.3102 14.2227C16.2004 15.3251 15.4317 16.2392 14.2567 16.3828C13.7098 16.4497 12.975 16.5 12.0006 16.5C11.0262 16.5 10.2914 16.4497 9.74451 16.3828C8.56959 16.2392 7.80084 15.3255 7.691 14.2229C7.63875 13.6984 7.58748 12.9861 7.55133 12.0283C7.5357 11.6144 7.85858 11.2662 8.2725 11.2505Z" fill="white"/>
<path fill-rule="evenodd" clip-rule="evenodd" d="M5.40533 11.0947C5.69822 11.3876 5.69822 11.8624 5.40533 12.1553C5.11244 12.4482 4.63756 12.4482 4.34467 12.1553L1.71967 9.53033C1.42678 9.23744 1.42678 8.76256 1.71967 8.46967L4.34467 5.84467C4.63756 5.55178 5.11244 5.55178 5.40533 5.84467C5.69822 6.13756 5.69822 6.61244 5.40533 6.90533L4.06066 8.25H11.25C11.6642 8.25 12 8.58579 12 9C12 9.41421 11.6642 9.75 11.25 9.75L4.06066 9.75L5.40533 11.0947Z" fill="white"/>
</svg>
