<svg width="8" height="8" viewBox="0 0 8 8" fill="none" xmlns="http://www.w3.org/2000/svg">
<path fill-rule="evenodd" clip-rule="evenodd" d="M3.59589 0.985352C2.89871 0.985352 2.03712 1.19755 1.34026 1.68137C0.628981 2.1752 0.0939941 2.95132 0.0939941 4.03641C0.0939941 4.69785 0.333302 5.19927 0.575175 5.53513C0.679567 5.68009 0.784512 5.79444 0.871299 5.8785L0.518283 7.18567C0.47926 7.33016 0.534674 7.48246 0.660177 7.57566C0.785681 7.66886 0.958308 7.68589 1.10222 7.61928L2.58893 6.93115C3.43108 7.19234 4.58488 7.10329 5.54459 6.6951C6.59674 6.24759 7.50977 5.372 7.50977 4.03641C7.50977 2.8556 6.94713 2.06818 6.14857 1.59396C5.37529 1.13476 4.41181 0.985352 3.59589 0.985352ZM1.72964 5.84513C1.76961 5.69716 1.71047 5.54147 1.57953 5.44919L1.57807 5.44812C1.57552 5.44623 1.57026 5.44227 1.56267 5.43625C1.54747 5.42419 1.52309 5.40398 1.49253 5.37569C1.4312 5.31892 1.34635 5.23087 1.26076 5.11203C1.09065 4.87581 0.917969 4.51913 0.917969 4.03641C0.917969 3.21459 1.30995 2.65587 1.83464 2.29159C2.37374 1.9173 3.0571 1.74812 3.59589 1.74812C4.32473 1.74812 5.11219 1.88474 5.70367 2.23598C6.26986 2.57221 6.6858 3.11962 6.6858 4.03641C6.6858 4.98912 6.05387 5.63906 5.20058 6.00199C4.32735 6.3734 3.31814 6.3989 2.72821 6.16485C2.61682 6.12066 2.49007 6.12411 2.38167 6.17428L1.53491 6.56621L1.72964 5.84513ZM3.64726 3.35722C3.48334 3.23582 3.24702 3.24794 3.09858 3.38535L2.2746 4.14812C2.11371 4.29706 2.11371 4.53854 2.2746 4.68748C2.43549 4.83642 2.69635 4.83642 2.85724 4.68748L3.42047 4.16608L4.1625 4.71561C4.32642 4.83701 4.56274 4.82489 4.71118 4.68748L5.53516 3.92471C5.69605 3.77577 5.69605 3.53429 5.53516 3.38535C5.37427 3.23642 5.11341 3.23642 4.95252 3.38535L4.38929 3.90675L3.64726 3.35722Z" fill="white"/>
</svg>
