<svg width="24" height="24" viewBox="0 0 24 24" fill="none" xmlns="http://www.w3.org/2000/svg">
<path fill-rule="evenodd" clip-rule="evenodd" d="M20 6H4C2.89543 6 2 6.89543 2 8V16C2 17.1046 2.89543 18 4 18H20C21.1046 18 22 17.1046 22 16V8C22 6.89543 21.1046 6 20 6ZM4 4C1.79086 4 0 5.79086 0 8V16C0 18.2091 1.79086 20 4 20H20C22.2091 20 24 18.2091 24 16V8C24 5.79086 22.2091 4 20 4H4Z" fill="white"/>
<path d="M23 10C23 10.5523 22.5523 11 22 11C19.2386 11 17 8.76142 17 6C17 5.44772 17.4477 5 18 5C18.5523 5 19 5.44772 19 6C19 7.65685 20.3431 9 22 9C22.5523 9 23 9.44772 23 10Z" fill="white"/>
<path d="M2 13C1.44772 13 1 13.4477 1 14C1 14.5523 1.44772 15 2 15C3.65685 15 5 16.3431 5 18C5 18.5523 5.44772 19 6 19C6.55228 19 7 18.5523 7 18C7 15.2386 4.76142 13 2 13Z" fill="white"/>
<path d="M22 13C22.5523 13 23 13.4477 23 14C23 14.5523 22.5523 15 22 15C20.3431 15 19 16.3431 19 18C19 18.5523 18.5523 19 18 19C17.4477 19 17 18.5523 17 18C17 15.2386 19.2386 13 22 13Z" fill="white"/>
<path d="M2 11C1.44772 11 1 10.5523 1 10C1 9.44772 1.44772 9 2 9C3.65685 9 5 7.65685 5 6C5 5.44772 5.44772 5 6 5C6.55228 5 7 5.44772 7 6C7 8.76142 4.76142 11 2 11Z" fill="white"/>
<path fill-rule="evenodd" clip-rule="evenodd" d="M12 14C13.1046 14 14 13.1046 14 12C14 10.8954 13.1046 10 12 10C10.8954 10 10 10.8954 10 12C10 13.1046 10.8954 14 12 14ZM12 16C14.2091 16 16 14.2091 16 12C16 9.79086 14.2091 8 12 8C9.79086 8 8 9.79086 8 12C8 14.2091 9.79086 16 12 16Z" fill="white"/>
</svg>
