<svg width="24" height="24" viewBox="0 0 24 24" fill="none" xmlns="http://www.w3.org/2000/svg">
<path fill-rule="evenodd" clip-rule="evenodd" d="M3 2C2.44772 2 2 2.44772 2 3C2 3.55228 2.44772 4 3 4H4V18C4 20.2091 5.79086 22 8 22H16C18.2091 22 20 20.2091 20 18V4H21C21.5523 4 22 3.55228 22 3C22 2.44772 21.5523 2 21 2H3ZM18 4H6V18C6 19.1046 6.89543 20 8 20H16C17.1046 20 18 19.1046 18 18V4Z" fill="white"/>
<path d="M12.7071 7.29289C12.3166 6.90237 11.6834 6.90237 11.2929 7.29289L8.29289 10.2929C7.90237 10.6834 7.90237 11.3166 8.29289 11.7071C8.68342 12.0976 9.31658 12.0976 9.70711 11.7071L11 10.4142V16C11 16.5523 11.4477 17 12 17C12.5523 17 13 16.5523 13 16V10.4142L14.2929 11.7071C14.6834 12.0976 15.3166 12.0976 15.7071 11.7071C16.0976 11.3166 16.0976 10.6834 15.7071 10.2929L12.7071 7.29289Z" fill="white"/>
</svg>
