<svg width="13" height="11" viewBox="0 0 13 11" fill="none" xmlns="http://www.w3.org/2000/svg">
<path fill-rule="evenodd" clip-rule="evenodd" d="M11.9595 6.00095C12.2361 5.72433 12.2361 5.27584 11.9595 4.99921L7.70953 0.749214C7.43291 0.472592 6.98441 0.472592 6.70779 0.749214C6.43117 1.02584 6.43117 1.47433 6.70779 1.75095L10.4569 5.50008L6.70779 9.24921C6.43117 9.52584 6.43117 9.97433 6.70779 10.2509C6.98441 10.5276 7.4329 10.5276 7.70953 10.2509L11.9595 6.00095ZM2.04286 10.2509L6.29286 6.00095C6.56948 5.72433 6.56948 5.27584 6.29286 4.99921L2.04286 0.749214C1.76624 0.472592 1.31775 0.472592 1.04113 0.749214C0.764503 1.02583 0.764503 1.47433 1.04113 1.75095L4.79026 5.50008L1.04112 9.24921C0.764503 9.52584 0.764503 9.97433 1.04112 10.2509C1.31775 10.5276 1.76624 10.5276 2.04286 10.2509Z" fill="white"/>
</svg>
