<svg width="16" height="16" viewBox="0 0 16 16" fill="none" xmlns="http://www.w3.org/2000/svg">
<path d="M0 10C0 11.5913 0.632141 13.1174 1.75736 14.2426C2.88258 15.3679 4.4087 16 6 16C6 14.4087 5.36786 12.8826 4.24264 11.7574C3.11742 10.6321 1.5913 10 0 10ZM1.626 11.624C2.25423 11.8595 2.82464 12.227 3.2987 12.7017C3.77276 13.1765 4.13944 13.7474 4.374 14.376C3.74577 14.1405 3.17536 13.773 2.7013 13.2983C2.22724 12.8235 1.86056 12.2526 1.626 11.624Z" fill="#0E1714"/>
<path d="M10 16C11.5913 16 13.1174 15.3679 14.2426 14.2426C15.3679 13.1174 16 11.5913 16 10C14.4087 10 12.8826 10.6321 11.7574 11.7574C10.6321 12.8826 10 14.4087 10 16ZM11.624 14.376C11.8593 13.7472 12.2268 13.1762 12.7015 12.7015C13.1762 12.2268 13.7472 11.8593 14.376 11.624C14.1403 12.2526 13.7728 12.8234 13.2981 13.2981C12.8234 13.7728 12.2526 14.1403 11.624 14.376Z" fill="#0E1714"/>
<path d="M3.33398 0V7.332C3.33417 8.45362 3.73871 9.53757 4.47342 10.3851C5.20812 11.2325 6.22373 11.7867 7.33398 11.946V16H8.66598V11.946C9.77589 11.7868 10.7912 11.2329 11.5259 10.3858C12.2606 9.53874 12.6653 8.45527 12.666 7.334V0H3.33398ZM4.66598 7.332V2.666C7.39998 2.666 9.81998 3.896 10.83 5.6C9.74452 5.91404 8.75664 6.49869 7.95902 7.2991C7.16141 8.09952 6.58022 9.08945 6.26998 10.176C5.78038 9.88017 5.37547 9.46292 5.09446 8.96467C4.81345 8.46641 4.66586 7.90404 4.66598 7.332ZM7.99998 10.666C7.839 10.6622 7.67853 10.6462 7.51998 10.618C7.76321 9.71363 8.23992 8.88909 8.90231 8.22705C9.56469 7.56502 10.3895 7.08875 11.294 6.846C11.3686 7.32017 11.3391 7.8049 11.2075 8.26652C11.0759 8.72813 10.8454 9.15555 10.5319 9.51908C10.2184 9.8826 9.82958 10.1735 9.39234 10.3716C8.9551 10.5696 8.47997 10.6701 7.99998 10.666ZM11.334 4.02C9.89998 2.4 7.44999 1.334 4.66598 1.334H11.334V4.02Z" fill="#0E1714"/>
</svg>
