<svg width="10" height="10" viewBox="0 0 10 10" fill="none" xmlns="http://www.w3.org/2000/svg">
<path d="M0.158055 3.50027C0.190519 3.40032 0.276903 3.3275 0.380882 3.31239L3.30188 2.88792L4.60822 0.241028C4.65472 0.146803 4.75068 0.0871582 4.85576 0.0871582C4.96082 0.0871582 5.0568 0.146822 5.1033 0.241028L6.40971 2.88793L9.33066 3.31239C9.43464 3.3275 9.52102 3.40034 9.55348 3.50027C9.58597 3.6002 9.55888 3.7099 9.48364 3.78324L7.37007 5.84357L7.86894 8.75282C7.8867 8.85637 7.84412 8.96105 7.75911 9.02279C7.67413 9.08454 7.56146 9.09269 7.4684 9.04381L4.85578 7.67026L2.24324 9.04383C2.20284 9.06507 2.15875 9.07554 2.1148 9.07554C2.05756 9.07554 2.00059 9.05776 1.95252 9.02281C1.86751 8.96105 1.82493 8.85639 1.84269 8.75282L2.34171 5.84357L0.227914 3.78325C0.152663 3.7099 0.125574 3.6002 0.158055 3.50027ZM2.831 5.54951C2.89607 5.61293 2.92577 5.70432 2.91039 5.79387L2.48139 8.29483L4.72729 7.11404C4.80771 7.07177 4.90379 7.07177 4.98422 7.11404L7.23024 8.29485L6.80137 5.79385C6.78602 5.7043 6.81571 5.61294 6.88074 5.54953L8.69771 3.77832L6.18668 3.4134C6.09676 3.40034 6.01907 3.34387 5.97884 3.2624L4.85578 0.986913L3.73276 3.26239C3.69253 3.34386 3.61483 3.40034 3.52491 3.4134L1.01384 3.7783L2.831 5.54951Z" fill="white"/>
<path d="M3.4893 2.98623L4.5317 1.16204C4.67285 0.915022 5.03056 0.91953 5.16544 1.17002L6.04828 2.8096C6.09663 2.89938 6.18055 2.96463 6.27947 2.98936L8.46327 3.53531C8.7225 3.60012 8.82484 3.91362 8.65378 4.1189L7.3121 5.72891C7.24785 5.80601 7.21845 5.90629 7.2309 6.00587L7.49246 8.09835C7.52781 8.38118 7.23789 8.59224 6.9796 8.4717L5.00902 7.5521C4.91188 7.50677 4.79965 7.50677 4.70251 7.5521L2.77725 8.45056C2.50987 8.57533 2.21342 8.34537 2.2678 8.05537L2.64612 6.03765C2.66816 5.92007 2.63077 5.79919 2.54618 5.7146L0.99276 4.16118C0.786687 3.95511 0.895792 3.60243 1.18223 3.54873L3.24143 3.16263C3.34593 3.14303 3.43655 3.07854 3.4893 2.98623Z" fill="white"/>
</svg>
