<svg width="9" height="8" viewBox="0 0 9 8" fill="none" xmlns="http://www.w3.org/2000/svg">
<path fill-rule="evenodd" clip-rule="evenodd" d="M4.43068 2.01665C4.20222 2.37906 4.1251 2.8042 4.1251 3.00598C4.1251 3.13893 4.05871 3.26322 3.94788 3.33775C3.83705 3.41229 3.69622 3.42736 3.57195 3.37798C3.49068 3.34569 3.40013 3.31286 3.30222 3.27736C3.04857 3.1854 2.74553 3.07553 2.42645 2.91071C2.1024 2.74333 1.74929 2.51601 1.34932 2.17847C1.35429 2.32915 1.3878 2.46715 1.4441 2.59504C1.57555 2.8936 1.85426 3.18878 2.31578 3.46368C2.44206 3.5389 2.51704 3.67648 2.51141 3.82262C2.50578 3.96876 2.42042 4.10025 2.28873 4.16565L2.28829 4.16587L2.28781 4.16611L2.28674 4.16664L2.28413 4.16791L2.27709 4.17128C2.27159 4.17388 2.2645 4.17717 2.25585 4.18105C2.23857 4.1888 2.21504 4.19893 2.18567 4.2106C2.12701 4.23391 2.04464 4.26353 1.94186 4.2927C1.83376 4.32338 1.70214 4.35382 1.55103 4.37576C1.63725 4.6799 1.82943 4.86974 2.03651 5.01314C2.15828 5.09747 2.27609 5.15954 2.3945 5.22192C2.42395 5.23743 2.45344 5.25297 2.48303 5.26887C2.54769 5.30362 2.6327 5.35057 2.70301 5.40644C2.75726 5.44955 2.91505 5.5834 2.91505 5.81057C2.91505 5.95582 2.84873 6.06901 2.80675 6.12951C2.75764 6.20029 2.69565 6.26416 2.63075 6.32C2.49982 6.43266 2.32405 6.54091 2.11567 6.62959C1.87572 6.7317 1.5828 6.812 1.24795 6.84092C1.27538 6.85553 1.30453 6.86949 1.33546 6.8828C1.62904 7.00917 2.0584 7.06088 2.57563 7.01418C3.60112 6.92159 4.81769 6.45675 5.65386 5.72801C6.29485 4.9926 6.56633 4.26495 6.67932 3.72566C6.73648 3.45287 6.75314 3.22769 6.75589 3.07399C6.75726 2.99721 6.75516 2.93854 6.75295 2.901C6.75185 2.88224 6.75072 2.8688 6.75 2.86105L6.74927 2.85377C6.7374 2.75588 6.76227 2.65684 6.81918 2.57602L6.74938 2.85466L6.74947 2.85535L6.81918 2.57602L7.56115 2.91575C7.55501 2.92507 7.56671 2.90741 7.56115 2.91575C7.56115 2.91575 7.56366 3.02146 7.56246 3.08822C7.55894 3.28509 7.53786 3.56074 7.4691 3.88893C7.33124 4.54692 7.00197 5.41392 6.24437 6.27462C6.23322 6.28729 6.22127 6.29925 6.2086 6.31043C5.22912 7.17475 3.83408 7.70517 2.64866 7.8122C2.05654 7.86567 1.47745 7.81722 1.01472 7.61805C0.535573 7.41182 0.16601 7.03203 0.0941828 6.46125C0.0783854 6.33572 0.123206 6.21014 0.215083 6.12253C0.30696 6.03492 0.435099 5.99555 0.560729 6.01635C1.08547 6.10322 1.51183 6.0148 1.79799 5.89303C1.82652 5.88089 1.87856 5.85614 1.87856 5.85614C1.87856 5.85614 1.67913 5.74248 1.57516 5.67048C1.14954 5.37574 0.696623 4.87758 0.696623 4.00762C0.696623 3.78635 0.877209 3.60697 1.09997 3.60697C1.1293 3.60697 1.15807 3.60641 1.18623 3.60537C0.980746 3.39881 0.816669 3.16978 0.704987 2.91611C0.478571 2.40183 0.490404 1.8383 0.725472 1.25456C0.775826 1.12951 0.886059 1.03797 1.01887 1.01089C1.15169 0.983807 1.28931 1.02482 1.38519 1.12005C1.96492 1.69592 2.41956 2.00398 2.79863 2.19978C3.01639 2.31226 3.20314 2.38638 3.38992 2.4552C3.45466 2.18216 3.5678 1.87559 3.74696 1.59139C4.07787 1.06644 4.64886 0.602051 5.53683 0.602051C6.08765 0.602051 6.44208 0.871683 6.66526 1.05648C6.69216 1.07875 6.71548 1.09823 6.73598 1.11534C6.78757 1.15843 6.82121 1.18652 6.84863 1.20638C7.032 1.12005 7.19755 1.05957 7.34477 1.0317C7.50127 1.00208 7.72681 0.992993 7.91251 1.14068C8.10791 1.29608 8.13054 1.51961 8.12383 1.652C8.11681 1.79055 8.07528 1.9293 8.03161 2.04491C7.94242 2.28107 7.80051 2.5321 7.68986 2.71311C7.6414 2.79239 7.59664 2.86193 7.56115 2.91575C7.56822 3.00322 7.56038 2.90749 7.56115 2.91575L6.81918 2.57602L6.81964 2.57536L6.82196 2.57204L6.832 2.55751C6.84098 2.54445 6.85428 2.52491 6.87085 2.50003C6.90408 2.45016 6.95002 2.3795 7.00032 2.29722C7.07179 2.18029 7.14639 2.04902 7.20619 1.92485C7.18193 1.93614 7.15621 1.9485 7.12899 1.96202C7.12353 1.96474 7.118 1.96733 7.11242 1.9698C6.86563 2.07878 6.64329 2.0149 6.48718 1.92709C6.3794 1.86647 6.26937 1.77361 6.18995 1.70657C6.17506 1.69401 6.16125 1.68235 6.14873 1.67199C5.95986 1.5156 5.79272 1.40336 5.53683 1.40336C4.98354 1.40336 4.64699 1.67351 4.43068 2.01665Z" fill="white"/>
</svg>
