<svg width="10" height="13" viewBox="0 0 10 13" fill="none" xmlns="http://www.w3.org/2000/svg">
<path fill-rule="evenodd" clip-rule="evenodd" d="M7.6807 12.6673H2.56023C2.27744 12.6673 2.04819 12.4381 2.04819 12.1553C2.04819 11.8725 2.27744 11.6432 2.56023 11.6432H7.6807C7.96349 11.6432 8.19274 11.414 8.19274 11.1312V9.0062C8.16697 8.71887 7.99464 8.46523 7.73702 8.33542C5.72999 7.52508 3.48684 7.52508 1.47981 8.33542C1.22219 8.46523 1.04987 8.71887 1.02409 9.0062V12.1553C1.02409 12.4381 0.794842 12.6673 0.512046 12.6673C0.229251 12.6673 0 12.4381 0 12.1553V9.0062C0.0226439 8.29941 0.448714 7.66827 1.09578 7.38301C3.34903 6.47249 5.8678 6.47249 8.12106 7.38301C8.76812 7.66827 9.19419 8.29941 9.21684 9.0062V11.1312C9.21684 11.9796 8.52908 12.6673 7.6807 12.6673ZM7.16929 2.93767C7.16929 1.5237 6.02304 0.377441 4.60906 0.377441C3.19508 0.377441 2.04883 1.5237 2.04883 2.93767C2.04883 4.35165 3.19508 5.49791 4.60906 5.49791C6.02304 5.49791 7.16929 4.35165 7.16929 2.93767ZM6.14446 2.93814C6.14446 3.78653 5.45671 4.47428 4.60833 4.47428C3.75994 4.47428 3.07219 3.78653 3.07219 2.93814C3.07219 2.08975 3.75994 1.402 4.60833 1.402C5.45671 1.402 6.14446 2.08975 6.14446 2.93814Z" fill="white"/>
</svg>
