<svg width="8" height="7" viewBox="0 0 8 7" fill="none" xmlns="http://www.w3.org/2000/svg">
<path fill-rule="evenodd" clip-rule="evenodd" d="M1.5004 1.19968C1.99689 1.11278 2.76195 1.03252 3.8927 1.03252C5.02346 1.03252 5.78851 1.11278 6.28501 1.19968C6.62063 1.25842 6.85901 1.58973 6.85901 2.06374V5.00695C6.85901 5.48095 6.62063 5.81226 6.28501 5.871C5.78851 5.9579 5.02346 6.03817 3.8927 6.03817C2.76195 6.03817 1.99689 5.9579 1.5004 5.871C1.16477 5.81226 0.926392 5.48095 0.926392 5.00695V2.06374C0.926392 1.58973 1.16477 1.25842 1.5004 1.19968ZM3.8927 0.198242C2.73171 0.198242 1.92771 0.280581 1.3864 0.37532C0.611825 0.510886 0.184814 1.27374 0.184814 2.06374V5.00695C0.184814 5.79694 0.611825 6.5598 1.3864 6.69536C1.92771 6.7901 2.73171 6.87244 3.8927 6.87244C5.05369 6.87244 5.8577 6.7901 6.39901 6.69536C7.17358 6.5598 7.60059 5.79694 7.60059 5.00695V2.06374C7.60059 1.27374 7.17358 0.510886 6.39901 0.37532C5.8577 0.280581 5.05369 0.198242 3.8927 0.198242ZM3.34695 2.33329C3.46752 2.2607 3.61381 2.26865 3.72759 2.35399L4.83996 3.18826C4.94311 3.26563 5.00507 3.39587 5.00507 3.53534C5.00507 3.67481 4.94311 3.80506 4.83996 3.88242L3.72759 4.7167C3.61381 4.80203 3.46752 4.80999 3.34695 4.7374C3.22639 4.66481 3.15112 4.52346 3.15112 4.36962V2.70107C3.15112 2.54723 3.22639 2.40588 3.34695 2.33329Z" fill="white"/>
</svg>
