<svg width="17" height="16" viewBox="0 0 17 16" fill="none" xmlns="http://www.w3.org/2000/svg">
<g clip-path="url(#clip0_110_20753)">
<path fill-rule="evenodd" clip-rule="evenodd" d="M4.5013 2.66667L4.5013 13.3333C4.5013 14.0697 5.09826 14.6667 5.83464 14.6667L11.168 14.6667C11.9044 14.6667 12.5013 14.0697 12.5013 13.3333L12.5013 2.66667C12.5013 1.93029 11.9043 1.33333 11.168 1.33333L5.83463 1.33333C5.09826 1.33333 4.5013 1.93029 4.5013 2.66667ZM3.16797 13.3333C3.16797 14.8061 4.36188 16 5.83464 16L11.168 16C12.6407 16 13.8346 14.8061 13.8346 13.3333L13.8346 2.66667C13.8346 1.19391 12.6407 -4.14068e-07 11.168 -3.49691e-07L5.83463 -1.16564e-07C4.36188 -5.21873e-08 3.16797 1.19391 3.16797 2.66667L3.16797 13.3333Z" fill="#838383"/>
<path fill-rule="evenodd" clip-rule="evenodd" d="M8.4987 12C9.23508 12 9.83203 11.403 9.83203 10.6667C9.83203 9.93029 9.23508 9.33333 8.4987 9.33333C7.76232 9.33333 7.16536 9.93029 7.16536 10.6667C7.16536 11.403 7.76232 12 8.4987 12ZM8.4987 13.3333C9.97146 13.3333 11.1654 12.1394 11.1654 10.6667C11.1654 9.19391 9.97146 8 8.4987 8C7.02594 8 5.83203 9.19391 5.83203 10.6667C5.83203 12.1394 7.02594 13.3333 8.4987 13.3333Z" fill="#838383"/>
<path fill-rule="evenodd" clip-rule="evenodd" d="M8.5 5.33268C8.86819 5.33268 9.16667 5.03421 9.16667 4.66602C9.16667 4.29783 8.86819 3.99935 8.5 3.99935C8.13181 3.99935 7.83333 4.29783 7.83333 4.66602C7.83333 5.03421 8.13181 5.33268 8.5 5.33268ZM8.5 6.66602C9.60457 6.66602 10.5 5.77058 10.5 4.66602C10.5 3.56145 9.60457 2.66602 8.5 2.66602C7.39543 2.66602 6.5 3.56145 6.5 4.66602C6.5 5.77058 7.39543 6.66602 8.5 6.66602Z" fill="#838383"/>
</g>
<defs>
<clipPath id="clip0_110_20753">
<rect width="16" height="16" fill="white" transform="translate(0.5)"/>
</clipPath>
</defs>
</svg>
