<svg width="13" height="13" viewBox="0 0 13 13" fill="none" xmlns="http://www.w3.org/2000/svg">
<path d="M0.542969 10.8327C0.542969 10.5335 0.785481 10.291 1.08464 10.291H9.20963C9.50879 10.291 9.7513 10.5335 9.7513 10.8327C9.7513 11.1318 9.50879 11.3743 9.20963 11.3743H1.08464C0.785481 11.3743 0.542969 11.1318 0.542969 10.8327Z" fill="white"/>
<path fill-rule="evenodd" clip-rule="evenodd" d="M0.542969 3.25C0.542969 2.35254 1.27051 1.625 2.16797 1.625H8.1263C8.83384 1.625 9.43576 2.07719 9.65884 2.70833H10.293C11.4896 2.70833 12.4596 3.67838 12.4596 4.875C12.4596 6.07162 11.4896 7.04167 10.293 7.04167H9.38642C8.77787 8.32268 7.47218 9.20833 5.95963 9.20833H4.33463C2.24056 9.20833 0.542969 7.51075 0.542969 5.41667V3.25ZM2.16797 2.70833H8.1263C8.42546 2.70833 8.66797 2.95085 8.66797 3.25V5.41667C8.66797 6.91244 7.45541 8.125 5.95963 8.125H4.33463C2.83886 8.125 1.6263 6.91244 1.6263 5.41667V3.25C1.6263 2.95085 1.86881 2.70833 2.16797 2.70833ZM9.7129 5.95833H10.293C10.8913 5.95833 11.3763 5.47331 11.3763 4.875C11.3763 4.27669 10.8913 3.79167 10.293 3.79167H9.7513V5.41667C9.7513 5.60057 9.73821 5.78142 9.7129 5.95833Z" fill="white"/>
</svg>
