<svg width="14" height="13" viewBox="0 0 14 13" fill="none" xmlns="http://www.w3.org/2000/svg">
<path d="M2.33464 9.20768C2.33464 9.50684 2.07347 9.74935 1.7513 9.74935C1.42914 9.74935 1.16797 9.50684 1.16797 9.20768C1.16797 8.90853 1.42914 8.66602 1.7513 8.66602C2.07347 8.66602 2.33464 8.90853 2.33464 9.20768Z" fill="white"/>
<path d="M2.33464 11.3743C2.33464 11.6735 2.07347 11.916 1.7513 11.916C1.42914 11.916 1.16797 11.6735 1.16797 11.3743C1.16797 11.0752 1.42914 10.8327 1.7513 10.8327C2.07347 10.8327 2.33464 11.0752 2.33464 11.3743Z" fill="white"/>
<path d="M4.08464 11.3743C4.4068 11.3743 4.66797 11.1318 4.66797 10.8327C4.66797 10.5335 4.4068 10.291 4.08464 10.291C3.76247 10.291 3.5013 10.5335 3.5013 10.8327C3.5013 11.1318 3.76247 11.3743 4.08464 11.3743Z" fill="white"/>
<path fill-rule="evenodd" clip-rule="evenodd" d="M8.09628 1.6908C8.7797 1.05619 9.88774 1.05619 10.5712 1.6908L12.1796 3.18437C12.863 3.81897 12.863 4.84786 12.1796 5.48246L7.65449 9.68436C6.97107 10.319 5.86303 10.319 5.17962 9.68436L3.57116 8.19079C2.88774 7.55619 2.88774 6.5273 3.57116 5.8927L8.09628 1.6908ZM9.7462 2.45683L11.3547 3.9504C11.5825 4.16193 11.5825 4.50489 11.3547 4.71643L8.50876 7.35905L6.07534 5.09945L8.92124 2.45683C9.14905 2.24529 9.51839 2.24529 9.7462 2.45683ZM5.20034 5.91195L4.39611 6.65873C4.16831 6.87026 4.16831 7.21323 4.39611 7.42476L6.00457 8.91833C6.23238 9.12987 6.60173 9.12987 6.82953 8.91833L7.63376 8.17155L5.20034 5.91195Z" fill="white"/>
</svg>
