<svg width="12" height="12" viewBox="0 0 12 12" fill="none" xmlns="http://www.w3.org/2000/svg">
<path fill-rule="evenodd" clip-rule="evenodd" d="M4.68802 1.8904L1.40711 7.8557C0.87109 8.83028 1.09075 10.0224 2.13611 10.4023C3.01166 10.7205 4.27349 11.0007 6.00234 11.0007C7.7312 11.0007 8.99303 10.7205 9.86858 10.4023C10.9139 10.0224 11.1336 8.83028 10.5976 7.8557L7.31667 1.8904C6.74678 0.85424 5.25791 0.854241 4.68802 1.8904ZM2.75613 7.47797L5.56424 2.37232C5.7542 2.02693 6.25049 2.02694 6.44045 2.37232L9.24853 7.47791C9.20775 7.49923 9.16229 7.5213 9.11171 7.54378C8.63412 7.75604 7.70966 8.00068 6.00227 8.00068C4.29489 8.00068 3.37043 7.75604 2.89284 7.54378C2.84231 7.52132 2.79688 7.49927 2.75613 7.47797ZM9.7304 8.35431C9.66515 8.389 9.59444 8.42354 9.51784 8.45759C8.87043 8.74533 7.79489 9.00068 6.00227 9.00068C4.20966 9.00068 3.13412 8.74533 2.48671 8.45759C2.41015 8.42356 2.33948 8.38904 2.27425 8.35437C2.12056 8.64278 2.10029 8.91853 2.14788 9.10606C2.18962 9.27058 2.28342 9.39185 2.47768 9.46245C3.23797 9.73876 4.38367 10.0007 6.00234 10.0007C7.62102 10.0007 8.76672 9.73876 9.52701 9.46245C9.72127 9.39185 9.81507 9.27058 9.85681 9.10606C9.9044 8.91852 9.88413 8.64275 9.7304 8.35431Z" fill="white"/>
<path d="M8.39022 5.92066L8.87339 6.79915C8.42112 7.01872 7.90166 7.06027 7.4188 6.91362C6.91125 6.75947 6.48574 6.41002 6.23585 5.94214C5.98596 5.47426 5.93217 4.92627 6.08632 4.41873C6.22818 3.95164 6.53545 3.55402 6.94822 3.29883L7.43139 4.17732C7.24654 4.30509 7.1091 4.4922 7.04316 4.70933C6.96609 4.9631 6.99298 5.23709 7.11793 5.47104C7.24287 5.70498 7.45563 5.8797 7.7094 5.95678C7.93445 6.02513 8.1754 6.01171 8.39022 5.92066Z" fill="white"/>
<path d="M5.5 6.5C5.5 6.77614 5.27614 7 5 7C4.72386 7 4.5 6.77614 4.5 6.5C4.5 6.22386 4.72386 6 5 6C5.27614 6 5.5 6.22386 5.5 6.5Z" fill="white"/>
</svg>
