<svg width="12" height="12" viewBox="0 0 12 12" fill="none" xmlns="http://www.w3.org/2000/svg">
<path fill-rule="evenodd" clip-rule="evenodd" d="M3.21136 5C2.86559 5 2.6242 5.34255 2.74049 5.66817L4.66552 11.0583C4.86722 11.623 5.40217 12 6.00186 12C6.60155 12 7.1365 11.623 7.33819 11.0583L9.26323 5.66817C9.37952 5.34255 9.13812 5 8.79236 5H3.21136ZM3.92086 6L5.60726 10.7219C5.66682 10.8887 5.82478 11 6.00186 11C6.17893 11 6.33689 10.8887 6.39645 10.7219L8.08285 6H3.92086Z" fill="white"/>
<path fill-rule="evenodd" clip-rule="evenodd" d="M3.94948 3.33208L3.43723 3.56786C3.17719 3.68755 3 3.94913 3 4.25C3 4.66421 3.33579 5 3.75 5H8.25C8.66421 5 9 4.66421 9 4.25C9 3.94913 8.82281 3.68755 8.56277 3.56786L8.05052 3.33208L7.98721 2.77174C7.87461 1.77512 7.02712 1 6 1C4.97288 1 4.12539 1.77512 4.01279 2.77174L3.94948 3.33208ZM8.98089 2.65947C8.81181 1.16295 7.54171 0 6 0C4.45829 0 3.18819 1.16295 3.01911 2.65947C2.41759 2.93634 2 3.5444 2 4.25C2 5.2165 2.7835 6 3.75 6H8.25C9.2165 6 10 5.2165 10 4.25C10 3.5444 9.58241 2.93634 8.98089 2.65947Z" fill="white"/>
</svg>
