<svg width="13" height="13" viewBox="0 0 13 13" fill="none" xmlns="http://www.w3.org/2000/svg">
<path d="M6.4987 7.58398C6.19954 7.58398 5.95703 7.8265 5.95703 8.12565V11.9173H4.8737C4.57454 11.9173 4.33203 12.1598 4.33203 12.459C4.33203 12.7581 4.57454 13.0007 4.8737 13.0007H8.1237C8.42285 13.0007 8.66536 12.7581 8.66536 12.459C8.66536 12.1598 8.42285 11.9173 8.1237 11.9173H7.04036V8.12565C7.04036 7.8265 6.79785 7.58398 6.4987 7.58398Z" fill="white"/>
<path fill-rule="evenodd" clip-rule="evenodd" d="M8.14469 1.08333H4.85356C4.62561 1.08333 4.48737 1.20996 4.44412 1.33813C4.0677 2.45369 3.63137 4.16663 3.81969 5.53463C3.91037 6.19334 4.13237 6.67183 4.47831 6.98984C4.81562 7.29992 5.40775 7.58333 6.49913 7.58333C7.5905 7.58333 8.18263 7.29992 8.51994 6.98984C8.86588 6.67183 9.08788 6.19334 9.17856 5.53463C9.36688 4.16663 8.93055 2.45369 8.55413 1.33813C8.51088 1.20996 8.37264 1.08333 8.14469 1.08333ZM4.85356 0C4.20795 0 3.62406 0.380055 3.41765 0.991775C2.64998 3.26683 1.36836 8.66667 6.49913 8.66667C11.6299 8.66667 10.3483 3.26683 9.5806 0.991775C9.37419 0.380056 8.7903 0 8.14469 0H4.85356Z" fill="white"/>
</svg>
