<svg width="127" height="260" viewBox="0 0 127 260" fill="none" xmlns="http://www.w3.org/2000/svg">
<path d="M87.3545 236.985C88.3153 236.608 89.2469 236.161 90.1416 235.647C91.2107 235.188 92.3369 234.939 93.425 234.595C95.0312 234.114 96.5852 233.474 98.0638 232.683C98.778 232.264 99.5709 231.997 100.393 231.899C101.106 231.817 101.775 231.509 102.302 231.02C102.712 230.681 103.101 230.317 103.466 229.93C105.019 228.169 106.789 226.614 108.735 225.303C110.21 224.232 111.943 223.573 113.756 223.391C117.994 223.104 121.563 221.097 125.209 219.185C127.519 217.98 129.505 216.298 131.719 214.959C132.724 214.321 133.792 213.789 134.907 213.372C136.193 212.907 137.408 212.264 138.515 211.46C139.886 210.486 141.382 209.701 142.963 209.128C145.597 208.153 148.022 206.776 150.599 205.61C152.772 204.534 154.758 203.114 156.478 201.404C156.751 201.152 157.038 200.916 157.338 200.696C158.636 199.834 159.811 198.798 160.831 197.618C161.198 197.116 161.651 196.683 162.167 196.337C163.486 195.361 164.635 194.172 165.565 192.819C166.55 191.66 167.636 190.592 168.81 189.626C169.198 189.284 169.664 189.043 170.167 188.926C170.67 188.81 171.195 188.82 171.693 188.957C172.964 189.287 174.203 189.729 175.396 190.276C175.653 190.411 175.88 190.595 176.065 190.818C176.25 191.042 176.389 191.299 176.474 191.576C176.56 191.854 176.589 192.145 176.561 192.434C176.534 192.723 176.449 193.003 176.313 193.259C175.773 194.857 175.008 196.37 174.041 197.752C172.781 199.396 171.903 201.289 170.49 202.799C168.999 204.758 167.338 206.582 165.527 208.248C165.069 208.612 164.916 209.224 164.515 209.644C163.26 211.002 161.781 212.134 160.144 212.99C159.795 213.111 159.466 213.286 159.17 213.506C157.3 215.055 155.166 216.254 152.87 217.043C150.717 218.166 148.778 219.661 147.144 221.46C145.235 223.372 143.326 225.284 141.417 227.196C139.855 228.826 138.083 230.241 136.148 231.402C133.346 233.197 130.38 234.721 127.29 235.952C125.173 236.857 122.923 237.412 120.628 237.597C118.566 237.597 116.562 238.036 114.519 238.17C112.259 238.253 109.997 238.067 107.781 237.616C104.05 237.062 100.263 237.004 96.5176 237.444C95.2767 237.578 94.055 237.539 92.8333 237.654C91.0343 237.917 89.3958 238.836 88.2327 240.235C86.9378 241.703 86.2546 243.612 86.3237 245.569C86.1759 248.614 86.4522 251.664 87.1445 254.632C87.3657 255.638 87.6722 256.623 88.0608 257.576C88.6066 259.261 89.2439 260.914 89.9698 262.528C90.1597 262.895 90.2948 263.288 90.3707 263.695C91.1152 267.06 92.4325 270.272 93.406 273.579C94.1238 275.98 94.71 278.418 95.1623 280.883C95.6586 283.674 96.3458 286.428 97.0712 289.181C97.224 289.793 97.3194 290.385 97.4339 291.093C97.5926 292.438 97.8867 293.764 98.312 295.05C98.5643 295.998 98.7494 296.963 98.8657 297.937C99.3811 297.937 99.5529 297.536 99.7056 297.268C101.729 293.674 105.203 292.393 108.869 291.36C110.09 291.016 111.35 290.806 112.553 290.424C115.243 289.612 117.634 288.022 119.425 285.854C119.712 285.491 120.036 285.185 120.342 284.86C122.041 283.063 123.606 281.151 125.439 279.525C128.237 276.736 131.257 274.179 134.468 271.878C135.897 270.987 137.429 270.274 139.03 269.755C141.059 269.107 143.031 268.295 144.929 267.327C146.623 266.577 148.246 265.674 149.778 264.631C151.801 263.083 154.092 261.974 156.154 260.463C157.429 259.64 158.762 258.912 160.144 258.284C161.384 257.634 162.606 256.945 163.962 256.372C166.687 255.001 169.693 254.282 172.743 254.269C173.422 254.224 174.102 254.338 174.728 254.604C175.355 254.87 175.911 255.279 176.351 255.798C176.65 256.168 176.852 256.606 176.939 257.073C177.026 257.541 176.994 258.023 176.847 258.475C176.486 259.743 175.876 260.926 175.053 261.955C172.865 264.53 170.15 266.603 167.092 268.035C165.871 268.627 164.668 269.258 163.503 269.947C163.114 270.173 162.713 270.377 162.301 270.558C158.113 272.45 154.052 274.608 150.141 277.021C149.599 277.391 149.105 277.828 148.671 278.321C147.296 279.659 145.903 281.017 144.547 282.393C143.616 283.378 142.579 284.256 141.455 285.013C141.002 285.371 140.574 285.761 140.176 286.179C138.379 287.57 136.463 288.799 134.449 289.85C132.512 290.935 130.409 291.691 128.226 292.087C127.6 292.237 126.96 292.314 126.317 292.316C124.309 292.344 122.306 292.517 120.323 292.833C119.785 292.827 119.25 292.782 118.719 292.699C116.592 292.578 114.459 292.706 112.362 293.081C110.899 293.302 109.514 293.887 108.334 294.783C107.571 295.452 106.673 295.949 105.833 296.561C104.056 298.022 102.465 299.698 101.099 301.551C100.452 302.466 100.117 303.566 100.145 304.687C100.065 306.079 100.129 307.475 100.336 308.855C100.523 310.326 100.625 311.807 100.641 313.29C100.851 316.732 101.271 320.173 101.156 323.634C101.156 325.546 101.156 327.324 101.023 329.178C100.889 333.174 100.221 337.113 99.9728 341.09C99.7597 343.129 99.4218 345.153 98.9611 347.151C98.732 348.451 98.3693 349.732 98.2548 350.975C97.9702 352.678 97.5877 354.363 97.1093 356.022C96.658 358.191 95.9798 360.305 95.0858 362.332C94.6583 363.529 94.1149 364.682 93.4632 365.773C92.9576 366.487 92.5946 367.292 92.3942 368.144C92.0888 369.31 91.6306 370.4 91.287 371.547C91.181 371.99 90.9329 372.387 90.5807 372.675C90.4721 372.789 90.3367 372.873 90.187 372.92C90.0372 372.968 89.878 372.977 89.7239 372.946C89.5699 372.916 89.426 372.847 89.3055 372.746C89.185 372.645 89.0918 372.516 89.0344 372.369C88.8778 372.124 88.7853 371.843 88.7653 371.552C88.7453 371.262 88.7984 370.971 88.9199 370.706C89.3709 369.559 89.7222 368.376 89.9698 367.169C90.6379 364.588 91.5352 362.064 92.3942 359.521C93.3431 356.675 94.0707 353.761 94.5705 350.803C95.0106 348.625 95.3166 346.422 95.4868 344.206C95.5822 342.294 95.9068 340.383 96.1359 338.585C96.2508 337.807 96.1721 337.012 95.9068 336.272C95.4421 335.053 95.2404 333.75 95.315 332.448C95.2873 330.872 94.7739 329.342 93.8451 328.07C93.6351 327.725 93.3488 327.42 93.1579 327.056C92.4713 325.857 91.5084 324.839 90.3495 324.087C89.1907 323.335 87.8693 322.872 86.4954 322.735C84.1283 322.496 81.7383 322.631 79.4132 323.137C79.0086 323.202 78.5961 323.202 78.1915 323.137C77.2107 323.004 76.2129 323.171 75.328 323.615C74.7658 323.871 74.1341 323.932 73.5336 323.787C72.9043 323.653 72.2539 323.653 71.6246 323.787C69.8783 324.39 68.0204 324.599 66.1841 324.399C65.7749 324.313 65.3523 324.313 64.9432 324.399C62.4955 324.789 59.9878 324.505 57.6891 323.577C56.8682 323.271 55.9901 323.385 55.1501 323.137L51.0649 321.779C49.6523 321.32 48.2206 320.995 46.8079 320.575C45.3288 320.218 43.8897 319.712 42.5127 319.064C42.3726 318.977 42.2258 318.9 42.0737 318.835C38.5499 317.361 35.2829 315.334 32.3952 312.831C30.505 311.299 28.9186 309.424 27.7182 307.306C26.322 305.217 24.6013 303.364 22.6213 301.819C22.0104 301.283 21.3423 300.805 20.7123 300.251C19.6224 299.376 18.3972 298.685 17.0852 298.205C14.9985 297.464 12.9802 296.543 11.0529 295.452C9.86053 294.628 8.92691 293.48 8.36119 292.144C7.3003 289.64 6.69269 286.966 6.56675 284.248C6.4693 282.646 6.66344 281.039 7.13954 279.506C7.60567 278.318 8.33699 277.252 9.27758 276.39C11.1865 274.382 13.6109 274.478 16.0544 275.013C16.7691 275.187 17.4707 275.411 18.1542 275.683C19.3662 276.114 20.387 276.961 21.0368 278.072C22.1249 279.774 23.4803 281.265 24.7211 282.852C25.9619 284.439 27.7755 286.389 29.1308 288.282C29.6964 289.145 30.4411 289.875 31.3142 290.422C32.1873 290.97 33.1681 291.323 34.1897 291.456C35.3779 291.586 36.5278 291.954 37.5708 292.539C38.6138 293.123 39.5285 293.913 40.2602 294.859C41.2563 295.894 42.3566 296.823 43.5436 297.632C44.3219 298.227 45.0326 298.907 45.6626 299.658C46.9058 301.034 48.3548 302.208 49.9578 303.138C51.3096 303.988 52.8139 304.566 54.3866 304.84C58.3261 305.545 62.0422 307.177 65.2296 309.6C65.5513 309.855 65.8514 310.137 66.1267 310.442C67.744 312.355 69.5832 314.069 71.6055 315.546C73.5555 317.076 75.8379 318.124 78.2678 318.605C78.7948 318.708 79.3121 318.855 79.814 319.045C80.8332 319.356 81.9029 319.467 82.9639 319.37C85.0448 319.192 87.1399 319.453 89.1132 320.138C91.0865 320.824 92.8938 321.917 94.4177 323.347C95.2004 324.074 95.6586 325.087 96.4604 325.794C96.5764 325.947 96.6726 326.114 96.7467 326.291C96.9262 326.115 97.0599 325.898 97.1364 325.658C97.2129 325.418 97.2298 325.163 97.1858 324.915C97.1633 321.951 97.3227 318.988 97.663 316.043C97.6724 315.506 97.6341 314.968 97.5485 314.437C97.3576 312.105 97.2048 309.772 96.9948 307.44C96.8039 305.528 96.5749 303.501 96.3649 301.551C96.2984 301.185 96.2602 300.814 96.2504 300.442C96.2615 297.842 95.8421 295.257 95.0095 292.794C94.055 289.143 92.9479 285.529 92.1843 281.801C91.8216 280.003 91.4016 278.187 90.9625 276.39C90.669 275.11 90.2202 273.871 89.6262 272.7C89.1347 271.746 88.7751 270.73 88.5572 269.679C88.1372 268.035 87.6981 266.429 87.2209 264.804C86.8582 263.523 85.751 263.121 84.682 262.681C82.928 262.081 81.0574 261.905 79.2223 262.165C78.325 262.165 77.4279 262.337 76.5307 262.318C75.9569 262.301 75.3839 262.372 74.8316 262.528C73.8824 262.83 72.8781 262.915 71.8919 262.777C70.7882 262.691 69.6782 262.749 68.5894 262.949C68.1848 263.015 67.7722 263.015 67.3676 262.949C65.2677 262.605 63.1678 262.242 61.087 261.764C59.423 261.27 57.9249 260.331 56.7537 259.049C55.2248 257.541 53.9371 255.806 52.9358 253.906C51.8797 252.087 50.3397 250.597 48.4878 249.604C46.1136 248.498 43.823 247.22 41.6346 245.78C40.2436 244.631 38.9181 243.406 37.664 242.109C35.3725 239.869 33.2598 237.452 31.3453 234.882C29.7902 233.015 27.9775 231.38 25.962 230.025C24.5684 229.031 23.1557 228.113 21.7049 227.1C20.3632 226.213 18.8775 225.566 17.3143 225.188C15.2203 224.622 13.2016 223.807 11.3011 222.76C10.5942 222.484 9.94629 222.075 9.39211 221.555C9.1116 221.331 8.88033 221.051 8.71271 220.732C8.54509 220.414 8.44468 220.065 8.41782 219.706C8.39095 219.347 8.43811 218.987 8.55647 218.647C8.67482 218.307 8.86182 217.996 9.10572 217.732C9.21855 217.562 9.35339 217.407 9.50664 217.273C11.2361 215.679 13.3058 214.502 15.5581 213.831C16.768 213.504 18.0578 213.669 19.1469 214.29C19.7315 214.621 20.3852 214.811 21.0559 214.845C21.7952 214.945 22.5119 215.171 23.1748 215.514C25.4262 216.332 27.5285 217.514 29.3981 219.013C32.7001 221.778 35.771 224.809 38.5803 228.075C40.4892 230.159 42.1309 232.492 44.0208 234.614C45.8851 236.994 48.2345 238.95 50.9123 240.35C51.3961 240.583 51.9011 240.768 52.4203 240.904C55.959 241.771 59.1492 243.698 61.5643 246.43C62.2185 247.166 62.97 247.809 63.7978 248.342C64.8276 249.08 65.792 249.905 66.6804 250.808C68.6046 252.491 70.8618 253.749 73.3045 254.498C75.328 255.206 77.3897 255.76 79.3941 256.41C81.3774 257.106 83.2155 258.162 84.8157 259.527C85.1211 259.775 85.3501 260.158 85.9037 260.119C85.6364 259.01 85.4074 257.94 85.1402 256.869C84.4823 254.411 84.1359 251.88 84.1092 249.336C84.1092 247.902 83.9375 246.468 83.8038 245.034C83.6034 243.486 83.6034 241.918 83.8038 240.369C83.8038 239.872 83.8038 239.375 83.8993 238.878C83.9478 237.892 84.1407 236.92 84.4719 235.991C84.911 234.729 85.0065 233.352 85.3883 232.052C86.171 229.452 86.2283 226.68 87.0682 224.098C87.6409 222.282 87.8318 220.389 88.3663 218.573C88.4586 218.256 88.5037 217.928 88.5 217.598C88.5 216.164 88.5 214.73 88.5 213.277C88.5038 211.62 88.0549 209.993 87.2019 208.573C86.801 207.866 86.4574 207.12 86.1137 206.375C84.4827 202.595 81.4206 199.617 77.5997 198.096C75.9986 197.548 74.3058 197.321 72.6173 197.427C69.0864 197.567 65.5569 197.115 62.1751 196.089C61.3161 195.802 60.4571 195.534 59.6172 195.209C59.3814 195.139 59.1565 195.036 58.949 194.903C56.7407 193.565 54.6578 192.029 52.7257 190.314C51.5838 189.106 50.0726 188.312 48.4305 188.058C43.7672 187.037 39.3251 185.185 35.3159 182.59C32.4972 180.827 29.549 179.28 26.4964 177.963C24.534 177.122 22.6549 176.098 20.884 174.904C19.1284 173.835 17.4391 172.66 15.8253 171.386L11.0529 167.562C9.77658 166.529 8.58301 165.398 7.48314 164.178C6.46528 163.053 5.55159 161.837 4.75332 160.546C3.85899 159.27 3.03058 157.949 2.27156 156.588C0.979065 154.614 0.270884 152.314 0.228946 149.953C0.220857 149.307 0.131145 148.665 -0.0382217 148.041C-0.362747 146.646 -0.0382357 146.244 1.25987 145.766C1.97869 145.527 2.75539 145.527 3.47422 145.766C4.5122 146.005 5.5643 146.177 6.62408 146.282C6.91373 146.298 7.19538 146.383 7.44492 146.531C9.79218 148.037 11.7538 150.074 13.1718 152.477C14.276 154.778 15.675 156.925 17.3334 158.863L17.4861 159.054C20.1014 163.05 23.9766 165.612 27.7945 168.251C28.248 168.532 28.7274 168.769 29.2263 168.958C32.4457 170.42 35.8398 171.461 39.3248 172.055C41.5425 172.511 43.7995 172.748 46.0634 172.763C49.8496 172.67 53.6174 173.319 57.1545 174.675C58.0708 175.019 59.0636 175.248 59.9799 175.516C61.6568 176.056 63.2359 176.863 64.6568 177.906C66.1076 178.919 67.5966 179.818 69.0856 180.831C70.321 181.642 71.4389 182.62 72.4073 183.737C74.129 185.707 76.048 187.495 78.1343 189.072C79.1828 189.737 80.023 190.684 80.5586 191.806C80.7251 192.186 80.9727 192.525 81.284 192.8C82.1697 193.764 82.9094 194.852 83.4794 196.031C85.1783 198.861 86.3618 201.939 88.0417 204.769C88.821 206.068 89.4608 207.446 89.9507 208.879C90.2943 208.879 90.3134 208.631 90.3325 208.459C90.8097 205.036 91.1725 201.595 91.4397 198.153C91.7769 193.145 91.8279 188.121 91.5925 183.106C91.4615 178.298 90.8216 173.517 89.6835 168.843C89.1681 166.931 88.748 164.847 88.0417 162.916C87.2044 160.667 85.6025 158.785 83.5175 157.601C81.2277 156.156 78.5878 155.362 75.8816 155.307C74.8195 155.2 73.7667 155.014 72.7318 154.752C71.1856 154.504 69.6583 154.102 68.1311 153.892C66.1727 153.562 64.2536 153.03 62.4042 152.305C62.2032 152.257 62.0103 152.18 61.8315 152.076C59.6935 150.699 57.3837 149.59 55.1693 148.347C53.6335 147.567 52.2136 146.576 50.9504 145.403C49.6523 144.084 48.3733 142.745 46.9798 141.579C46.8034 141.407 46.6666 141.198 46.5789 140.967C45.5971 139.065 44.4199 137.271 43.0663 135.614C42.4881 134.817 41.9773 133.972 41.5392 133.09C40.0326 130.485 38.0049 128.22 35.5832 126.437C34.0318 125.149 32.3413 124.04 30.5434 123.129C29.6081 122.689 28.6346 122.479 27.6419 122.116C25.0457 121.121 22.4686 120.032 20.006 118.827C18.2254 118.055 16.6831 116.821 15.5389 115.252C14.0309 112.996 14.5845 111.198 17.4479 110.625C17.677 110.625 17.9252 110.625 18.1733 110.625C20.9112 110.273 23.6931 110.555 26.3056 111.447C29.1407 112.133 31.8699 113.201 34.4187 114.621C37.6596 116.478 40.7661 118.561 43.7154 120.854C46.0497 122.652 48.2925 124.566 50.435 126.59C52.626 128.631 55.2304 130.177 58.0709 131.121C58.4909 131.274 58.9108 131.446 59.3499 131.58C61.1909 132.206 62.8185 133.339 64.046 134.849C65.5923 136.761 67.3103 138.424 68.7802 140.355C69.8684 141.789 71.071 143.147 72.0827 144.638C73.2071 146.161 74.6545 147.414 76.3207 148.309C77.6881 149.005 78.9695 149.858 80.1386 150.852C81.1122 151.789 82.353 152.42 83.3266 153.357C83.7861 153.979 84.3634 154.506 85.0256 154.905C84.5675 153.242 84.1474 151.789 83.7465 150.355C83.7465 150.145 83.5556 149.973 83.5175 149.781C82.7687 147.146 81.7782 144.586 80.5586 142.134C80.2188 141.125 80.0636 140.062 80.1004 138.998C79.9049 137.055 79.5278 135.135 78.9741 133.262C78.4587 131.063 77.8669 128.884 77.4278 126.666C76.9506 124.161 76.1488 121.733 75.5189 119.248C75.0363 117.629 74.7982 115.947 74.8125 114.258C74.8125 113.741 74.8125 113.206 74.698 112.671C74.4944 111.452 74.4432 110.212 74.5454 108.981C74.6106 108.698 74.6106 108.403 74.5454 108.12C74.1445 106.992 74.2017 105.769 73.7626 104.66C73.3096 103.423 72.7804 102.217 72.1781 101.046C70.8893 98.702 69.023 96.7274 66.7567 95.3102C65.4395 94.4881 64.0842 93.7233 62.7097 92.9585C61.7176 92.3817 60.8168 91.6599 60.0371 90.8172C58.3566 88.9618 56.9489 86.8759 55.8565 84.6225C54.5202 81.984 53.1267 79.3837 51.714 76.7835C50.1122 74.0264 47.7078 71.8251 44.8226 70.4741C42.5322 69.2847 40.37 67.8624 38.3703 66.2296C36.2323 64.5089 34.1705 62.6926 31.9752 61.0483C30.5625 59.9967 29.2836 58.7539 27.8327 57.7406C27.6072 57.5633 27.3641 57.4095 27.1073 57.2818C23.8293 55.8709 20.4773 54.6391 17.0661 53.5917C16.0795 53.3048 15.1107 52.9601 14.1645 52.5593C13.6803 52.3195 13.2982 51.9134 13.0879 51.415C12.8777 50.9167 12.8533 50.3592 13.0191 49.8443C13.4978 47.8831 14.5636 46.1153 16.0735 44.7777C17.7698 43.4396 19.8919 42.7605 22.0486 42.8657C22.2896 42.8939 22.533 42.8939 22.774 42.8657C24.7541 42.5963 26.762 43.0957 28.3863 44.2615C29.7989 44.988 31.2117 45.7719 32.548 46.6323C34.0282 47.5865 35.4556 48.6205 36.824 49.7296C37.7785 50.5135 38.7329 51.2018 39.7256 52.0239C40.9473 53.1329 41.921 54.4712 43.0473 55.6566C44.3592 57.0701 45.8403 58.3159 47.457 59.3658C47.667 59.4996 47.9534 59.6143 48.0488 59.8055C48.946 61.5836 50.6832 62.5587 51.9813 63.9544C53.3835 65.1629 54.6624 66.5079 55.7992 67.9695C57.1928 70.2065 58.9299 72.1758 60.2662 74.451C61.1825 76.0188 61.9461 77.663 62.7097 79.3073C63.1194 80.2387 63.4453 81.2049 63.6833 82.1943C64.1698 83.943 64.8821 85.6205 65.8022 87.1844C67.06 89.2527 68.4568 91.233 69.9829 93.1115C70.6152 93.9594 71.3176 94.7525 72.0827 95.4823C72.832 96.3023 73.4328 97.2469 73.8581 98.2737C74.66 99.6447 75.3803 101.062 76.0152 102.518C76.1679 102.518 76.2443 102.518 76.2443 102.518C76.4352 99.8224 76.8933 97.1648 77.2179 94.4881C77.5536 91.5445 78.1088 88.6302 78.8787 85.7696C79.5468 83.265 80.215 80.7795 81.0358 78.3322C81.3603 77.3571 81.7421 76.4202 82.0857 75.426C82.6055 74.0812 83.0516 72.7089 83.422 71.3154C83.9869 69.359 84.6821 67.4428 85.5029 65.5796C86.4999 63.3343 87.1439 60.948 87.4118 58.5054C87.5264 56.8229 88.0227 55.1978 88.2327 53.5152C88.4044 51.9266 88.4044 50.324 88.2327 48.7354C87.9845 45.7388 87.9845 42.7268 88.2327 39.7302C88.3667 38.4243 88.3282 37.1064 88.1181 35.8107C87.4497 32.7629 87.8896 29.5763 89.3589 26.8246C89.5488 26.4576 89.6839 26.0646 89.7598 25.6583C90.2703 23.7628 90.9081 21.9039 91.6688 20.0945C92.0784 19.1974 92.6189 18.3663 93.2724 17.6282C93.7924 17.0353 94.1653 16.3278 94.3605 15.5633C95.0182 12.9951 96.3115 10.6345 98.1211 8.6994C98.7157 7.94938 99.3531 7.2344 100.03 6.55804C100.813 5.79327 100.985 4.6461 101.557 3.74749C102.078 2.75464 102.818 1.89402 103.721 1.2313C104.624 0.56859 105.667 0.121307 106.769 -0.0763865C107.054 -0.114512 107.343 -0.114512 107.628 -0.0763865C107.752 -0.0791424 107.875 -0.053781 107.987 -0.00216818C108.1 0.0494447 108.2 0.125936 108.279 0.221595C108.358 0.317254 108.414 0.429637 108.443 0.55021C108.473 0.670783 108.475 0.796428 108.449 0.9178C108.239 3.57539 107.991 6.23298 107.819 8.90969C107.685 11.1275 107.532 13.3454 107.532 15.5633C107.502 18.4137 106.732 21.2072 105.299 23.6699C103.805 26.3195 102.723 29.1822 102.092 32.1589C101.72 34.3887 101.547 36.6474 101.576 38.908C101.397 43.4952 100.043 47.9592 97.6439 51.8709C97.1968 52.6115 96.658 53.2925 96.0403 53.8977C94.2365 55.7192 92.5288 57.6337 90.9243 59.6335C89.2132 61.8533 87.9667 64.3958 87.2591 67.1091C86.5528 69.7285 85.5792 72.2714 84.7392 74.8525C84.1665 76.6497 83.6511 78.466 83.0784 80.2632C82.1621 83.1694 81.1695 85.9991 80.3868 88.9817C80.2099 89.6026 80.1388 90.249 80.1768 90.8936L80.9213 89.9376C82.7737 87.4229 84.9716 85.1829 87.4499 83.2841C90.0561 81.3413 92.4041 79.0733 94.4368 76.535C95.7349 74.8525 97.2622 73.342 98.6557 71.7169C99.9688 70.244 101.174 68.6786 102.264 67.0327C103.828 64.5701 105.57 62.225 107.475 60.0158C109.87 57.1955 112.676 54.7526 115.798 52.7696C117.612 51.6415 119.502 50.6282 121.258 49.4046C123.484 47.9125 125.981 46.8731 128.607 46.3455C129.127 46.2119 129.672 46.2119 130.192 46.3455C130.626 46.4388 131.014 46.6807 131.289 47.0297C131.565 47.3786 131.71 47.8128 131.7 48.2574C131.737 49.1217 131.607 49.985 131.318 50.8003C130.363 53.9652 128.6 56.8255 126.202 59.0981C124.599 60.5703 122.995 62.0425 121.506 63.6294C119.292 66.0002 117.007 68.3073 114.653 70.5506C112.816 72.3133 110.793 73.8711 108.62 75.1966C105.361 77.0949 101.967 78.75 98.4647 80.1485C97.3984 80.5709 96.3755 81.096 95.4104 81.7163C94.6567 82.1356 93.8556 82.4629 93.0242 82.6914C91.7288 83.3052 90.5372 84.118 89.4925 85.1004C87.2705 87.0541 85.2844 89.2614 83.5748 91.6775C81.8986 93.8179 80.6891 96.2864 80.0241 98.9238C79.4396 100.979 79.0496 103.085 78.8596 105.214C78.4779 108.475 78.3822 111.764 78.5733 115.041C78.7451 116.418 78.5733 117.833 78.7069 119.229C78.9421 123.378 79.6923 127.482 80.9404 131.446C81.0002 131.579 81.0704 131.707 81.1503 131.828C81.7612 131.637 81.9903 131.063 82.3148 130.643C83.7159 128.862 85.3762 127.303 87.24 126.016C89.6373 124.365 92.1957 122.962 94.8759 121.829C97.1639 120.883 99.1788 119.377 100.736 117.45C101.29 116.781 101.825 116.112 102.416 115.539C102.875 115.065 103.267 114.531 103.581 113.952C104.351 112.596 105.246 111.316 106.253 110.128C106.567 109.742 106.86 109.34 107.131 108.923C108.269 107.152 109.773 105.646 111.541 104.507C113.314 103.252 114.951 101.817 116.428 100.224C118.86 97.4281 121.777 95.0961 125.038 93.3409C127.519 91.8929 130.118 90.6585 132.807 89.6509C133.909 89.3257 135.031 89.0766 136.167 88.9052C138.189 88.5488 140.158 87.9385 142.028 87.0889C143.936 86.2285 145.845 85.4064 147.754 84.6034C149.399 83.8362 150.858 82.7207 152.031 81.3339C152.718 80.5883 153.424 79.8426 154.169 79.1352C154.762 78.6272 155.305 78.0638 155.791 77.4527C155.96 77.1651 156.228 76.9496 156.545 76.8473C156.862 76.7451 157.205 76.7632 157.509 76.8983C158.177 77.1468 158.865 77.2424 159.533 77.4527C160.308 77.6697 160.996 78.1269 161.496 78.7587C161.997 79.3906 162.285 80.1648 162.32 80.9706C162.513 82.5765 162.075 84.1945 161.098 85.4829C159.293 88.1815 157.2 90.6753 154.856 92.9203C153.417 94.2673 151.85 95.4711 150.179 96.5147C148.5 97.3862 146.687 97.968 144.815 98.2355C143.008 98.6019 141.233 99.1134 139.508 99.765C137.751 100.415 135.881 100.778 134.105 101.467C131.7 102.289 129.399 103.393 127.252 104.755C126.547 105.251 125.934 105.866 125.439 106.572C122.474 110.467 119.073 114.008 115.302 117.125C113.044 118.926 110.552 120.412 107.895 121.542C106.412 122.137 104.86 122.542 103.275 122.747C100.813 123.205 98.3311 123.607 95.8686 124.047C95.466 124.134 95.0752 124.269 94.7041 124.448C92.3191 125.436 90.0678 126.721 88.0036 128.272C86.5942 129.352 85.3582 130.641 84.3384 132.096C83.6176 133.442 83.2436 134.947 83.2503 136.474C83.1165 139.115 83.6552 141.747 84.8157 144.122C85.9913 147.214 86.8546 150.417 87.3927 153.682C87.5038 154.454 87.7985 155.188 88.2518 155.823C88.7266 156.5 89.034 157.279 89.1489 158.098C89.5786 159.767 90.2202 161.373 91.0579 162.878C91.9036 164.479 92.4717 166.211 92.7378 168.002C93.511 172.457 93.9704 176.961 94.1124 181.481C94.1086 181.615 94.132 181.749 94.1812 181.874C94.2304 181.999 94.3044 182.112 94.3986 182.208L95.8495 180.296C96.9994 178.732 98.4301 177.396 100.068 176.357C102.661 174.744 104.891 172.608 106.616 170.086C108.067 168.174 109.289 165.956 110.587 163.853C112.381 160.855 114.39 157.993 116.6 155.288C117.178 154.664 117.818 154.101 118.509 153.605L122.327 150.565C123.731 149.668 125.213 148.9 126.756 148.271C128.856 147.124 130.936 145.957 132.903 144.619C133.783 144.002 134.551 143.239 135.174 142.363C135.932 141.238 136.859 140.239 137.923 139.399C138.149 139.218 138.348 139.006 138.515 138.769C139.169 137.922 139.948 137.181 140.825 136.57C141.875 135.786 143.001 135.098 143.994 134.237C144.662 133.664 145.597 133.587 146.285 133.033C148.082 131.665 149.999 130.462 152.011 129.438C153.85 128.424 155.843 127.719 157.91 127.354C160.583 126.876 163.217 126.169 165.909 125.939C168.329 125.633 170.783 126.109 172.915 127.297C173.629 127.591 174.234 128.1 174.644 128.755C175.055 129.41 175.251 130.177 175.205 130.949C175.164 131.685 174.955 132.402 174.594 133.045C174.234 133.688 173.731 134.239 173.125 134.658C170.493 136.256 167.757 137.674 164.935 138.902C163.72 139.45 162.435 139.83 161.117 140.03C157.935 140.654 154.807 141.53 151.763 142.65C149.11 143.545 146.685 145.013 144.662 146.952C143.6 148.255 142.655 149.65 141.837 151.12C140.424 153.165 139.317 155.383 137.923 157.41C136.129 160.048 134.277 162.668 132.196 165.172C129.439 168.616 125.976 171.426 122.041 173.413C120.265 174.169 118.416 174.74 116.524 175.115C112.992 176.071 109.384 176.663 105.814 177.466C103.367 178.048 101.204 179.477 99.7056 181.5C98.3369 183.196 97.2005 185.067 96.3267 187.064C95.882 188.135 95.6737 189.289 95.7158 190.448C95.6292 192.128 95.3669 193.794 94.9332 195.419C94.667 196.542 94.5136 197.688 94.4751 198.842C94.468 199.622 94.3653 200.399 94.1696 201.155C94.0507 201.507 93.9864 201.874 93.9787 202.245C93.9183 203.93 93.6425 205.601 93.1579 207.216C92.8594 208.712 92.6554 210.226 92.547 211.747C92.2077 214.062 91.7036 216.349 91.0388 218.592C89.889 222.348 89.0086 226.182 88.4044 230.064C88.1181 232.396 87.5072 234.633 87.3545 236.985ZM21.3613 292.641C20.2182 291.807 18.9202 291.208 17.5433 290.882C18.74 291.622 20.0221 292.212 21.3613 292.641C23.124 293.771 24.9608 294.78 26.8591 295.662C25.4185 294.064 23.4813 292.999 21.3613 292.641ZM131.566 217.33C131.406 217.364 131.251 217.422 131.108 217.502C128.946 218.996 126.703 220.368 124.389 221.613C120.946 223.553 117.16 224.807 113.24 225.303C112.566 225.358 111.912 225.567 111.331 225.915C110.415 226.546 109.422 226.985 108.506 227.635C107.589 228.284 106.772 229.063 106.082 229.949C106.202 229.965 106.324 229.965 106.444 229.949C108.628 228.191 111.212 227.002 113.966 226.488C115.787 226.147 117.549 225.541 119.196 224.691C121.697 223.372 124.255 222.148 126.832 220.867C128.586 219.963 130.169 218.76 131.509 217.311C135.472 216.035 139.307 214.39 142.963 212.397C144.094 211.711 145.128 210.875 146.036 209.912C144.098 210.547 142.23 211.38 140.462 212.397C138.792 213.506 137.006 214.429 135.136 215.151C133.798 215.6 132.579 216.345 131.566 217.33ZM151.267 86.4006C149.695 86.7803 148.176 87.3517 146.743 88.1022C146.529 88.2274 146.297 88.3178 146.055 88.3699C145.345 88.5553 144.691 88.9094 144.146 89.4023C143.028 90.3737 141.599 90.9098 140.119 90.9128C139.622 90.9128 139.126 90.9128 138.649 90.9128C136.387 91.0474 134.169 91.5916 132.101 92.5188C130.007 93.6657 128.111 95.1443 126.488 96.8971C125.346 98.1201 124.065 99.2046 122.671 100.128C121.124 101.103 119.616 102.193 117.975 103.054C117.268 103.454 116.625 103.956 116.066 104.545C115.494 105.159 114.854 105.704 114.157 106.17C112.678 107.216 111.467 108.599 110.625 110.204C110.128 111.269 109.485 112.26 108.716 113.149C108.625 113.223 108.563 113.326 108.539 113.441C108.514 113.555 108.53 113.675 108.582 113.78C109.09 113.373 109.546 112.904 109.938 112.384C110.161 112.094 110.41 111.825 110.682 111.581C111.564 110.842 112.341 109.986 112.992 109.038C113.788 107.989 114.756 107.084 115.855 106.361C116.963 105.654 118.089 104.985 119.139 104.201C121.913 102.365 124.436 100.173 126.641 97.681C127.33 96.8066 128.163 96.0565 129.104 95.4632C131.935 93.699 135.1 92.5403 138.4 92.0599C139.202 91.9452 140.023 92.0599 140.844 91.8496C142.816 91.4201 144.736 90.7791 146.571 89.9376C148.042 89.297 149.402 88.4258 150.599 87.3566C150.885 87.0875 151.113 86.762 151.267 86.4006ZM164.63 198.67C164.341 198.666 164.056 198.734 163.799 198.868C163.543 199.001 163.323 199.196 163.16 199.434C161.428 201.063 159.505 202.476 157.433 203.641C155.443 204.599 153.649 205.922 152.145 207.541C152.015 207.699 151.86 207.834 151.687 207.942C149.272 209.416 146.986 211.092 144.853 212.952C144.604 213.17 144.32 213.345 144.013 213.468C140.601 215.25 137.089 216.833 133.494 218.21C131.889 218.948 130.443 219.994 129.237 221.288C129.522 221.286 129.802 221.221 130.058 221.097C131.635 220.401 133.288 219.894 134.983 219.586C136.003 219.446 136.983 219.102 137.866 218.573C141.201 216.521 144.39 214.24 147.411 211.747C147.915 211.27 148.488 210.87 149.11 210.562C152.434 209.053 155.551 207.126 158.387 204.826C158.912 204.425 159.381 203.956 159.781 203.43C160.446 202.544 161.223 201.747 162.091 201.059C163.026 200.352 163.771 199.492 164.649 198.67H164.63ZM33.7887 119.248C35.1364 120.455 36.6009 121.524 38.1604 122.441C38.493 122.605 38.7811 122.848 39.0003 123.148C39.7555 124.014 40.6691 124.728 41.6919 125.251C43.5206 126.191 45.2698 127.278 46.9225 128.501C49.3959 130.745 51.3952 133.463 52.8021 136.493C53.7184 138.214 54.463 140.05 55.3411 141.809C55.7003 142.767 56.3732 143.576 57.2501 144.103C58.6742 144.823 60.1718 145.388 61.717 145.785C62.9388 146.053 63.9505 146.837 65.1914 147.047C66.4409 147.273 67.6772 147.566 68.8948 147.927C69.507 148.145 70.1541 148.249 70.8037 148.233C70.1165 147.946 69.4102 147.793 68.742 147.506C66.6612 146.608 64.4469 146.13 62.4424 145.059C61.9961 144.834 61.5206 144.674 61.0298 144.581C59.7047 144.207 58.4761 143.55 57.4282 142.656C56.3804 141.761 55.5382 140.651 54.9593 139.399C54.0529 137.704 53.2372 135.962 52.5157 134.18C51.8224 132.595 50.7857 131.184 49.4805 130.05C47.5716 128.425 45.6626 126.8 43.7536 125.156C41.2954 123.236 38.6622 121.552 35.8887 120.127C35.2772 119.668 34.5627 119.366 33.8078 119.248H33.7887ZM62.5761 86.7447C62.1561 85.9608 61.7361 85.1578 61.3352 84.3548C60.9477 83.7269 60.6581 83.0435 60.4762 82.3282C60.1339 80.6714 59.4298 79.1109 58.4145 77.7586C56.523 74.876 54.2058 72.2974 51.5422 70.1109C50.5938 69.458 49.5984 68.8764 48.5642 68.371C46.8107 67.5427 45.2351 66.3803 43.9254 64.9487C42.4411 63.3124 40.8534 61.7733 39.172 60.3409C37.6258 58.8878 35.774 57.8745 34.1323 56.517C31.8155 54.7301 29.0149 53.684 26.0956 53.5152C28.5773 55.0448 31.0398 56.4023 33.3497 58.0465C34.2217 58.6595 35.156 59.1786 36.1368 59.5952C38.9337 60.7957 41.3544 62.7314 43.1427 65.1972C43.4291 65.5987 43.7726 65.962 44.0399 66.3826C44.4262 66.9645 44.9298 67.459 45.5182 67.8344C46.1067 68.2098 46.7672 68.4577 47.457 68.5622C48.8797 68.8395 50.1999 69.5006 51.275 70.4741C52.7633 71.7576 54.1661 73.1371 55.4746 74.6039C56.8172 76.2654 57.9342 78.0977 58.7963 80.053C59.4031 81.6607 60.1174 83.2257 60.9344 84.7372C61.2794 85.5601 61.8566 86.2644 62.5952 86.7638L62.5761 86.7447ZM35.125 180.239C34.0183 179.612 33.0139 178.818 32.147 177.887C32.0261 177.775 31.8829 177.69 31.727 177.638C29.3981 176.587 27.3174 175.076 24.9121 174.216C23.9133 173.826 22.949 173.353 22.0295 172.801C19.7039 171.412 17.5287 169.784 15.5389 167.945C14.069 166.645 12.5228 165.44 11.0529 164.121C9.75377 162.812 8.54812 161.412 7.44492 159.934C6.91203 159.358 6.45635 158.715 6.08951 158.022C5.3641 156.473 4.65777 154.886 3.93236 153.338C3.45512 152.305 2.92069 151.311 2.34799 150.164C2.15867 151.224 2.29171 152.316 2.72981 153.299C3.82982 155.679 5.10603 157.974 6.54776 160.163C6.98629 161.007 7.53162 161.791 8.17034 162.496C9.77953 164.19 11.4947 165.78 13.3055 167.256C15.2145 168.767 16.9898 170.392 19.0324 171.73C20.7319 172.953 22.5041 174.07 24.3393 175.076C27.7754 176.759 31.288 178.269 34.5715 180.219C34.6475 180.286 34.744 180.324 34.8448 180.327C34.9456 180.331 35.0446 180.3 35.125 180.239ZM144.166 218.038C143.194 218.485 142.256 219.002 141.359 219.586C138.866 220.636 136.476 221.916 134.22 223.41C134.096 223.523 133.944 223.602 133.781 223.64C131.872 224.06 130.287 225.054 128.474 225.551C126.711 226.101 125.019 226.859 123.434 227.808C120.895 229.318 118.051 230.197 115.531 231.784C115.203 231.945 114.857 232.067 114.5 232.148L113.278 232.587C114.755 232.488 116.191 232.057 117.478 231.326C119.282 230.222 121.203 229.325 123.205 228.649C126.011 227.693 128.932 226.985 131.624 225.876C133.792 225.117 135.857 224.09 137.771 222.817C139.164 221.804 140.443 220.657 141.875 219.701C142.734 219.223 143.44 218.611 144.185 218.038H144.166ZM138.725 225.15C138.516 225.127 138.305 225.148 138.105 225.21C137.905 225.273 137.719 225.376 137.56 225.513C135.778 226.522 134.08 227.673 132.483 228.955C131.267 229.967 129.993 230.906 128.665 231.765C126.787 233.019 124.688 233.901 122.48 234.365C120.59 234.76 118.677 235.028 116.753 235.169C115.623 235.238 114.504 235.424 113.412 235.723C114.08 235.723 114.729 235.952 115.321 235.972C116.325 236.137 117.339 236.227 118.356 236.239C119.444 236.086 120.552 235.991 121.64 235.761C123.941 235.638 126.153 234.833 127.997 233.448C128.164 233.322 128.351 233.226 128.55 233.161C131.248 231.862 133.676 230.065 135.709 227.865C136.644 226.928 137.809 226.278 138.744 225.15H138.725ZM40.9856 126.895C41.0954 127.429 41.3852 127.908 41.8064 128.253C42.4555 128.922 43.1618 129.553 43.7154 130.28C44.9944 131.828 46.4071 133.262 47.8197 134.677C49.2194 135.934 50.3494 137.463 51.1413 139.17C51.8764 140.798 52.9812 142.232 54.3675 143.357C53.4512 141.675 52.8594 139.839 51.9813 138.138C50.9419 136.043 49.7353 134.035 48.3733 132.134C46.5668 129.781 44.1405 127.98 41.3674 126.934C41.3292 126.876 41.2147 126.915 41.0047 126.895H40.9856ZM44.1735 179.894C44.1735 180.2 44.3454 180.239 44.479 180.315C46.1911 181.273 47.8365 182.346 49.4041 183.527C49.5952 183.683 49.8073 183.812 50.0341 183.909C51.714 184.77 53.3558 185.688 55.0929 186.433C56.8337 187.262 58.6574 187.903 60.5335 188.345C63.2633 188.9 65.8404 190.066 68.6084 190.448C70.1043 190.686 71.5618 191.123 72.9418 191.748C73.2897 191.873 73.6473 191.969 74.0108 192.035C74.1253 192.035 74.2589 192.035 74.2208 191.882C73.4038 191.049 72.294 190.569 71.1282 190.544C70.8884 190.527 70.6513 190.482 70.4219 190.41C67.2721 189.358 64.065 188.498 60.8771 187.657C58.3424 186.953 55.9334 185.857 53.7375 184.407C51.371 182.858 48.8734 181.521 46.2735 180.411C45.6433 180.043 44.9212 179.864 44.1927 179.894H44.1735ZM105.7 174.159C107.035 173.268 108.215 172.163 109.193 170.889C109.994 170.112 110.641 169.191 111.102 168.174C111.96 166.405 112.909 164.682 113.946 163.012C115.54 160.32 117.626 157.953 120.093 156.033L120.953 155.326C122.993 153.428 125.241 151.767 127.653 150.374C129.242 149.409 130.755 148.322 132.177 147.124C129.638 148.29 127.214 149.667 124.828 151.062C123.208 152.112 121.665 153.275 120.208 154.542C118.541 155.82 117.068 157.333 115.836 159.035C113.756 161.922 112.019 165.096 110.11 168.04C108.966 169.895 107.69 171.665 106.292 173.336C106.005 173.548 105.813 173.864 105.757 174.216L105.7 174.159ZM142.352 221.345C142.791 221.058 143.249 220.791 143.669 220.485C145.578 219.166 147.487 217.865 149.396 216.661C150.38 215.98 151.462 215.452 152.603 215.093C153.782 214.751 154.916 214.27 155.982 213.659C157.498 212.758 158.929 211.721 160.258 210.562C161.27 209.797 162.167 208.879 163.16 208.095C163.972 207.663 164.637 206.997 165.069 206.184C165.907 204.255 167.077 202.488 168.524 200.964C169.466 199.755 170.315 198.477 171.063 197.14C171.274 196.823 171.413 196.464 171.469 196.087C171.525 195.71 171.497 195.325 171.388 194.96C170.185 196.337 169.479 197.886 168.371 199.167C167.878 199.741 167.473 200.385 167.169 201.079C166.251 203.058 165.041 204.889 163.58 206.509C161.949 208.353 160.188 210.078 158.311 211.671C156.237 213.216 153.921 214.405 151.458 215.189C150.732 215.495 150.045 215.839 149.339 216.183C146.839 217.672 144.504 219.422 142.371 221.403L142.352 221.345ZM54.5393 317.745L53.184 317.019C51.275 315.967 49.0605 315.374 47.1515 314.246C46.1785 313.709 45.0931 313.408 43.9827 313.367C43.2444 313.33 42.5103 313.234 41.7873 313.08C40.922 313.014 40.0816 312.76 39.3248 312.334C38.2792 311.693 37.3443 310.886 36.5568 309.944C35.9077 309.103 35.2396 308.262 34.5333 307.478C33.3237 306.136 32.2435 304.683 31.3071 303.138C30.6761 302.078 29.6546 301.309 28.4627 300.997C28.4627 301.417 28.7109 301.532 28.9018 301.704C31.4407 304.457 33.6742 307.44 36.0413 310.346C37.6689 312.367 39.7941 313.929 42.2074 314.877C43.6322 315.414 45.1212 315.761 46.6362 315.91C48.2672 316.09 49.8777 316.423 51.4467 316.904C52.4475 317.279 53.4748 317.58 54.5201 317.803L54.5393 317.745ZM131.91 227.272L130.192 227.846C129.657 228.037 129.123 228.266 128.569 228.419C124.677 229.425 120.939 230.956 117.459 232.97C117.07 233.198 116.643 233.354 116.199 233.429L113.088 234.098C113.439 234.184 113.805 234.184 114.157 234.098C115.569 233.907 116.982 233.658 118.414 233.524C121.067 233.37 123.663 232.688 126.049 231.517C128.21 230.447 130.183 229.033 131.891 227.33L131.91 227.272ZM50.3968 72.1566C50.8563 72.827 51.3601 73.4657 51.9049 74.0686C53.5275 76.2482 54.3675 78.8676 55.8947 81.1236C56.7285 82.5322 57.4806 83.9876 58.1472 85.4829C59.3101 87.4223 60.7654 89.1701 62.4615 90.6642C62.756 90.9922 63.1673 91.1914 63.6069 91.2187C63.6381 91.1351 63.642 91.0437 63.6179 90.9578C63.5939 90.8719 63.5432 90.7959 63.4732 90.7407C62.4219 89.5862 61.4524 88.3596 60.5717 87.0697C59.253 85.0879 58.2003 82.9408 57.4409 80.6839C56.744 78.8362 55.6861 77.1462 54.3293 75.7128C54.0225 75.3862 53.7357 75.0415 53.4702 74.6804C52.6149 73.6515 51.5719 72.795 50.3968 72.1566ZM21.285 167.486C23.5185 168.882 25.4275 170.736 27.7373 171.979C27.9857 172.116 28.2164 172.283 28.4245 172.476C30.2894 174.008 32.282 175.377 34.3805 176.568C35.1937 177.043 36.0503 177.44 36.9386 177.753C38.7545 178.474 40.6334 179.024 42.551 179.397C42.2243 179.089 41.8229 178.872 41.3865 178.766C40.2804 178.458 39.2209 178.001 38.2367 177.409C35.9835 175.511 33.5545 173.834 30.9826 172.4C28.6155 171.176 26.2101 170.029 23.9194 168.576C23.0813 168.165 22.2209 167.801 21.3423 167.486H21.285ZM48.4878 179.569C48.6981 179.884 49.0071 180.12 49.366 180.239C50.6068 180.946 51.8668 181.634 53.184 182.38C55.9617 184.358 59.1219 185.732 62.4615 186.414C62.6648 186.458 62.8631 186.522 63.0533 186.605C65.325 187.466 67.6921 187.963 70.002 188.747C70.1744 188.831 70.3637 188.875 70.5556 188.875C70.7475 188.875 70.9368 188.831 71.1091 188.747C69.044 187.262 66.7292 186.161 64.2751 185.496C59.9365 184.555 55.7526 183.003 51.8477 180.889C50.855 180.315 49.7287 180.086 48.4878 179.569ZM68.3793 254.326V254.135C68.2457 254.039 68.1311 253.925 67.9975 253.848C65.4967 252.376 62.8243 251.21 60.2281 249.91C59.425 249.601 58.6963 249.125 58.09 248.514C57.6151 248.001 57.0357 247.597 56.391 247.328C55.2066 246.769 54.097 246.062 53.0884 245.225C52.5937 244.77 52.0082 244.424 51.3704 244.212C51.7786 244.885 52.2945 245.485 52.8976 245.99C54.0811 246.984 55.1883 248.074 56.3337 249.145C58.0659 250.975 60.2638 252.297 62.6906 252.969L64.5996 253.408L68.3793 254.326ZM68.3793 144.294C67.883 143.338 67.0812 142.917 66.4703 142.248C64.6221 140.103 62.4748 138.235 60.0944 136.704C59.1872 136.195 58.3631 135.55 57.6509 134.792C56.4921 133.602 55.2617 132.485 53.9666 131.446C54.1842 132.098 54.5733 132.679 55.0929 133.128C56.4441 134.975 57.9721 136.685 59.6553 138.233C59.7178 138.292 59.7753 138.356 59.8271 138.424C60.4263 139.358 61.1972 140.169 62.0988 140.814C64.0777 142.225 66.2182 143.394 68.4747 144.294H68.3793ZM135.193 281.151C135.502 281.081 135.803 280.978 136.091 280.845C137.312 280.214 138.668 279.946 139.909 279.334C142.265 278.181 144.542 276.872 146.724 275.415C147.874 274.497 149.1 273.678 150.389 272.968C150.675 272.834 151.019 272.738 151.076 272.279C150.7 272.272 150.332 272.386 150.026 272.604C148.869 273.215 147.677 273.758 146.456 274.229C144.872 274.918 143.345 275.682 141.779 276.371C140.729 276.83 139.87 277.537 138.763 278.015C137.378 278.74 136.211 279.822 135.384 281.151H135.193ZM134.716 221.288C134.544 221.078 134.392 221.154 134.239 221.173C132.792 221.468 131.387 221.943 130.058 222.588C128.288 223.244 126.566 224.024 124.904 224.921C123.726 225.583 122.501 226.158 121.239 226.641C119.01 227.347 116.866 228.296 114.844 229.471C113.466 230.501 111.965 231.355 110.377 232.014C110.377 232.014 110.377 232.148 110.377 232.224L110.797 232.109C114.615 230.886 118.127 228.611 121.907 227.138C122.24 226.973 122.559 226.781 122.861 226.565C124.038 225.775 125.325 225.163 126.679 224.748C128.588 224.194 130.364 223.334 132.234 222.703C133.202 222.394 134.107 221.915 134.907 221.288H134.716ZM40.1839 302.66C40.1839 302.889 40.1839 302.966 40.1839 303.023C41.6673 305.48 44.0633 307.247 46.8462 307.937C48.9842 308.51 51.1604 308.988 53.2794 309.581C55.0547 310.097 56.8683 310.48 58.6627 310.939C58.9109 310.939 59.159 311.168 59.4644 310.939C59.1426 310.649 58.7455 310.457 58.3191 310.384C56.881 310.067 55.4934 309.552 54.1957 308.855C53.4766 308.374 52.6355 308.109 51.7712 308.09C51.4016 308.067 51.0393 307.976 50.7022 307.822C49.785 307.484 48.8479 307.203 47.8961 306.981C46.6013 306.741 45.3795 306.205 44.3263 305.413C43.0934 304.38 41.771 303.458 40.3747 302.66H40.1839ZM3.24516 147.525C3.20941 147.599 3.19941 147.682 3.21673 147.762C3.23404 147.841 3.27765 147.913 3.34058 147.965C5.00139 149.437 6.43314 151.139 8.01759 152.687C8.38277 153.018 8.71524 153.383 9.01029 153.777C10.3275 155.689 11.8929 157.601 13.3437 159.513C14.4394 161.152 15.863 162.545 17.5244 163.605C17.7621 163.763 17.9799 163.949 18.1733 164.159C18.3404 164.373 18.5766 164.522 18.8414 164.58C16.9325 161.769 14.6036 159.551 12.6755 156.932C11.6446 155.536 10.1939 154.542 9.12483 153.108C7.85775 151.437 6.47345 149.859 4.98239 148.386C4.76824 148.129 4.50313 147.921 4.20407 147.772C3.90501 147.624 3.57846 147.54 3.24516 147.525ZM93.5969 51.718C94.3032 50.5709 95.0286 49.4428 95.7349 48.2766C96.0979 47.7291 96.4171 47.1537 96.6894 46.5558C97.126 45.4517 97.6495 44.384 98.2548 43.3629C98.8102 42.4426 99.1252 41.3972 99.1711 40.3229C99.3658 36.6326 100.007 32.9796 101.08 29.4439C101.08 29.3292 101.252 29.1381 100.927 29.0425C100.179 30.9995 99.5412 32.9975 99.0183 35.0268C98.2219 39.267 96.9872 43.4128 95.334 47.397C94.7804 48.8501 94.0741 50.2076 93.5969 51.718ZM47.8961 243.447C48.5833 244.231 49.2133 245.091 49.9578 245.818C52.6113 248.418 55.2838 250.961 57.9373 253.466C58.2862 253.823 58.7195 254.086 59.1972 254.231C61.1954 254.845 63.2376 255.305 65.3059 255.607C66.4047 255.703 67.5096 255.703 68.6084 255.607C68.2839 255.473 67.9593 255.435 67.6539 255.32C66.3664 254.898 65.044 254.591 63.7023 254.403C61.5244 254.187 59.4555 253.343 57.7463 251.974C55.8373 250.445 54.1002 248.915 52.4203 247.233C51.1013 245.76 49.5776 244.485 47.8961 243.447ZM102.817 72.5773C102.994 72.5749 103.166 72.5281 103.32 72.4413C103.473 72.3544 103.602 72.2302 103.695 72.0801C106.043 69.4608 108.22 66.6885 110.358 63.8779C111.885 61.966 113.336 59.8629 115.054 58.0465C115.391 57.8004 115.649 57.4617 115.798 57.0714C115.55 57.044 115.299 57.0889 115.075 57.2008C114.852 57.3128 114.665 57.4869 114.538 57.7024C113.766 58.7116 112.868 59.6176 111.866 60.3982C111.711 60.5303 111.571 60.6776 111.446 60.8379C110.243 62.444 108.468 63.5912 107.628 65.5222C105.814 67.7229 104.204 70.0843 102.817 72.5773ZM43.1427 131.847C43.4185 132.836 43.8782 133.764 44.498 134.581C45.4525 135.977 46.407 137.335 47.3806 138.73C47.7478 139.366 48.1626 139.973 48.6215 140.547C50.2441 142.287 52.0195 143.854 53.7948 145.422C53.8987 145.542 54.035 145.63 54.1875 145.674C54.34 145.718 54.5019 145.717 54.6538 145.671C53.2859 144.581 52.089 143.292 51.1031 141.847C50.4648 141.141 50.0121 140.286 49.7859 139.361C49.6138 138.681 49.2414 138.068 48.7169 137.602C47.2661 136.168 45.8534 134.677 44.498 133.147C44.0781 132.727 43.6009 132.306 43.1427 131.847ZM103.142 11.9497C102.275 12.8768 101.531 13.9113 100.927 15.0279C99.2283 18.1061 97.2812 21.0505 95.7731 24.2435C94.7749 26.1754 93.9816 28.2068 93.406 30.3043C93.1097 31.3886 92.9556 32.507 92.9478 33.6311C94.0168 31.1073 94.1696 28.4497 95.2959 26.1171C95.6919 24.9958 96.2725 23.9489 97.0139 23.0198C97.7456 22.2975 98.3867 21.4885 98.9229 20.6108C99.6292 19.4636 100.355 18.3165 101.099 17.1884C102.108 15.589 102.801 13.8107 103.142 11.9497ZM140.844 280.806C140.653 280.692 140.539 280.806 140.386 280.902C138.906 281.599 137.374 282.181 135.804 282.642C133.015 283.499 130.421 284.896 128.168 286.753C128.112 286.784 128.067 286.832 128.039 286.89C128.012 286.949 128.004 287.014 128.016 287.078C130.574 287.078 138.591 283.12 140.844 280.806ZM108.811 68.2372L109.002 68.3901C110.475 67.1073 111.8 65.6645 112.954 64.0883C113.57 63.0143 114.313 62.0192 115.168 61.1248C115.501 60.7138 115.814 60.2863 116.104 59.8438C116.321 59.4913 116.577 59.1642 116.867 58.8686C118.365 57.3701 120.061 56.0836 121.907 55.0448C122.084 54.941 122.251 54.8193 122.403 54.6815C123.586 53.7271 124.865 52.9004 126.221 52.2151C126.419 52.1644 126.603 52.0715 126.761 51.9428C126.919 51.8141 127.048 51.6526 127.138 51.4695C126.66 51.4242 126.183 51.5608 125.801 51.8519C124.217 52.7887 122.594 53.7638 121.067 54.7198C119.655 55.5593 118.37 56.5958 117.249 57.798C114.806 60.6659 112.381 63.5338 110.071 66.5738C109.575 67.0517 109.212 67.6445 108.811 68.2372ZM124.312 168.729C124.791 168.412 125.25 168.068 125.687 167.696C126.565 166.836 127.787 166.32 128.436 165.268C129.581 163.471 130.994 161.846 132.063 159.991C132.819 158.604 133.749 157.318 134.831 156.167C135.117 155.834 135.373 155.476 135.594 155.097C134.314 155.886 133.145 156.844 132.12 157.945C131.49 158.541 130.984 159.256 130.631 160.048C129.664 161.992 128.472 163.814 127.08 165.478C126.104 166.515 125.18 167.6 124.312 168.729ZM29.3981 225.074C28.2113 223.797 26.7578 222.798 25.1411 222.148C24.4074 221.881 23.7136 221.514 23.0794 221.058C22.4126 220.581 21.6704 220.219 20.884 219.988C18.2345 219.253 15.5009 218.868 12.7519 218.841C12.5801 218.841 12.351 218.841 12.2365 219.013C12.3004 219.09 12.383 219.15 12.4765 219.187C12.57 219.224 12.6713 219.236 12.7709 219.223C14.9402 219.444 17.0824 219.879 19.166 220.523C21.0664 221.036 22.8897 221.801 24.5875 222.798C26.0716 223.788 27.6923 224.554 29.3981 225.074ZM122.231 156.244C120.054 157.747 118.122 159.578 116.505 161.674C114.875 163.673 113.638 165.963 112.858 168.423C113.923 167.6 114.829 166.589 115.531 165.44C116.506 164.252 117.363 162.971 118.089 161.616C118.769 160.198 119.701 158.916 120.838 157.831C121.334 157.276 121.792 156.76 122.251 156.263L122.231 156.244ZM66.2413 261.209C66.4943 261.306 66.7566 261.376 67.024 261.419C69.4423 261.522 71.8649 261.394 74.259 261.037C76.168 260.789 78.0769 260.54 79.9859 260.483C80.3928 260.565 80.8157 260.49 81.1695 260.272C80.444 260.1 79.8332 259.871 79.2605 259.794C77.6541 259.453 76.0015 259.389 74.3735 259.603C71.6628 260.158 68.9902 260.846 66.2413 261.209ZM54.3293 134.601L56.2383 138.577C56.7183 139.479 57.3295 140.303 58.0518 141.025C59.9608 143.109 62.7288 143.376 65.0959 144.485C64.6691 144.046 64.1463 143.712 63.5688 143.51C62.9012 143.19 62.2625 142.813 61.6598 142.382C60.8055 141.686 60.0308 140.897 59.3499 140.03C57.821 138.598 56.4101 137.044 55.131 135.384C54.9783 135.098 54.8256 134.754 54.3293 134.601ZM128.875 101.639C128.875 101.792 129.027 101.811 129.123 101.753C130.566 101 132.066 100.361 133.609 99.8415C135.384 99.1532 137.427 99.1149 138.973 97.8148C139.075 97.7456 139.194 97.7059 139.317 97.7001C140.653 97.4516 141.913 96.9545 143.268 96.7824C143.555 96.7652 143.835 96.687 144.089 96.553C145.139 95.9603 146.189 95.3294 147.277 94.6411C147.181 94.5777 147.068 94.544 146.953 94.544C146.837 94.544 146.725 94.5777 146.628 94.6411C144.132 95.7921 141.503 96.627 138.801 97.1266C137.923 97.3209 137.062 97.583 136.224 97.9105C135.003 98.3884 133.8 98.8664 132.559 99.2871C131.169 99.7819 129.909 100.586 128.875 101.639ZM39.5156 120.567C39.5156 120.299 39.5157 120.204 39.3248 120.089C37.5954 118.727 35.7779 117.482 33.8842 116.361H33.6551C31.1162 115.768 28.8827 114.449 26.4201 113.646C25.5072 113.273 24.5059 113.173 23.5375 113.359C29.1007 115.195 34.4561 117.611 39.5156 120.567ZM77.6951 153.07L77.027 152.86C76.19 152.659 75.3423 152.506 74.488 152.401C72.4645 151.904 70.4601 151.292 68.3984 150.967C65.6893 150.527 63.0382 149.783 60.4952 148.749C60.2853 148.749 60.0753 148.386 59.7889 148.749C60.5525 149.15 61.3352 149.533 62.0797 149.953C64.086 151 66.2547 151.698 68.4938 152.018C70.1546 152.286 71.8155 152.535 73.4381 152.936C74.7922 153.317 76.2142 153.389 77.5997 153.146L77.6951 153.07ZM122.251 165.077L122.499 165.23C125.673 161.573 128.642 157.743 131.395 153.758C129.668 154.412 128.219 155.64 127.29 157.238C126.432 158.961 125.395 160.588 124.198 162.094C123.415 163.165 122.804 164.178 122.155 165.153L122.251 165.077ZM124.809 103.015C123.28 103.712 121.972 104.816 121.029 106.208C120.744 106.611 120.411 106.977 120.036 107.298C118.093 109.058 116.299 110.977 114.672 113.034C114.672 113.034 114.672 113.168 114.672 113.244C114.672 113.321 114.844 113.244 114.901 113.244C117.052 111.746 118.98 109.95 120.628 107.91C121.384 106.936 122.235 106.039 123.167 105.233C123.83 104.639 124.357 103.909 124.713 103.092L124.809 103.015ZM29.1499 295.07C29.3493 295.478 29.644 295.832 30.009 296.102C31.7364 297.476 33.3869 298.944 34.9532 300.499C36.5949 302.411 38.2558 304.323 39.9548 306.082C40.1415 306.339 40.3853 306.549 40.6669 306.695C40.9486 306.841 41.2603 306.919 41.5774 306.924L41.1573 306.426C40.6419 305.566 39.7256 305.088 39.2484 304.228C38.2573 302.577 36.9616 301.13 35.4304 299.964C34.5425 299.31 33.7295 298.56 33.0061 297.727C31.8715 296.64 30.5695 295.742 29.1499 295.07ZM104.364 233.39C108.173 231.967 111.775 230.037 115.073 227.655C113.341 227.914 111.66 228.443 110.09 229.222C108.067 230.484 106.292 231.976 104.364 233.39ZM10.5566 282.221C11.2161 283.812 12.139 285.279 13.2864 286.561C13.4286 286.703 13.5891 286.825 13.7636 286.925C15.4053 287.67 16.8371 288.837 18.5552 289.391C20.0107 290.174 21.5387 290.815 23.1176 291.303C22.8122 291.054 22.6594 290.863 22.4685 290.749L17.0089 287.689C16.8252 287.606 16.6333 287.542 16.4362 287.498C15.5425 287.187 14.7459 286.647 14.1263 285.93C12.9705 284.891 11.9506 283.709 11.091 282.413C10.9956 282.317 10.9002 282.107 10.5566 282.221ZM94.9141 41.9289C95.281 41.5348 95.5089 41.0311 95.5631 40.4949C96.0594 37.7418 96.6894 35.0268 97.0712 32.2736C97.1788 31.4984 97.3643 30.7362 97.6248 29.9984C98.1182 29.0322 98.2728 27.9277 98.0638 26.8628C96.1885 31.6756 95.1242 36.7669 94.9141 41.9289ZM59.9417 257.825C60.3883 258.416 60.9651 258.897 61.6273 259.228C62.2895 259.56 63.0193 259.734 63.7596 259.737C65.1914 259.737 66.6231 259.565 68.0357 259.45C68.6263 259.391 69.1949 259.194 69.6965 258.877C68.6275 258.724 67.7876 258.877 66.8522 258.628C65.3441 258.303 63.7978 258.093 62.2706 257.787C61.4998 257.64 60.7072 257.653 59.9417 257.825ZM153.252 133.109C151.449 133.498 149.766 134.318 148.346 135.499C145.764 137.591 143.489 140.037 141.589 142.765C141.136 143.24 140.767 143.79 140.5 144.39C141.018 144.16 141.475 143.813 141.837 143.376C143.026 141.773 144.3 140.234 145.655 138.769C146.838 137.412 148.27 136.296 149.873 135.48C151.038 134.887 152.05 133.874 153.176 133.109H153.252ZM151.897 213.105C152.031 213.105 152.126 213.105 152.183 213.105C154.438 212.331 156.519 211.122 158.311 209.549C159.075 208.745 159.953 208.038 160.716 207.254C161.385 206.661 161.969 205.979 162.454 205.228C158.788 207.79 155.39 210.39 151.821 213.105H151.897ZM131.185 98.1972C132.309 97.9973 133.401 97.6435 134.43 97.1457C134.955 96.8153 135.519 96.552 136.11 96.3618C138.42 95.8647 140.672 95.119 142.982 94.4499C143.173 94.4499 143.497 94.4499 143.478 94.1057C143.041 93.9706 142.569 94.0118 142.161 94.2204C140.595 94.8583 138.904 95.1328 137.217 95.0234C136.188 94.9659 135.16 95.156 134.22 95.5779C132.913 96.0669 131.814 96.9919 131.108 98.1972H131.185ZM41.7873 236.22C41.7952 236.078 41.7719 235.936 41.7192 235.804C41.6664 235.672 41.5855 235.553 41.4819 235.455C40.7947 234.366 39.7257 233.639 38.943 232.626C37.9959 231.344 36.6543 230.41 35.125 229.968C34.5911 229.759 34.0995 229.454 33.6742 229.069C32.9106 228.458 32.3188 227.674 31.517 227.158C31.9044 228.093 32.5217 228.915 33.3115 229.547C35.0296 230.867 36.7094 232.243 38.4275 233.562C39.4528 234.562 40.5787 235.453 41.7873 236.22ZM115.397 170.163C117.65 168.996 124.713 159.934 125.744 156.779L123.606 158.844C123.146 159.261 122.798 159.787 122.594 160.373C121.925 162.317 120.776 164.06 119.253 165.44C118.825 165.879 118.441 166.359 118.108 166.874C117.392 168.096 116.476 169.188 115.397 170.105V170.163ZM118.032 101.333C118.255 101.31 118.47 101.241 118.665 101.129C118.859 101.017 119.027 100.865 119.158 100.683C119.619 100.217 120.181 99.8641 120.8 99.6503C121.617 99.3654 122.36 98.9016 122.976 98.2928C124.293 97.1265 125.572 95.922 126.794 94.7366C126.865 94.6947 126.922 94.6319 126.956 94.5566C126.99 94.4813 127 94.3973 126.985 94.316C125.095 94.7366 118.757 99.5738 118.032 101.295V101.333ZM46.8653 245.206C46.1879 244.618 45.6136 243.92 45.1662 243.141C44.8525 242.662 44.4509 242.247 43.9827 241.918C41.9278 240.496 40.0667 238.812 38.4466 236.908C38.313 236.755 38.1603 236.488 37.7785 236.755C39.0116 238.83 40.6319 240.648 42.551 242.109C43.1466 242.535 43.6967 243.022 44.1927 243.562C44.5057 244.001 44.9035 244.373 45.3626 244.655C45.8216 244.938 46.3326 245.125 46.8653 245.206ZM38.6185 307.249C39.2151 308.379 39.9813 309.41 40.8902 310.308C41.1852 310.6 41.5672 310.788 41.9783 310.843C43.9486 311.252 45.9622 311.413 47.9724 311.321C46.0634 310.862 44.6508 310.002 43.0854 309.409C41.4748 308.974 39.9598 308.242 38.6185 307.249ZM112.916 66.7841C113.505 66.4096 113.98 65.8806 114.29 65.2545C115.901 62.8733 117.933 60.8065 120.284 59.1555C121.718 58.1261 123.002 56.9037 124.102 55.5228C119.368 58.1193 115.484 62.0297 112.916 66.7841ZM118.986 106.094C117.688 106.935 116.505 107.7 115.34 108.503C115.008 108.747 114.718 109.044 114.481 109.382C113.784 110.294 113.018 111.15 112.19 111.944C111.331 112.862 110.51 113.856 109.67 114.755C111.798 113.628 113.686 112.095 115.226 110.242C116.273 108.823 117.491 107.539 118.853 106.419C118.853 106.419 118.91 106.323 118.986 106.094ZM138.782 273.885C138.838 273.934 138.909 273.96 138.983 273.96C139.056 273.96 139.128 273.934 139.183 273.885C141.179 273.022 143.249 272.343 145.368 271.859C146.795 271.432 148.147 270.787 149.377 269.947C150.391 269.301 151.31 268.516 152.107 267.614C151.098 268.095 150.117 268.631 149.167 269.22C147.56 270.028 145.895 270.711 144.185 271.266C142.277 271.898 140.461 272.779 138.782 273.885ZM68.5703 319.447C67.7382 319.284 66.8825 319.284 66.0504 319.447C65.4148 319.556 64.7629 319.524 64.1414 319.351C62.23 318.894 60.2591 318.74 58.3 318.892C58.0518 318.892 57.7272 318.72 57.4981 319.179C58.7186 319.853 60.0767 320.239 61.4688 320.307C63.836 320.307 66.1458 319.676 68.513 319.676C68.513 319.638 68.5321 319.581 68.5703 319.447ZM59.2926 178.862C58.5232 178.219 57.6248 177.75 56.6583 177.485C55.73 177.332 54.8293 177.042 53.9857 176.625C53.3748 176.34 52.7347 176.122 52.0767 175.975L47.3806 175.038C46.82 174.924 46.2423 174.924 45.6817 175.038C50.2632 175.803 54.5011 178.078 59.2926 178.862ZM27.1455 173.509C24.3225 171.053 21.0921 169.112 17.6007 167.773C20.3499 170.323 23.601 172.271 27.1455 173.489V173.509ZM113.049 68.8872C114.825 68.4857 120.685 61.9087 121.506 60.1688C119.807 61.641 118.146 63.1323 116.485 64.6427C116.245 64.8633 116.033 65.1139 115.855 65.3884C115.136 66.7075 114.186 67.8863 113.049 68.8681V68.8872ZM128.665 160.507L128.455 160.278C127.309 161.654 126.126 163.012 125.019 164.427C123.146 166.428 121.123 168.281 118.967 169.971C118.905 170.027 118.834 170.072 118.757 170.105C118.411 170.275 118.115 170.532 117.898 170.851C122.445 168.568 126.198 164.962 128.665 160.507ZM21.7622 284.573C21.6349 284.016 21.334 283.514 20.9032 283.139C19.9105 281.954 18.6697 280.979 17.7534 279.698C17.0846 278.931 16.3358 278.239 15.5198 277.633C15.3046 277.44 15.0485 277.298 14.7708 277.219C14.493 277.139 14.2009 277.124 13.9164 277.174C16.3573 279.819 18.9788 282.292 21.7622 284.573ZM60.8962 248.571L61.1252 248.284C60.721 247.952 60.3384 247.595 59.9799 247.214C58.0701 245.034 55.5807 243.442 52.8021 242.625C52.6756 242.554 52.536 242.509 52.3918 242.492C52.2475 242.476 52.1015 242.488 51.9622 242.529C54.8256 244.843 58.0327 246.449 60.8771 248.571H60.8962ZM65.4967 316.158C62.404 315.015 59.2072 314.176 55.9519 313.654C57.2977 314.677 58.8317 315.425 60.4661 315.855C62.1006 316.285 63.8035 316.388 65.4778 316.158H65.4967ZM46.8843 183.451C45.0303 182.03 42.8961 181.019 40.6229 180.487C39.962 180.37 39.3199 180.164 38.7139 179.875C37.9718 179.534 37.189 179.29 36.3849 179.149C36.3849 179.608 36.6904 179.684 36.9195 179.818C38.0322 180.511 39.2328 181.051 40.4892 181.424C42.5509 182.093 44.6699 182.686 46.8653 183.451H46.8843ZM10.022 157.601C11.4728 161.578 17.1616 166.97 20.1014 166.951C16.0543 164.664 12.5964 161.463 10.003 157.601H10.022ZM21.6859 224.519C21.6859 224.768 21.6859 224.901 21.915 225.035C22.4172 225.466 22.976 225.827 23.5758 226.106C26.1449 227.191 28.5233 228.682 30.6199 230.522C31.1026 231.006 31.7111 231.344 32.3761 231.498C31.0259 230.467 29.7501 229.343 28.5582 228.133C26.6175 226.479 24.3741 225.219 21.9531 224.423C21.9531 224.423 21.7622 224.404 21.7622 224.443L21.6859 224.519ZM62.0225 194.157C64.9432 195.438 71.4337 196.184 73.3045 195.458C69.4865 194.406 65.6687 194.731 62.0225 194.157ZM172.743 260.941C169.166 262.885 165.745 265.103 162.511 267.576C164.419 266.859 166.214 265.867 167.837 264.631C168.441 264.069 169.139 263.616 169.898 263.293C171.087 262.817 172.082 261.955 172.724 260.846L172.743 260.941ZM131.146 281.782C131.219 281.832 131.306 281.859 131.395 281.859C131.483 281.859 131.57 281.832 131.643 281.782C133.071 280.951 134.36 279.899 135.461 278.665C136.011 277.999 136.702 277.464 137.484 277.097C138.171 276.753 138.897 276.447 139.584 276.084C139.889 275.931 140.271 275.835 140.386 275.396C136.301 276.18 133.685 278.856 131.146 281.782ZM20.4259 286.007C17.8297 283.732 15.5771 281.112 12.79 278.818C14.5353 281.954 17.2384 284.447 20.5023 285.93L20.4259 286.007ZM27.1073 117.584C24.4538 116.227 22.144 114.105 18.9942 113.76C21.3818 115.688 24.1863 117.03 27.1838 117.68L27.1073 117.584ZM23.862 219.777C25.9487 220.868 27.9579 222.101 29.8754 223.467C31.6507 224.997 33.1779 226.775 35.1824 228.4C34.266 225.876 27.9855 221.116 23.9385 219.777H23.862ZM141.474 282.527C138.032 284.761 134.358 286.614 130.516 288.053C134.711 287.509 138.599 285.562 141.55 282.527H141.474ZM49.8433 313.787C51.6953 314.486 53.4836 315.343 55.1884 316.349C56.1015 316.928 57.197 317.147 58.2618 316.961C55.6656 315.508 53.1458 313.749 49.9769 313.787H49.8433ZM48.1825 185.993C45.5013 184.578 42.6448 183.523 39.6875 182.858C42.2412 184.639 45.2159 185.72 48.316 185.993H48.1825ZM150.637 136.474L160.354 132.249C156.793 132.605 153.438 134.085 150.771 136.474H150.637ZM63.1105 190.467C59.9081 189.722 56.7731 188.711 53.7375 187.447C56.3896 189.661 59.8027 190.745 63.2442 190.467H63.1105ZM169.746 260.483C166.214 262.395 162.434 263.886 159.724 267.04C163.236 264.899 166.443 262.528 169.88 260.483H169.746ZM73.5145 150.718C72.7039 150.252 71.8192 149.928 70.8992 149.762C67.7358 149.246 64.6378 148.387 61.6598 147.2C61.3914 147.069 61.0993 146.992 60.8009 146.976C60.5025 146.96 60.2038 147.003 59.9226 147.105C64.485 149.189 69.2002 149.437 73.6481 150.718H73.5145ZM129.81 278.053C132.832 275.544 136.131 273.389 139.641 271.629C135.499 272.279 132.903 275.453 129.944 278.053H129.81ZM5.15413 152.84C5.80112 155.386 7.11983 157.711 8.97208 159.57C7.96032 157.353 7.78853 154.542 5.28777 152.84H5.15413ZM64.3323 137.927C62.557 135.882 60.9343 133.606 58.0136 133.09C60.0125 134.913 62.1867 136.533 64.5042 137.927H64.3323ZM110.148 107.929C107.911 110.054 106.125 112.61 104.898 115.443C105.977 113.977 107.137 112.573 108.372 111.237C108.6 110.951 108.774 110.628 108.888 110.281C109.196 109.422 109.655 108.626 110.243 107.929H110.148ZM154.398 89.0008C155.58 87.9854 156.649 86.8443 157.586 85.5976C158.12 84.9166 158.598 84.1942 159.017 83.4371C159.219 83.1884 159.329 82.8779 159.329 82.5576C159.329 82.2373 159.219 81.9268 159.017 81.6781C157.733 84.251 156.219 86.7019 154.493 89.0008H154.398ZM159.819 264.612C157.481 265.705 155.319 267.142 153.405 268.876C155.929 268.09 158.184 266.613 159.915 264.612H159.819ZM48.1825 66.3061C47.6861 64.3942 46.1016 63.0176 43.1045 61.6983C44.5315 63.5045 46.2474 65.0615 48.1825 66.3061ZM23.3658 217.808V217.56L22.5067 217.196C21.1514 216.604 19.6814 216.355 18.2879 215.858C16.8943 215.361 16.5507 215.609 15.5389 216.776C18.1929 216.48 20.8788 216.834 23.3658 217.808ZM60.2471 179.091V179.34C62.5378 180.583 65.0386 181.386 67.4057 182.495C66.6272 181.595 65.672 180.866 64.5996 180.353C63.1297 179.856 61.6788 179.512 60.2471 179.091ZM135.633 146.588C137.781 145.274 139.514 143.378 140.634 141.12C138.458 142.535 137.312 144.887 135.633 146.646V146.588ZM38.0076 175.038C40.3041 176.83 42.9935 178.049 45.8535 178.594C43.2191 177.466 40.6802 176.109 38.0076 175.038ZM36.4994 61.9469C36.4864 62.0485 36.5009 62.1517 36.5411 62.2459C36.5814 62.34 36.6462 62.4216 36.7286 62.4822C38.1413 63.9162 40.0884 64.681 41.3865 66.3061C41.4304 66.3787 41.4994 66.4325 41.5804 66.4572C41.6614 66.4819 41.7488 66.4758 41.8255 66.44C40.5853 64.4065 38.7147 62.8352 36.4994 61.966V61.9469ZM37.6449 239.451C36.4816 237.169 34.7854 235.201 32.7006 233.715C34.1563 235.792 35.8124 237.719 37.6449 239.47V239.451ZM147.964 90.9128C149.309 90.6665 150.539 89.9966 151.477 89.0008C152.32 88.0006 153.239 87.0673 154.226 86.2094C154.789 85.7094 155.171 85.0374 155.314 84.2975C152.947 86.8595 150.961 89.4597 147.964 90.9128ZM112.744 114.602C110.642 115.832 108.667 117.267 106.845 118.884C109.17 118.032 111.212 116.549 112.744 114.602ZM57.0209 181.634C59.215 182.821 61.588 183.641 64.046 184.062C63.6046 183.475 62.9559 183.078 62.2325 182.953C60.9223 182.729 59.6416 182.357 58.4145 181.845C57.9783 181.647 57.4959 181.574 57.0209 181.634ZM162.797 135.748C159.512 136.298 156.307 137.249 153.252 138.577C153.52 138.692 153.615 138.769 153.653 138.749C156.555 137.411 159.724 136.799 162.797 135.69V135.748ZM19.2997 294.802C18.7142 294.39 18.0708 294.068 17.3907 293.846C16.4404 293.603 15.5281 293.23 14.6799 292.737C13.9527 292.258 13.0838 292.042 12.2174 292.125C14.4172 293.385 16.8105 294.27 19.2997 294.744V294.802ZM146.456 214.692C148.098 213.887 149.647 212.906 151.076 211.766C151.401 211.537 151.859 211.384 151.992 210.81C149.899 211.681 148.013 212.984 146.456 214.634V214.692ZM153.558 264.402C151.076 265.97 148.575 267.557 145.922 268.933C148.75 268.013 151.335 266.464 153.481 264.402H153.558ZM105.757 13.7087C105.36 14.642 105.133 15.6394 105.089 16.6531C105.082 18.2154 104.71 19.7544 104.001 21.1461C103.596 21.7587 103.323 22.4489 103.199 23.1728C105.432 20.324 105.623 17.1119 105.757 13.7087ZM151.992 84.1063C153.975 83.2164 155.578 81.6515 156.517 79.6897C154.878 81.0014 153.38 82.4817 152.05 84.1063H151.992ZM7.50224 148.844C8.58567 149.899 9.54629 151.072 10.3657 152.343C10.7439 152.906 11.2733 153.35 11.8929 153.624C11.023 151.572 9.47202 149.883 7.50224 148.844ZM60.0753 191.806C62.2298 192.77 64.6009 193.146 66.9476 192.896C64.7523 191.959 62.347 192.245 60.0753 191.806ZM101.271 7.80079C99.481 9.27127 98.0455 11.1273 97.0712 13.2307C98.942 11.7776 99.5147 9.33034 101.271 7.80079ZM121.201 159.895C120.065 161.141 119.149 162.569 118.49 164.121C119.843 163.058 120.798 161.569 121.201 159.895ZM13.0764 290.079C12.6564 288.894 11.6829 288.397 11.1674 287.556C10.7595 286.637 10.2741 285.754 9.7166 284.917C9.90563 285.958 10.3002 286.951 10.8771 287.837C11.454 288.724 12.2017 289.486 13.0764 290.079ZM32.548 302.029C33.2349 303.627 34.3113 305.028 35.6786 306.101C34.9672 304.517 33.8951 303.123 32.548 302.029ZM165.069 136.799C162.511 136.799 160.621 138.348 158.407 138.558C160.717 138.388 162.975 137.792 165.069 136.799ZM31.1162 52.8843C29.3946 51.7964 27.4223 51.1709 25.3893 51.068C25.9753 51.549 26.6817 51.8598 27.4318 51.9666C28.6988 52.0866 29.9407 52.396 31.1162 52.8843ZM55.131 179.455C57.04 180.219 59.1399 180.602 61.087 181.367C59.2951 180.235 57.2459 179.577 55.131 179.455ZM126.756 99.7459C128.932 98.4267 129.753 97.681 130.173 96.6104C128.809 97.3795 127.64 98.4523 126.756 99.7459ZM90.1416 48.0089C89.798 45.8292 90.5425 43.6688 90.1416 41.5083C89.7694 43.6576 89.75 45.8533 90.0843 48.0089H90.1416ZM25.5802 47.0337V46.7279C24.9112 46.4254 24.1856 46.269 23.4517 46.269C22.7177 46.269 21.9922 46.4254 21.3232 46.7279L25.5802 47.0337ZM23.9766 289.754C25.1089 290.889 26.497 291.735 28.0237 292.221C26.8307 291.166 25.4604 290.331 23.9766 289.754ZM101.175 25.0082C101.175 25.0082 101.08 24.8553 101.061 24.8553C101.042 24.8553 100.946 24.8553 100.946 24.8553C100.33 25.7778 99.8598 26.7903 99.5529 27.857C99.3919 28.2886 99.3919 28.7638 99.5529 29.1954L101.175 25.0082ZM48.7742 63.7632C49.5386 64.982 50.6037 65.9829 51.8668 66.6694C50.9948 65.5439 49.9511 64.5632 48.7742 63.7632ZM29.169 306.407L31.7652 309.791L32.0516 309.562C31.1162 308.472 30.5626 307.115 29.169 306.407ZM104.593 3.19301C104.088 3.37451 103.642 3.69174 103.306 4.10995C102.969 4.52815 102.754 5.03116 102.684 5.5638C103.467 4.90475 104.116 4.0996 104.593 3.19301ZM125.591 282.336C126.641 281.514 127.92 280.979 128.378 279.678L125.591 282.336ZM37.8931 296.599L38.0458 296.37C37.0915 295.44 36.0635 294.59 34.9723 293.827L34.8005 294.056L37.8931 296.599ZM159.208 134.486C158.238 134.621 157.304 134.946 156.459 135.442C157.471 135.346 158.521 135.404 159.208 134.486ZM56.2383 72.5964L56.4864 72.4052C56.273 71.948 55.9652 71.5413 55.5836 71.2118C55.2019 70.8822 54.755 70.6374 54.2721 70.4933L56.2383 72.5964ZM109.231 70.3786C110.274 69.611 111.195 68.6891 111.961 67.6444C110.908 68.3931 109.991 69.318 109.25 70.3786H109.231ZM94.8187 52.4446C95.6507 51.5244 96.3335 50.4793 96.8422 49.3472C96.0065 50.2607 95.3291 51.3076 94.8378 52.4446H94.8187ZM165.012 132.746L161.824 133.396C162.941 133.473 164.055 133.22 165.031 132.669L165.012 132.746Z" fill="#031C0F"/>
</svg>
