<svg width="21" height="21" viewBox="0 0 21 21" fill="none" xmlns="http://www.w3.org/2000/svg">
<path d="M18.6375 2.25H18V1.5C17.9905 1.10517 17.8294 0.729145 17.5501 0.449877C17.2709 0.170609 16.8948 0.00951808 16.5 0H15.075C14.6738 0.00978914 14.2923 0.176087 14.012 0.46337C13.7317 0.750653 13.5749 1.13614 13.575 1.5375V2.25H7.575V1.5C7.56548 1.10517 7.40439 0.729145 7.12513 0.449877C6.84586 0.170609 6.46983 0.00951808 6.075 0H4.65C4.24877 0.00978914 3.86726 0.176087 3.58699 0.46337C3.30671 0.750653 3.14989 1.13614 3.15 1.5375V2.25H2.5125C2.18987 2.22947 1.86646 2.27538 1.56229 2.38488C1.25811 2.49438 0.979647 2.66515 0.744128 2.88661C0.508609 3.10806 0.321047 3.3755 0.193052 3.67237C0.0650574 3.96924 -0.000647509 4.28922 4.80991e-06 4.6125V17.8875C4.80991e-06 18.5141 0.248911 19.115 0.691966 19.558C1.13502 20.0011 1.73593 20.25 2.36251 20.25H18.6375C19.2641 20.25 19.865 20.0011 20.308 19.558C20.7511 19.115 21 18.5141 21 17.8875V4.6125C21 3.98593 20.7511 3.38501 20.308 2.94196C19.865 2.49891 19.2641 2.25 18.6375 2.25ZM16.5 1.5V3.75H15V1.5H16.5ZM6 1.5V3.75H4.5V1.5H6ZM2.36251 3.75H3C3 4.14782 3.15804 4.52935 3.43934 4.81066C3.72065 5.09196 4.10218 5.25 4.5 5.25H6C6.39783 5.25 6.77936 5.09196 7.06066 4.81066C7.34197 4.52935 7.5 4.14782 7.5 3.75H13.5C13.5 4.14782 13.658 4.52935 13.9393 4.81066C14.2206 5.09196 14.6022 5.25 15 5.25H16.5C16.8978 5.25 17.2794 5.09196 17.5607 4.81066C17.842 4.52935 18 4.14782 18 3.75H18.6375C18.8656 3.75196 19.0839 3.84346 19.2452 4.00478C19.4065 4.16611 19.498 4.38436 19.5 4.6125V6.75H1.5V4.6125C1.50196 4.38436 1.59346 4.16611 1.75479 4.00478C1.91612 3.84346 2.13436 3.75196 2.36251 3.75ZM18.6375 18.75H2.36251C2.13436 18.748 1.91612 18.6565 1.75479 18.4952C1.59346 18.3339 1.50196 18.1156 1.5 17.8875V8.25H19.5V17.8875C19.498 18.1156 19.4065 18.3339 19.2452 18.4952C19.0839 18.6565 18.8656 18.748 18.6375 18.75Z" fill="#05103B"/>
<path d="M9.43342 9.89077C9.33726 9.82108 9.22592 9.77521 9.10857 9.75696C8.99122 9.73871 8.87121 9.74858 8.75842 9.78577L6.50842 10.5358C6.41471 10.5671 6.32811 10.6166 6.2536 10.6815C6.17908 10.7464 6.11812 10.8253 6.07422 10.9138C6.03031 11.0023 6.00433 11.0986 5.99776 11.1972C5.99118 11.2958 6.00415 11.3947 6.03592 11.4883C6.06723 11.582 6.11675 11.6686 6.18162 11.7431C6.2465 11.8176 6.32546 11.8786 6.41397 11.9225C6.50248 11.9664 6.5988 11.9924 6.69738 11.9989C6.79596 12.0055 6.89487 11.9925 6.98842 11.9608L8.24842 11.5408V16.4983C8.24842 16.6972 8.32744 16.8879 8.46809 17.0286C8.60874 17.1693 8.79951 17.2483 8.99842 17.2483C9.19733 17.2483 9.3881 17.1693 9.52875 17.0286C9.6694 16.8879 9.74842 16.6972 9.74842 16.4983V10.4983C9.74787 10.3793 9.71902 10.2621 9.66424 10.1565C9.60947 10.0509 9.53035 9.95978 9.43342 9.89077Z" fill="#05103B"/>
<path d="M12.75 9.74805C12.1533 9.74805 11.581 9.9851 11.159 10.4071C10.7371 10.829 10.5 11.4013 10.5 11.998V14.998C10.5 15.5948 10.7371 16.1671 11.159 16.589C11.581 17.011 12.1533 17.248 12.75 17.248C13.3467 17.248 13.919 17.011 14.341 16.589C14.7629 16.1671 15 15.5948 15 14.998V11.998C15 11.4013 14.7629 10.829 14.341 10.4071C13.919 9.9851 13.3467 9.74805 12.75 9.74805ZM13.5 14.998C13.5 15.197 13.421 15.3877 13.2803 15.5284C13.1397 15.669 12.9489 15.748 12.75 15.748C12.5511 15.748 12.3603 15.669 12.2197 15.5284C12.079 15.3877 12 15.197 12 14.998V11.998C12 11.7991 12.079 11.6084 12.2197 11.4677C12.3603 11.3271 12.5511 11.248 12.75 11.248C12.9489 11.248 13.1397 11.3271 13.2803 11.4677C13.421 11.6084 13.5 11.7991 13.5 11.998V14.998Z" fill="#05103B"/>
</svg>
