<svg width="16" height="20" viewBox="0 0 16 20" fill="none" xmlns="http://www.w3.org/2000/svg">
<path d="M14.382 15.835L14.9562 15.4288C15.0314 15.3752 15.0953 15.3073 15.1441 15.2289C15.1929 15.1505 15.2258 15.0632 15.2407 14.9721C15.2557 14.881 15.2525 14.7878 15.2313 14.6979C15.2101 14.608 15.1714 14.5232 15.1173 14.4484L14.2979 13.3139C14.4493 13.2062 14.5517 13.0427 14.5826 12.8595C14.6134 12.6763 14.5702 12.4883 14.4625 12.337C14.3548 12.1856 14.1913 12.0832 14.0081 12.0524C13.8249 12.0215 13.637 12.0647 13.4856 12.1724L13.0794 11.6052C13.1546 11.5516 13.2185 11.4836 13.2673 11.4052C13.3161 11.3268 13.349 11.2396 13.3639 11.1485C13.3789 11.0573 13.3757 10.9642 13.3545 10.8743C13.3333 10.7844 13.2946 10.6996 13.2405 10.6247C13.1326 10.4788 12.9723 10.3805 12.7933 10.3504C12.6143 10.3204 12.4307 10.361 12.2811 10.4637L11.8259 9.8334C11.9103 9.70642 11.9675 9.56336 11.994 9.41322C12.0179 9.27204 12.0136 9.1275 11.9811 8.98803C11.9487 8.84855 11.8887 8.71694 11.8049 8.60087L10.6284 6.95516C10.5455 6.83842 10.4403 6.73924 10.3189 6.66332C10.1975 6.58741 10.0623 6.53626 9.92101 6.51283C9.77976 6.48939 9.63526 6.49414 9.49585 6.52679C9.35644 6.55943 9.22487 6.61934 9.10871 6.70306L8.8566 6.88513L5.5862 2.32618C5.53253 2.24695 5.46319 2.17955 5.38247 2.12816C5.30174 2.07677 5.21134 2.04247 5.11684 2.02738C5.02235 2.01229 4.92576 2.01672 4.83304 2.04041C4.74032 2.0641 4.65344 2.10654 4.57776 2.16511L4.47972 2.23514L2.31579 0.190258C2.19842 0.0798308 2.04656 0.0132621 1.88582 0.00178043C1.72507 -0.0097012 1.56529 0.034607 1.43341 0.127231L0.291924 0.946583C0.160929 1.04062 0.066398 1.17697 0.0242942 1.33263C-0.0178097 1.48829 -0.00490661 1.65371 0.0608244 1.80095L1.29335 4.53212L1.18831 4.60916C1.03844 4.71732 0.937413 4.88034 0.907241 5.06268C0.877069 5.24503 0.920203 5.4319 1.02724 5.58257L4.28364 10.1415L4.03853 10.3236C3.92049 10.4054 3.81996 10.5099 3.74283 10.631C3.66571 10.7521 3.61356 10.8874 3.58942 11.029C3.56529 11.1705 3.56966 11.3154 3.60229 11.4553C3.63491 11.5951 3.69514 11.727 3.77942 11.8433L4.95593 13.489C5.05729 13.6301 5.19085 13.745 5.34553 13.8242C5.50021 13.9034 5.67155 13.9445 5.84531 13.9442C5.93539 13.941 6.02475 13.9269 6.11142 13.9021L6.56662 14.5394C6.44705 14.626 6.3579 14.7481 6.31188 14.8884C6.26586 15.0286 6.26534 15.1798 6.31038 15.3204C6.35542 15.461 6.44373 15.5837 6.56269 15.6711C6.68166 15.7585 6.82519 15.806 6.97279 15.807C7.11922 15.809 7.26215 15.7622 7.37897 15.6739V15.6739L7.79215 16.2482C7.64117 16.3553 7.53874 16.5178 7.50724 16.7002C7.47575 16.8826 7.51775 17.07 7.62407 17.2216C7.6892 17.313 7.77537 17.3875 7.87531 17.4387C7.97525 17.4899 8.08603 17.5163 8.19832 17.5157C8.34427 17.5148 8.48628 17.4682 8.6045 17.3826L9.41684 18.5241C9.52558 18.674 9.68924 18.7747 9.87204 18.8043H9.99109C10.137 18.8033 10.279 18.7568 10.3973 18.6712L10.9645 18.265L11.5107 19.0284C11.6906 19.277 11.961 19.4451 12.2637 19.4961C12.5663 19.5472 12.8769 19.4773 13.1284 19.3015L14.6621 18.202C14.7865 18.1149 14.8921 18.0036 14.9727 17.8749C15.0533 17.7462 15.1072 17.6026 15.1313 17.4527C15.1563 17.3017 15.1512 17.1473 15.1163 16.9982C15.0815 16.8492 15.0176 16.7086 14.9282 16.5843L14.382 15.835ZM10.2642 11.0519L10.7194 10.7298L11.1256 11.297L7.70811 13.7411L7.30194 13.1528L10.2642 11.0519ZM2.47686 3.70577L1.57347 1.75193L1.77656 1.60487L3.34524 3.0685L2.89704 3.38363L2.47686 3.70577ZM5.44614 9.30818L2.5749 5.33747L4.85088 3.71277L7.70111 7.69748L6.17445 8.78995L5.44614 9.30818ZM5.124 11.262L6.93078 9.96646L9.10871 8.40479L9.67596 7.99861L10.4953 9.1401L5.91534 12.4525L5.124 11.262ZM11.9379 12.4525L12.3441 13.0198L8.92663 15.4638L8.52046 14.8966L11.9379 12.4525ZM10.1802 17.1375L9.774 16.5703L13.1915 14.1262L13.5976 14.6935L13.0304 15.0997L11.4197 16.2552L10.1802 17.1375ZM12.5122 18.0549L12.106 17.4877L13.2475 16.6543L13.6537 17.2286L12.5122 18.0549Z" fill="white"/>
</svg>
