<svg width="20" height="18" viewBox="0 0 20 18" fill="none" xmlns="http://www.w3.org/2000/svg">
<path d="M10 0C8.03965 0.000650654 6.1227 0.577282 4.48733 1.65825C2.85195 2.73922 1.57022 4.27687 0.801406 6.08017C0.0325881 7.88346 -0.189435 9.87291 0.162921 11.8013C0.515278 13.7298 1.42648 15.5121 2.78332 16.927C2.84973 16.9967 2.92954 17.0522 3.01794 17.0903C3.10635 17.1284 3.20153 17.1482 3.29778 17.1485H16.7022C16.7985 17.1482 16.8937 17.1284 16.9821 17.0903C17.0705 17.0522 17.1503 16.9967 17.2167 16.927C18.5735 15.5121 19.4847 13.7298 19.8371 11.8013C20.1894 9.87291 19.9674 7.88346 19.1986 6.08017C18.4298 4.27687 17.1481 2.73922 15.5127 1.65825C13.8773 0.577282 11.9603 0.000650654 10 0ZM8.47807 15.7195L8.9568 15.005H11.0432L11.5219 15.7195H8.47807ZM16.3878 15.7195H13.2439L12.2365 14.219C12.1063 14.0214 11.9292 13.8592 11.7209 13.747C11.5127 13.6347 11.2798 13.576 11.0432 13.5759H8.9568C8.72021 13.576 8.48734 13.6347 8.27907 13.747C8.07081 13.8592 7.89367 14.0214 7.76354 14.219L6.75607 15.7195H3.61217C2.68482 14.6838 2.02321 13.4381 1.68435 12.0899C1.34549 10.7416 1.33954 9.33117 1.66703 7.98009C1.99451 6.62902 2.6456 5.37783 3.56419 4.33436C4.48278 3.29088 5.64132 2.48641 6.93997 1.99027C8.23862 1.49413 9.63843 1.32119 11.0188 1.48638C12.3991 1.65156 13.7186 2.14989 14.8635 2.93845C16.0084 3.727 16.9445 4.78212 17.5909 6.01288C18.2373 7.24363 18.5748 8.61312 18.5743 10.0033C18.5795 12.1139 17.8003 14.1512 16.3878 15.7195Z" fill="white"/>
<path d="M10.0012 3.57227C8.79059 3.57517 7.60538 3.91975 6.58191 4.56636C5.55844 5.21297 4.73827 6.13535 4.21576 7.22741C3.69324 8.31946 3.4896 9.53683 3.62826 10.7395C3.76692 11.9421 4.24224 13.0812 4.99956 14.0257C5.118 14.1745 5.29068 14.2701 5.47962 14.2915C5.66855 14.313 5.85827 14.2585 6.00703 14.1401C6.15579 14.0216 6.25141 13.8489 6.27285 13.66C6.29429 13.4711 6.23979 13.2813 6.12136 13.1326C5.3974 12.2501 5.00105 11.1444 4.99956 10.003C4.99956 8.67645 5.52651 7.40426 6.46451 6.46627C7.4025 5.52827 8.67469 5.00131 10.0012 5.00131C11.3277 5.00131 12.5999 5.52827 13.5379 6.46627C14.4759 7.40426 15.0029 8.67645 15.0029 10.003C15.0074 11.1418 14.6187 12.2472 13.9025 13.1326C13.7857 13.2807 13.7321 13.4689 13.7535 13.6563C13.775 13.8437 13.8696 14.015 14.0168 14.1329C14.1425 14.2338 14.2987 14.2892 14.4598 14.2901C14.5678 14.2915 14.6747 14.2685 14.7724 14.2227C14.8702 14.1769 14.9563 14.1096 15.0243 14.0257C15.7828 13.0798 16.2583 11.9387 16.3962 10.7342C16.5341 9.52959 16.3286 8.31058 15.8035 7.21776C15.2783 6.12493 14.455 5.20283 13.4283 4.55781C12.4017 3.91279 11.2137 3.57114 10.0012 3.57227Z" fill="white"/>
<path d="M10.9213 8.06756L8.77776 10.2111C8.71079 10.2775 8.65763 10.3566 8.62136 10.4436C8.58508 10.5307 8.56641 10.6241 8.56641 10.7184C8.56641 10.8128 8.58508 10.9062 8.62136 10.9932C8.65763 11.0803 8.71079 11.1593 8.77776 11.2257C8.84418 11.2927 8.92321 11.3459 9.01028 11.3821C9.09735 11.4184 9.19075 11.4371 9.28507 11.4371C9.3794 11.4371 9.47279 11.4184 9.55986 11.3821C9.64693 11.3459 9.72596 11.2927 9.79238 11.2257L11.9359 9.08218C12.0705 8.94763 12.1461 8.76515 12.1461 8.57487C12.1461 8.38459 12.0705 8.2021 11.9359 8.06756C11.8014 7.93301 11.6189 7.85742 11.4286 7.85742C11.2384 7.85742 11.0559 7.93301 10.9213 8.06756Z" fill="white"/>
</svg>
