<svg width="20" height="12" viewBox="0 0 20 12" fill="none" xmlns="http://www.w3.org/2000/svg">
<path d="M17.7285 5.22856L8.57142 2.53571V1.42857C8.76086 1.42857 8.94254 1.35331 9.07649 1.21936C9.21045 1.0854 9.2857 0.903724 9.2857 0.714284C9.2857 0.524844 9.21045 0.343163 9.07649 0.209209C8.94254 0.0752549 8.76086 0 8.57142 0H2.85714C2.6677 0 2.48602 0.0752549 2.35207 0.209209C2.21811 0.343163 2.14286 0.524844 2.14286 0.714284C2.14286 0.903724 2.21811 1.0854 2.35207 1.21936C2.48602 1.35331 2.6677 1.42857 2.85714 1.42857V2.49999C1.86639 2.91281 1.04927 3.65613 0.5448 4.6035C0.0403291 5.55087 -0.120326 6.64377 0.0901682 7.69624C0.300662 8.74871 0.869302 9.69574 1.69934 10.3762C2.52938 11.0567 3.56954 11.4285 4.64285 11.4285H16.8357C17.5968 11.4286 18.3323 11.1542 18.9076 10.6559C19.4828 10.1576 19.8592 9.46861 19.9677 8.7153C20.0762 7.96199 19.9095 7.19482 19.4982 6.55442C19.087 5.91402 18.4587 5.4433 17.7285 5.22856V5.22856ZM4.28571 1.42857H7.14285V2.18571C6.9561 2.15723 6.76747 2.1429 6.57856 2.14285H4.64285C4.52391 2.13574 4.40465 2.13574 4.28571 2.14285V1.42857ZM16.8357 9.99998H4.64285C3.79037 9.99998 2.97281 9.66133 2.37002 9.05854C1.76722 8.45574 1.42858 7.63818 1.42858 6.7857C1.42858 5.93322 1.76722 5.11566 2.37002 4.51286C2.97281 3.91007 3.79037 3.57142 4.64285 3.57142H6.57856C6.88551 3.57103 7.19095 3.61433 7.48571 3.69999L17.3214 6.59284C17.681 6.70125 17.9965 6.92205 18.2214 7.22286C18.4464 7.52367 18.5691 7.88865 18.5714 8.26427C18.5714 8.72461 18.3885 9.16609 18.063 9.4916C17.7375 9.81711 17.296 9.99998 16.8357 9.99998V9.99998Z" fill="white"/>
<path d="M7.85658 6.42773H4.99944C4.81 6.42773 4.62832 6.50299 4.49437 6.63694C4.36041 6.7709 4.28516 6.95258 4.28516 7.14202C4.28516 7.33146 4.36041 7.51314 4.49437 7.64709C4.62832 7.78105 4.81 7.8563 4.99944 7.8563H7.85658C8.04602 7.8563 8.2277 7.78105 8.36165 7.64709C8.49561 7.51314 8.57086 7.33146 8.57086 7.14202C8.57086 6.95258 8.49561 6.7709 8.36165 6.63694C8.2277 6.50299 8.04602 6.42773 7.85658 6.42773Z" fill="white"/>
</svg>
