<svg width="30" height="30" viewBox="0 0 30 30" fill="none" xmlns="http://www.w3.org/2000/svg">
<path fill-rule="evenodd" clip-rule="evenodd" d="M25.2226 4.91847C27.8834 6.9444 28.2595 10.743 26.0457 13.2316L14.9997 25.6489L3.95388 13.2329C1.73968 10.7441 2.11577 6.94499 4.77693 4.91881C7.50054 2.84506 11.4546 3.50655 13.3204 6.34808L13.9464 7.30137C14.3211 7.87209 15.0974 8.03731 15.6803 7.67039C15.8629 7.55546 16.0049 7.40195 16.1022 7.22776L16.6793 6.34856C18.5446 3.50656 22.4989 2.84465 25.2226 4.91847ZM15 4.42166C12.1954 0.877041 6.92526 0.170558 3.23641 2.97923C-0.562101 5.87139 -1.09892 11.2942 2.0616 14.8468L14.0557 28.3286C14.5108 28.8402 15.3034 28.8937 15.8259 28.4481C15.8938 28.3902 15.9538 28.3267 16.0058 28.2589L27.9381 14.8453C31.0981 11.293 30.5612 5.87077 26.7631 2.97889C23.0743 0.170236 17.8042 0.876976 15 4.42166Z" fill="#22211F"/>
</svg>
