<svg width="16" height="14" viewBox="0 0 16 14" fill="none" xmlns="http://www.w3.org/2000/svg">
<path fill-rule="evenodd" clip-rule="evenodd" d="M15.7071 7.70711C16.0976 7.31658 16.0976 6.68342 15.7071 6.29289L9.70711 0.292894C9.31658 -0.0976307 8.68342 -0.0976307 8.29289 0.292894C7.90237 0.683418 7.90237 1.31658 8.29289 1.70711L13.5858 7L8.29289 12.2929C7.90237 12.6834 7.90237 13.3166 8.29289 13.7071C8.68342 14.0976 9.31658 14.0976 9.70711 13.7071L15.7071 7.70711ZM1.70711 13.7071L7.70711 7.70711C8.09763 7.31658 8.09763 6.68342 7.70711 6.29289L1.70711 0.292893C1.31658 -0.0976311 0.683418 -0.0976311 0.292894 0.292893C-0.0976307 0.683417 -0.0976307 1.31658 0.292894 1.70711L5.58579 7L0.292894 12.2929C-0.0976312 12.6834 -0.0976312 13.3166 0.292894 13.7071C0.683417 14.0976 1.31658 14.0976 1.70711 13.7071Z" fill="#676767"/>
</svg>
