<svg width="13" height="16" viewBox="0 0 13 16" fill="none" xmlns="http://www.w3.org/2000/svg">
<path fill-rule="evenodd" clip-rule="evenodd" d="M6.25 8.68182C3.56528 8.68182 1.38889 10.8186 1.38889 13.4545V14.8182C1.38889 15.1947 1.07798 15.5 0.694444 15.5C0.310913 15.5 0 15.1947 0 14.8182V13.4545C0 10.0655 2.79822 7.31818 6.25 7.31818C9.70178 7.31818 12.5 10.0655 12.5 13.4545V14.8182C12.5 15.1947 12.1891 15.5 11.8056 15.5C11.422 15.5 11.1111 15.1947 11.1111 14.8182V13.4545C11.1111 10.8186 8.93472 8.68182 6.25 8.68182Z" fill="white"/>
<path fill-rule="evenodd" clip-rule="evenodd" d="M6.25 7.31818C7.78412 7.31818 9.02778 6.09714 9.02778 4.59091C9.02778 3.08468 7.78412 1.86364 6.25 1.86364C4.71588 1.86364 3.47222 3.08468 3.47222 4.59091C3.47222 6.09714 4.71588 7.31818 6.25 7.31818ZM6.25 8.68182C8.55119 8.68182 10.4167 6.85026 10.4167 4.59091C10.4167 2.33156 8.55119 0.5 6.25 0.5C3.94881 0.5 2.08333 2.33156 2.08333 4.59091C2.08333 6.85026 3.94881 8.68182 6.25 8.68182Z" fill="white"/>
</svg>
