<svg width="24" height="24" viewBox="0 0 24 24" fill="none" xmlns="http://www.w3.org/2000/svg">
<circle cx="11.6187" cy="11.6187" r="11.277" stroke="white" stroke-width="0.683453"/>
<g clip-path="url(#clip0_110_21268)">
<path fill-rule="evenodd" clip-rule="evenodd" d="M15.4297 11.8168C15.4297 11.9832 15.2948 12.118 15.1284 12.118L9.24299 12.1181L9.95092 12.8059C10.0703 12.9218 10.073 13.1125 9.95709 13.2319C9.84115 13.3512 9.65042 13.354 9.53108 13.238L8.2906 12.033C8.2322 11.9762 8.19925 11.8983 8.19925 11.8169C8.19925 11.7355 8.2322 11.6575 8.2906 11.6008L9.53108 10.3957C9.65042 10.2798 9.84115 10.2825 9.95709 10.4019C10.073 10.5212 10.0703 10.712 9.95092 10.8279L9.24301 11.5156L15.1284 11.5155C15.2948 11.5155 15.4297 11.6504 15.4297 11.8168Z" fill="white"/>
</g>
<defs>
<clipPath id="clip0_110_21268">
<rect width="7.23041" height="7.23041" fill="white" transform="matrix(-1 0 0 1 15.4297 8.20117)"/>
</clipPath>
</defs>
</svg>
