<svg width="16" height="16" viewBox="0 0 16 16" fill="none" xmlns="http://www.w3.org/2000/svg">
<path fill-rule="evenodd" clip-rule="evenodd" d="M13.3333 6.15673V5.33268C13.3333 4.5963 12.7364 3.99935 12 3.99935H2.66667C1.93029 3.99935 1.33333 4.5963 1.33333 5.33268V10.666C1.33333 11.4024 1.93029 11.9993 2.66667 11.9993H12C12.7364 11.9993 13.3333 11.4024 13.3333 10.666V9.84197L14.2981 9.35956C14.524 9.24664 14.6667 9.0158 14.6667 8.76328V7.23542C14.6667 6.9829 14.524 6.75206 14.2981 6.63913L13.3333 6.15673ZM14.6667 5.33268L14.8944 5.44656C15.572 5.78535 16 6.47787 16 7.23542V8.76328C16 9.52082 15.572 10.2134 14.8944 10.5521L14.6667 10.666C14.6667 12.1388 13.4728 13.3327 12 13.3327H2.66667C1.19391 13.3327 0 12.1388 0 10.666V5.33268C0 3.85992 1.19391 2.66602 2.66667 2.66602H12C13.4728 2.66602 14.6667 3.85992 14.6667 5.33268Z" fill="#838383"/>
<path d="M3.33464 5.33398C2.96645 5.33398 2.66797 5.63246 2.66797 6.00065V10.0007C2.66797 10.3688 2.96645 10.6673 3.33464 10.6673C3.70283 10.6673 4.0013 10.3688 4.0013 10.0007V6.00065C4.0013 5.63246 3.70283 5.33398 3.33464 5.33398Z" fill="#838383"/>
<path d="M6.0013 5.33398C5.63311 5.33398 5.33464 5.63246 5.33464 6.00065V10.0007C5.33464 10.3688 5.63311 10.6673 6.0013 10.6673C6.36949 10.6673 6.66797 10.3688 6.66797 10.0007V6.00065C6.66797 5.63246 6.36949 5.33398 6.0013 5.33398Z" fill="#838383"/>
<path d="M8.0013 6.00065C8.0013 5.63246 8.29978 5.33398 8.66797 5.33398C9.03616 5.33398 9.33464 5.63246 9.33464 6.00065V10.0007C9.33464 10.3688 9.03616 10.6673 8.66797 10.6673C8.29978 10.6673 8.0013 10.3688 8.0013 10.0007V6.00065Z" fill="#838383"/>
<path d="M11.3346 5.33398C10.9664 5.33398 10.668 5.63246 10.668 6.00065V10.0007C10.668 10.3688 10.9664 10.6673 11.3346 10.6673C11.7028 10.6673 12.0013 10.3688 12.0013 10.0007V6.00065C12.0013 5.63246 11.7028 5.33398 11.3346 5.33398Z" fill="#838383"/>
</svg>
