<svg width="13" height="13" viewBox="0 0 13 13" fill="none" xmlns="http://www.w3.org/2000/svg">
<path fill-rule="evenodd" clip-rule="evenodd" d="M9.47487 10.5039C8.48031 11.2764 7.23058 11.7363 5.87332 11.7363C2.62957 11.7363 0 9.10906 0 5.86816C0 2.62727 2.62957 0 5.87332 0C9.11706 0 11.7466 2.62727 11.7466 5.86816C11.7466 7.22423 11.2863 8.47286 10.5131 9.46655L12.785 11.7362C13.0717 12.0227 13.0717 12.4871 12.785 12.7736C12.4983 13.06 12.0334 13.06 11.7467 12.7736L9.47487 10.5039ZM10.2783 5.86816C10.2783 8.29884 8.30612 10.2693 5.87332 10.2693C3.44051 10.2693 1.46833 8.29884 1.46833 5.86816C1.46833 3.43749 3.44051 1.46704 5.87332 1.46704C8.30612 1.46704 10.2783 3.43749 10.2783 5.86816Z" fill="#C6C6C6"/>
</svg>
