<svg width="16" height="16" viewBox="0 0 16 16" fill="none" xmlns="http://www.w3.org/2000/svg">
<g clip-path="url(#clip0_4_401)">
<path d="M12.7037 13.2813C12.5899 12.5221 12.0596 11.8978 11.3535 11.6483C10.5243 10.0135 10.0842 8.18377 10.0797 6.35073C10.584 6.30176 10.9796 5.87556 10.9796 5.35858C10.9796 4.92803 10.7052 4.5604 10.3221 4.42124C10.6386 3.95666 10.8086 3.40915 10.8086 2.83307C10.8086 1.27092 9.5377 0 7.97552 0C6.41334 0 5.14242 1.27092 5.14242 2.8331C5.14242 3.40915 5.31243 3.95669 5.62886 4.42127C5.24582 4.56044 4.97141 4.92806 4.97141 5.35862C4.97141 5.87559 5.36698 6.30179 5.87131 6.35076C5.86682 8.1838 5.4267 10.0135 4.59746 11.6483C3.89144 11.8978 3.36106 12.5222 3.24728 13.2813C2.58061 13.3409 2.05615 13.9023 2.05615 14.5843V15.6396C2.05615 15.8117 2.19566 15.9511 2.3677 15.9511H13.5833C13.7554 15.9511 13.8949 15.8117 13.8949 15.6396V14.5843C13.8949 13.9023 13.3704 13.3409 12.7037 13.2813ZM9.45664 6.35553C9.46147 8.13667 9.85688 9.91472 10.6044 11.5311H5.3466C6.09416 9.91472 6.48957 8.13667 6.4944 6.35553H9.45664ZM7.97552 0.623091C9.1941 0.623091 10.1855 1.61449 10.1855 2.8331C10.1855 3.40896 9.96742 3.94819 9.5701 4.36164H6.38097C5.98365 3.94815 5.76554 3.40896 5.76554 2.8331C5.76551 1.61449 6.75694 0.623091 7.97552 0.623091ZM5.59453 5.35858C5.59453 5.15243 5.76224 4.98473 5.96839 4.98473H9.98265C10.1888 4.98473 10.3565 5.15243 10.3565 5.35858C10.3565 5.56473 10.1888 5.73244 9.98265 5.73244H5.96839C5.76224 5.73244 5.59453 5.56473 5.59453 5.35858ZM13.2718 15.328H2.67924V14.5843C2.67924 14.2064 2.98671 13.8989 3.36464 13.8989H6.57755C6.74959 13.8989 6.8891 13.7594 6.8891 13.5873C6.8891 13.4153 6.74959 13.2758 6.57755 13.2758H3.88206C4.02475 12.6349 4.59746 12.1542 5.28065 12.1542H10.6704C11.3536 12.1542 11.9263 12.6349 12.069 13.2758H9.38143C9.2094 13.2758 9.06989 13.4153 9.06989 13.5873C9.06989 13.7594 9.2094 13.8989 9.38143 13.8989H12.5864C12.9643 13.8989 13.2718 14.2064 13.2718 14.5843V15.328Z" fill="white"/>
<path d="M7.97951 13.2759C7.89727 13.2759 7.8172 13.3089 7.75925 13.3672C7.70099 13.4251 7.66797 13.5052 7.66797 13.5874C7.66797 13.6694 7.70099 13.7497 7.75925 13.8077C7.8172 13.8656 7.8973 13.899 7.97951 13.899C8.06145 13.899 8.14183 13.8656 8.19978 13.8077C8.25769 13.7497 8.29106 13.6694 8.29106 13.5874C8.29106 13.5055 8.25772 13.4251 8.19978 13.3672C8.14183 13.3089 8.06145 13.2759 7.97951 13.2759Z" fill="white"/>
</g>
<defs>
<clipPath id="clip0_4_401">
<rect width="15.9511" height="15.9511" fill="white"/>
</clipPath>
</defs>
</svg>
