<svg width="15" height="15" viewBox="0 0 15 15" fill="none" xmlns="http://www.w3.org/2000/svg">
<g clip-path="url(#clip0_4_411)">
<path d="M10.7012 0H1.83628C0.88481 0.00123123 0.11378 0.772261 0.112549 1.72373V10.5682C0.11378 11.5196 0.88481 12.2907 1.83628 12.2919H4.54499V11.7994H1.83628C1.15664 11.7986 0.605843 11.2478 0.605042 10.5682V6.40242H2.18644C2.33237 6.39174 2.44204 6.2648 2.43136 6.11883C2.4293 6.0907 2.42277 6.06306 2.412 6.03699C2.19315 5.53895 2.41945 4.95781 2.91748 4.73896C3.41552 4.52011 3.99666 4.74641 4.21551 5.24444C4.32648 5.49697 4.32648 5.78446 4.21551 6.03699C4.15469 6.16423 4.20856 6.31669 4.3358 6.37751C4.36871 6.39324 4.40463 6.40174 4.44107 6.40245H6.02247V7.87993C5.94112 7.86608 5.85875 7.85924 5.77623 7.85949C4.96023 7.85921 4.29853 8.52048 4.29822 9.33645C4.29801 9.92433 4.64635 10.4564 5.18523 10.6913L5.38223 10.2402C4.8834 10.0232 4.65491 9.44292 4.87188 8.94408C5.02844 8.58416 5.38374 8.35155 5.77623 8.35198C5.91194 8.35195 6.04614 8.3803 6.17022 8.43521C6.29485 8.4896 6.44001 8.43266 6.4944 8.30803C6.50795 8.277 6.51494 8.24351 6.51497 8.20965V6.40242H7.76713C7.75313 6.48374 7.74611 6.56614 7.7462 6.64866C7.74768 7.35028 8.24106 7.95469 8.92819 8.09659L9.02668 7.6142C8.5686 7.51942 8.23971 7.11644 8.23869 6.64866C8.23866 6.51295 8.26701 6.37875 8.32193 6.25467C8.37632 6.13004 8.31937 5.98487 8.19474 5.93048C8.16371 5.91694 8.13022 5.90995 8.09636 5.90992H6.51497V4.65776C6.59629 4.67176 6.67869 4.67878 6.76121 4.67869C7.57721 4.67869 8.23869 4.01721 8.23869 3.20121C8.23869 2.38521 7.57721 1.72373 6.76121 1.72373C6.67869 1.72364 6.59629 1.73065 6.51497 1.74466V0.492494H10.7012C11.3808 0.493294 11.9316 1.04409 11.9324 1.72373V5.90992H10.351C10.215 5.90998 10.1048 6.0203 10.1049 6.15629C10.1049 6.19015 10.1119 6.22364 10.1254 6.25467C10.1804 6.37875 10.2087 6.51295 10.2087 6.64866H10.7012C10.7013 6.56614 10.6942 6.48374 10.6802 6.40242H12.1786C12.3146 6.40242 12.4249 6.29216 12.4249 6.15617V1.72373C12.4237 0.772261 11.6526 0.00123123 10.7012 0ZM6.76121 2.21622C7.3052 2.21622 7.7462 2.65722 7.7462 3.20121C7.7462 3.7452 7.3052 4.1862 6.76121 4.1862C6.6255 4.18623 6.49129 4.15788 6.36722 4.10296C6.24259 4.04857 6.09742 4.10552 6.04303 4.23015C6.02949 4.26118 6.0225 4.29467 6.02247 4.32853V5.88948H4.77203C4.78437 5.81484 4.79078 5.73934 4.79124 5.66368C4.79124 5.65924 4.79124 5.6553 4.79124 5.65087C4.79124 5.64644 4.79124 5.6457 4.79124 5.64324C4.79124 4.82724 4.12976 4.16576 3.31376 4.16576C2.49776 4.16576 1.83628 4.82724 1.83628 5.64324C1.83628 5.6457 1.83628 5.64841 1.83628 5.65087C1.83628 5.65333 1.83628 5.65924 1.83628 5.66368C1.83674 5.73934 1.84314 5.81484 1.85548 5.88948H0.605042V1.72373C0.605843 1.04409 1.15664 0.493294 1.83628 0.492494H6.02247V2.07389C6.02253 2.20988 6.13285 2.32008 6.26884 2.32001C6.3027 2.31998 6.33619 2.313 6.36722 2.29945C6.49129 2.24454 6.6255 2.21619 6.76121 2.21622Z" fill="white"/>
<path d="M14.3607 10.5842L12.2905 9.15869L11.4954 7.03432C11.4479 6.90686 11.3062 6.842 11.1787 6.88943C11.1741 6.89113 11.1696 6.89297 11.1652 6.89494L9.56455 7.6029C9.44457 7.65588 9.38719 7.79362 9.43404 7.91613C9.46064 7.98508 9.48551 8.03728 9.51186 8.09146C9.53821 8.14563 9.56258 8.19636 9.59238 8.27639C9.78353 8.78713 9.52617 9.3564 9.01641 9.55022C8.50689 9.74079 7.93936 9.48226 7.74876 8.97271C7.70096 8.84491 7.68024 8.70858 7.68791 8.57238C7.69505 8.43657 7.59073 8.32068 7.45493 8.31354C7.42088 8.31176 7.38687 8.31705 7.35498 8.32908L5.64406 8.97351C5.51703 9.02138 5.45269 9.16303 5.50025 9.29019L6.11439 10.9309C6.03297 10.9458 5.95304 10.9678 5.87553 10.9969C5.10924 11.2825 4.71956 12.1352 5.00511 12.9015C5.29066 13.6677 6.14335 14.0574 6.90964 13.7719C6.98854 13.7425 7.06478 13.7064 7.13755 13.664L7.57784 14.8401C7.62555 14.9675 7.76745 15.032 7.89482 14.9843C7.89497 14.9842 7.89509 14.9842 7.89525 14.9841L10.3351 14.0649C10.4883 14.3943 10.7703 14.6461 11.1149 14.7613L11.2706 14.2934C11.0676 14.225 10.8989 14.0809 10.7997 13.8911L11.5422 13.6116C11.786 14.2975 12.4357 14.7554 13.1637 14.7544V14.2619C12.4854 14.2578 11.9366 13.7089 11.9325 13.0307C11.9325 12.9654 11.9065 12.9027 11.8603 12.8566L11.0029 11.9991C10.8758 11.8709 10.8614 11.6691 10.9691 11.5241C11.0319 11.4395 11.1287 11.3867 11.2339 11.3798C11.3392 11.371 11.4429 11.4098 11.5166 11.4855L13.2358 13.2048L13.584 12.8566L13.0753 12.3478C13.2006 11.973 13.1929 11.5664 13.0534 11.1966L12.5919 9.96416L14.08 10.9888C14.2772 11.1272 14.3947 11.3531 14.3949 11.5941V14.7748H14.8874V11.5941C14.8871 11.1917 14.6905 10.8148 14.3607 10.5842ZM12.5922 11.3692C12.6602 11.5501 12.6848 11.7443 12.6641 11.9364L11.8647 11.1373C11.5348 10.7989 10.9931 10.7921 10.6547 11.122C10.3163 11.452 10.3095 11.9937 10.6394 12.3321C10.6444 12.3372 10.6495 12.3423 10.6547 12.3473L11.4336 13.1262L7.95361 14.437L7.48426 13.1829C7.45505 13.1049 7.38844 13.047 7.30721 13.029C7.28966 13.0251 7.27175 13.0231 7.25377 13.023C7.18935 13.023 7.12748 13.0482 7.0814 13.0932C6.68599 13.4668 6.06256 13.4491 5.68897 13.0537C5.31538 12.6583 5.33308 12.0348 5.72852 11.6612C5.82154 11.5734 5.93075 11.5045 6.05012 11.4584C6.12852 11.4293 6.2104 11.4108 6.29366 11.4032C6.34488 11.3969 6.39653 11.3952 6.44805 11.398C6.58386 11.4051 6.69975 11.3008 6.70686 11.165C6.70865 11.1313 6.70344 11.0975 6.69159 11.0658L6.0484 9.34852L7.22102 8.907C7.37493 9.70834 8.14931 10.2332 8.95066 10.0793C9.03254 10.0636 9.11294 10.041 9.191 10.0117C9.95458 9.72195 10.3405 8.86972 10.0546 8.10472C10.0319 8.04415 10.0115 7.99613 9.99179 7.95328L11.1245 7.45168L12.5922 11.3692Z" fill="white"/>
</g>
<defs>
<clipPath id="clip0_4_411">
<rect width="15" height="15" fill="white"/>
</clipPath>
</defs>
</svg>
