<svg width="16" height="16" viewBox="0 0 16 16" fill="none" xmlns="http://www.w3.org/2000/svg">
<g clip-path="url(#clip0_4_393)">
<path d="M8.1585 8.61302C8.51052 8.61302 8.79589 8.32766 8.79589 7.97564C8.79589 7.62362 8.51052 7.33826 8.1585 7.33826C7.80648 7.33826 7.52112 7.62362 7.52112 7.97564C7.52112 8.32766 7.80648 8.61302 8.1585 8.61302Z" fill="white"/>
<path d="M3.67072 14.8202C4.56335 14.3738 4.96742 13.3215 4.59235 12.3966C4.39626 11.9133 4.23353 11.3673 4.1088 10.774C4.06157 10.5492 4.11571 10.3201 4.2574 10.1455C4.33555 10.0493 4.50971 9.88774 4.7981 9.88774C5.28582 9.88774 5.68196 10.0463 6.12268 10.4178C6.6925 10.898 7.41548 11.1625 8.15851 11.1625C8.9402 11.1625 9.69177 10.8731 10.2748 10.3476C10.6419 10.0167 10.9421 9.88774 11.3451 9.88774C11.5211 9.88774 11.6666 9.92898 11.7868 10.0737C11.8848 10.1917 11.9249 10.3464 11.8968 10.4978C11.7669 11.1979 11.5859 11.8367 11.3588 12.3966C10.9837 13.3213 11.3805 14.3702 12.273 14.8165C13.2441 15.302 14.473 14.8989 14.8962 13.8652C15.3579 12.7369 15.3974 12.5727 15.4435 12.2639C15.4554 12.1841 15.4677 12.1016 15.5044 11.9472C15.5858 11.6047 15.3741 11.2611 15.0316 11.1797C14.6891 11.0984 14.3455 11.3101 14.2641 11.6526C14.215 11.8597 14.1963 11.9845 14.1827 12.0756C14.1581 12.2399 14.1434 12.3391 13.7164 13.3824C13.5813 13.7125 13.1664 13.838 12.8432 13.6763C12.5456 13.5275 12.4153 13.1833 12.54 12.8758C12.7993 12.2365 13.0046 11.5147 13.1502 10.7305C13.2476 10.2056 13.1081 9.66931 12.7674 9.25915C12.434 8.85773 11.9515 8.61294 11.3451 8.61294C10.6288 8.61294 10.0175 8.86324 9.4213 9.40068C9.07284 9.71476 8.62437 9.88771 8.15848 9.88771C7.70925 9.88771 7.28937 9.73394 6.9442 9.44301C6.27237 8.87669 5.59043 8.61294 4.79803 8.61294C4.20154 8.61294 3.6437 8.87873 3.26761 9.34211C2.88276 9.81626 2.73463 10.4337 2.86125 11.0361C3.00154 11.7035 3.1865 12.3224 3.41102 12.8758C3.53576 13.1833 3.40229 13.529 3.10055 13.68C2.77855 13.8409 2.37043 13.7142 2.2346 13.3824C1.61564 11.8699 1.27477 9.94976 1.27477 7.97565C1.27477 6.00145 1.61564 4.08127 2.23464 2.56889C2.37069 2.23646 2.77931 2.11061 3.10058 2.27129C3.39662 2.41929 3.5275 2.76211 3.40509 3.06872C3.1822 3.62697 2.99851 4.24938 2.85918 4.91866C2.73399 5.51997 2.88292 6.13623 3.26774 6.60942C3.64443 7.07264 4.20262 7.3383 4.79915 7.3383C5.5904 7.3383 6.27217 7.07442 6.94468 6.50789C7.28976 6.21718 7.70947 6.06353 8.15851 6.06353C8.62425 6.06353 9.07262 6.23639 9.42098 6.55027C10.0177 7.0879 10.6293 7.3383 11.3457 7.3383C11.8914 7.3383 12.4042 7.09775 12.7525 6.67832C13.1011 6.25845 13.2432 5.7101 13.1424 5.17394C12.9984 4.40767 12.7977 3.69938 12.5459 3.06872C12.4235 2.76214 12.5545 2.41932 12.8504 2.27132C13.1724 2.11035 13.5806 2.23697 13.7164 2.56889C14.3355 4.0814 14.6764 6.00158 14.6764 7.97569C14.6764 8.19424 14.6764 8.67212 14.674 8.96411C14.6474 9.04592 14.6399 9.10924 14.6328 9.20501C14.6099 9.52603 14.8288 9.80848 15.1349 9.87372C15.4976 9.97216 15.9247 9.74742 15.9442 9.23401C15.9518 9.03728 15.9511 8.23108 15.9511 7.97565C15.9511 5.8089 15.5864 3.77227 14.8962 2.086C14.4707 1.04662 13.2454 0.648608 12.2803 1.13111C11.3866 1.57804 10.9918 2.61424 11.3621 3.54141C11.5833 4.09558 11.7608 4.72404 11.8896 5.40935C11.92 5.57138 11.877 5.73707 11.7717 5.86394C11.6664 5.99074 11.5111 6.0635 11.3457 6.0635C10.9424 6.0635 10.642 5.93443 10.2743 5.60315C9.69142 5.07798 8.94001 4.78873 8.15854 4.78873C7.41583 4.78873 6.69307 5.05303 6.12341 5.53291C5.68192 5.90483 5.28592 6.0635 4.79918 6.0635C4.5101 6.0635 4.33523 5.90157 4.25673 5.80507C4.11508 5.63088 4.06058 5.40247 4.1072 5.17846C4.23143 4.58171 4.39355 4.03092 4.589 3.54144C4.95923 2.6142 4.56443 1.57798 3.67072 1.13111C2.6969 0.644178 1.47685 1.05507 1.05487 2.086C0.364743 3.77217 0 5.80877 0 7.97565C0 10.1424 0.364743 12.179 1.05487 13.8653C1.47873 14.9009 2.70142 15.3048 3.67072 14.8202Z" fill="white"/>
</g>
<defs>
<clipPath id="clip0_4_393">
<rect width="15.9511" height="15.9511" fill="white"/>
</clipPath>
</defs>
</svg>
