<svg width="11" height="11" viewBox="0 0 11 11" fill="none" xmlns="http://www.w3.org/2000/svg">
<g clip-path="url(#clip0_3_112)">
<path d="M5.60117 5.91327C5.84284 5.91327 6.03876 5.71735 6.03876 5.47568C6.03876 5.234 5.84284 5.03809 5.60117 5.03809C5.35949 5.03809 5.16357 5.234 5.16357 5.47568C5.16357 5.71735 5.35949 5.91327 5.60117 5.91327Z" fill="white"/>
<path d="M2.52011 10.1747C3.13293 9.86822 3.41034 9.14573 3.15284 8.51079C3.01822 8.17894 2.9065 7.80412 2.82087 7.39675C2.78844 7.24241 2.82561 7.08516 2.92289 6.9653C2.97654 6.89921 3.09611 6.78832 3.2941 6.78832C3.62894 6.78832 3.90091 6.89715 4.20348 7.1522C4.59468 7.48192 5.09104 7.6635 5.60117 7.6635C6.13783 7.6635 6.65381 7.46481 7.0541 7.10402C7.30615 6.87682 7.51219 6.78832 7.78892 6.78832C7.90974 6.78832 8.0096 6.81663 8.09211 6.91599C8.15943 6.99703 8.18698 7.10319 8.16768 7.20718C8.07848 7.68777 7.95418 8.12636 7.79827 8.51079C7.54074 9.14562 7.81323 9.8657 8.42595 10.1721C9.09266 10.5054 9.93636 10.2287 10.2269 9.51902C10.5438 8.74442 10.571 8.63167 10.6026 8.41966C10.6108 8.36487 10.6193 8.30823 10.6444 8.20222C10.7003 7.96708 10.555 7.7312 10.3198 7.67534C10.0847 7.61948 9.84882 7.7648 9.79294 7.99994C9.75918 8.14216 9.74638 8.22782 9.73701 8.29037C9.72017 8.40316 9.71001 8.47125 9.41687 9.18752C9.32413 9.41415 9.0393 9.50031 8.81737 9.38934C8.61308 9.28718 8.52362 9.05089 8.60925 8.83973C8.78729 8.40082 8.92822 7.90529 9.02816 7.3669C9.09505 7.00655 8.99926 6.63836 8.76534 6.35677C8.53644 6.08117 8.20525 5.91312 7.7889 5.91312C7.29714 5.91312 6.87747 6.08496 6.46812 6.45394C6.22889 6.66956 5.921 6.7883 5.60114 6.7883C5.29273 6.7883 5.00447 6.68273 4.76749 6.48299C4.30625 6.09419 3.83807 5.91312 3.29405 5.91312C2.88453 5.91312 2.50155 6.09559 2.24335 6.41372C1.97914 6.73924 1.87744 7.16312 1.96437 7.57673C2.06068 8.03489 2.18767 8.45983 2.34181 8.83973C2.42745 9.05089 2.33582 9.28823 2.12866 9.39183C1.90759 9.50235 1.6274 9.41533 1.53415 9.18752C1.10921 8.14918 0.875182 6.8309 0.875182 5.47559C0.875182 4.12022 1.10921 2.80193 1.53417 1.76361C1.62758 1.53539 1.90812 1.44899 2.12868 1.5593C2.33192 1.66091 2.42178 1.89627 2.33774 2.10677C2.18472 2.49004 2.0586 2.91735 1.96295 3.37684C1.877 3.78966 1.97925 4.21275 2.24344 4.53761C2.50206 4.85563 2.88528 5.03802 3.29482 5.03802C3.83805 5.03802 4.30612 4.85686 4.76782 4.46791C5.00473 4.26832 5.29288 4.16284 5.60117 4.16284C5.92091 4.16284 6.22874 4.28151 6.4679 4.49701C6.8776 4.86611 7.29747 5.03802 7.7893 5.03802C8.16398 5.03802 8.516 4.87287 8.75513 4.58492C8.99444 4.29665 9.092 3.92019 9.02282 3.55209C8.92395 3.02602 8.78619 2.53975 8.61332 2.10677C8.52926 1.89629 8.61917 1.66093 8.82236 1.55932C9.04339 1.44881 9.32364 1.53574 9.41692 1.76361C9.8419 2.80202 10.076 4.12031 10.076 5.47561C10.076 5.62566 10.076 5.95375 10.0743 6.15421C10.0561 6.21037 10.0509 6.25385 10.046 6.31959C10.0303 6.53999 10.1806 6.73391 10.3907 6.77869C10.6398 6.84628 10.933 6.69198 10.9464 6.3395C10.9516 6.20444 10.9511 5.65096 10.9511 5.47559C10.9511 3.98802 10.7007 2.58979 10.2269 1.4321C9.93478 0.718515 9.09354 0.445261 8.43096 0.776518C7.81739 1.08336 7.54637 1.79475 7.80054 2.43129C7.95243 2.81175 8.0743 3.24322 8.16271 3.71372C8.18361 3.82495 8.15409 3.9387 8.0818 4.02581C8.00949 4.11287 7.90289 4.16282 7.78932 4.16282C7.51243 4.16282 7.30617 4.0742 7.05375 3.84677C6.65357 3.48621 6.1377 3.28763 5.60119 3.28763C5.09128 3.28763 4.59508 3.46908 4.20398 3.79854C3.90088 4.05388 3.62901 4.16282 3.29484 4.16282C3.09637 4.16282 2.97632 4.05165 2.92243 3.9854C2.82518 3.8658 2.78776 3.70899 2.81977 3.5552C2.90506 3.14551 3.01636 2.76736 3.15055 2.43131C3.40472 1.79473 3.13368 1.08331 2.52011 0.776518C1.85154 0.44222 1.01392 0.724313 0.724213 1.4321C0.250411 2.58972 0 3.98793 0 5.47559C0 6.96318 0.250411 8.36139 0.724213 9.51909C1.01521 10.23 1.85464 10.5074 2.52011 10.1747Z" fill="white"/>
</g>
<defs>
<clipPath id="clip0_3_112">
<rect width="10.9511" height="10.9511" fill="white"/>
</clipPath>
</defs>
</svg>
