<svg width="14" height="14" viewBox="0 0 14 14" fill="none" xmlns="http://www.w3.org/2000/svg">
<path fill-rule="evenodd" clip-rule="evenodd" d="M9.97487 11.0098C8.98031 11.7822 7.73058 12.2422 6.37332 12.2422C3.12957 12.2422 0.5 9.61492 0.5 6.37402C0.5 3.13313 3.12957 0.505859 6.37332 0.505859C9.61706 0.505859 12.2466 3.13313 12.2466 6.37402C12.2466 7.73009 11.7863 8.97872 11.0131 9.97241L13.285 12.2421C13.5717 12.5285 13.5717 12.993 13.285 13.2794C12.9983 13.5659 12.5334 13.5659 12.2467 13.2794L9.97487 11.0098ZM10.7783 6.37402C10.7783 8.8047 8.80612 10.7751 6.37332 10.7751C3.94051 10.7751 1.96833 8.8047 1.96833 6.37402C1.96833 3.94335 3.94051 1.9729 6.37332 1.9729C8.80612 1.9729 10.7783 3.94335 10.7783 6.37402Z" fill="#494949"/>
</svg>
