<svg width="146" height="19" viewBox="0 0 146 19" fill="none" xmlns="http://www.w3.org/2000/svg">
<path d="M8.89837 18.2471C7.69573 18.2471 6.56722 18.0247 5.51284 17.5799C4.47494 17.1186 3.5606 16.4843 2.76982 15.6771C1.99552 14.8698 1.38596 13.9308 0.941144 12.8599C0.49633 11.7891 0.273923 10.6359 0.273923 9.40026C0.273923 8.16467 0.49633 7.01969 0.941144 5.96531C1.38596 4.89446 2.00376 3.95541 2.79454 3.14816C3.58532 2.3409 4.50789 1.71487 5.56227 1.27006C6.63311 0.825241 7.79457 0.602834 9.04664 0.602834C10.414 0.602834 11.6743 0.866427 12.8276 1.39361C13.9808 1.9208 14.9445 2.67863 15.7189 3.66711L14.1126 5.27338C13.5689 4.4826 12.8523 3.88128 11.9626 3.46941C11.073 3.04107 10.101 2.8269 9.04664 2.8269C7.79457 2.8269 6.68254 3.10697 5.71054 3.66711C4.75501 4.22724 4.00542 5.00155 3.46176 5.99002C2.93457 6.9785 2.67098 8.11525 2.67098 9.40026C2.67098 10.7018 2.94281 11.8467 3.48647 12.8352C4.03013 13.8237 4.76325 14.598 5.68583 15.1581C6.6084 15.7183 7.66278 15.9983 8.84895 15.9983C10.0516 15.9983 11.0895 15.7677 11.9626 15.3064C12.8523 14.8451 13.536 14.1697 14.0137 13.28C14.4915 12.3739 14.7304 11.2701 14.7304 9.96864L16.139 10.9818L8.72539 10.9818L8.72539 8.8566L17.1274 8.8566L17.1274 9.20257C17.1274 11.196 16.7732 12.8682 16.0648 14.2191C15.3729 15.5535 14.4009 16.5585 13.1488 17.2339C11.9132 17.9094 10.4964 18.2471 8.89837 18.2471ZM20.2519 18V0.849954L22.5749 0.849954V18H20.2519ZM21.8335 18V15.8748H31.0263V18H21.8335ZM31.9992 18L39.0173 0.849954H40.6977L47.6912 18H45.1706L39.4127 3.49413L40.2776 3.49413L34.4703 18H31.9992ZM35.3353 14.1202V12.0939L44.3551 12.0939V14.1202L35.3353 14.1202ZM54.5597 18.2471C53.2088 18.2471 52.0556 18 51.1001 17.5058C50.1446 17.0115 49.2961 16.2949 48.5548 15.3558L50.1363 13.7743C50.68 14.5321 51.306 15.1087 52.0144 15.5041C52.7228 15.883 53.596 16.0725 54.6339 16.0725C55.6553 16.0725 56.4708 15.8501 57.0804 15.4053C57.7064 14.9604 58.0194 14.3509 58.0194 13.5766C58.0194 12.9341 57.8711 12.4151 57.5746 12.0197C57.2781 11.6243 56.8744 11.3031 56.3637 11.056C55.8695 10.7924 55.3258 10.5617 54.7327 10.364C54.1396 10.1499 53.5466 9.92745 52.9535 9.69681C52.3604 9.44969 51.8167 9.15315 51.3225 8.80718C50.8283 8.44474 50.4246 7.97521 50.1116 7.3986C49.8151 6.82199 49.6668 6.09711 49.6668 5.22396C49.6668 4.25196 49.8974 3.42823 50.3587 2.75277C50.8365 2.06084 51.479 1.53365 52.2863 1.17121C53.11 0.792292 54.0326 0.602834 55.054 0.602834C56.1743 0.602834 57.1792 0.825241 58.0688 1.27006C58.9585 1.69839 59.6833 2.26677 60.2435 2.97517L58.6619 4.55674C58.1512 3.96365 57.5993 3.51884 57.0062 3.22229C56.4296 2.92575 55.7624 2.77748 55.0046 2.77748C54.082 2.77748 53.3489 2.98341 52.8052 3.39528C52.2615 3.79067 51.9897 4.3508 51.9897 5.07569C51.9897 5.6523 52.138 6.12182 52.4345 6.48426C52.7475 6.83023 53.1512 7.12677 53.6454 7.37389C54.1396 7.62101 54.6833 7.85165 55.2764 8.06582C55.886 8.26352 56.4873 8.48593 57.0804 8.73304C57.6734 8.98016 58.2171 9.29318 58.7113 9.6721C59.2056 10.051 59.601 10.5452 59.8975 11.1548C60.2105 11.7479 60.367 12.4975 60.367 13.4036C60.367 14.9193 59.8399 16.1054 58.7855 16.9621C57.7476 17.8188 56.339 18.2471 54.5597 18.2471ZM67.8327 18.2471C66.4818 18.2471 65.3286 18 64.3731 17.5058C63.4175 17.0115 62.5691 16.2949 61.8277 15.3558L63.4093 13.7743C63.953 14.5321 64.579 15.1087 65.2874 15.5041C65.9958 15.883 66.869 16.0725 67.9069 16.0725C68.9283 16.0725 69.7438 15.8501 70.3533 15.4053C70.9794 14.9604 71.2924 14.3509 71.2924 13.5766C71.2924 12.9341 71.1441 12.4151 70.8476 12.0197C70.551 11.6243 70.1474 11.3031 69.6367 11.056C69.1425 10.7924 68.5988 10.5617 68.0057 10.364C67.4126 10.1499 66.8195 9.92745 66.2265 9.69681C65.6334 9.44969 65.0897 9.15315 64.5955 8.80718C64.1012 8.44474 63.6976 7.97521 63.3846 7.3986C63.0881 6.82199 62.9398 6.09711 62.9398 5.22396C62.9398 4.25196 63.1704 3.42823 63.6317 2.75277C64.1095 2.06084 64.752 1.53365 65.5592 1.17121C66.383 0.792292 67.3055 0.602834 68.327 0.602834C69.4472 0.602834 70.4522 0.825241 71.3418 1.27006C72.2314 1.69839 72.9563 2.26677 73.5165 2.97517L71.9349 4.55674C71.4242 3.96365 70.8723 3.51884 70.2792 3.22229C69.7026 2.92575 69.0354 2.77748 68.2775 2.77748C67.355 2.77748 66.6219 2.98341 66.0782 3.39528C65.5345 3.79067 65.2627 4.3508 65.2627 5.07569C65.2627 5.6523 65.411 6.12182 65.7075 6.48426C66.0205 6.83023 66.4242 7.12677 66.9184 7.37389C67.4126 7.62101 67.9563 7.85165 68.5494 8.06582C69.1589 8.26352 69.7603 8.48593 70.3533 8.73304C70.9464 8.98016 71.4901 9.29318 71.9843 9.6721C72.4786 10.051 72.874 10.5452 73.1705 11.1548C73.4835 11.7479 73.64 12.4975 73.64 13.4036C73.64 14.9193 73.1128 16.1054 72.0585 16.9621C71.0206 17.8188 69.612 18.2471 67.8327 18.2471ZM80.8793 18L75.2697 0.849954L77.5926 0.849954L82.0407 14.8369H81.3735L85.7475 0.849954H87.4279L91.8019 14.8369H91.1594L95.6075 0.849954L97.9057 0.849954L92.3209 18H90.6652L86.2664 4.03779H86.909L82.5349 18H80.8793ZM100.759 18V0.849954L103.082 0.849954V18H100.759ZM102.34 18V15.8748L112.176 15.8748V18L102.34 18ZM102.34 10.2405V8.21409L111.36 8.21409V10.2405L102.34 10.2405ZM102.34 2.97517V0.849954L112.052 0.849954V2.97517L102.34 2.97517ZM114.074 18L121.093 0.849954H122.773L129.767 18H127.246L121.488 3.49413L122.353 3.49413L116.546 18H114.074ZM117.411 14.1202V12.0939L126.43 12.0939V14.1202H117.411ZM133.905 10.537V8.58477L138.551 8.58477C139.556 8.58477 140.33 8.32942 140.874 7.8187C141.418 7.30799 141.689 6.61606 141.689 5.74291C141.689 4.91918 141.418 4.23548 140.874 3.69182C140.347 3.14816 139.581 2.87633 138.576 2.87633H133.905V0.849954L138.65 0.849954C139.737 0.849954 140.684 1.06412 141.492 1.49246C142.299 1.90433 142.917 2.4727 143.345 3.19758C143.79 3.92246 144.012 4.75443 144.012 5.69348C144.012 6.66548 143.79 7.51392 143.345 8.23881C142.917 8.96369 142.299 9.53206 141.492 9.94393C140.684 10.3393 139.737 10.537 138.65 10.537L133.905 10.537ZM132.348 18V0.849954H134.671V18H132.348ZM142.233 18L136.006 10.3146L138.205 9.54854L145.174 18H142.233Z" fill="black"/>
</svg>
