<svg width="184" height="19" viewBox="0 0 184 19" fill="none" xmlns="http://www.w3.org/2000/svg">
<path d="M5.23892 18.2471C4.18455 18.2471 3.25373 18.0494 2.44648 17.654C1.6557 17.2422 0.996713 16.6903 0.469526 15.9983L2.74302 13.8237C3.03956 14.252 3.39377 14.5815 3.80563 14.8122C4.23397 15.0263 4.7035 15.1334 5.21421 15.1334C5.72492 15.1334 6.16973 15.0263 6.54865 14.8122C6.94404 14.598 7.24058 14.285 7.43828 13.8731C7.65245 13.4613 7.75953 12.9588 7.75953 12.3657L7.75953 0.627547L11.1451 0.627547L11.1451 12.168C11.1451 13.3871 10.8979 14.458 10.4037 15.3805C9.92594 16.2866 9.24224 16.9951 8.35262 17.5058C7.47946 18 6.44156 18.2471 5.23892 18.2471ZM14.4489 18L14.4489 0.627547L17.8097 0.627547L17.8097 18H14.4489ZM16.9201 18V15.0346H26.533V18H16.9201ZM16.9201 10.5617L16.9201 7.69514H25.6681L25.6681 10.5617H16.9201ZM16.9201 3.59297V0.627547L26.4095 0.627547V3.59297L16.9201 3.59297ZM33.7134 18L28.0791 0.627547L31.3905 0.627547L35.5668 13.9967H34.4547L38.5569 0.627547L41.0528 0.627547L45.155 13.9967H44.0182L48.2193 0.627547L51.5306 0.627547L45.8716 18H43.3757L39.2488 4.65558H40.3362L36.234 18H33.7134ZM53.8335 18V0.627547L57.1943 0.627547V18L53.8335 18ZM56.3047 18V15.0346H65.9176V18H56.3047ZM56.3047 10.5617V7.69514L65.0527 7.69514V10.5617L56.3047 10.5617ZM56.3047 3.59297V0.627547L65.794 0.627547V3.59297L56.3047 3.59297ZM68.6992 18V0.627547L72.06 0.627547V18H68.6992ZM71.1704 18V15.0099L80.0173 15.0099V18L71.1704 18ZM82.4307 18V0.627547L85.7915 0.627547V18H82.4307ZM84.9019 18V15.0099H93.7488V18H84.9019ZM99.0165 18L93.3821 0.627547L96.6935 0.627547L100.87 13.9967H99.7578L103.86 0.627547L106.356 0.627547L110.458 13.9967H109.321L113.522 0.627547L116.834 0.627547L111.175 18H108.679L104.552 4.65558H105.639L101.537 18L99.0165 18ZM126.567 18.2718C125.298 18.2718 124.112 18.0412 123.008 17.5799C121.921 17.1186 120.966 16.4843 120.142 15.6771C119.335 14.8534 118.7 13.8978 118.239 12.8105C117.778 11.7067 117.547 10.5288 117.547 9.27671C117.547 8.02464 117.769 6.86318 118.214 5.79233C118.676 4.70501 119.31 3.75772 120.117 2.95046C120.941 2.12673 121.896 1.49246 122.984 1.04765C124.071 0.58636 125.249 0.355715 126.517 0.355715C127.803 0.355715 128.989 0.58636 130.076 1.04765C131.163 1.49246 132.111 2.12673 132.918 2.95046C133.742 3.75772 134.384 4.70501 134.845 5.79233C135.307 6.87965 135.537 8.04935 135.537 9.30142C135.537 10.5535 135.307 11.7232 134.845 12.8105C134.384 13.8978 133.742 14.8534 132.918 15.6771C132.111 16.4843 131.163 17.1186 130.076 17.5799C129.005 18.0412 127.835 18.2718 126.567 18.2718ZM126.517 15.1334C127.638 15.1334 128.61 14.8863 129.433 14.3921C130.257 13.8978 130.9 13.2141 131.361 12.341C131.839 11.4678 132.078 10.4464 132.078 9.27671C132.078 8.42003 131.946 7.63748 131.682 6.92908C131.419 6.22067 131.04 5.61111 130.546 5.1004C130.051 4.57321 129.466 4.16958 128.791 3.88951C128.116 3.60945 127.358 3.46941 126.517 3.46941C125.43 3.46941 124.466 3.71653 123.626 4.21077C122.802 4.68853 122.152 5.36399 121.674 6.23714C121.213 7.1103 120.982 8.12348 120.982 9.27671C120.982 10.1499 121.114 10.9489 121.377 11.6738C121.657 12.3986 122.036 13.0164 122.514 13.5271C123.008 14.0379 123.593 14.4333 124.269 14.7133C124.961 14.9934 125.71 15.1334 126.517 15.1334ZM140.673 10.7347V8.11525H144.701C145.524 8.11525 146.159 7.90931 146.603 7.49745C147.065 7.06911 147.295 6.48426 147.295 5.74291C147.295 5.06745 147.065 4.50731 146.603 4.0625C146.159 3.60121 145.524 3.37057 144.701 3.37057L140.673 3.37057V0.627547L144.997 0.627547C146.117 0.627547 147.098 0.849954 147.938 1.29477C148.795 1.72311 149.454 2.31619 149.915 3.07402C150.393 3.83185 150.631 4.70501 150.631 5.69348C150.631 6.71491 150.393 7.60453 149.915 8.36237C149.454 9.10372 148.795 9.68857 147.938 10.1169C147.081 10.5288 146.084 10.7347 144.948 10.7347H140.673ZM138.201 18V0.627547L141.562 0.627547V18H138.201ZM147.691 18L141.958 10.4876L145.047 9.52382L151.768 18H147.691ZM153.67 18V0.627547L157.031 0.627547V18H153.67ZM156.142 18V15.0099H164.988V18H156.142ZM169.7 18V15.0099H174.124C175.244 15.0099 176.224 14.7792 177.064 14.3179C177.905 13.8402 178.555 13.1729 179.017 12.3163C179.494 11.4596 179.733 10.4464 179.733 9.27671C179.733 8.13996 179.494 7.15148 179.017 6.31128C178.539 5.4546 177.88 4.79562 177.04 4.33433C176.199 3.85657 175.227 3.61768 174.124 3.61768L169.626 3.61768V0.627547L174.173 0.627547C175.458 0.627547 176.644 0.841716 177.732 1.27006C178.835 1.69839 179.791 2.30795 180.598 3.09873C181.422 3.87304 182.056 4.78738 182.501 5.84175C182.962 6.89613 183.193 8.04935 183.193 9.30142C183.193 10.5535 182.962 11.7149 182.501 12.7858C182.056 13.8402 181.43 14.7627 180.623 15.5535C179.816 16.3278 178.86 16.9292 177.756 17.3575C176.669 17.7858 175.491 18 174.222 18H169.7ZM167.402 18V0.627547L170.763 0.627547V18H167.402Z" fill="black"/>
</svg>
