<svg id="Layer_30" enable-background="new 0 0 496 496" height="512" viewBox="0 0 496 496" width="512" xmlns="http://www.w3.org/2000/svg"><g><g><g><path d="m480 170.11c0 8.53-.84 16.97-2.47 25.22s-4.05 16.29-7.22 24.04c-4.31-2.16-9.17-3.37-14.31-3.37h-16.2-.01c-1.46-21.36-10.73-40.58-24.97-54.82-15.56-15.56-37.05-25.18-60.79-25.18-16.97 0-33.57 5.02-47.69 14.44l-2.34 1.56-2.34-1.56c-7.06-4.71-14.74-8.32-22.78-10.75-8.03-2.43-16.42-3.69-24.91-3.69-2.01 0-4 .07-5.97.2v-.2c0-8.84-7.16-16-16-16h-48v-56.85c21.03-14.59 46.57-23.15 74.11-23.15h91.78c71.86 0 130.11 58.25 130.11 130.11z" fill="#b27946"/></g><g><path d="m384 472h-132.23c7.61-8.49 12.23-19.7 12.23-32v-34.4c7.75 1.57 15.78 2.4 24 2.4h32c11.71 0 23.03-1.68 33.73-4.81 3.89 25.06 14.27 48.81 30.27 68.81z" fill="#f0d0b4"/></g><g><path d="m470.31 219.37c10.49 5.25 17.69 16.1 17.69 28.63 0 8.84-3.58 16.84-9.37 22.63s-13.79 9.37-22.63 9.37h-16v-58.03c0-2.01-.07-4-.21-5.97h.01 16.2c5.14 0 10 1.21 14.31 3.37z" fill="#f0d0b4"/></g><g><path d="m264 338.54v-95.94c0-20.66-13.22-39.01-32.82-45.54l-15.18-5.06v-24h16c8.84 0 16-7.16 16-16v-15.8c1.97-.13 3.96-.2 5.97-.2 8.49 0 16.88 1.26 24.91 3.69 8.04 2.43 15.72 6.04 22.78 10.75l2.34 1.56 2.34-1.56c14.12-9.42 30.72-14.44 47.69-14.44 23.74 0 45.23 9.62 60.79 25.18 14.24 14.24 23.51 33.46 24.97 54.82.14 1.97.21 3.96.21 5.97v58.03 8c0 54.56-36.42 100.62-86.27 115.19-10.7 3.13-22.02 4.81-33.73 4.81h-32c-8.22 0-16.25-.83-24-2.4z" fill="#f0d0b4"/></g><g><path d="m184 63.15v56.85h-96v-64c0-26.51 21.49-48 48-48 13.26 0 25.26 5.37 33.94 14.06 8.69 8.68 14.06 20.68 14.06 33.94z" fill="#f29ed0"/></g><g><path d="m248 136.2v15.8c0 8.84-7.16 16-16 16h-16-48-64-48-16c-8.84 0-16-7.16-16-16v-16c0-8.84 7.16-16 16-16h48 96 48c8.84 0 16 7.16 16 16z" fill="#ccd1d9"/></g><g><path d="m231.18 197.06-15.18-5.06v-24h-160v24l-15.18 5.06c-19.6 6.53-32.82 24.88-32.82 45.54v197.4c0 26.51 21.49 48 48 48h160c14.22 0 26.99-6.18 35.77-16 7.61-8.49 12.23-19.7 12.23-32v-34.4-67.06-95.94c0-20.66-13.22-39.01-32.82-45.54z" fill="#ffeaa7"/></g><g><path d="m232 232v208c0 8.82-7.18 16-16 16h-160c-8.82 0-16-7.18-16-16v-208h64v150.11c0 6.06 3.42 11.6 8.84 14.31l7.16 3.58v8c0 8.84 7.16 16 16 16 4.42 0 8.42-1.79 11.32-4.68 2.89-2.9 4.68-6.9 4.68-11.32v-8l7.16-3.58c5.42-2.71 8.84-8.25 8.84-14.31v-150.11z" fill="#69d6f4"/></g><g><path d="m168 232v150.11c0 6.06-3.42 11.6-8.84 14.31l-7.16 3.58v8c0 4.42-1.79 8.42-4.68 11.32-2.9 2.89-6.9 4.68-11.32 4.68-8.84 0-16-7.16-16-16v-8l-7.16-3.58c-5.42-2.71-8.84-8.25-8.84-14.31v-150.11-64h64z" fill="#e6e9ed"/></g></g><g><path d="m480.115 216.112c5.235-14.79 7.885-30.233 7.885-46.005 0-76.152-61.955-138.107-138.107-138.107h-91.785c-23.504 0-46.244 5.882-66.55 17.083-3.421-27.625-27.023-49.083-55.558-49.083-30.878 0-56 25.121-56 56v56h-40c-13.234 0-24 10.767-24 24v16c0 13.233 10.766 24 24 24h8v10.234l-9.708 3.235c-22.904 7.635-38.292 28.985-38.292 53.128v197.403c0 30.879 25.122 56 56 56h160c15.221 0 29.035-6.112 39.138-16h145.507l-10.398-12.998c-13.616-17.02-23-37.089-27.391-58.39 49.565-17.664 85.144-65.058 85.144-120.612h8c22.056 0 40-17.944 40-40 0-13.005-6.243-24.577-15.885-31.888zm-130.222-168.112c67.33 0 122.107 54.777 122.107 122.107 0 13.372-2.163 26.476-6.422 39.06-3.07-.757-6.277-1.167-9.578-1.167h-9.04c-6.768-45.214-45.862-80-92.931-80-17.779 0-35.021 4.979-50.03 14.425-14.822-9.328-31.826-14.292-49.372-14.413-3.298-9.318-12.193-16.012-22.627-16.012h-40v-44.567c19.706-12.722 42.47-19.433 66.107-19.433zm-253.893 8c0-22.056 17.944-40 40-40s40 17.944 40 40v56h-80zm-64 96v-16c0-4.411 3.589-8 8-8h192c4.411 0 8 3.589 8 8v16c0 4.411-3.589 8-8 8h-192c-4.411 0-8-3.589-8-8zm77.267 251.577 2.733 1.367v3.056c0 13.233 10.767 24 24 24s24-10.767 24-24v-3.056l2.732-1.367c8.184-4.091 13.268-12.316 13.268-21.466v-142.111h48v200c0 4.411-3.589 8-8 8h-160c-4.411 0-8-3.589-8-8v-200h48v142.111c0 9.15 5.084 17.375 13.267 21.466zm50.733-21.466c0 3.05-1.694 5.791-4.423 7.155l-11.577 5.79v12.944c0 4.411-3.589 8-8 8s-8-3.589-8-8v-12.944l-11.578-5.789c-2.728-1.364-4.422-4.105-4.422-7.155v-206.112h48zm56 97.889h-160c-22.056 0-40-17.944-40-40v-197.403c0-17.245 10.992-32.495 27.351-37.947l20.649-6.884v-21.766h32v48h-64v216c0 13.233 10.766 24 24 24h160c13.234 0 24-10.767 24-24v-216h-64v-48h32v21.766l20.649 6.884c16.359 5.452 27.351 20.702 27.351 37.947v197.403c0 22.056-17.944 40-40 40zm152.423-16h-101.837c3.467-7.279 5.414-15.415 5.414-24v-24.994c5.294.66 10.646.994 16 .994h32c9.412 0 18.586-1.03 27.425-2.968 3.883 18.112 11.01 35.402 20.998 50.968zm63.577-176c0 61.757-50.243 112-112 112h-32c-5.362 0-10.72-.388-16-1.142v-40.898c9.253 6.448 20.365 10.04 32 10.04 30.878 0 56-25.121 56-56h-16c0 22.056-17.944 40-40 40-12.656 0-24.45-5.944-32-16.004v-93.399c0-24.143-15.388-45.492-38.292-53.127l-9.708-3.236v-10.234h8c13.234 0 24-10.767 24-24v-7.963c14.722.379 28.934 4.867 41.22 13.058l6.78 4.521 6.779-4.521c12.851-8.567 27.807-13.095 43.251-13.095 42.993 0 77.97 34.978 77.97 77.97zm24-16h-8v-48h8c13.234 0 24 10.767 24 24s-10.766 24-24 24z"/><path d="m368 240c-13.009 0-24-7.327-24-16h-16c0 17.645 17.944 32 40 32s40-14.355 40-32h-16c0 8.673-10.991 16-24 16z"/><circle cx="216" cy="88" r="8"/><circle cx="248" cy="71.049" r="8"/><circle cx="280" cy="104" r="8"/><circle cx="312" cy="72" r="8"/><circle cx="312" cy="112" r="8"/><circle cx="360" cy="72" r="8"/><circle cx="360" cy="104" r="8"/><circle cx="392" cy="96" r="8"/><circle cx="416" cy="120" r="8"/><circle cx="448" cy="152" r="8"/></g></g></svg>