<svg id="Layer_30" enable-background="new 0 0 496 496" height="512" viewBox="0 0 496 496" width="512" xmlns="http://www.w3.org/2000/svg"><g><g><g><path d="m138.93 437.82-11.71 2.34c-10.07 2.01-18.89 7.04-25.61 14.04-16.19-2.96-31.41-9.5-44.59-18.99-4.81-3.46-9.35-7.32-13.56-11.54-7.34-7.34-13.7-15.78-18.81-25.15-5.47-10.02-9.63-20.63-12.42-31.6-2.8-10.96-4.23-22.28-4.23-33.69 0-19.47 4.16-38.48 11.97-55.86 7.8-17.37 19.24-33.11 33.79-46.05 8.42-7.49 15.26-16.45 20.23-26.34s8.07-20.72 9.05-31.95c7.33-84.32 77.92-149.03 162.55-149.03h2.41v16l7.8 85.76c-3.91 2.61-7.3 6.03-9.9 10.11l-6.37 10.01-6.48-10.79c-2.81-4.68-6.74-8.45-11.33-11.05-4.6-2.61-9.86-4.04-15.32-4.04-13.38 0-25.25 8.56-29.48 21.25l-19.62 58.86c-.26.79-.56 1.56-.91 2.3-1.7 3.74-4.33 6.88-7.55 9.2-3.87 2.79-8.59 4.39-13.59 4.39-2.53 0-4.97-.4-7.25-1.15v83.35c0 37.87 21.4 72.5 55.28 89.44l20.3 10.15c2.71 1.35 4.42 4.12 4.42 7.15v19.06z" fill="#656d78"/></g><g><path d="m233.05 135.09 6.48 10.79-27.29 42.89c-7.62 11.98-20.84 19.23-35.04 19.23-3.68 0-7.32-.49-10.82-1.43-3.5-.95-6.86-2.35-9.99-4.16.35-.74.65-1.51.91-2.3l19.62-58.86c4.23-12.69 16.1-21.25 29.48-21.25 5.46 0 10.72 1.43 15.32 4.04 4.59 2.6 8.52 6.37 11.33 11.05z" fill="#656d78"/></g><g><path d="m259.72 168.99 5.38 59.14 12.25 134.77c1.5 16.48 15.32 29.1 31.87 29.1h2.78c-8.84 0-16 7.16-16 16v16 48c0 8.84 7.16 16 16 16h-224c0-11.63 4.1-22.45 11.06-30.93.81-.99 1.66-1.95 2.55-2.87 6.72-7 15.54-12.03 25.61-14.04l11.71-2.34 69.07-13.82v-19.06c0-3.03-1.71-5.8-4.42-7.15l-20.3-10.15c-33.88-16.94-55.28-51.57-55.28-89.44v-83.35c2.28.75 4.72 1.15 7.25 1.15 5 0 9.72-1.6 13.59-4.39 3.22-2.32 5.85-5.46 7.55-9.2 3.13 1.81 6.49 3.21 9.99 4.16 3.5.94 7.14 1.43 10.82 1.43 14.2 0 27.42-7.25 35.04-19.23l27.29-42.89 6.37-10.01c2.6-4.08 5.99-7.5 9.9-10.11z" fill="#f0d0b4"/></g><g><path d="m424 392h-112c-8.84 0-16 7.16-16 16v16 48c0 8.84 7.16 16 16 16h8 104c8.84 0 16-7.16 16-16v-48-16c0-8.84-7.16-16-16-16z" fill="#fcd770"/></g><g><path d="m488 8v32h-240v-16-16z" fill="#fcd770"/></g><g><path d="m248 40 7.8 85.76 3.92 43.23 5.38 59.14 12.25 134.77c1.5 16.48 15.32 29.1 31.87 29.1h2.78 112 2.78c16.55 0 30.37-12.62 31.87-29.1l12.25-134.78 5.37-59.12 11.73-129z" fill="#ffeaa7"/></g><g><path d="m440 88v16c0 8.84-7.16 16-16 16h-40-32-40c-8.84 0-16-7.16-16-16v-16c0-8.84 7.16-16 16-16h112c8.84 0 16 7.16 16 16z" fill="#f29ed0"/></g><g><path d="m415.98 299.2 16.02-3.2c0 17.68-7.16 33.68-18.74 45.26s-27.58 18.74-45.26 18.74c13.25 0 24-10.75 24-24 0-4.96-1.51-14.06-4.09-23.5 8.06-6.62 17.69-11.22 28.07-13.3z" fill="#f29ed0"/></g><g><path d="m392 424v8c0 13.25-10.75 24-24 24-6.62 0-12.62-2.69-16.97-7.03-4.34-4.35-7.03-10.35-7.03-16.97v-8z" fill="#e6e9ed"/></g><g><path d="m387.91 312.5c2.58 9.44 4.09 18.54 4.09 23.5 0 13.25-10.75 24-24 24s-24-10.75-24-24c0-4.96 1.51-14.06 4.09-23.5 4.31-15.77 11.62-32.5 19.91-32.5s15.6 16.73 19.91 32.5z" fill="#ec87c0"/></g><g><path d="m344 336c0 13.25 10.75 24 24 24-17.68 0-33.68-7.16-45.26-18.74s-18.74-27.58-18.74-45.26l16.02 3.2c10.38 2.08 20.01 6.68 28.07 13.3-2.58 9.44-4.09 18.54-4.09 23.5z" fill="#f29ed0"/></g></g><g><path d="m240 0v16.102c-40.903 1.325-79.804 17.142-110.078 44.898-31.651 29.019-51.131 68.559-54.851 111.337-1.783 20.505-11.238 39.33-26.621 53.004-30.791 27.369-48.45 66.694-48.45 107.89 0 24.081 6.095 47.983 17.626 69.123 4.303 7.889 9.416 15.167 15.217 21.747-1.843 2.036-3.822 3.968-5.964 5.754-17.082 14.234-26.879 35.151-26.879 57.386v8.759h16v-8.759c0-17.473 7.698-33.909 21.121-45.096 2.538-2.115 4.911-4.38 7.119-6.772 12.603 10.874 27.449 19 43.691 23.778-5.051 8.525-7.931 18.418-7.931 28.849v8h232 8 104c13.233 0 24-10.766 24-24v-64c0-4.44-1.216-8.599-3.326-12.17 12.052-5.982 20.636-17.876 21.939-32.209l29.354-322.897.033-40.724zm240 16v16h-224v-16zm-10.083 134.55c-6.396-4.191-13.965-6.55-21.917-6.55-22.056 0-40 17.944-40 40s17.944 40 40 40v-16c-13.233 0-24-10.767-24-24s10.767-24 24-24c8.156 0 15.655 4.113 20.071 10.855l-4.931 54.239c-7.567 9.367-19.052 14.906-31.14 14.906-22.056 0-40-17.944-40-40v-72h32c13.233 0 24-10.766 24-24v-16c0-13.234-10.767-24-24-24h-112c-13.233 0-24 10.766-24 24v16c0 13.234 10.767 24 24 24h32v72c0 22.056-17.944 40-40 40-12.088 0-23.573-5.539-31.14-14.905l-4.931-54.24c4.418-6.742 11.915-10.855 20.071-10.855 13.233 0 24 10.767 24 24s-10.767 24-24 24v16c22.056 0 40-17.944 40-40s-17.944-40-40-40c-7.952 0-15.521 2.359-21.917 6.55l-9.323-102.55h222.48zm-157.917-38.55c-4.411 0-8-3.589-8-8v-16c0-4.411 3.589-8 8-8h112c4.411 0 8 3.589 8 8v16c0 4.411-3.589 8-8 8zm-264 264v8.759c0 8.985-2.049 17.688-5.852 25.552-3.919-4.828-7.434-10.044-10.475-15.619-10.253-18.796-15.673-40.049-15.673-61.461 0-36.63 15.702-71.596 43.08-95.932 18.451-16.402 29.792-38.98 31.931-63.576 6.864-78.929 70.446-138.887 148.989-141.615v8.255l7.429 81.715c-2.946 2.501-5.517 5.388-7.69 8.625-7.058-11.541-19.796-18.703-33.337-18.703-16.849 0-31.748 10.739-37.076 26.723l-19.618 58.853c-2.078 6.235-7.891 10.424-14.463 10.424-8.406 0-15.245-6.839-15.245-15.246v-1.509c0-8.406 6.839-15.246 15.245-15.246h.755v-16h-.755c-17.228.001-31.245 14.018-31.245 31.247v1.509c0 11.695 6.462 21.904 16 27.259v78.183c0 20.071 5.577 39.705 16.13 56.779 10.552 17.074 25.618 30.843 43.57 39.819l20.3 10.15v12.497l-59.356 11.871c-18.737-13.206-30.853-33.637-33.397-56.541l-3.295-29.655-15.902 1.767 3.295 29.655c2.533 22.802 12.973 43.558 29.293 59.02-8.102 2.407-15.387 6.557-21.481 11.974-17.056-3.8-32.577-11.781-45.355-23.068 6.609-11.298 10.198-24.259 10.198-37.706v-8.759zm182.126-230.241-24.636 38.713c-6.187 9.723-16.762 15.528-28.288 15.528-3.696 0-7.359-.615-10.835-1.802l18.139-54.416c3.146-9.44 11.945-15.782 21.896-15.782 8.061 0 15.645 4.294 19.792 11.206zm-101.333 302.241 87.207-17.441v-25.614c0-6.1-3.389-11.583-8.844-14.311l-20.3-10.15c-31.369-15.685-50.856-47.215-50.856-82.287v-74.227c9.241-.222 17.676-4.474 23.333-11.334 5.683 2.198 11.742 3.364 17.869 3.364 17.025 0 32.646-8.575 41.786-22.938l30.532-47.978 18.376 202.132c-6.145 3.138-12.941 4.784-19.896 4.784-16.688 0-31.691-9.272-39.155-24.2l-1.689-3.378-14.311 7.156 1.689 3.378c10.192 20.382 30.678 33.044 53.466 33.044 7.382 0 14.63-1.361 21.434-3.977 1.426 14.152 9.954 25.881 21.893 31.807-2.11 3.571-3.326 7.73-3.326 12.17v64c0 2.804.488 5.496 1.376 8h-192.581c3.189-15.854 15.67-28.734 31.997-32zm303.207-32h-128v-8c0-4.411 3.589-8 8-8h112c4.411 0 8 3.589 8 8zm-48 16c0 8.822-7.178 16-16 16s-16-7.178-16-16zm40 48h-104-8c-4.411 0-8-3.589-8-8v-40h32c0 17.645 14.355 32 32 32s32-14.355 32-32h32v40c0 4.411-3.589 8-8 8zm26.679-117.827c-1.131 12.443-11.407 21.827-23.902 21.827h-2.777-112-2.777c-12.495 0-22.771-9.384-23.901-21.827l-10.396-114.358c8.666 5.264 18.708 8.185 29.074 8.185 30.879 0 56-25.122 56-56v-72h16v72c0 30.878 25.121 56 56 56 10.366 0 20.408-2.921 29.075-8.186z"/><path d="m392.295 299.757c-6.673-18.671-14.623-27.757-24.295-27.757s-17.622 9.086-24.295 27.757c-6.844-3.982-14.334-6.842-22.114-8.397l-25.591-5.118v9.758c0 39.701 32.299 72 72 72s72-32.299 72-72v-9.758l-25.591 5.118c-7.78 1.556-15.27 4.415-22.114 8.397zm-34.495 8.207c4.379-13.297 8.523-18.478 10.2-19.748 1.677 1.27 5.821 6.45 10.2 19.748 3.63 11.026 5.8 22.914 5.8 28.036 0 8.822-7.178 16-16 16s-16-7.178-16-16c0-5.123 2.17-17.01 5.8-28.036zm-44.917-2.029 5.571 1.114c7.355 1.471 14.365 4.456 20.555 8.672-1.859 7.819-3.009 15.262-3.009 20.279 0 2.176.22 4.302.636 6.357-12.239-8.306-21.038-21.317-23.753-36.422zm110.234 0c-2.715 15.105-11.515 28.116-23.754 36.422.417-2.055.637-4.181.637-6.357 0-5.017-1.15-12.46-3.009-20.279 6.191-4.216 13.201-7.201 20.556-8.672z"/><path d="m216 240h-16c0 8.822-7.178 16-16 16s-16-7.178-16-16h-16c0 17.645 14.355 32 32 32s32-14.355 32-32z"/><path d="m64 333.231c0-22.931 9.83-44.821 26.97-60.057 4.172-3.709 8.167-7.694 11.874-11.845l-11.934-10.657c-3.3 3.694-6.855 7.242-10.571 10.544-20.552 18.269-32.339 44.518-32.339 72.015 0 9.895 1.526 19.716 4.537 29.191l15.248-4.845c-2.512-7.906-3.785-16.097-3.785-24.346z"/></g></g></svg>