<svg width="130" height="14" viewBox="0 0 130 14" fill="none" xmlns="http://www.w3.org/2000/svg">
<path d="M3.87056 13.1775C3.16037 13.1775 2.53303 13.0414 1.98856 12.7692C1.45592 12.4851 1.01797 12.1063 0.674708 11.6329L1.84652 10.5499C2.07141 10.8813 2.34957 11.1358 2.68099 11.3133C3.02425 11.4908 3.40302 11.5796 3.81729 11.5796C4.23157 11.5796 4.5985 11.4908 4.91808 11.3133C5.23767 11.1358 5.48623 10.8754 5.66378 10.5321C5.85316 10.177 5.94786 9.74497 5.94786 9.236L5.94786 0.678233L7.6168 0.678233L7.6168 9.14723C7.6168 9.96394 7.45109 10.6741 7.11967 11.2778C6.80008 11.8815 6.35621 12.349 5.78806 12.6804C5.23175 13.0118 4.59258 13.1775 3.87056 13.1775ZM10.3886 13L10.3886 0.678233L12.0576 0.678233L12.0576 13H10.3886ZM11.5249 13V11.4731L18.5913 11.4731V13L11.5249 13ZM11.5249 7.42502V5.96914L18.0054 5.96914V7.42502L11.5249 7.42502ZM11.5249 2.20514V0.678233L18.5025 0.678233V2.20514L11.5249 2.20514ZM24.0037 13L19.9734 0.678233H21.6423L24.8382 10.7274H24.3588L27.5014 0.678233L28.7087 0.678233L31.8513 10.7274H31.3897L34.5855 0.678233H36.2367L32.2241 13H31.0346L27.8742 2.96859H28.3358L25.1933 13H24.0037ZM38.2864 13V0.678233L39.9553 0.678233V13H38.2864ZM39.4227 13V11.4731H46.4891V13H39.4227ZM39.4227 7.42502V5.96914L45.9032 5.96914V7.42502H39.4227ZM39.4227 2.20514V0.678233L46.4003 0.678233V2.20514L39.4227 2.20514ZM48.7589 13V0.678233L50.4278 0.678233V13H48.7589ZM49.8952 13V11.4731H56.4999V13H49.8952ZM58.5552 13V0.678233H60.2241V13L58.5552 13ZM59.6915 13V11.4731L66.2962 11.4731V13L59.6915 13ZM70.2804 13L66.2501 0.678233L67.919 0.678233L71.1148 10.7274L70.6355 10.7274L73.778 0.678233H74.9854L78.128 10.7274H77.6663L80.8622 0.678233H82.5134L78.5008 13H77.3112L74.1509 2.96859H74.6125L71.4699 13L70.2804 13ZM89.6014 13.1775C88.7255 13.1775 87.9088 13.0178 87.1512 12.6982C86.3937 12.3667 85.7309 11.911 85.1627 11.3311C84.5945 10.7392 84.1507 10.0586 83.8311 9.28927C83.5233 8.5199 83.3695 7.69726 83.3695 6.82136C83.3695 5.93363 83.5233 5.11099 83.8311 4.35346C84.1507 3.58409 84.5886 2.90941 85.1449 2.32942C85.7131 1.74943 86.37 1.29965 87.1157 0.980062C87.8733 0.660477 88.69 0.500685 89.5659 0.500685C90.4418 0.500685 91.2526 0.660477 91.9983 0.980062C92.7558 1.29965 93.4186 1.74943 93.9868 2.32942C94.5549 2.90941 94.9988 3.58409 95.3184 4.35346C95.638 5.12283 95.7978 5.95138 95.7978 6.83912C95.7978 7.71502 95.638 8.53765 95.3184 9.30702C94.9988 10.0764 94.5549 10.7511 93.9868 11.3311C93.4305 11.911 92.7736 12.3667 92.016 12.6982C91.2703 13.0178 90.4654 13.1775 89.6014 13.1775ZM89.5659 11.5796C90.4536 11.5796 91.2289 11.3784 91.8917 10.976C92.5664 10.5617 93.0991 9.99945 93.4897 9.28927C93.8803 8.56724 94.0756 7.74461 94.0756 6.82136C94.0756 6.13485 93.9631 5.50751 93.7382 4.93936C93.5133 4.35938 93.1997 3.85633 92.7972 3.43021C92.3948 3.0041 91.9213 2.6786 91.3768 2.4537C90.8324 2.21697 90.2287 2.09861 89.5659 2.09861C88.69 2.09861 87.9147 2.29983 87.24 2.70227C86.5772 3.10471 86.0504 3.66102 85.6598 4.37121C85.2811 5.0814 85.0917 5.89812 85.0917 6.82136C85.0917 7.50788 85.1982 8.14705 85.4113 8.73887C85.6362 9.31886 85.9439 9.82191 86.3345 10.248C86.737 10.6623 87.2104 10.9878 87.7549 11.2245C88.3112 11.4613 88.9149 11.5796 89.5659 11.5796ZM99.2057 7.63808V6.23546H102.544C103.266 6.23546 103.822 6.05199 104.213 5.68506C104.603 5.31813 104.798 4.821 104.798 4.19366C104.798 3.60184 104.603 3.11063 104.213 2.72002C103.834 2.32942 103.283 2.13412 102.561 2.13412L99.2057 2.13412V0.678233L102.615 0.678233C103.396 0.678233 104.076 0.832107 104.656 1.13985C105.236 1.43577 105.68 1.84413 105.988 2.36493C106.308 2.88573 106.467 3.48348 106.467 4.15816C106.467 4.85651 106.308 5.46609 105.988 5.98689C105.68 6.5077 105.236 6.91605 104.656 7.21197C104.076 7.49604 103.396 7.63808 102.615 7.63808H99.2057ZM98.0872 13V0.678233H99.7561V13H98.0872ZM105.189 13L100.715 7.47829L102.295 6.92789L107.302 13H105.189ZM109.028 13V0.678233H110.697V13H109.028ZM110.164 13V11.4731L116.769 11.4731V13L110.164 13ZM119.925 13V11.4731H123.352C124.263 11.4731 125.062 11.2778 125.748 10.8872C126.435 10.4847 126.968 9.93435 127.346 9.236C127.737 8.53765 127.932 7.73277 127.932 6.82136C127.932 5.92179 127.737 5.12283 127.346 4.42448C126.956 3.72612 126.417 3.18165 125.731 2.79104C125.044 2.40044 124.251 2.20514 123.352 2.20514L119.943 2.20514V0.678233L123.387 0.678233C124.287 0.678233 125.115 0.832107 125.873 1.13985C126.642 1.4476 127.305 1.87963 127.861 2.43595C128.429 2.99226 128.867 3.64327 129.175 4.38897C129.495 5.13466 129.654 5.95138 129.654 6.83912C129.654 7.71502 129.495 8.53173 129.175 9.28927C128.867 10.035 128.435 10.686 127.879 11.2423C127.323 11.7986 126.66 12.2306 125.89 12.5384C125.133 12.8461 124.31 13 123.423 13H119.925ZM118.824 13V0.678233L120.493 0.678233V13H118.824Z" fill="white"/>
</svg>
