<svg width="5" height="6" viewBox="0 0 5 6" fill="none" xmlns="http://www.w3.org/2000/svg">
<path fill-rule="evenodd" clip-rule="evenodd" d="M3 0.999867C3 0.723729 2.77614 0.499876 2.5 0.499876C2.22386 0.499876 2 0.723729 2 0.999867L2 3.79292L0.853554 2.6465C0.658291 2.45124 0.341709 2.45124 0.146446 2.6465C-0.0488155 2.84175 -0.0488155 3.15833 0.146446 3.35359L2.14645 5.35356C2.24021 5.44732 2.36739 5.5 2.5 5.5C2.63261 5.5 2.75979 5.44732 2.85355 5.35356L4.85355 3.35359C5.04882 3.15833 5.04882 2.84175 4.85355 2.6465C4.65829 2.45124 4.34171 2.45124 4.14645 2.6465L3 3.79292L3 0.999867Z" fill="#051512"/>
</svg>
