<svg width="79" height="12" viewBox="0 0 79 12" fill="none" xmlns="http://www.w3.org/2000/svg">
<path d="M0.620965 11L0.620965 1.00246L3.81894 1.00246L6.08546 5.61313L8.32094 1.00246L11.5189 1.00246L11.5189 11H8.18122V6.74639L6.93929 9.29235L5.20059 9.29235L3.95865 6.74639L3.95865 11H0.620965ZM17.6855 11.1552C16.5678 11.1552 15.6208 10.9845 14.8446 10.6429C14.0684 10.3014 13.4733 9.75289 13.0593 8.99739C12.6557 8.24188 12.4539 7.24833 12.4539 6.01675C12.4539 4.76447 12.6557 3.76058 13.0593 3.00507C13.4733 2.24956 14.0684 1.70104 14.8446 1.35951C15.6208 1.01798 16.5678 0.847215 17.6855 0.847215C18.8032 0.847215 19.7502 1.01798 20.5264 1.35951C21.3026 1.70104 21.8925 2.24956 22.2962 3.00507C22.7102 3.76058 22.9171 4.76447 22.9171 6.01675C22.9171 7.24833 22.7102 8.24188 22.2962 8.99739C21.8925 9.75289 21.3026 10.3014 20.5264 10.6429C19.7502 10.9845 18.8032 11.1552 17.6855 11.1552ZM17.6855 8.32985C18.3272 8.32985 18.7877 8.14873 19.0672 7.7865C19.3569 7.42427 19.5018 6.83436 19.5018 6.01675C19.5018 5.15775 19.3569 4.55748 19.0672 4.21595C18.7877 3.86407 18.3272 3.68813 17.6855 3.68813C17.0335 3.68813 16.5626 3.86407 16.2728 4.21595C15.9934 4.55748 15.8537 5.15775 15.8537 6.01675C15.8537 6.83436 15.9934 7.42427 16.2728 7.7865C16.5626 8.14873 17.0335 8.32985 17.6855 8.32985ZM28.628 11.1552C27.6965 11.1552 26.8634 11 26.1286 10.6895C25.3938 10.379 24.8142 9.92366 24.3899 9.32339C23.9759 8.72313 23.7689 7.98314 23.7689 7.10344V1.00246L27.1066 1.00246V6.71534C27.1066 7.79168 27.6137 8.32985 28.628 8.32985C29.6422 8.32985 30.1493 7.79168 30.1493 6.71534V1.00246L33.487 1.00246V7.10344C33.487 7.98314 33.2749 8.72313 32.8505 9.32339C32.4365 9.92366 31.8622 10.379 31.1273 10.6895C30.4029 11 29.5698 11.1552 28.628 11.1552ZM34.6558 11V1.00246L37.4657 1.00246L40.7568 5.61313V1.00246L44.0945 1.00246V11H41.2536L37.9935 6.40486V11H34.6558ZM47.393 11V3.43975L44.7228 3.43975V1.00246L53.4164 1.00246V3.43975L50.7307 3.43975V11L47.393 11ZM52.4012 11L56.2357 1.00246L59.7286 1.00246L63.5786 11L60.1012 11L59.325 9.01291H56.6393L55.8786 11H52.4012ZM57.0429 6.68429H58.9214L57.9744 4.26253L57.0429 6.68429ZM64.5064 11V1.00246L67.8441 1.00246V11H64.5064ZM69.0848 11V1.00246L71.8947 1.00246L75.1858 5.61313V1.00246L78.5235 1.00246V11H75.6826L72.4225 6.40486V11L69.0848 11Z" fill="white"/>
</svg>
