<svg width="11" height="8" viewBox="0 0 11 8" fill="none" xmlns="http://www.w3.org/2000/svg">
<path fill-rule="evenodd" clip-rule="evenodd" d="M11 0.549608C11 0.245852 10.7538 -0.000390855 10.45 -0.000390785L0.549987 -0.000389094C0.246238 -0.000389057 -5.19582e-08 0.245854 -4.8336e-08 0.54961C-4.47137e-08 0.853367 0.246238 1.09961 0.549987 1.09961L10.45 1.09961C10.7538 1.09961 11 0.853365 11 0.549608Z" fill="white"/>
<path fill-rule="evenodd" clip-rule="evenodd" d="M11 3.85039C11 3.54663 10.7538 3.30039 10.45 3.30039L0.549987 3.30039C0.246238 3.30039 -5.19582e-08 3.54664 -4.8336e-08 3.85039C-4.47137e-08 4.15415 0.246238 4.40039 0.549987 4.40039L10.45 4.40039C10.7538 4.40039 11 4.15415 11 3.85039Z" fill="white"/>
<path fill-rule="evenodd" clip-rule="evenodd" d="M11 7.14922C11 6.84546 10.7538 6.59922 10.45 6.59922L0.549987 6.59922C0.246238 6.59922 -5.19582e-08 6.84546 -4.8336e-08 7.14922C-4.47137e-08 7.45298 0.246238 7.69922 0.549987 7.69922L10.45 7.69922C10.7538 7.69922 11 7.45297 11 7.14922Z" fill="white"/>
</svg>
