<svg width="59" height="10" viewBox="0 0 59 10" fill="none" xmlns="http://www.w3.org/2000/svg">
<path d="M48.5999 3.64094C48.6334 3.53787 48.7224 3.46277 48.8297 3.44719L51.842 3.00944L53.1892 0.279776C53.2372 0.182604 53.3361 0.121094 53.4445 0.121094C53.5529 0.121094 53.6518 0.182623 53.6998 0.279776L55.0471 3.00946L58.0593 3.44719C58.1666 3.46277 58.2557 3.53789 58.2891 3.64094C58.3226 3.744 58.2947 3.85713 58.2171 3.93276L56.0374 6.05753L56.5519 9.05776C56.5702 9.16456 56.5263 9.27251 56.4387 9.33618C56.351 9.39985 56.2348 9.40826 56.1388 9.35785L53.4445 7.94135L50.7503 9.35787C50.7086 9.37977 50.6631 9.39057 50.6178 9.39057C50.5588 9.39057 50.5 9.37224 50.4505 9.3362C50.3628 9.27251 50.3189 9.16457 50.3372 9.05776L50.8518 6.05753L48.6719 3.93278C48.5943 3.85713 48.5664 3.744 48.5999 3.64094ZM51.3564 5.75427C51.4235 5.81967 51.4542 5.91392 51.4383 6.00627L50.9959 8.58545L53.312 7.36774C53.395 7.32414 53.494 7.32414 53.577 7.36774L55.8932 8.58547L55.451 6.00625C55.4351 5.9139 55.4657 5.81969 55.5328 5.75429L57.4066 3.92769L54.817 3.55136C54.7243 3.53789 54.6442 3.47966 54.6027 3.39564L53.4445 1.04899L52.2864 3.39562C52.2449 3.47964 52.1648 3.53789 52.072 3.55136L49.4824 3.92767L51.3564 5.75427Z" fill="#CAD5D7"/>
<path d="M52.0353 3.11083L53.1103 1.22959C53.2559 0.974848 53.6248 0.979497 53.7639 1.23782L54.6743 2.92867C54.7242 3.02126 54.8107 3.08856 54.9127 3.11406L57.1648 3.67708C57.4322 3.74392 57.5377 4.06723 57.3613 4.27892L55.9777 5.93929C55.9114 6.01879 55.8811 6.12221 55.8939 6.2249L56.1637 8.38283C56.2001 8.6745 55.9011 8.89216 55.6348 8.76786L53.6026 7.81949C53.5024 7.77274 53.3866 7.77274 53.2865 7.81949L51.301 8.74605C51.0253 8.87472 50.7195 8.63757 50.7756 8.3385L51.1658 6.25768C51.1885 6.13642 51.1499 6.01176 51.0627 5.92453L49.4607 4.32253C49.2482 4.11001 49.3607 3.74631 49.6561 3.69092L51.7797 3.29274C51.8875 3.27254 51.9809 3.20603 52.0353 3.11083Z" fill="#CAD5D7"/>
<path d="M0.0139469 3.64094C0.0474255 3.53787 0.136512 3.46277 0.243742 3.44719L3.25609 3.00944L4.60328 0.279776C4.65124 0.182604 4.7502 0.121094 4.85857 0.121094C4.96692 0.121094 5.06589 0.182623 5.11385 0.279776L6.46112 3.00946L9.47341 3.44719C9.58064 3.46277 9.66973 3.53789 9.70321 3.64094C9.7367 3.744 9.70877 3.85713 9.63118 3.93276L7.45151 6.05753L7.96598 9.05776C7.9843 9.16456 7.94038 9.27251 7.85272 9.33618C7.76507 9.39985 7.64889 9.40826 7.55291 9.35785L4.85859 7.94135L2.16434 9.35787C2.12268 9.37978 2.07721 9.39057 2.03189 9.39057C1.97286 9.39057 1.9141 9.37224 1.86453 9.3362C1.77687 9.27251 1.73295 9.16457 1.75126 9.05776L2.26589 6.05753L0.0859902 3.93278C0.00838596 3.85713 -0.0195506 3.744 0.0139469 3.64094ZM2.77048 5.75427C2.83759 5.81967 2.86822 5.91392 2.85236 6.00627L2.40994 8.58545L4.72608 7.36774C4.80901 7.32414 4.9081 7.32414 4.99104 7.36774L7.30731 8.58547L6.86502 6.00625C6.8492 5.9139 6.87981 5.81969 6.94688 5.75429L8.82067 3.92769L6.23111 3.55136C6.13838 3.53789 6.05825 3.47966 6.01677 3.39564L4.85859 1.04899L3.70044 3.39562C3.65896 3.47964 3.57883 3.53789 3.4861 3.55136L0.896498 3.92767L2.77048 5.75427Z" fill="white"/>
<path d="M3.44937 3.11083L4.52437 1.22959C4.66994 0.974848 5.03883 0.979497 5.17793 1.23782L6.08839 2.92867C6.13824 3.02126 6.22479 3.08856 6.32681 3.11406L8.57889 3.67708C8.84623 3.74392 8.95177 4.06723 8.77536 4.27892L7.39172 5.93929C7.32547 6.01879 7.29515 6.12221 7.30799 6.2249L7.57773 8.38283C7.61419 8.6745 7.3152 8.89216 7.04883 8.76786L5.01662 7.81949C4.91644 7.77274 4.8007 7.77274 4.70052 7.81949L2.71505 8.74605C2.43931 8.87472 2.13359 8.63757 2.18967 8.3385L2.57982 6.25768C2.60256 6.13642 2.56399 6.01176 2.47676 5.92453L0.874756 4.32253C0.662238 4.11001 0.774755 3.74631 1.07015 3.69092L3.19375 3.29274C3.30152 3.27254 3.39497 3.20603 3.44937 3.11083Z" fill="white"/>
<path d="M12.1624 3.64094C12.1959 3.53787 12.2849 3.46277 12.3922 3.44719L15.4045 3.00944L16.7517 0.279776C16.7997 0.182604 16.8986 0.121094 17.007 0.121094C17.1154 0.121094 17.2143 0.182623 17.2623 0.279776L18.6096 3.00946L21.6218 3.44719C21.7291 3.46277 21.8182 3.53789 21.8516 3.64094C21.8851 3.744 21.8572 3.85713 21.7796 3.93276L19.5999 6.05753L20.1144 9.05776C20.1327 9.16456 20.0888 9.27251 20.0012 9.33618C19.9135 9.39985 19.7973 9.40826 19.7013 9.35785L17.007 7.94135L14.3128 9.35787C14.2711 9.37978 14.2256 9.39057 14.1803 9.39057C14.1213 9.39057 14.0625 9.37224 14.013 9.3362C13.9253 9.27251 13.8814 9.16457 13.8997 9.05776L14.4143 6.05753L12.2344 3.93278C12.1568 3.85713 12.1289 3.744 12.1624 3.64094ZM14.9189 5.75427C14.986 5.81967 15.0167 5.91392 15.0008 6.00627L14.5584 8.58545L16.8745 7.36774C16.9575 7.32414 17.0565 7.32414 17.1395 7.36774L19.4557 8.58547L19.0135 6.00625C18.9976 5.9139 19.0282 5.81969 19.0953 5.75429L20.9691 3.92769L18.3795 3.55136C18.2868 3.53789 18.2067 3.47966 18.1652 3.39564L17.007 1.04899L15.8489 3.39562C15.8074 3.47964 15.7273 3.53789 15.6345 3.55136L13.0449 3.92767L14.9189 5.75427Z" fill="white"/>
<path d="M15.5978 3.11083L16.6728 1.22959C16.8184 0.974848 17.1873 0.979497 17.3264 1.23782L18.2368 2.92867C18.2867 3.02126 18.3732 3.08856 18.4752 3.11406L20.7273 3.67708C20.9947 3.74392 21.1002 4.06723 20.9238 4.27892L19.5402 5.93929C19.4739 6.01879 19.4436 6.12221 19.4564 6.2249L19.7262 8.38283C19.7626 8.6745 19.4636 8.89216 19.1973 8.76786L17.1651 7.81949C17.0649 7.77274 16.9491 7.77274 16.849 7.81949L14.8635 8.74605C14.5878 8.87472 14.282 8.63757 14.3381 8.3385L14.7283 6.25768C14.751 6.13642 14.7124 6.01176 14.6252 5.92453L13.0232 4.32253C12.8107 4.11001 12.9232 3.74631 13.2186 3.69092L15.3422 3.29274C15.45 3.27254 15.5434 3.20603 15.5978 3.11083Z" fill="white"/>
<path d="M24.3069 3.64094C24.3404 3.53787 24.4295 3.46277 24.5367 3.44719L27.5491 3.00944L28.8963 0.279776C28.9442 0.182604 29.0432 0.121094 29.1515 0.121094C29.2599 0.121094 29.3589 0.182623 29.4068 0.279776L30.7541 3.00946L33.7664 3.44719C33.8736 3.46277 33.9627 3.53789 33.9962 3.64094C34.0297 3.744 34.0017 3.85713 33.9242 3.93276L31.7445 6.05753L32.259 9.05776C32.2773 9.16456 32.2333 9.27251 32.1457 9.33618C32.058 9.39985 31.9419 9.40826 31.8459 9.35785L29.1516 7.94135L26.4573 9.35787C26.4156 9.37978 26.3702 9.39057 26.3249 9.39057C26.2658 9.39057 26.2071 9.37224 26.1575 9.3362C26.0698 9.27251 26.0259 9.16457 26.0442 9.05776L26.5589 6.05753L24.379 3.93278C24.3014 3.85713 24.2734 3.744 24.3069 3.64094ZM27.0635 5.75427C27.1306 5.81967 27.1612 5.91392 27.1453 6.00627L26.7029 8.58545L29.019 7.36774C29.102 7.32414 29.2011 7.32414 29.284 7.36774L31.6003 8.58547L31.158 6.00625C31.1422 5.9139 31.1728 5.81969 31.2398 5.75429L33.1136 3.92769L30.5241 3.55136C30.4314 3.53789 30.3512 3.47966 30.3097 3.39564L29.1516 1.04899L27.9934 3.39562C27.9519 3.47964 27.8718 3.53789 27.7791 3.55136L25.1895 3.92767L27.0635 5.75427Z" fill="white"/>
<path d="M27.7423 3.11083L28.8173 1.22959C28.9629 0.974848 29.3318 0.979497 29.4709 1.23782L30.3814 2.92867C30.4312 3.02126 30.5178 3.08856 30.6198 3.11406L32.8719 3.67708C33.1392 3.74392 33.2447 4.06723 33.0683 4.27892L31.6847 5.93929C31.6184 6.01879 31.5881 6.12221 31.601 6.2249L31.8707 8.38283C31.9072 8.6745 31.6082 8.89216 31.3418 8.76786L29.3096 7.81949C29.2094 7.77274 29.0937 7.77274 28.9935 7.81949L27.008 8.74605C26.7323 8.87472 26.4266 8.63757 26.4826 8.3385L26.8728 6.25768C26.8955 6.13642 26.857 6.01176 26.7697 5.92453L25.1677 4.32253C24.9552 4.11001 25.0677 3.74631 25.3631 3.69092L27.4867 3.29274C27.5945 3.27254 27.6879 3.20603 27.7423 3.11083Z" fill="white"/>
<path d="M36.4514 3.64094C36.4849 3.53787 36.574 3.46277 36.6812 3.44719L39.6936 3.00944L41.0408 0.279776C41.0887 0.182604 41.1877 0.121094 41.2961 0.121094C41.4044 0.121094 41.5034 0.182623 41.5514 0.279776L42.8986 3.00946L45.9109 3.44719C46.0181 3.46277 46.1072 3.53789 46.1407 3.64094C46.1742 3.744 46.1463 3.85713 46.0687 3.93276L43.889 6.05753L44.4035 9.05776C44.4218 9.16456 44.3779 9.27251 44.2902 9.33618C44.2026 9.39985 44.0864 9.40826 43.9904 9.35785L41.2961 7.94135L38.6018 9.35787C38.5602 9.37978 38.5147 9.39057 38.4694 9.39057C38.4104 9.39057 38.3516 9.37224 38.302 9.3362C38.2144 9.27251 38.1705 9.16457 38.1888 9.05776L38.7034 6.05753L36.5235 3.93278C36.4459 3.85713 36.4179 3.744 36.4514 3.64094ZM39.208 5.75427C39.2751 5.81967 39.3057 5.91392 39.2899 6.00627L38.8474 8.58545L41.1636 7.36774C41.2465 7.32414 41.3456 7.32414 41.4285 7.36774L43.7448 8.58547L43.3025 6.00625C43.2867 5.9139 43.3173 5.81969 43.3844 5.75429L45.2582 3.92769L42.6686 3.55136C42.5759 3.53789 42.4958 3.47966 42.4543 3.39564L41.2961 1.04899L40.1379 3.39562C40.0965 3.47964 40.0163 3.53789 39.9236 3.55136L37.334 3.92767L39.208 5.75427Z" fill="white"/>
<path d="M39.8869 3.11083L40.9619 1.22959C41.1074 0.974848 41.4763 0.979497 41.6154 1.23782L42.5259 2.92867C42.5757 3.02126 42.6623 3.08856 42.7643 3.11406L45.0164 3.67708C45.2837 3.74392 45.3893 4.06723 45.2129 4.27892L43.8292 5.93929C43.763 6.01879 43.7326 6.12221 43.7455 6.2249L44.0152 8.38283C44.0517 8.6745 43.7527 8.89216 43.4863 8.76786L41.4541 7.81949C41.3539 7.77274 41.2382 7.77274 41.138 7.81949L39.1526 8.74605C38.8768 8.87472 38.5711 8.63757 38.6272 8.3385L39.0173 6.25768C39.0401 6.13642 39.0015 6.01176 38.9143 5.92453L37.3123 4.32253C37.0997 4.11001 37.2123 3.74631 37.5077 3.69092L39.6313 3.29274C39.739 3.27254 39.8325 3.20603 39.8869 3.11083Z" fill="white"/>
</svg>
