<svg width="5" height="6" viewBox="0 0 5 6" fill="none" xmlns="http://www.w3.org/2000/svg">
<path fill-rule="evenodd" clip-rule="evenodd" d="M3 5.00013C3 5.27627 2.77614 5.50012 2.5 5.50012C2.22386 5.50012 2 5.27627 2 5.00013L2 2.20708L0.853554 3.3535C0.658291 3.54876 0.341709 3.54876 0.146446 3.3535C-0.0488155 3.15825 -0.0488156 2.84167 0.146446 2.64641L2.14645 0.646445C2.24021 0.552678 2.36739 0.5 2.5 0.5C2.63261 0.5 2.75979 0.552678 2.85355 0.646445L4.85355 2.64641C5.04882 2.84167 5.04882 3.15825 4.85355 3.3535C4.65829 3.54876 4.34171 3.54876 4.14645 3.3535L3 2.20708L3 5.00013Z" fill="#051512"/>
</svg>
