<svg width="12" height="12" viewBox="0 0 12 12" fill="none" xmlns="http://www.w3.org/2000/svg">
<g clip-path="url(#clip0_11_9429)">
<path fill-rule="evenodd" clip-rule="evenodd" d="M11.5781 5.83642C11.5781 6.07986 11.3808 6.27722 11.1373 6.27722L2.52601 6.27736L3.56182 7.28361C3.73644 7.45324 3.74048 7.73231 3.57085 7.90693C3.40122 8.08155 3.12215 8.08559 2.94753 7.91596L1.13251 6.15275C1.04706 6.06975 0.998852 5.9557 0.998852 5.83658C0.998852 5.71745 1.04706 5.6034 1.13251 5.5204L2.94753 3.7572C3.12215 3.58756 3.40122 3.5916 3.57085 3.76622C3.74048 3.94084 3.73644 4.21991 3.56182 4.38954L2.52604 5.39576L11.1373 5.39562C11.3808 5.39562 11.5781 5.59297 11.5781 5.83642Z" fill="white"/>
</g>
<defs>
<clipPath id="clip0_11_9429">
<path d="M11.5781 5.83649C11.5781 2.91512 9.20988 0.546875 6.28851 0.546875C3.36713 0.546875 0.99889 2.91512 0.99889 5.83649C0.99889 8.75787 3.36713 11.1261 6.28851 11.1261C9.20988 11.1261 11.5781 8.75787 11.5781 5.83649Z" fill="white"/>
</clipPath>
</defs>
</svg>
