<svg width="37" height="37" viewBox="0 0 37 37" fill="none" xmlns="http://www.w3.org/2000/svg">
<path d="M20.0415 24.7466V24.4348C24.4135 23.2092 27.75 16.8891 27.75 9.25001C27.75 4.13984 23.6069 0 18.5 0C13.3917 0 9.25 4.13984 9.25 9.25001C9.25 16.8891 12.5865 23.2111 16.9585 24.4348V24.7466H16.9599C16.9599 29.3697 18.7618 33.7209 22.0354 37L24.2184 34.8198C21.5266 32.1248 20.0438 28.5465 20.0438 24.7466H20.0415Z" fill="#5FFFCA"/>
<path d="M36.9996 14.6456C36.9996 10.6413 34.2204 7.29279 30.488 6.40479C30.705 7.32007 30.8331 8.2682 30.8331 9.25009C30.8331 16.8767 27.8985 23.2768 23.5986 26.1378C24.5879 27.3167 25.7363 28.1479 26.9786 28.5317V33.9171H30.0621V28.5327C34.0081 27.3223 36.9996 21.5716 36.9996 14.6456Z" fill="#5FFFCA"/>
<path d="M13.401 26.1378C9.10109 23.2768 6.16652 16.8767 6.16652 9.25009C6.16652 8.2682 6.29278 7.31961 6.51155 6.40479C2.77917 7.29279 0 10.6413 0 14.6456C0 21.5716 2.9933 27.3223 6.93751 28.5327V33.9166H10.021V28.5313C11.2633 28.1474 12.4117 27.3167 13.401 26.1378Z" fill="#5FFFCA"/>
</svg>
