<svg width="12" height="12" viewBox="0 0 12 12" fill="none" xmlns="http://www.w3.org/2000/svg">
<g clip-path="url(#clip0_11_8970)">
<path fill-rule="evenodd" clip-rule="evenodd" d="M6.28834 0.546875C6.04489 0.546871 5.84753 0.744222 5.84753 0.98767L5.8474 9.59899L4.84115 8.56318C4.67152 8.38856 4.39244 8.38452 4.21783 8.55415C4.04321 8.72378 4.03917 9.00285 4.2088 9.17747L5.97201 10.9925C6.05501 11.0779 6.16906 11.1261 6.28818 11.1261C6.4073 11.1261 6.52135 11.0779 6.60435 10.9925L8.36756 9.17747C8.53719 9.00285 8.53315 8.72378 8.35853 8.55415C8.18391 8.38452 7.90484 8.38856 7.73521 8.56318L6.729 9.59896L6.72913 0.987683C6.72914 0.744235 6.53179 0.546879 6.28834 0.546875Z" fill="black"/>
</g>
<defs>
<clipPath id="clip0_11_8970">
<path d="M6.28851 0.546875C9.20988 0.546875 11.5781 2.91512 11.5781 5.83649C11.5781 8.75787 9.20988 11.1261 6.28851 11.1261C3.36713 11.1261 0.99889 8.75787 0.99889 5.83649C0.99889 2.91512 3.36713 0.546875 6.28851 0.546875Z" fill="white"/>
</clipPath>
</defs>
</svg>
