<svg width="30" height="30" viewBox="0 0 30 30" fill="none" xmlns="http://www.w3.org/2000/svg">
<path d="M15.8759 19.6034V19.3565C19.3392 18.3856 21.9823 13.379 21.9823 7.32757C21.9823 3.27945 18.7003 0 14.6547 0C10.6081 0 7.32715 3.27945 7.32715 7.32757C7.32715 13.379 9.9702 18.3871 13.4336 19.3565V19.6034H13.4347C13.4347 23.2658 14.8621 26.7127 17.4553 29.3103L19.1846 27.5832C17.0523 25.4483 15.8777 22.6136 15.8777 19.6034H15.8759Z" fill="#49497D"/>
<path d="M29.3102 11.6019C29.3102 8.42976 27.1086 5.77718 24.1519 5.07373C24.3237 5.79879 24.4252 6.54987 24.4252 7.32769C24.4252 13.3693 22.1006 18.4392 18.6943 20.7056C19.478 21.6395 20.3877 22.2979 21.3718 22.602V26.8681H23.8145V22.6027C26.9404 21.6439 29.3102 17.0884 29.3102 11.6019Z" fill="#49497D"/>
<path d="M10.6158 20.7056C7.20959 18.4392 4.88492 13.3693 4.88492 7.32769C4.88492 6.54987 4.98495 5.79843 5.15824 5.07373C2.20157 5.77718 0 8.42976 0 11.6019C0 17.0884 2.3712 21.6439 5.49568 22.6027V26.8678H7.93832V22.6016C8.92241 22.2975 9.83213 21.6395 10.6158 20.7056Z" fill="#49497D"/>
</svg>
