<svg width="9" height="9" viewBox="0 0 9 9" fill="none" xmlns="http://www.w3.org/2000/svg">
<path fill-rule="evenodd" clip-rule="evenodd" d="M2.38419e-07 3.375C2.38419e-07 5.23896 1.51104 6.75 3.375 6.75C4.15424 6.75 4.87179 6.48592 5.44305 6.04237C5.46457 6.08789 5.49415 6.13055 5.5318 6.1682L8.2318 8.8682C8.40754 9.04393 8.69246 9.04393 8.8682 8.8682C9.04393 8.69246 9.04393 8.40754 8.8682 8.2318L6.1682 5.5318C6.13055 5.49415 6.08789 5.46457 6.04237 5.44305C6.48592 4.87179 6.75 4.15424 6.75 3.375C6.75 1.51104 5.23896 0 3.375 0C1.51104 0 2.38419e-07 1.51104 2.38419e-07 3.375ZM0.9 3.375C0.9 2.0081 2.0081 0.9 3.375 0.9C4.7419 0.9 5.85 2.0081 5.85 3.375C5.85 4.7419 4.7419 5.85 3.375 5.85C2.0081 5.85 0.9 4.7419 0.9 3.375Z" fill="#0A062D"/>
</svg>
