<svg width="11" height="9" viewBox="0 0 11 9" fill="none" xmlns="http://www.w3.org/2000/svg">
<path fill-rule="evenodd" clip-rule="evenodd" d="M5.8462 1.98155C5.65274 2.16938 5.34726 2.16938 5.1538 1.98155L4.8076 1.64541C4.40239 1.25198 3.85497 1.01175 3.25 1.01175C2.00736 1.01175 1 2.03095 1 3.28819C1 4.4935 1.64489 5.48878 2.57588 6.30653C3.50766 7.12497 4.6217 7.66778 5.28732 7.94481C5.4265 8.00273 5.5735 8.00273 5.71268 7.94481C6.3783 7.66778 7.49234 7.12497 8.42412 6.30652C9.35511 5.48877 10 4.4935 10 3.28819C10 2.03095 8.99264 1.01175 7.75 1.01175C7.14503 1.01175 6.59762 1.25198 6.1924 1.64541L5.8462 1.98155ZM5.5 0.915419C4.91605 0.348449 4.12325 0 3.25 0C1.45507 0 0 1.47217 0 3.28819C0 6.50974 3.48517 8.28878 4.9069 8.88048C5.28978 9.03984 5.71022 9.03984 6.0931 8.88048C7.51483 8.28877 11 6.50973 11 3.28819C11 1.47217 9.54493 0 7.75 0C6.87675 0 6.08395 0.348449 5.5 0.915419Z" fill="white"/>
</svg>
