<svg width="165" height="31" viewBox="0 0 165 31" fill="none" xmlns="http://www.w3.org/2000/svg">
<path d="M8.832 24.32C7.01867 24.32 5.46133 24.0107 4.16 23.392C2.88 22.7733 1.71733 21.8453 0.672 20.608L3.552 17.728C4.21333 18.6027 4.98133 19.2853 5.856 19.776C6.73067 20.2453 7.79733 20.48 9.056 20.48C10.1867 20.48 11.0827 20.256 11.744 19.808C12.4267 19.36 12.768 18.7413 12.768 17.952C12.768 17.2693 12.576 16.7147 12.192 16.288C11.808 15.8613 11.296 15.4987 10.656 15.2C10.0373 14.9013 9.344 14.6347 8.576 14.4C7.82933 14.144 7.072 13.856 6.304 13.536C5.55733 13.216 4.864 12.8213 4.224 12.352C3.60533 11.8613 3.104 11.2427 2.72 10.496C2.336 9.728 2.144 8.768 2.144 7.616C2.144 6.25067 2.47467 5.088 3.136 4.128C3.79733 3.168 4.704 2.432 5.856 1.92C7.008 1.408 8.30933 1.152 9.76 1.152C11.296 1.152 12.6827 1.44 13.92 2.016C15.1573 2.592 16.1707 3.33867 16.96 4.256L14.08 7.136C13.4187 6.41067 12.736 5.87733 12.032 5.536C11.3493 5.19467 10.5707 5.024 9.696 5.024C8.69333 5.024 7.904 5.216 7.328 5.6C6.752 5.984 6.464 6.53867 6.464 7.264C6.464 7.88267 6.656 8.384 7.04 8.768C7.424 9.152 7.92533 9.48267 8.544 9.76C9.184 10.0373 9.87733 10.304 10.624 10.56C11.392 10.816 12.1493 11.104 12.896 11.424C13.664 11.744 14.3573 12.16 14.976 12.672C15.616 13.184 16.128 13.8453 16.512 14.656C16.896 15.4453 17.088 16.4267 17.088 17.6C17.088 19.6907 16.352 21.3333 14.88 22.528C13.408 23.7227 11.392 24.32 8.832 24.32ZM30.4748 24V15.136C30.4748 14.2187 30.1868 13.472 29.6108 12.896C29.0348 12.32 28.2881 12.032 27.3708 12.032C26.7734 12.032 26.2401 12.16 25.7708 12.416C25.3014 12.672 24.9281 13.0347 24.6508 13.504C24.3948 13.9733 24.2668 14.5173 24.2668 15.136L22.6348 14.304C22.6348 13.088 22.8908 12.032 23.4028 11.136C23.9148 10.2187 24.6188 9.504 25.5148 8.992C26.4321 8.48 27.4774 8.224 28.6508 8.224C29.8241 8.224 30.8588 8.48 31.7548 8.992C32.6721 9.504 33.3868 10.208 33.8988 11.104C34.4108 12 34.6667 13.0347 34.6667 14.208V24H30.4748ZM20.0748 24L20.0748 0.863998H24.2668L24.2668 24L20.0748 24ZM45.3075 24.32C43.7502 24.32 42.3422 23.968 41.0835 23.264C39.8462 22.5387 38.8542 21.568 38.1075 20.352C37.3822 19.1147 37.0195 17.7387 37.0195 16.224C37.0195 14.7093 37.3822 13.3547 38.1075 12.16C38.8328 10.944 39.8248 9.984 41.0835 9.28C42.3422 8.55467 43.7395 8.192 45.2755 8.192C46.8542 8.192 48.2622 8.55467 49.4995 9.28C50.7582 9.984 51.7502 10.944 52.4755 12.16C53.2008 13.3547 53.5635 14.7093 53.5635 16.224C53.5635 17.7387 53.2008 19.1147 52.4755 20.352C51.7502 21.568 50.7582 22.5387 49.4995 23.264C48.2622 23.968 46.8648 24.32 45.3075 24.32ZM45.2755 20.416C46.0648 20.416 46.7582 20.2453 47.3555 19.904C47.9742 19.5413 48.4435 19.0507 48.7635 18.432C49.1048 17.792 49.2755 17.0667 49.2755 16.256C49.2755 15.4453 49.1048 14.7307 48.7635 14.112C48.4222 13.4933 47.9528 13.0133 47.3555 12.672C46.7582 12.3093 46.0648 12.128 45.2755 12.128C44.5075 12.128 43.8248 12.3093 43.2275 12.672C42.6302 13.0133 42.1608 13.4933 41.8195 14.112C41.4782 14.7307 41.3075 15.4453 41.3075 16.256C41.3075 17.0667 41.4782 17.792 41.8195 18.432C42.1608 19.0507 42.6302 19.5413 43.2275 19.904C43.8248 20.2453 44.5075 20.416 45.2755 20.416ZM63.6543 24.32C62.0329 24.32 60.5929 23.9787 59.3343 23.296C58.0756 22.592 57.0729 21.632 56.3263 20.416C55.6009 19.2 55.2383 17.8133 55.2383 16.256C55.2383 14.72 55.5903 13.3547 56.2943 12.16C57.0196 10.944 58.0009 9.984 59.2383 9.28C60.4756 8.55467 61.8516 8.192 63.3663 8.192C64.8596 8.192 66.1716 8.53333 67.3023 9.216C68.4543 9.87733 69.3503 10.7947 69.9903 11.968C70.6516 13.12 70.9823 14.432 70.9823 15.904C70.9823 16.1813 70.9609 16.4693 70.9183 16.768C70.8969 17.0453 70.8436 17.3653 70.7583 17.728L57.7663 17.76V14.624L68.8063 14.592L67.1103 15.904C67.0676 14.9867 66.8969 14.2187 66.5983 13.6C66.3209 12.9813 65.9049 12.512 65.3503 12.192C64.8169 11.8507 64.1556 11.68 63.3663 11.68C62.5343 11.68 61.8089 11.872 61.1903 12.256C60.5716 12.6187 60.0916 13.1413 59.7503 13.824C59.4303 14.4853 59.2703 15.2747 59.2703 16.192C59.2703 17.1307 59.4409 17.952 59.7823 18.656C60.1449 19.3387 60.6569 19.872 61.3183 20.256C61.9796 20.6187 62.7476 20.8 63.6223 20.8C64.4116 20.8 65.1263 20.672 65.7663 20.416C66.4063 20.1387 66.9609 19.7333 67.4303 19.2L69.8943 21.664C69.1476 22.5387 68.2303 23.2 67.1423 23.648C66.0756 24.096 64.9129 24.32 63.6543 24.32ZM78.8868 24.352C78.0121 24.352 77.1481 24.2347 76.2948 24C75.4628 23.7653 74.6948 23.4453 73.9908 23.04C73.2868 22.6133 72.6788 22.1013 72.1668 21.504L74.6628 18.976C75.1961 19.5733 75.8148 20.0213 76.5188 20.32C77.2228 20.6187 78.0014 20.768 78.8548 20.768C79.5374 20.768 80.0494 20.672 80.3908 20.48C80.7534 20.288 80.9348 20 80.9348 19.616C80.9348 19.1893 80.7428 18.8587 80.3588 18.624C79.9961 18.3893 79.5161 18.1973 78.9188 18.048C78.3214 17.8773 77.6921 17.696 77.0308 17.504C76.3908 17.2907 75.7721 17.024 75.1748 16.704C74.5774 16.3627 74.0868 15.904 73.7028 15.328C73.3401 14.7307 73.1588 13.9627 73.1588 13.024C73.1588 12.0427 73.3934 11.1893 73.8628 10.464C74.3534 9.73867 75.0468 9.17333 75.9427 8.768C76.8388 8.36267 77.8948 8.16 79.1108 8.16C80.3908 8.16 81.5428 8.384 82.5668 8.832C83.6121 9.28 84.4761 9.952 85.1588 10.848L82.6308 13.376C82.1614 12.8 81.6281 12.384 81.0308 12.128C80.4548 11.872 79.8254 11.744 79.1428 11.744C78.5241 11.744 78.0441 11.84 77.7028 12.032C77.3828 12.224 77.2228 12.4907 77.2228 12.832C77.2228 13.216 77.4041 13.5147 77.7668 13.728C78.1508 13.9413 78.6414 14.1333 79.2388 14.304C79.8361 14.4533 80.4548 14.6347 81.0948 14.848C81.7561 15.04 82.3748 15.3173 82.9508 15.68C83.5481 16.0427 84.0281 16.5227 84.3908 17.12C84.7748 17.7173 84.9668 18.4853 84.9668 19.424C84.9668 20.9387 84.4228 22.144 83.3348 23.04C82.2468 23.9147 80.7641 24.352 78.8868 24.352ZM101.02 24.32C99.2062 24.32 97.6488 24.0107 96.3475 23.392C95.0675 22.7733 93.9048 21.8453 92.8595 20.608L95.7395 17.728C96.4008 18.6027 97.1688 19.2853 98.0435 19.776C98.9182 20.2453 99.9848 20.48 101.244 20.48C102.374 20.48 103.27 20.256 103.932 19.808C104.614 19.36 104.956 18.7413 104.956 17.952C104.956 17.2693 104.764 16.7147 104.38 16.288C103.996 15.8613 103.484 15.4987 102.844 15.2C102.225 14.9013 101.532 14.6347 100.764 14.4C100.017 14.144 99.2595 13.856 98.4915 13.536C97.7448 13.216 97.0515 12.8213 96.4115 12.352C95.7928 11.8613 95.2915 11.2427 94.9075 10.496C94.5235 9.728 94.3315 8.768 94.3315 7.616C94.3315 6.25067 94.6622 5.088 95.3235 4.128C95.9848 3.168 96.8915 2.432 98.0435 1.92C99.1955 1.408 100.497 1.152 101.948 1.152C103.484 1.152 104.87 1.44 106.108 2.016C107.345 2.592 108.358 3.33867 109.148 4.256L106.268 7.136C105.606 6.41067 104.924 5.87733 104.22 5.536C103.537 5.19467 102.758 5.024 101.884 5.024C100.881 5.024 100.092 5.216 99.5155 5.6C98.9395 5.984 98.6515 6.53867 98.6515 7.264C98.6515 7.88267 98.8435 8.384 99.2275 8.768C99.6115 9.152 100.113 9.48267 100.732 9.76C101.372 10.0373 102.065 10.304 102.812 10.56C103.58 10.816 104.337 11.104 105.084 11.424C105.852 11.744 106.545 12.16 107.164 12.672C107.804 13.184 108.316 13.8453 108.7 14.656C109.084 15.4453 109.276 16.4267 109.276 17.6C109.276 19.6907 108.54 21.3333 107.068 22.528C105.596 23.7227 103.58 24.32 101.02 24.32ZM122.662 24V15.136C122.662 14.2187 122.374 13.472 121.798 12.896C121.222 12.32 120.476 12.032 119.558 12.032C118.961 12.032 118.428 12.16 117.958 12.416C117.489 12.672 117.116 13.0347 116.838 13.504C116.582 13.9733 116.454 14.5173 116.454 15.136L114.822 14.304C114.822 13.088 115.078 12.032 115.59 11.136C116.102 10.2187 116.806 9.504 117.702 8.992C118.62 8.48 119.665 8.224 120.838 8.224C122.012 8.224 123.046 8.48 123.942 8.992C124.86 9.504 125.574 10.208 126.086 11.104C126.598 12 126.854 13.0347 126.854 14.208V24H122.662ZM112.262 24V0.863998L116.454 0.863998V24H112.262ZM137.495 24.32C135.938 24.32 134.53 23.968 133.271 23.264C132.034 22.5387 131.042 21.568 130.295 20.352C129.57 19.1147 129.207 17.7387 129.207 16.224C129.207 14.7093 129.57 13.3547 130.295 12.16C131.02 10.944 132.012 9.984 133.271 9.28C134.53 8.55467 135.927 8.192 137.463 8.192C139.042 8.192 140.45 8.55467 141.687 9.28C142.946 9.984 143.938 10.944 144.663 12.16C145.388 13.3547 145.751 14.7093 145.751 16.224C145.751 17.7387 145.388 19.1147 144.663 20.352C143.938 21.568 142.946 22.5387 141.687 23.264C140.45 23.968 139.052 24.32 137.495 24.32ZM137.463 20.416C138.252 20.416 138.946 20.2453 139.543 19.904C140.162 19.5413 140.631 19.0507 140.951 18.432C141.292 17.792 141.463 17.0667 141.463 16.256C141.463 15.4453 141.292 14.7307 140.951 14.112C140.61 13.4933 140.14 13.0133 139.543 12.672C138.946 12.3093 138.252 12.128 137.463 12.128C136.695 12.128 136.012 12.3093 135.415 12.672C134.818 13.0133 134.348 13.4933 134.007 14.112C133.666 14.7307 133.495 15.4453 133.495 16.256C133.495 17.0667 133.666 17.792 134.007 18.432C134.348 19.0507 134.818 19.5413 135.415 19.904C136.012 20.2453 136.695 20.416 137.463 20.416ZM157.026 24.32C155.916 24.32 154.914 24.096 154.018 23.648C153.122 23.1787 152.407 22.5493 151.874 21.76C151.34 20.9707 151.052 20.064 151.01 19.04V13.568C151.052 12.544 151.34 11.6373 151.874 10.848C152.428 10.0373 153.143 9.39733 154.018 8.928C154.914 8.45867 155.916 8.224 157.026 8.224C158.455 8.224 159.735 8.576 160.866 9.28C161.996 9.984 162.882 10.944 163.522 12.16C164.183 13.376 164.514 14.752 164.514 16.288C164.514 17.8027 164.183 19.168 163.522 20.384C162.882 21.6 161.996 22.56 160.866 23.264C159.735 23.968 158.455 24.32 157.026 24.32ZM156.29 20.448C157.058 20.448 157.74 20.2773 158.338 19.936C158.935 19.5733 159.394 19.0827 159.714 18.464C160.055 17.824 160.226 17.088 160.226 16.256C160.226 15.4453 160.055 14.7307 159.714 14.112C159.394 13.472 158.935 12.9813 158.338 12.64C157.74 12.2773 157.058 12.096 156.29 12.096C155.543 12.096 154.871 12.2773 154.274 12.64C153.676 12.9813 153.207 13.472 152.866 14.112C152.546 14.7307 152.386 15.4453 152.386 16.256C152.386 17.088 152.546 17.824 152.866 18.464C153.207 19.0827 153.666 19.5733 154.242 19.936C154.839 20.2773 155.522 20.448 156.29 20.448ZM148.45 30.464V8.544H152.642V12.608L151.938 16.352L152.61 20.096V30.464H148.45Z" fill="white"/>
</svg>
