<svg width="11" height="13" viewBox="0 0 11 13" fill="none" xmlns="http://www.w3.org/2000/svg">
<path fill-rule="evenodd" clip-rule="evenodd" d="M0 2.36364C0 1.05824 1.09442 0 2.44444 0H7.54303C8.19134 0 8.8131 0.249025 9.27152 0.692293L10.284 1.67134C10.7425 2.11461 11 2.71581 11 3.34269V10.6364C11 11.9418 9.90558 13 8.55556 13H2.44444C1.09441 13 0 11.9418 0 10.6364V2.36364ZM9.77778 4.13636V10.6364C9.77778 11.2891 9.23057 11.8182 8.55556 11.8182H2.44444C1.76943 11.8182 1.22222 11.2891 1.22222 10.6364V2.36364C1.22222 1.71094 1.76943 1.18182 2.44444 1.18182H6.72222V2.36364C6.72222 3.34269 7.54303 4.13636 8.55556 4.13636H9.77778ZM9.70998 2.95455C9.64997 2.78767 9.55145 2.63432 9.4198 2.50702L8.40728 1.52796C8.27562 1.40066 8.11702 1.3054 7.94444 1.24737V2.36364C7.94444 2.68999 8.21805 2.95455 8.55556 2.95455H9.70998Z" fill="#E8BA96"/>
<path d="M3.625 7C3.27982 7 3 7.22386 3 7.5C3 7.77614 3.27982 8 3.625 8H7.375C7.72018 8 8 7.77614 8 7.5C8 7.22386 7.72018 7 7.375 7H3.625Z" fill="#E8BA96"/>
<path d="M3.625 9C3.27982 9 3 9.22386 3 9.5C3 9.77614 3.27982 10 3.625 10H5.5C5.84518 10 6.125 9.77614 6.125 9.5C6.125 9.22386 5.84518 9 5.5 9H3.625Z" fill="#E8BA96"/>
</svg>
