<svg width="13" height="16" viewBox="0 0 13 16" fill="none" xmlns="http://www.w3.org/2000/svg">
<path fill-rule="evenodd" clip-rule="evenodd" d="M0 2.90909C0 1.30244 1.2934 0 2.88889 0H8.91449C9.68067 0 10.4155 0.306493 10.9572 0.852053L12.1539 2.05704C12.6956 2.6026 13 3.34254 13 4.11408V13.0909C13 14.6976 11.7066 16 10.1111 16H2.88889C1.2934 16 0 14.6976 0 13.0909V2.90909ZM11.5556 5.09091V13.0909C11.5556 13.8942 10.9089 14.5455 10.1111 14.5455H2.88889C2.09114 14.5455 1.44444 13.8942 1.44444 13.0909V2.90909C1.44444 2.10577 2.09114 1.45455 2.88889 1.45455H7.94444V2.90909C7.94444 4.11408 8.91449 5.09091 10.1111 5.09091H11.5556ZM11.4754 3.63636C11.4045 3.43098 11.2881 3.24224 11.1325 3.08556L9.93587 1.88057C9.78028 1.72389 9.59285 1.60665 9.38889 1.53523V2.90909C9.38889 3.31075 9.71224 3.63636 10.1111 3.63636H11.4754Z" fill="#E8BA96"/>
<path d="M5.25003 7.1016L8.57902 8.83789C9.14033 9.13064 9.14033 9.86936 8.57902 10.1621L5.25003 11.8984C4.69303 12.1889 4 11.8218 4 11.2363L4 7.76372C4 7.17818 4.69303 6.8111 5.25003 7.1016Z" fill="#E8BA96"/>
</svg>
