<svg width="13" height="13" viewBox="0 0 13 13" fill="none" xmlns="http://www.w3.org/2000/svg">
<path fill-rule="evenodd" clip-rule="evenodd" d="M6.19178 10.2779C6.37663 10.1508 6.6207 10.1508 6.80555 10.2779L7.11244 10.4889C7.45128 10.7219 7.79006 10.8333 8.12365 10.8333C8.72841 10.8333 9.38816 10.4492 9.95049 9.66199C10.5068 8.8832 10.832 7.88189 10.832 7.04167C10.832 5.47332 9.69207 4.33333 8.12365 4.33333C7.68321 4.33333 7.28574 4.4228 6.9418 4.57698L6.72023 4.6763C6.57928 4.73948 6.41805 4.73949 6.2771 4.6763L6.05553 4.57698C5.71158 4.4228 5.31409 4.33333 4.87365 4.33333C3.30527 4.33333 2.16536 5.47328 2.16536 7.04167C2.16536 7.88191 2.49061 8.88322 3.04688 9.662C3.60918 10.4492 4.2689 10.8333 4.87365 10.8333C5.20724 10.8333 5.54603 10.7219 5.88489 10.4889L6.19178 10.2779ZM6.49866 3.58842C6.98579 3.37006 7.53471 3.25 8.12365 3.25C10.2904 3.25 11.9154 4.875 11.9154 7.04167C11.9154 9.20833 10.2904 11.9167 8.12365 11.9167C7.53471 11.9167 6.98579 11.7166 6.49866 11.3816C6.01152 11.7166 5.46259 11.9167 4.87365 11.9167C2.70694 11.9167 1.08203 9.20833 1.08203 7.04167C1.08203 4.875 2.70694 3.25 4.87365 3.25C5.46259 3.25 6.01152 3.37006 6.49866 3.58842Z" fill="white"/>
<path d="M4.60286 6.5C4.45329 6.5 4.33203 6.62126 4.33203 6.77083V7.3125C4.33203 7.76123 4.6958 8.125 5.14453 8.125C5.29411 8.125 5.41536 8.00374 5.41536 7.85417V7.3125C5.41536 6.86377 5.0516 6.5 4.60286 6.5Z" fill="white"/>
<path d="M8.39453 6.5C8.54411 6.5 8.66536 6.62126 8.66536 6.77083V7.3125C8.66536 7.76123 8.3016 8.125 7.85286 8.125C7.70329 8.125 7.58203 8.00374 7.58203 7.85417V7.3125C7.58203 6.86377 7.9458 6.5 8.39453 6.5Z" fill="white"/>
<path fill-rule="evenodd" clip-rule="evenodd" d="M4.33333 2.16732C5.04453 2.16732 5.64901 2.62419 5.8693 3.26046C5.96717 3.54315 6.20085 3.79232 6.5 3.79232C6.79915 3.79232 7.04732 3.54736 6.98819 3.25411C6.73859 2.01617 5.64482 1.08398 4.33333 1.08398H3.79167C3.49251 1.08398 3.25 1.3265 3.25 1.62565C3.25 1.92481 3.49251 2.16732 3.79167 2.16732H4.33333Z" fill="white"/>
<path fill-rule="evenodd" clip-rule="evenodd" d="M10.832 2.34787C10.832 1.64985 10.2662 1.08398 9.56814 1.08398H7.94314C6.84624 1.08398 5.95703 1.9732 5.95703 3.0701C5.95703 3.76812 6.52289 4.33398 7.22092 4.33398H8.84592C9.94282 4.33398 10.832 3.44477 10.832 2.34787ZM9.56814 2.16732C9.66786 2.16732 9.7487 2.24816 9.7487 2.34787C9.7487 2.84646 9.34451 3.25065 8.84592 3.25065H7.22092C7.1212 3.25065 7.04036 3.16981 7.04036 3.0701C7.04036 2.57151 7.44455 2.16732 7.94314 2.16732H9.56814Z" fill="white"/>
</svg>
