<svg width="12" height="9" viewBox="0 0 12 9" fill="none" xmlns="http://www.w3.org/2000/svg">
<path d="M11.5477 4.55452C11.1563 3.10816 10.4748 1.69791 10.2767 1.30318C10.2679 1.28208 10.2477 1.20297 10.2327 1.14517C10.1515 0.827576 10.098 0.645302 9.94414 0.589279L8.43013 0.0387104C8.23937 -0.0311217 8.02415 -0.00508267 7.85845 0.105583C7.68427 0.216841 7.48838 0.325929 7.42565 0.347431H4.50277C4.43096 0.326521 4.19483 0.205597 4.02163 0.107753C3.85258 -0.0046882 3.63756 -0.0309244 3.4468 0.0387104L1.93259 0.589279C1.77971 0.644908 1.72704 0.824222 1.64715 1.13649C1.63196 1.19646 1.61085 1.27813 1.60335 1.29608C1.51537 1.46238 0.730454 2.96554 0.291538 4.56734C-0.230032 6.47036 -0.0511123 7.71589 0.822972 8.26903C1.02714 8.39843 1.30055 8.37654 1.48795 8.21576L3.2884 6.67177C3.50717 6.48417 3.78649 6.3808 4.0749 6.3808H7.80164C8.08984 6.3808 8.36917 6.48397 8.58814 6.67177L10.3886 8.21576C10.4959 8.30809 10.6294 8.35523 10.7614 8.35523C10.8654 8.35523 10.9689 8.32584 11.0579 8.26607C11.8973 7.70268 12.0622 6.45399 11.5477 4.55452ZM5.81537 0.741962C5.8562 0.748472 5.91144 0.748669 5.92702 0.741765H6.27204C6.27204 0.743738 6.27204 0.745908 6.27204 0.747683C6.27204 0.86407 6.22095 0.973947 6.13179 1.0493C6.04144 1.12545 5.92643 1.15681 5.80649 1.1357C5.65381 1.10986 5.5244 0.985191 5.49205 0.833099C5.48554 0.802326 5.48258 0.771749 5.48318 0.741568L5.81537 0.741962ZM10.8382 7.93841C10.7841 7.9751 10.703 7.96544 10.6458 7.91632L8.84517 6.37232C8.5548 6.12337 8.18414 5.98627 7.80184 5.98627H4.0749C3.6924 5.98627 3.32193 6.12337 3.03156 6.37232L1.23111 7.91632C1.1745 7.96484 1.09362 7.97313 1.03405 7.93565C0.149112 7.37561 0.348745 5.85154 0.672064 4.67149C1.09974 3.11073 1.86611 1.64307 1.95192 1.48092C1.97836 1.43121 1.9967 1.36197 2.02945 1.23434C2.04898 1.1576 2.08685 1.00926 2.11585 0.942384L3.58173 0.409372C3.65531 0.38215 3.73777 0.392605 3.8147 0.443499C4.34061 0.741962 4.44793 0.741962 4.48837 0.741962H5.08904C5.08864 0.799564 5.09397 0.857363 5.1064 0.915162C5.17229 1.22684 5.42735 1.47185 5.74041 1.52511C5.78578 1.533 5.83115 1.53675 5.87633 1.53675C6.06235 1.53675 6.24285 1.47204 6.38606 1.35132C6.56419 1.2008 6.66638 0.981048 6.66638 0.748078C6.66638 0.746105 6.66578 0.744132 6.66578 0.74216H7.44202C7.48779 0.74216 7.5953 0.742159 8.07406 0.4362C8.13916 0.392605 8.22162 0.383136 8.295 0.40957L9.76128 0.942779C9.79106 1.01103 9.83032 1.16411 9.85044 1.24302C9.88121 1.36414 9.89857 1.42963 9.92244 1.47717C10.1945 2.01886 12.5291 6.80334 10.8382 7.93841Z" fill="white"/>
<path d="M7.45569 3.42163C6.91183 3.42163 6.46936 3.8641 6.46936 4.40796C6.46936 4.95182 6.91183 5.39429 7.45569 5.39429C7.99955 5.39429 8.44202 4.95182 8.44202 4.40796C8.44202 3.8641 7.99935 3.42163 7.45569 3.42163ZM7.45569 4.99976C7.12941 4.99976 6.86389 4.73424 6.86389 4.40796C6.86389 4.08168 7.12941 3.81616 7.45569 3.81616C7.78197 3.81616 8.04749 4.08168 8.04749 4.40796C8.04749 4.73424 7.78197 4.99976 7.45569 4.99976Z" fill="white"/>
<path d="M3.90479 2.4353C3.90479 1.89144 3.46232 1.44897 2.91846 1.44897C2.3746 1.44897 1.93213 1.89144 1.93213 2.4353C1.93213 2.97916 2.3746 3.42163 2.91846 3.42163C3.46232 3.42163 3.90479 2.97916 3.90479 2.4353ZM2.91846 3.0271C2.59218 3.0271 2.32666 2.76158 2.32666 2.4353C2.32666 2.10903 2.59218 1.84351 2.91846 1.84351C3.24473 1.84351 3.51025 2.10903 3.51025 2.4353C3.51025 2.76158 3.24473 3.0271 2.91846 3.0271Z" fill="white"/>
<path d="M8.83655 2.04102C9.05444 2.04102 9.23108 1.86438 9.23108 1.64648C9.23108 1.42859 9.05444 1.25195 8.83655 1.25195C8.61865 1.25195 8.44202 1.42859 8.44202 1.64648C8.44202 1.86438 8.61865 2.04102 8.83655 2.04102Z" fill="white"/>
<path d="M8.04736 2.83008C8.26526 2.83008 8.44189 2.65344 8.44189 2.43555C8.44189 2.21765 8.26526 2.04102 8.04736 2.04102C7.82947 2.04102 7.65283 2.21765 7.65283 2.43555C7.65283 2.65344 7.82947 2.83008 8.04736 2.83008Z" fill="white"/>
<path d="M9.62549 2.83008C9.84338 2.83008 10.02 2.65344 10.02 2.43555C10.02 2.21765 9.84338 2.04102 9.62549 2.04102C9.40759 2.04102 9.23096 2.21765 9.23096 2.43555C9.23096 2.65344 9.40759 2.83008 9.62549 2.83008Z" fill="white"/>
<path d="M8.83655 3.6189C9.05444 3.6189 9.23108 3.44226 9.23108 3.22437C9.23108 3.00647 9.05444 2.82983 8.83655 2.82983C8.61865 2.82983 8.44202 3.00647 8.44202 3.22437C8.44202 3.44226 8.61865 3.6189 8.83655 3.6189Z" fill="white"/>
<path d="M5.58149 3.74805H5.13054V3.2973C5.13054 3.11088 4.97884 2.95898 4.79243 2.95898H4.28526C4.09884 2.95898 3.94714 3.11088 3.94714 3.2973V3.74805H3.49619C3.30978 3.74805 3.15808 3.89994 3.15808 4.08636V4.59333C3.15808 4.77975 3.30978 4.93164 3.49619 4.93164H3.94714V5.38239C3.94714 5.56881 4.09884 5.7207 4.28526 5.7207H4.79243C4.97884 5.7207 5.13054 5.56881 5.13054 5.38239V4.93164H5.58149C5.76791 4.93164 5.9196 4.77975 5.9196 4.59333V4.08636C5.9196 3.89994 5.76791 3.74805 5.58149 3.74805ZM5.52507 4.53711H4.73601V5.32617H4.34148V4.53711H3.55242V4.14258H4.34148V3.35352H4.73601V4.14258H5.52507V4.53711Z" fill="white"/>
</svg>
