<svg width="11" height="11" viewBox="0 0 11 11" fill="none" xmlns="http://www.w3.org/2000/svg">
<g clip-path="url(#clip0_3_113)">
<path d="M8.72163 9.11819C8.64352 8.59698 8.27939 8.16833 7.79468 7.99704C7.22539 6.87468 6.92321 5.61851 6.92013 4.36005C7.26637 4.32643 7.53795 4.03382 7.53795 3.6789C7.53795 3.3833 7.34957 3.13091 7.08658 3.03537C7.30384 2.71642 7.42054 2.34053 7.42054 1.94502C7.42056 0.87254 6.54802 0 5.47552 0C4.40301 0 3.53047 0.87254 3.53047 1.94505C3.53047 2.34053 3.64719 2.71644 3.86444 3.03539C3.60146 3.13093 3.41307 3.38332 3.41307 3.67892C3.41307 4.03385 3.68464 4.32645 4.03089 4.36007C4.02781 5.61853 3.72565 6.8747 3.15634 7.99707C2.67162 8.16835 2.3075 8.59702 2.22938 9.11821C1.77168 9.15908 1.41162 9.54455 1.41162 10.0127V10.7372C1.41162 10.8554 1.5074 10.9511 1.62551 10.9511H9.32553C9.44364 10.9511 9.53942 10.8554 9.53942 10.7372V10.0127C9.53942 9.54455 9.17935 9.15908 8.72163 9.11819ZM6.49237 4.36334C6.49569 5.58617 6.76715 6.80688 7.28038 7.91662H3.67066C4.18388 6.80688 4.45535 5.58617 4.45867 4.36334H6.49237ZM5.47552 0.427779C6.31213 0.427779 6.99279 1.10842 6.99279 1.94505C6.99279 2.3404 6.84304 2.7106 6.57027 2.99445H4.38079C4.10802 2.71058 3.95827 2.3404 3.95827 1.94505C3.95825 1.10842 4.63891 0.427779 5.47552 0.427779ZM3.84087 3.6789C3.84087 3.53737 3.95601 3.42223 4.09754 3.42223H6.8535C6.99503 3.42223 7.11017 3.53737 7.11017 3.6789C7.11017 3.82043 6.99503 3.93556 6.8535 3.93556H4.09754C3.95601 3.93556 3.84087 3.82043 3.84087 3.6789ZM9.11164 10.5234H1.8394V10.0127C1.8394 9.75327 2.05049 9.54218 2.30996 9.54218H4.51575C4.63386 9.54218 4.72964 9.44642 4.72964 9.32829C4.72964 9.21016 4.63386 9.1144 4.51575 9.1144H2.66518C2.76315 8.67443 3.15634 8.3444 3.62538 8.3444H7.32566C7.79472 8.3444 8.18791 8.67443 8.28585 9.1144H6.44074C6.32263 9.1144 6.22685 9.21016 6.22685 9.32829C6.22685 9.44642 6.32263 9.54218 6.44074 9.54218H8.64108C8.90055 9.54218 9.11164 9.75327 9.11164 10.0127V10.5234Z" fill="white"/>
<path d="M5.47829 9.1145C5.42183 9.1145 5.36686 9.13717 5.32707 9.17717C5.28708 9.21695 5.2644 9.27192 5.2644 9.32839C5.2644 9.38464 5.28708 9.43983 5.32707 9.47961C5.36686 9.51939 5.42185 9.54228 5.47829 9.54228C5.53455 9.54228 5.58973 9.51939 5.62951 9.47961C5.66928 9.43983 5.69218 9.38464 5.69218 9.32839C5.69218 9.27214 5.6693 9.21695 5.62951 9.17717C5.58973 9.13717 5.53455 9.1145 5.47829 9.1145Z" fill="white"/>
</g>
<defs>
<clipPath id="clip0_3_113">
<rect width="10.9511" height="10.9511" fill="white"/>
</clipPath>
</defs>
</svg>
