<svg width="107" height="19" viewBox="0 0 107 19" fill="none" xmlns="http://www.w3.org/2000/svg">
<path d="M16.376 9.792C16.352 9.792 16.352 9.768 16.328 9.768L10.184 6.312C9.776 6.072 9.248 6.192 8.984 6.6L8.072 7.896C7.76 8.352 7.904 8.976 8.384 9.24L14 12.384C14.288 12.552 14.48 12.864 14.48 13.2V13.44C14.48 13.944 14.072 14.352 13.544 14.352L5.168 14.352C4.808 14.352 4.496 14.16 4.328 13.848C4.328 13.776 4.304 13.704 4.304 13.632C4.304 10.728 4.304 7.824 4.304 4.944C4.304 4.44 4.712 4.008 5.24 4.008L15.704 4.008C16.232 4.008 16.64 3.6 16.64 3.096V1.512C16.64 0.983999 16.232 0.576 15.704 0.576L3.848 0.576C2.096 0.576 0.68 2.04 0.68 3.768L0.68 11.664V11.688L0.68 11.88V12.048V12.216V12.384V12.552V12.744V12.912V13.08V13.248L0.68 13.416V13.608V13.776V13.944V14.112V14.28V14.472V14.64L0.68 14.808C0.68 14.832 0.68 14.856 0.68 14.88C0.68 14.904 0.68 14.952 0.68 14.976C0.68 15 0.68 15.024 0.68 15.048C0.704 15.072 0.704 15.096 0.704 15.12C0.704 15.144 0.704 15.168 0.704 15.216C0.704 15.24 0.704 15.264 0.728 15.288C0.728 15.312 0.728 15.336 0.728 15.36C0.728 15.384 0.752 15.408 0.752 15.432C0.752 15.456 0.752 15.48 0.752 15.504C0.776 15.552 0.776 15.576 0.776 15.6C0.776 15.624 0.8 15.648 0.8 15.672C0.8 15.696 0.824 15.72 0.824 15.744C0.824 15.768 0.848 15.792 0.848 15.816C0.848 15.84 0.872 15.864 0.872 15.888C0.872 15.912 0.896 15.936 0.896 15.96C0.92 15.984 0.92 16.008 0.92 16.032C0.944 16.056 0.944 16.08 0.968 16.104C0.968 16.128 0.992 16.152 0.992 16.176C1.016 16.2 1.016 16.224 1.04 16.248C1.04 16.272 1.064 16.296 1.064 16.32C1.088 16.32 1.088 16.344 1.112 16.368C1.112 16.392 1.136 16.416 1.136 16.44C1.16 16.464 1.16 16.488 1.184 16.512C1.184 16.536 1.208 16.56 1.232 16.56C1.232 16.584 1.256 16.608 1.256 16.632C1.28 16.656 1.304 16.68 1.304 16.704C1.328 16.728 1.352 16.728 1.352 16.752C1.376 16.776 1.4 16.8 1.4 16.824C1.424 16.824 1.448 16.848 1.448 16.872C1.496 16.92 1.52 16.944 1.568 16.992C1.592 17.016 1.64 17.064 1.664 17.088C1.856 17.28 2.048 17.424 2.288 17.568C2.288 17.568 2.312 17.592 2.336 17.592C2.36 17.616 2.384 17.616 2.408 17.64C2.432 17.64 2.456 17.664 2.48 17.664C2.6 17.712 2.72 17.76 2.84 17.808C2.864 17.832 2.888 17.832 2.912 17.832C2.936 17.856 2.96 17.856 2.984 17.856C3.008 17.856 3.032 17.88 3.056 17.88C3.08 17.88 3.104 17.904 3.152 17.904C3.176 17.904 3.2 17.904 3.224 17.928C3.248 17.928 3.272 17.928 3.296 17.928C3.32 17.928 3.344 17.952 3.368 17.952C3.392 17.952 3.416 17.952 3.464 17.952C3.488 17.952 3.512 17.952 3.536 17.976C3.56 17.976 3.584 17.976 3.608 17.976C3.632 17.976 3.656 17.976 3.704 17.976C3.728 17.976 3.752 17.976 3.776 17.976C3.8 17.976 3.824 17.976 3.848 17.976L14.912 17.976H15.704C16.04 17.976 16.328 17.808 16.496 17.544C17.432 16.992 18.08 15.96 18.08 14.808V13.008C18.104 12.024 18.008 10.872 16.376 9.792ZM33.1256 0.576L22.1816 0.576C21.6776 0.576 21.2696 0.983999 21.2696 1.488V3.072C21.2696 3.576 21.6776 3.984 22.1816 3.984L32.6696 3.984C33.1736 3.984 33.5816 4.416 33.5816 4.896V13.44C33.5816 13.944 33.1736 14.352 32.6696 14.352L24.3176 14.352C23.8136 14.352 23.4056 13.944 23.4056 13.44C23.4056 13.104 23.5976 12.816 23.8856 12.648L29.5256 9.48C29.9816 9.216 30.1256 8.616 29.8136 8.184L28.9016 6.84C28.6376 6.456 28.1336 6.336 27.7016 6.552L21.5816 10.032C21.5576 10.032 21.5336 10.056 21.5096 10.056C19.8776 11.112 19.7816 12.288 19.8056 13.272V14.808C19.8056 16.512 21.1976 17.928 22.9256 17.976C22.9496 17.976 22.9736 17.976 22.9976 17.976L34.0376 17.976C34.0616 17.976 34.0856 17.976 34.1096 17.976C35.8376 17.928 37.2056 16.512 37.2056 14.808V5.208V4.68C37.2056 2.424 35.3816 0.576 33.1256 0.576ZM62.8351 18.024C63.0751 18.024 63.2671 17.832 63.2671 17.592V1.056C63.2671 0.816 63.0751 0.623999 62.8351 0.623999L58.3471 0.623999C57.4351 0.623999 56.3311 0.816 55.3231 2.352L51.4591 9.168C51.3871 9.312 51.2191 9.384 51.0751 9.384C50.9311 9.384 50.7871 9.312 50.7151 9.168L46.8271 2.352C45.8431 0.816 44.7391 0.623999 43.8271 0.623999L39.3151 0.623999C39.0751 0.623999 38.8831 0.816 38.8831 1.056V17.592C38.8831 17.832 39.0751 18.024 39.3151 18.024H42.0751C42.3151 18.024 42.5071 17.832 42.5071 17.592V4.656C42.5071 4.416 42.6991 4.224 42.9151 4.224H43.7071C43.8751 4.224 44.0191 4.32 44.0911 4.44C47.5711 10.632 45.7231 7.368 48.9871 13.104C49.0591 13.224 49.2031 13.32 49.3471 13.32H53.0431L53.0191 13.272L58.0591 4.44C58.1311 4.32 58.2751 4.224 58.4431 4.224H59.2111C59.4511 4.224 59.6431 4.416 59.6431 4.656V17.592C59.6431 17.832 59.8351 18.024 60.0511 18.024H62.8351ZM67.6336 17.976C68.1376 17.976 68.5456 17.568 68.5456 17.064V1.512C68.5456 0.983999 68.1376 0.576 67.6336 0.576H65.8816C65.3536 0.576 64.9456 0.983999 64.9456 1.512V17.064C64.9456 17.568 65.3536 17.976 65.8816 17.976H67.6336ZM86.1071 18.024C86.6111 18.024 87.0191 17.616 87.0191 17.112V3.48L86.9951 3.408C86.8031 1.968 85.6751 0.816 84.2591 0.647999L84.0671 0.623999L73.0511 0.623999L72.9791 0.647999C71.3711 0.839999 70.3631 2.04 70.2191 3.648V17.112C70.2191 17.616 70.6271 18.024 71.1311 18.024H72.9071C73.4351 18.024 73.8431 17.616 73.8431 17.112V5.16C73.8431 4.656 74.2511 4.224 74.7551 4.224L82.4591 4.224C82.9871 4.224 83.3951 4.656 83.3951 5.16V17.112C83.3951 17.616 83.8031 18.024 84.3071 18.024H86.1071ZM104.384 9.792C104.36 9.792 104.36 9.768 104.336 9.768L98.1918 6.312C97.7838 6.072 97.2558 6.192 96.9918 6.6L96.0798 7.896C95.7678 8.352 95.9118 8.976 96.3918 9.24L102.008 12.384C102.296 12.552 102.488 12.864 102.488 13.2V13.44C102.488 13.944 102.08 14.352 101.552 14.352L93.1758 14.352C92.8158 14.352 92.5038 14.16 92.3358 13.848C92.3358 13.776 92.3118 13.704 92.3118 13.632C92.3118 10.728 92.3118 7.824 92.3118 4.944C92.3118 4.44 92.7198 4.008 93.2478 4.008H103.712C104.24 4.008 104.648 3.6 104.648 3.096V1.512C104.648 0.983999 104.24 0.576 103.712 0.576L91.8558 0.576C90.1038 0.576 88.6878 2.04 88.6878 3.768V11.664V11.688V11.88V12.048V12.216V12.384V12.552V12.744V12.912V13.08V13.248V13.416V13.608V13.776V13.944V14.112V14.28V14.472V14.64V14.808C88.6878 14.832 88.6878 14.856 88.6878 14.88C88.6878 14.904 88.6878 14.952 88.6878 14.976C88.6878 15 88.6878 15.024 88.6878 15.048C88.7118 15.072 88.7118 15.096 88.7118 15.12C88.7118 15.144 88.7118 15.168 88.7118 15.216C88.7118 15.24 88.7118 15.264 88.7358 15.288C88.7358 15.312 88.7358 15.336 88.7358 15.36C88.7358 15.384 88.7598 15.408 88.7598 15.432C88.7598 15.456 88.7598 15.48 88.7598 15.504C88.7838 15.552 88.7838 15.576 88.7838 15.6C88.7838 15.624 88.8078 15.648 88.8078 15.672C88.8078 15.696 88.8318 15.72 88.8318 15.744C88.8318 15.768 88.8558 15.792 88.8558 15.816C88.8558 15.84 88.8798 15.864 88.8798 15.888C88.8798 15.912 88.9038 15.936 88.9038 15.96C88.9278 15.984 88.9278 16.008 88.9278 16.032C88.9518 16.056 88.9518 16.08 88.9758 16.104C88.9758 16.128 88.9998 16.152 88.9998 16.176C89.0238 16.2 89.0238 16.224 89.0478 16.248C89.0478 16.272 89.0718 16.296 89.0718 16.32C89.0958 16.32 89.0958 16.344 89.1198 16.368C89.1198 16.392 89.1438 16.416 89.1438 16.44C89.1678 16.464 89.1678 16.488 89.1918 16.512C89.1918 16.536 89.2158 16.56 89.2398 16.56C89.2398 16.584 89.2638 16.608 89.2638 16.632C89.2878 16.656 89.3118 16.68 89.3118 16.704C89.3358 16.728 89.3598 16.728 89.3598 16.752C89.3838 16.776 89.4078 16.8 89.4078 16.824C89.4318 16.824 89.4558 16.848 89.4558 16.872C89.5038 16.92 89.5278 16.944 89.5758 16.992C89.5998 17.016 89.6478 17.064 89.6718 17.088C89.8638 17.28 90.0558 17.424 90.2958 17.568C90.2958 17.568 90.3198 17.592 90.3438 17.592C90.3678 17.616 90.3918 17.616 90.4158 17.64C90.4398 17.64 90.4638 17.664 90.4878 17.664C90.6078 17.712 90.7278 17.76 90.8478 17.808C90.8718 17.832 90.8958 17.832 90.9198 17.832C90.9438 17.856 90.9678 17.856 90.9918 17.856C91.0158 17.856 91.0398 17.88 91.0638 17.88C91.0878 17.88 91.1118 17.904 91.1598 17.904C91.1838 17.904 91.2078 17.904 91.2318 17.928C91.2558 17.928 91.2798 17.928 91.3038 17.928C91.3278 17.928 91.3518 17.952 91.3758 17.952C91.3998 17.952 91.4238 17.952 91.4718 17.952C91.4958 17.952 91.5198 17.952 91.5438 17.976C91.5678 17.976 91.5918 17.976 91.6158 17.976C91.6398 17.976 91.6638 17.976 91.7118 17.976C91.7358 17.976 91.7598 17.976 91.7838 17.976C91.8078 17.976 91.8318 17.976 91.8558 17.976L102.92 17.976H103.712C104.048 17.976 104.336 17.808 104.504 17.544C105.44 16.992 106.088 15.96 106.088 14.808V13.008C106.112 12.024 106.016 10.872 104.384 9.792Z" fill="#ED0820"/>
</svg>
