<svg width="11" height="11" viewBox="0 0 11 11" fill="none" xmlns="http://www.w3.org/2000/svg">
<g clip-path="url(#clip0_1_3390)">
<path d="M6.33308 3.77197H0.846476C0.379855 3.77197 0.000244142 4.15161 0.000244142 4.6182V10.1048C0.000222753 10.5715 0.379855 10.9511 0.846476 10.9511H6.33308C6.7997 10.9511 7.17931 10.5714 7.17931 10.1048V4.61823C7.17931 4.1516 6.7997 3.77197 6.33308 3.77197ZM6.85848 10.1048C6.85848 10.3945 6.62277 10.6302 6.33308 10.6302H0.846476C0.556763 10.6302 0.321078 10.3945 0.321078 10.1048V4.61823C0.321078 4.32851 0.556784 4.09283 0.846476 4.09283H6.33308C6.62279 4.09283 6.85848 4.32853 6.85848 4.61823V10.1048Z" fill="white"/>
<path d="M3.58964 6.51538C3.12302 6.51538 2.74341 6.89501 2.74341 7.36161C2.74341 7.82823 3.12304 8.20787 3.58964 8.20787C4.05624 8.20787 4.43587 7.82823 4.43587 7.36161C4.43589 6.89501 4.05626 6.51538 3.58964 6.51538ZM3.58964 7.88703C3.29993 7.88703 3.06424 7.65133 3.06424 7.36161C3.06424 7.0719 3.29995 6.83621 3.58964 6.83621C3.87933 6.83621 4.11504 7.07192 4.11504 7.36161C4.11504 7.6513 3.87935 7.88703 3.58964 7.88703Z" fill="white"/>
<path d="M1.70365 4.62939C1.23703 4.62939 0.857422 5.00903 0.857422 5.47565C0.857422 5.94227 1.23705 6.32188 1.70365 6.32188C2.17025 6.32188 2.54989 5.94225 2.54989 5.47565C2.54991 5.00901 2.17027 4.62939 1.70365 4.62939ZM1.70365 6.00105C1.41394 6.00105 1.17826 5.76534 1.17826 5.47565C1.17826 5.18596 1.41396 4.95023 1.70365 4.95023C1.99335 4.95023 2.22905 5.18593 2.22905 5.47565C2.22905 5.76536 1.99337 6.00105 1.70365 6.00105Z" fill="white"/>
<path d="M6.09984 5.14876C6.01405 5.17083 5.9624 5.25829 5.98447 5.34411C5.99546 5.3868 6.00102 5.43105 6.00102 5.47565C6.00102 5.76536 5.76532 6.00105 5.47563 6.00105C5.18593 6.00105 4.95023 5.76534 4.95023 5.47565C4.95023 5.18596 5.18593 4.95023 5.47563 4.95023C5.52048 4.95023 5.56495 4.95585 5.60783 4.96695C5.69358 4.98916 5.78112 4.93763 5.80335 4.85188C5.82555 4.76611 5.77402 4.67859 5.68827 4.65637C5.61915 4.63846 5.54758 4.62939 5.47563 4.62939C5.00901 4.62939 4.62939 5.00903 4.62939 5.47565C4.62939 5.94227 5.00903 6.32188 5.47563 6.32188C5.94223 6.32188 6.32186 5.94225 6.32186 5.47565C6.32186 5.40408 6.31287 5.33292 6.29516 5.26413C6.27311 5.17832 6.18565 5.12667 6.09984 5.14876Z" fill="white"/>
<path d="M2.32787 8.92073C2.24208 8.94283 2.19044 9.03031 2.21252 9.1161C2.22351 9.15873 2.22907 9.20298 2.22907 9.24762C2.22907 9.53733 1.99337 9.77302 1.70367 9.77302C1.41398 9.77302 1.17826 9.53731 1.17826 9.2476C1.17826 8.95789 1.41396 8.7222 1.70365 8.7222C1.74851 8.7222 1.793 8.72783 1.83586 8.73893C1.92165 8.76115 2.00917 8.7096 2.03137 8.62386C2.05358 8.53809 2.00205 8.45056 1.9163 8.42834C1.84717 8.41044 1.77563 8.40137 1.70365 8.40137C1.23703 8.40137 0.857422 8.781 0.857422 9.2476C0.857422 9.7142 1.23705 10.0938 1.70365 10.0938C2.17025 10.0938 2.54989 9.7142 2.54989 9.2476C2.54989 9.17599 2.5409 9.10481 2.52319 9.03606C2.50112 8.95025 2.41362 8.8987 2.32787 8.92073Z" fill="white"/>
<path d="M5.47563 8.40137C5.00901 8.40137 4.62939 8.781 4.62939 9.2476C4.62939 9.7142 5.00903 10.0938 5.47563 10.0938C5.94223 10.0938 6.32186 9.7142 6.32186 9.2476C6.32186 8.781 5.94225 8.40137 5.47563 8.40137ZM5.47563 9.77302C5.18591 9.77302 4.95023 9.53731 4.95023 9.24762C4.95023 8.95793 5.18593 8.72222 5.47563 8.72222C5.76532 8.72222 6.00102 8.95793 6.00102 9.24762C6.00102 9.53731 5.76534 9.77302 5.47563 9.77302Z" fill="white"/>
<path d="M6.82385 2.6571C7.1538 2.32716 7.1538 1.7903 6.82385 1.46035C6.49391 1.1304 5.95704 1.1304 5.6271 1.46035C5.29715 1.7903 5.29715 2.32716 5.6271 2.6571C5.79207 2.82208 6.00878 2.90457 6.22548 2.90457C6.44217 2.90457 6.65888 2.82208 6.82385 2.6571ZM5.85395 1.6872C5.95638 1.58477 6.09092 1.53356 6.22548 1.53356C6.36003 1.53356 6.49457 1.58477 6.597 1.6872C6.80186 1.89206 6.80186 2.22539 6.597 2.43025C6.39214 2.63512 6.05883 2.63512 5.85397 2.43025C5.64909 2.22537 5.64909 1.89204 5.85395 1.6872Z" fill="white"/>
<path d="M9.49111 5.32437C9.82106 4.99442 9.82106 4.45756 9.49111 4.12759C9.16116 3.79763 8.62428 3.79765 8.29433 4.12759C7.96439 4.45754 7.96439 4.9944 8.29433 5.32437C8.45931 5.48934 8.67602 5.57184 8.89273 5.57184C9.10942 5.57182 9.32614 5.48934 9.49111 5.32437ZM8.52121 5.0975C8.31634 4.89263 8.31634 4.55931 8.52121 4.35445C8.62364 4.25201 8.7582 4.20081 8.89273 4.20081C9.02727 4.20081 9.16183 4.25201 9.26426 4.35445C9.46912 4.55931 9.46912 4.89263 9.26426 5.0975C9.05937 5.30236 8.72605 5.30234 8.52121 5.0975Z" fill="white"/>
<path d="M10.7036 4.12749L6.82393 0.247876C6.66409 0.0880368 6.45159 0 6.22555 0C5.99952 0 5.78702 0.0880154 5.62716 0.247876L2.74181 3.13322C2.67916 3.19587 2.67916 3.29742 2.74181 3.36007C2.80446 3.42272 2.90603 3.42272 2.96866 3.36007L5.85403 0.474727C5.95327 0.375483 6.08522 0.320834 6.22555 0.320834C6.36589 0.320834 6.49784 0.375483 6.59708 0.474727L10.4767 4.35434C10.6816 4.5592 10.6816 4.89253 10.4767 5.09739L7.59134 7.98273C7.5287 8.04538 7.5287 8.14694 7.59134 8.20959C7.62266 8.24092 7.66372 8.25658 7.70477 8.25658C7.74582 8.25658 7.78688 8.24092 7.8182 8.20959L10.7035 5.32424C11.0335 4.99429 11.0335 4.45743 10.7036 4.12749Z" fill="white"/>
</g>
<defs>
<clipPath id="clip0_1_3390">
<rect width="10.9511" height="10.9511" fill="white"/>
</clipPath>
</defs>
</svg>
