<svg width="40" height="40" viewBox="0 0 40 40" fill="none" xmlns="http://www.w3.org/2000/svg">
<path fill-rule="evenodd" clip-rule="evenodd" d="M19.9987 33.334C27.3625 33.334 33.332 27.3644 33.332 20.0007C33.332 12.6369 27.3625 6.66732 19.9987 6.66732C12.6349 6.66732 6.66536 12.6369 6.66536 20.0007C6.66536 27.3644 12.6349 33.334 19.9987 33.334ZM19.9987 36.6673C29.2034 36.6673 36.6654 29.2054 36.6654 20.0007C36.6654 10.7959 29.2034 3.33398 19.9987 3.33398C10.794 3.33398 3.33203 10.7959 3.33203 20.0007C3.33203 29.2054 10.794 36.6673 19.9987 36.6673Z" fill="#3A1C36"/>
<path fill-rule="evenodd" clip-rule="evenodd" d="M19.9987 10C20.9192 10 21.6654 10.7462 21.6654 11.6667V19.3096L25.3439 22.9882C25.9947 23.639 25.9947 24.6943 25.3439 25.3452C24.693 25.9961 23.6377 25.9961 22.9869 25.3452L18.8202 21.1785C18.5076 20.8659 18.332 20.442 18.332 20V11.6667C18.332 10.7462 19.0782 10 19.9987 10Z" fill="#3A1C36"/>
</svg>
