<svg width="35" height="35" viewBox="0 0 35 35" fill="none" xmlns="http://www.w3.org/2000/svg">
<path fill-rule="evenodd" clip-rule="evenodd" d="M3.3451 19.3861C3.91462 18.8166 4.83799 18.8166 5.4075 19.3861L10.2096 24.1883C10.7792 24.7578 10.7792 25.6811 10.2096 26.2506C9.64012 26.8202 8.71676 26.8202 8.14724 26.2506L3.3451 21.4485C2.77559 20.879 2.77559 19.9556 3.3451 19.3861Z" fill="#3A1C36"/>
<path d="M31.697 8.28148C32.2433 7.68966 32.2064 6.76703 31.6146 6.22074C31.0228 5.67444 30.1001 5.71134 29.5538 6.30317L13.043 24.1899C12.4967 24.7817 12.5336 25.7044 13.1254 26.2507C13.7173 26.797 14.6399 26.7601 15.1862 26.1682L25.2528 15.2627C25.5337 14.9584 26.0113 14.9489 26.3042 15.2417L28.136 17.0735C28.7055 17.643 29.6289 17.643 30.1984 17.0735C30.7679 16.504 30.7679 15.5806 30.1984 15.0111L28.2428 13.0556C27.9661 12.7788 27.9572 12.333 28.2226 12.0454L31.697 8.28148Z" fill="#3A1C36"/>
<path fill-rule="evenodd" clip-rule="evenodd" d="M8.57469 18.7824L6.01188 16.2196C4.30333 14.511 4.30333 11.7409 6.01188 10.0324L11.4914 4.55289C13.1999 2.84435 15.97 2.84435 17.6785 4.55289L20.2414 7.11571C21.9499 8.82425 21.9499 11.5944 20.2414 13.3029L14.7619 18.7824C13.0533 20.4909 10.2832 20.4909 8.57469 18.7824ZM8.07427 14.1572L10.6371 16.72C11.2066 17.2895 12.13 17.2895 12.6995 16.72L18.179 11.2405C18.7485 10.671 18.7485 9.74762 18.179 9.1781L15.6161 6.61529C15.0466 6.04577 14.1233 6.04577 13.5538 6.61529L8.07427 12.0948C7.50476 12.6643 7.50476 13.5877 8.07427 14.1572Z" fill="#3A1C36"/>
<path fill-rule="evenodd" clip-rule="evenodd" d="M11.668 29.1673C12.4734 29.1673 13.1263 28.5144 13.1263 27.709C13.1263 26.9036 12.4734 26.2507 11.668 26.2507C10.8626 26.2507 10.2096 26.9036 10.2096 27.709C10.2096 28.5144 10.8626 29.1673 11.668 29.1673ZM11.668 32.084C14.0842 32.084 16.043 30.1252 16.043 27.709C16.043 25.2927 14.0842 23.334 11.668 23.334C9.25172 23.334 7.29297 25.2927 7.29297 27.709C7.29297 30.1252 9.25172 32.084 11.668 32.084Z" fill="#3A1C36"/>
</svg>
