<svg width="17" height="7" viewBox="0 0 17 7" fill="none" xmlns="http://www.w3.org/2000/svg">
<path fill-rule="evenodd" clip-rule="evenodd" d="M4.18215e-08 3.49975C-6.03322e-06 3.88635 0.317119 4.19975 0.70832 4.19976L14.546 4.19997L12.8815 5.79791C12.6009 6.06729 12.5944 6.51046 12.867 6.78776C13.1396 7.06505 13.588 7.07147 13.8686 6.80209L16.7852 4.00209C16.9225 3.87028 17 3.68917 17 3.5C17 3.31083 16.9225 3.12972 16.7852 2.99791L13.8686 0.19791C13.588 -0.0714698 13.1396 -0.065052 12.867 0.212245C12.5944 0.489541 12.6009 0.93271 12.8815 1.20209L14.5459 2.79997L0.708342 2.79976C0.317142 2.79975 6.15908e-06 3.11315 4.18215e-08 3.49975Z" fill="white"/>
</svg>
