<svg width="132" height="19" viewBox="0 0 132 19" fill="none" xmlns="http://www.w3.org/2000/svg">
<path d="M3.128 10.944V8.4L7.04 8.4C7.84 8.4 8.456 8.2 8.888 7.8C9.336 7.384 9.56 6.816 9.56 6.096C9.56 5.44 9.336 4.896 8.888 4.464C8.456 4.016 7.84 3.792 7.04 3.792H3.128V1.128L7.328 1.128C8.416 1.128 9.368 1.344 10.184 1.776C11.016 2.192 11.656 2.768 12.104 3.504C12.568 4.24 12.8 5.088 12.8 6.048C12.8 7.04 12.568 7.904 12.104 8.64C11.656 9.36 11.016 9.928 10.184 10.344C9.352 10.744 8.384 10.944 7.28 10.944L3.128 10.944ZM0.728 18L0.728 1.128L3.992 1.128L3.992 18H0.728ZM9.944 18L4.376 10.704L7.376 9.768L13.904 18L9.944 18ZM20.6313 18.24C19.4153 18.24 18.3353 17.984 17.3913 17.472C16.4473 16.944 15.6953 16.224 15.1353 15.312C14.5913 14.4 14.3193 13.36 14.3193 12.192C14.3193 11.04 14.5833 10.016 15.1113 9.12C15.6553 8.208 16.3913 7.488 17.3193 6.96C18.2473 6.416 19.2793 6.144 20.4153 6.144C21.5353 6.144 22.5193 6.4 23.3673 6.912C24.2313 7.408 24.9033 8.096 25.3833 8.976C25.8793 9.84 26.1273 10.824 26.1273 11.928C26.1273 12.136 26.1113 12.352 26.0793 12.576C26.0633 12.784 26.0233 13.024 25.9593 13.296L16.2153 13.32V10.968L24.4953 10.944L23.2233 11.928C23.1913 11.24 23.0633 10.664 22.8393 10.2C22.6313 9.736 22.3193 9.384 21.9033 9.144C21.5033 8.888 21.0073 8.76 20.4153 8.76C19.7913 8.76 19.2473 8.904 18.7833 9.192C18.3193 9.464 17.9593 9.856 17.7033 10.368C17.4633 10.864 17.3433 11.456 17.3433 12.144C17.3433 12.848 17.4713 13.464 17.7273 13.992C17.9993 14.504 18.3833 14.904 18.8793 15.192C19.3753 15.464 19.9513 15.6 20.6073 15.6C21.1993 15.6 21.7353 15.504 22.2153 15.312C22.6953 15.104 23.1113 14.8 23.4633 14.4L25.3113 16.248C24.7513 16.904 24.0633 17.4 23.2473 17.736C22.4473 18.072 21.5753 18.24 20.6313 18.24ZM32.9197 18.24C31.8637 18.24 30.9117 17.976 30.0637 17.448C29.2157 16.92 28.5517 16.2 28.0717 15.288C27.5917 14.376 27.3517 13.352 27.3517 12.216C27.3517 11.064 27.5917 10.032 28.0717 9.12C28.5517 8.208 29.2157 7.488 30.0637 6.96C30.9117 6.432 31.8637 6.168 32.9197 6.168C33.7517 6.168 34.4957 6.336 35.1517 6.672C35.8077 7.008 36.3277 7.48 36.7117 8.088C37.1117 8.68 37.3277 9.352 37.3597 10.104V14.28C37.3277 15.048 37.1117 15.728 36.7117 16.32C36.3277 16.912 35.8077 17.384 35.1517 17.736C34.4957 18.072 33.7517 18.24 32.9197 18.24ZM33.4957 15.336C34.3757 15.336 35.0877 15.048 35.6317 14.472C36.1757 13.88 36.4477 13.12 36.4477 12.192C36.4477 11.584 36.3197 11.048 36.0637 10.584C35.8237 10.104 35.4797 9.736 35.0317 9.48C34.5997 9.208 34.0877 9.072 33.4957 9.072C32.9197 9.072 32.4077 9.208 31.9597 9.48C31.5277 9.736 31.1837 10.104 30.9277 10.584C30.6877 11.048 30.5677 11.584 30.5677 12.192C30.5677 12.816 30.6877 13.368 30.9277 13.848C31.1837 14.312 31.5277 14.68 31.9597 14.952C32.4077 15.208 32.9197 15.336 33.4957 15.336ZM36.2797 18V14.88L36.7837 12.048L36.2797 9.264V6.408L39.3997 6.408V18H36.2797ZM42.1811 18V0.647999L45.3251 0.647999V18H42.1811ZM53.1343 18V1.128L56.3983 1.128V18L53.1343 18ZM55.5343 18V15.12H64.8703V18H55.5343ZM55.5343 10.776V7.992L64.0303 7.992V10.776L55.5343 10.776ZM55.5343 4.008V1.128L64.7503 1.128V4.008L55.5343 4.008ZM71.2198 18.264C70.5638 18.264 69.9158 18.176 69.2758 18C68.6518 17.824 68.0758 17.584 67.5478 17.28C67.0198 16.96 66.5638 16.576 66.1798 16.128L68.0518 14.232C68.4518 14.68 68.9158 15.016 69.4438 15.24C69.9718 15.464 70.5558 15.576 71.1958 15.576C71.7078 15.576 72.0918 15.504 72.3478 15.36C72.6198 15.216 72.7558 15 72.7558 14.712C72.7558 14.392 72.6118 14.144 72.3238 13.968C72.0518 13.792 71.6918 13.648 71.2438 13.536C70.7958 13.408 70.3238 13.272 69.8278 13.128C69.3478 12.968 68.8838 12.768 68.4358 12.528C67.9878 12.272 67.6198 11.928 67.3318 11.496C67.0598 11.048 66.9238 10.472 66.9238 9.768C66.9238 9.032 67.0998 8.392 67.4518 7.848C67.8198 7.304 68.3398 6.88 69.0117 6.576C69.6838 6.272 70.4758 6.12 71.3878 6.12C72.3478 6.12 73.2118 6.288 73.9798 6.624C74.7638 6.96 75.4118 7.464 75.9238 8.136L74.0278 10.032C73.6758 9.6 73.2758 9.288 72.8278 9.096C72.3958 8.904 71.9238 8.808 71.4118 8.808C70.9478 8.808 70.5878 8.88 70.3318 9.024C70.0918 9.168 69.9718 9.368 69.9718 9.624C69.9718 9.912 70.1078 10.136 70.3798 10.296C70.6678 10.456 71.0358 10.6 71.4838 10.728C71.9318 10.84 72.3958 10.976 72.8758 11.136C73.3718 11.28 73.8358 11.488 74.2678 11.76C74.7158 12.032 75.0758 12.392 75.3478 12.84C75.6358 13.288 75.7798 13.864 75.7798 14.568C75.7798 15.704 75.3718 16.608 74.5558 17.28C73.7398 17.936 72.6278 18.264 71.2198 18.264ZM79.6038 18V1.584L82.7478 1.584V18H79.6038ZM76.8918 9.168V6.408L85.4598 6.408V9.168L76.8918 9.168ZM91.7947 18.24C90.7387 18.24 89.7867 17.976 88.9387 17.448C88.0907 16.92 87.4267 16.2 86.9467 15.288C86.4667 14.376 86.2267 13.352 86.2267 12.216C86.2267 11.064 86.4667 10.032 86.9467 9.12C87.4267 8.208 88.0907 7.488 88.9387 6.96C89.7867 6.432 90.7387 6.168 91.7947 6.168C92.6267 6.168 93.3707 6.336 94.0267 6.672C94.6827 7.008 95.2027 7.48 95.5867 8.088C95.9867 8.68 96.2027 9.352 96.2347 10.104V14.28C96.2027 15.048 95.9867 15.728 95.5867 16.32C95.2027 16.912 94.6827 17.384 94.0267 17.736C93.3707 18.072 92.6267 18.24 91.7947 18.24ZM92.3707 15.336C93.2507 15.336 93.9627 15.048 94.5067 14.472C95.0507 13.88 95.3227 13.12 95.3227 12.192C95.3227 11.584 95.1947 11.048 94.9387 10.584C94.6987 10.104 94.3547 9.736 93.9067 9.48C93.4747 9.208 92.9627 9.072 92.3707 9.072C91.7947 9.072 91.2827 9.208 90.8347 9.48C90.4027 9.736 90.0587 10.104 89.8027 10.584C89.5627 11.048 89.4427 11.584 89.4427 12.192C89.4427 12.816 89.5627 13.368 89.8027 13.848C90.0587 14.312 90.4027 14.68 90.8347 14.952C91.2827 15.208 91.7947 15.336 92.3707 15.336ZM95.1547 18V14.88L95.6587 12.048L95.1547 9.264V6.408H98.2747V18H95.1547ZM102.76 18V1.584L105.904 1.584V18H102.76ZM100.048 9.168V6.408L108.616 6.408V9.168L100.048 9.168ZM115.647 18.24C114.431 18.24 113.351 17.984 112.407 17.472C111.463 16.944 110.711 16.224 110.151 15.312C109.607 14.4 109.335 13.36 109.335 12.192C109.335 11.04 109.599 10.016 110.127 9.12C110.671 8.208 111.407 7.488 112.335 6.96C113.263 6.416 114.295 6.144 115.431 6.144C116.551 6.144 117.535 6.4 118.383 6.912C119.247 7.408 119.919 8.096 120.399 8.976C120.895 9.84 121.143 10.824 121.143 11.928C121.143 12.136 121.127 12.352 121.095 12.576C121.079 12.784 121.039 13.024 120.975 13.296L111.231 13.32V10.968L119.511 10.944L118.239 11.928C118.207 11.24 118.079 10.664 117.855 10.2C117.647 9.736 117.335 9.384 116.919 9.144C116.519 8.888 116.023 8.76 115.431 8.76C114.807 8.76 114.263 8.904 113.799 9.192C113.335 9.464 112.975 9.856 112.719 10.368C112.479 10.864 112.359 11.456 112.359 12.144C112.359 12.848 112.487 13.464 112.743 13.992C113.015 14.504 113.399 14.904 113.895 15.192C114.391 15.464 114.967 15.6 115.623 15.6C116.215 15.6 116.751 15.504 117.231 15.312C117.711 15.104 118.127 14.8 118.479 14.4L120.327 16.248C119.767 16.904 119.079 17.4 118.263 17.736C117.463 18.072 116.591 18.24 115.647 18.24ZM129.935 18.24C129.359 18.24 128.887 18.048 128.519 17.664C128.151 17.28 127.967 16.808 127.967 16.248C127.967 15.688 128.151 15.216 128.519 14.832C128.887 14.448 129.359 14.256 129.935 14.256C130.495 14.256 130.959 14.448 131.327 14.832C131.695 15.216 131.879 15.688 131.879 16.248C131.879 16.808 131.695 17.28 131.327 17.664C130.959 18.048 130.495 18.24 129.935 18.24Z" fill="#16A34A"/>
</svg>
