<svg width="19" height="19" viewBox="0 0 19 19" fill="none" xmlns="http://www.w3.org/2000/svg">
<g clip-path="url(#clip0_1_8022)">
<path d="M18.6561 7.66276L9.71775 1.11831C9.54539 0.992137 9.31123 0.992137 9.13894 1.11831L0.200557 7.66276C-0.0177672 7.82264 -0.0652033 8.1292 0.0946725 8.34753C0.254548 8.56585 0.561152 8.61321 0.779439 8.45341L9.42831 2.12084L18.0772 8.45337C18.1644 8.51727 18.2657 8.54803 18.3662 8.54803C18.5171 8.54803 18.6659 8.4786 18.7619 8.34749C18.9218 8.1292 18.8744 7.82264 18.6561 7.66276Z" fill="white"/>
<path d="M16.2876 8.56421C16.0171 8.56421 15.7977 8.78356 15.7977 9.05415V16.8527H11.8782V12.5958C11.8782 11.2449 10.7792 10.1459 9.42834 10.1459C8.07752 10.1459 6.97846 11.2449 6.97846 12.5958V16.8527H3.05898V9.05419C3.05898 8.7836 2.83959 8.56425 2.56904 8.56425C2.29849 8.56425 2.0791 8.7836 2.0791 9.05419V17.3427C2.0791 17.6133 2.29849 17.8327 2.56904 17.8327H7.4684C7.72606 17.8327 7.9369 17.6336 7.95642 17.3809C7.9576 17.3694 7.95834 17.3569 7.95834 17.3427V12.5958C7.95834 11.7852 8.61777 11.1258 9.42834 11.1258C10.2389 11.1258 10.8983 11.7853 10.8983 12.5958V17.3427C10.8983 17.3568 10.8991 17.3691 10.9003 17.3804C10.9196 17.6333 11.1305 17.8327 11.3883 17.8327H16.2876C16.5582 17.8327 16.7776 17.6133 16.7776 17.3427V9.05419C16.7775 8.78356 16.5582 8.56421 16.2876 8.56421Z" fill="white"/>
</g>
<defs>
<clipPath id="clip0_1_8022">
<rect width="18.8566" height="18.8566" fill="white"/>
</clipPath>
</defs>
</svg>
