<svg width="19" height="19" viewBox="0 0 19 19" fill="none" xmlns="http://www.w3.org/2000/svg">
<g clip-path="url(#clip0_1_8043)">
<path d="M6.57482 5.1122H8.3808C8.51431 5.1122 8.6226 5.00391 8.6226 4.87039V2.015C8.6226 1.88148 8.51431 1.77319 8.3808 1.77319H6.57482C6.4413 1.77319 6.33301 1.88148 6.33301 2.015V4.87039C6.33301 5.00395 6.44126 5.1122 6.57482 5.1122ZM6.81662 3.02253H7.23612V4.62858H6.81662V3.02253ZM7.71969 4.62858V3.02253H8.13895V4.62858H7.71969ZM8.13895 2.25681V2.53892H6.81658V2.25681H8.13895Z" fill="white"/>
<path d="M9.99669 5.1122H11.8027C11.9362 5.1122 12.0445 5.00391 12.0445 4.87039V2.015C12.0445 1.88148 11.9362 1.77319 11.8027 1.77319H9.99669C9.86317 1.77319 9.75488 1.88148 9.75488 2.015V4.87039C9.75488 5.00395 9.86317 5.1122 9.99669 5.1122ZM10.2385 3.02253H10.6579V4.62858H10.2385V3.02253ZM11.1415 4.62858V3.02253H11.5609V4.62858H11.1415ZM11.5609 2.25681V2.53892H10.2385V2.25681H11.5609Z" fill="white"/>
<path d="M6.57482 8.99672H8.3808C8.51431 8.99672 8.6226 8.88843 8.6226 8.75491V5.89952C8.6226 5.766 8.51431 5.65771 8.3808 5.65771H6.57482C6.4413 5.65771 6.33301 5.766 6.33301 5.89952V8.75491C6.33301 8.88843 6.44126 8.99672 6.57482 8.99672ZM6.81662 6.9185H7.23612V8.5131H6.81662V6.9185ZM7.71969 8.5131V6.9185H8.13895V8.5131H7.71969ZM8.13895 6.14133V6.43489H6.81658V6.14133H8.13895Z" fill="white"/>
<path d="M9.99669 8.99672H11.8027C11.9362 8.99672 12.0445 8.88843 12.0445 8.75491V5.89952C12.0445 5.766 11.9362 5.65771 11.8027 5.65771H9.99669C9.86317 5.65771 9.75488 5.766 9.75488 5.89952V8.75491C9.75488 8.88843 9.86317 8.99672 9.99669 8.99672ZM10.2385 6.9185H10.6579V8.5131H10.2385V6.9185ZM11.1415 8.5131V6.9185H11.5609V8.5131H11.1415ZM11.5609 6.14133V6.43489H10.2385V6.14133H11.5609Z" fill="white"/>
<path d="M6.57482 12.881H8.3808C8.51431 12.881 8.6226 12.7727 8.6226 12.6392V9.7838C8.6226 9.65028 8.51431 9.54199 8.3808 9.54199H6.57482C6.4413 9.54199 6.33301 9.65028 6.33301 9.7838V12.6392C6.33301 12.7727 6.44126 12.881 6.57482 12.881ZM6.81662 10.8142H7.23612V12.3974H6.81662V10.8142ZM7.71969 12.3974V10.8142H8.13895V12.3974H7.71969ZM8.13895 10.0256V10.3306H6.81658V10.0256H8.13895Z" fill="white"/>
<path d="M9.99669 12.881H11.8027C11.9362 12.881 12.0445 12.7727 12.0445 12.6392V9.7838C12.0445 9.65028 11.9362 9.54199 11.8027 9.54199H9.99669C9.86317 9.54199 9.75488 9.65028 9.75488 9.7838V12.6392C9.75488 12.7727 9.86317 12.881 9.99669 12.881ZM10.2385 10.8142H10.6579V12.3974H10.2385V10.8142ZM11.1415 12.3974V10.8142H11.5609V12.3974H11.1415ZM11.5609 10.0256V10.3306H10.2385V10.0256H11.5609Z" fill="white"/>
<path d="M6.57482 16.7653H8.3808C8.51431 16.7653 8.6226 16.657 8.6226 16.5235V13.6681C8.6226 13.5346 8.51431 13.4263 8.3808 13.4263H6.57482C6.4413 13.4263 6.33301 13.5346 6.33301 13.6681V16.5235C6.33301 16.657 6.44126 16.7653 6.57482 16.7653ZM6.81662 14.7099H7.23612V16.2817H6.81662V14.7099ZM7.71969 16.2817V14.7099H8.13895V16.2817H7.71969ZM8.13895 13.9099V14.2263H6.81658V13.9099H8.13895Z" fill="white"/>
<path d="M14.2263 0H4.15099C4.01743 0 3.90918 0.108249 3.90918 0.241808V1.04783C3.90918 1.18139 4.01743 1.28964 4.15099 1.28964H4.85969V18.1356C4.85969 18.2691 4.96793 18.3774 5.10149 18.3774H13.2758C13.4094 18.3774 13.5177 18.2691 13.5177 18.1356V1.28964H14.2263C14.3599 1.28964 14.4681 1.18139 14.4681 1.04783V0.241808C14.4681 0.108249 14.3599 0 14.2263 0ZM11.5607 15.0489C11.5187 15.0135 11.4645 14.9921 11.4052 14.9921C11.2717 14.9921 11.1634 15.1004 11.1634 15.2339V15.6772C11.1634 15.8107 11.2717 15.919 11.4052 15.919C11.4645 15.919 11.5187 15.8976 11.5607 15.8622V17.128H10.2384V13.91H11.5607V15.0489ZM10.2384 17.6117H11.5607V17.8938H10.2384V17.6117ZM13.034 17.8938H12.0444V13.91H12.1489C12.2824 13.91 12.3907 13.8017 12.3907 13.6682C12.3907 13.5347 12.2824 13.4264 12.1489 13.4264H9.65022C9.5167 13.4264 9.40841 13.5347 9.40841 13.6682C9.40841 13.8017 9.5167 13.91 9.65022 13.91H9.75476V17.8938H5.3433V1.28964H13.034V17.8938ZM13.9845 0.806026H4.3928V0.483615H13.9845V0.806026Z" fill="white"/>
</g>
<defs>
<clipPath id="clip0_1_8043">
<rect width="18.3774" height="18.3774" fill="white"/>
</clipPath>
</defs>
</svg>
