<svg width="19" height="20" viewBox="0 0 19 20" fill="none" xmlns="http://www.w3.org/2000/svg">
<path d="M17.8609 3.52821L8.41453 0.0243886C8.2946 -0.0201036 8.16058 -0.00303325 8.05562 0.0699745C7.95062 0.142982 7.88804 0.262787 7.88804 0.390638V5.19778L0.232031 8.59852C0.0909375 8.66118 0 8.8011 0 8.95552V19.6094C0 19.8251 0.174883 20 0.390625 20H17.7251C17.9408 20 18.1157 19.8251 18.1157 19.6094V3.89446C18.1157 3.7311 18.0141 3.58501 17.8609 3.52821ZM0.781249 17.7052H7.88804V19.2188H0.781249V17.7052ZM5.77363 16.924H2.89562V14.6112H5.77363V16.924ZM11.9942 19.2188V15.607H14.0095V19.2188H11.9942ZM17.3345 19.2188H16.48V16.946C16.48 16.7303 16.3051 16.5554 16.0894 16.5554C15.8737 16.5554 15.6988 16.7303 15.6988 16.946V19.2188H14.7908V15.2164C14.7908 15.0006 14.6159 14.8257 14.4001 14.8257H11.6036C11.3878 14.8257 11.213 15.0006 11.213 15.2164V19.2188H10.3049V16.946C10.3049 16.7303 10.13 16.5554 9.91425 16.5554C9.69851 16.5554 9.52363 16.7303 9.52363 16.946V19.2188H8.66929V13.3138C8.66929 13.0981 8.49441 12.9232 8.27867 12.9232C8.06292 12.9232 7.88804 13.0981 7.88804 13.3138V16.924H6.55492V14.2206C6.55492 14.0048 6.38003 13.8299 6.16429 13.8299H2.505C2.28926 13.8299 2.11437 14.0048 2.11437 14.2206V16.924H0.781249V9.20942L7.88804 6.05267V9.78212C7.88804 9.99786 8.06292 10.1727 8.27867 10.1727C8.49441 10.1727 8.66929 9.99786 8.66929 9.78212V0.952161L17.3345 4.16618V19.2188Z" fill="white"/>
<path d="M8.27932 11.9459C8.11647 11.9459 7.96647 11.8403 7.91194 11.6868C7.85744 11.5334 7.90498 11.3568 8.03151 11.2534C8.15979 11.1486 8.34471 11.1367 8.48541 11.2238C8.62506 11.3102 8.69647 11.4803 8.66037 11.6405C8.6208 11.8165 8.46006 11.9459 8.27932 11.9459Z" fill="white"/>
<path d="M6.16406 12.7138H2.50488C2.28914 12.7138 2.11426 12.5389 2.11426 12.3232V10.1559C2.11426 9.99871 2.20848 9.85684 2.3534 9.79586L4.78933 8.77082C4.8373 8.75063 4.88879 8.74023 4.94082 8.74023H6.16402C6.37976 8.74023 6.55465 8.91512 6.55465 9.13086V12.3232C6.55468 12.5389 6.3798 12.7138 6.16406 12.7138ZM2.89551 11.9326H5.7734V9.52148H5.01965L2.89551 10.4153V11.9326Z" fill="white"/>
<path d="M16.0899 8.49437H13.9385C13.7227 8.49437 13.5479 8.31948 13.5479 8.10374V5.43191C13.5479 5.30406 13.6104 5.18425 13.7154 5.11124C13.8204 5.0382 13.9545 5.02117 14.0744 5.06566L16.2258 5.86374C16.3789 5.92054 16.4805 6.06663 16.4805 6.22999V8.10374C16.4805 8.31948 16.3056 8.49437 16.0899 8.49437ZM14.3291 7.71312H15.6993V6.50171L14.3291 5.99343V7.71312Z" fill="white"/>
<path d="M12.0658 8.49422H9.91406C9.69832 8.49422 9.52344 8.31933 9.52344 8.10359V4.07617C9.52344 3.86043 9.69832 3.68555 9.91406 3.68555H10.283C10.3294 3.68555 10.3754 3.69379 10.4189 3.70992L12.2016 4.37098C12.3548 4.42777 12.4564 4.57387 12.4564 4.73723V8.10359C12.4564 8.31933 12.2816 8.49422 12.0658 8.49422ZM10.3047 7.71297H11.6752V5.00898L10.3047 4.50078V7.71297Z" fill="white"/>
<path d="M16.0902 13.5483H13.9385C13.7227 13.5483 13.5479 13.3734 13.5479 13.1577V9.90918C13.5479 9.69344 13.7227 9.51855 13.9385 9.51855H16.0902C16.3059 9.51855 16.4808 9.69344 16.4808 9.90918V13.1577C16.4808 13.3734 16.3059 13.5483 16.0902 13.5483ZM14.3291 12.767H15.6996V10.2998H14.3291V12.767Z" fill="white"/>
<path d="M12.0657 13.5483H9.91406C9.69832 13.5483 9.52344 13.3734 9.52344 13.1577V9.90918C9.52344 9.69344 9.69832 9.51855 9.91406 9.51855H12.0657C12.2814 9.51855 12.4563 9.69344 12.4563 9.90918V13.1577C12.4563 13.3734 12.2814 13.5483 12.0657 13.5483ZM10.3046 12.767H11.675V10.2998H10.3046V12.767Z" fill="white"/>
</svg>
