<svg width="19" height="19" viewBox="0 0 19 19" fill="none" xmlns="http://www.w3.org/2000/svg">
<g clip-path="url(#clip0_1_8089)">
<path d="M15.9486 4.41533C16.8038 4.41533 17.4969 3.72225 17.4969 2.86709C17.4969 2.01208 16.8038 1.31885 15.9486 1.31885C15.0936 1.31885 14.4004 2.01208 14.4004 2.86709C14.4014 3.7218 15.0941 4.41442 15.9486 4.41533ZM15.9486 1.93814C16.4618 1.93814 16.8776 2.35408 16.8776 2.86709C16.8776 3.38025 16.4618 3.79603 15.9486 3.79603C15.4356 3.79603 15.0197 3.38025 15.0197 2.86709C15.0197 2.35408 15.4356 1.93814 15.9486 1.93814Z" fill="white"/>
<path d="M15.6396 0.0800781H16.2589V1.00902H15.6396V0.0800781Z" fill="white"/>
<path d="M13.7598 1.1156L14.1976 0.677734L14.8546 1.33438L14.4169 1.77239L13.7598 1.1156Z" fill="white"/>
<path d="M13.1621 2.55737H14.0911V3.17667H13.1621V2.55737Z" fill="white"/>
<path d="M13.7598 4.61822L14.4167 3.96143L14.8546 4.39944L14.1976 5.05623L13.7598 4.61822Z" fill="white"/>
<path d="M15.6396 4.72485H16.2589V5.6538H15.6396V4.72485Z" fill="white"/>
<path d="M17.0439 4.39978L17.482 3.96191L18.1388 4.61871L17.7009 5.05657L17.0439 4.39978Z" fill="white"/>
<path d="M17.8066 2.55737H18.7356V3.17667H17.8066V2.55737Z" fill="white"/>
<path d="M17.0439 1.33443L17.7009 0.67749L18.1388 1.1155L17.4818 1.7723L17.0439 1.33443Z" fill="white"/>
<path d="M18.4265 6.89237H10.066V4.10553C10.0663 3.99471 10.0072 3.8922 9.91115 3.83686L5.57607 1.35967C5.48097 1.30524 5.3641 1.30524 5.269 1.35967L0.933918 3.83686C0.837002 3.89159 0.776826 3.99425 0.776523 4.10553V16.8011H0.466875C0.295873 16.8011 0.157227 16.9398 0.157227 17.1108V18.3494C0.157227 18.5204 0.295873 18.659 0.466875 18.659H18.4265C18.5975 18.659 18.7361 18.5204 18.7361 18.3494V17.1108C18.7361 16.9398 18.5975 16.8011 18.4265 16.8011V9.36955C18.5975 9.36955 18.7361 9.23091 18.7361 9.05991V7.20202C18.7361 7.03101 18.5975 6.89237 18.4265 6.89237ZM18.1168 7.51166V8.75026H10.066V7.51166H18.1168ZM1.39582 4.28515L5.42125 1.98517L9.44668 4.28515V16.8011H7.27914V12.7757C7.27914 12.2627 6.86335 11.8467 6.35019 11.8467H4.4923C3.9793 11.8467 3.56336 12.2627 3.56336 12.7757V16.8011H1.39582V4.28515ZM6.65984 16.8011H4.18266V12.7757C4.18266 12.6047 4.3213 12.466 4.4923 12.466H6.35019C6.5212 12.466 6.65984 12.6047 6.65984 12.7757V16.8011ZM18.1168 18.0397H0.776523V17.4204H18.1168V18.0397ZM16.2589 11.2274H11.9239V10.6081H16.2589V11.2274ZM11.9239 11.8467H16.2589V12.466H11.9239V11.8467ZM11.9239 13.0853H16.2589V13.7046H11.9239V13.0853ZM11.9239 14.3239H16.2589V14.9432H11.9239V14.3239ZM11.9239 15.5625H16.2589V16.8011H11.9239V15.5625ZM17.8072 16.8011H16.8782V10.2985C16.8782 10.1275 16.7396 9.98885 16.5686 9.98885H11.6142C11.4432 9.98885 11.3046 10.1275 11.3046 10.2985V16.8011H10.066V9.36955H17.8072V16.8011Z" fill="white"/>
<path d="M5.42096 0.749046L10.528 3.7527L10.8421 3.21882L5.57806 0.12234C5.48114 0.0653397 5.36094 0.0653397 5.26402 0.12234L0 3.21882L0.314033 3.7527L5.42096 0.749046Z" fill="white"/>
<path d="M7.58808 10.6082C7.75909 10.6082 7.89773 10.4695 7.89773 10.2985V5.96346C7.89773 5.79245 7.75909 5.65381 7.58808 5.65381H3.25301C3.08201 5.65381 2.94336 5.79245 2.94336 5.96346V10.2985C2.94336 10.4695 3.08201 10.6082 3.25301 10.6082H7.58808ZM3.56266 8.44064H5.1109V9.98889H3.56266V8.44064ZM5.73019 9.98889V8.44064H7.27844V9.98889H5.73019ZM7.27844 7.82135H5.73019V6.27311H7.27844V7.82135ZM5.1109 6.27311V7.82135H3.56266V6.27311H5.1109Z" fill="white"/>
<path d="M5.73047 14.0144H6.34977V14.6337H5.73047V14.0144Z" fill="white"/>
</g>
<defs>
<clipPath id="clip0_1_8089">
<rect width="18.7359" height="18.7359" fill="white"/>
</clipPath>
</defs>
</svg>
