<svg width="19" height="18" viewBox="0 0 19 18" fill="none" xmlns="http://www.w3.org/2000/svg">
<path d="M17.4781 17.3933H16.9725V1.51685C16.9725 1.34926 16.8366 1.21349 16.6691 1.21349H11.0062C10.8386 1.21349 10.7028 1.34926 10.7028 1.51685V2.83145H10.0961V1.51685C10.0961 1.34926 9.96024 1.21349 9.79272 1.21349H8.47809V0.303363C8.47809 0.135773 8.34225 0 8.17473 0C8.00721 0 7.87136 0.135773 7.87136 0.303363V1.21349H6.55677C6.38921 1.21349 6.2534 1.34926 6.2534 1.51685V2.83145H5.34328C5.17572 2.83145 5.03991 2.96722 5.03991 3.13481V5.6629H2.51183C2.34427 5.6629 2.20846 5.79867 2.20846 5.96626V17.3932H1.70278C1.53522 17.3932 1.39941 17.529 1.39941 17.6966C1.39941 17.8642 1.53526 18 1.70278 18H17.4781C17.6456 18 17.7815 17.8642 17.7815 17.6966C17.7815 17.529 17.6456 17.3933 17.4781 17.3933ZM6.86009 1.82021H9.48929V2.83145H6.86009V1.82021ZM5.84886 17.3933H5.64661V16.8877C5.64661 16.7201 5.51076 16.5843 5.34324 16.5843C5.17572 16.5843 5.03988 16.7201 5.03988 16.8877V17.3933H4.83762V16.382H5.84886V17.3933ZM7.87133 9.60673V10.1286V17.3933H6.45559V16.0787C6.45559 15.9111 6.31974 15.7753 6.15222 15.7753H4.53426C4.36671 15.7753 4.2309 15.9111 4.2309 16.0787V17.3933H2.81516V6.26966H7.87133V9.60673ZM8.17469 5.66293H5.64661V3.43821H10.7028V9.30336H8.47809V8.29213H9.38822C9.55577 8.29213 9.69158 8.15635 9.69158 7.98877C9.69158 7.82118 9.55573 7.6854 9.38822 7.6854H8.47809V6.67417H9.38822C9.55577 6.67417 9.69158 6.53839 9.69158 6.3708C9.69158 6.20322 9.55573 6.06744 9.38822 6.06744H8.47809V5.96633C8.47809 5.79871 8.34225 5.66293 8.17469 5.66293ZM13.5343 17.3933H8.47809V10.1286V9.91012H13.5343V17.3933ZM16.3657 17.3933H14.141V9.60673V9.20222C14.141 9.03463 14.0051 8.89886 13.8376 8.89886C13.6701 8.89886 13.5343 9.03463 13.5343 9.20222V9.30333H12.9275V9.20222C12.9275 9.03463 12.7917 8.89886 12.6242 8.89886C12.4567 8.89886 12.3208 9.03463 12.3208 9.20222V9.30333H11.3096V3.13485V1.82021H16.3657V17.3933H16.3657Z" fill="white"/>
<path d="M9.79262 16.7865C9.96018 16.7865 10.096 16.6506 10.096 16.4831V10.8202C10.096 10.6526 9.96014 10.5168 9.79262 10.5168C9.6251 10.5168 9.48926 10.6526 9.48926 10.8202V16.4831C9.48926 16.6507 9.62507 16.7865 9.79262 16.7865Z" fill="white"/>
<path d="M11.0065 16.7865C11.174 16.7865 11.3099 16.6506 11.3099 16.4831V10.8202C11.3099 10.6526 11.174 10.5168 11.0065 10.5168C10.839 10.5168 10.7031 10.6526 10.7031 10.8202V16.4831C10.7031 16.6507 10.8389 16.7865 11.0065 16.7865Z" fill="white"/>
<path d="M12.2194 16.7865C12.3869 16.7865 12.5227 16.6506 12.5227 16.4831V10.8202C12.5227 10.6526 12.3869 10.5168 12.2194 10.5168C12.0519 10.5168 11.916 10.6526 11.916 10.8202V16.4831C11.916 16.6507 12.0519 16.7865 12.2194 16.7865Z" fill="white"/>
<path d="M12.6237 3.84274C12.7912 3.84274 12.927 3.70697 12.927 3.53938V3.13491C12.927 2.96732 12.7912 2.83154 12.6237 2.83154C12.4562 2.83154 12.3203 2.96732 12.3203 3.13491V3.53941C12.3203 3.70697 12.4561 3.84274 12.6237 3.84274Z" fill="white"/>
<path d="M13.8375 3.84274C14.0051 3.84274 14.1409 3.70697 14.1409 3.53938V3.13491C14.1409 2.96732 14.0051 2.83154 13.8375 2.83154C13.67 2.83154 13.5342 2.96732 13.5342 3.13491V3.53941C13.5342 3.70697 13.67 3.84274 13.8375 3.84274Z" fill="white"/>
<path d="M15.0514 3.84274C15.219 3.84274 15.3548 3.70697 15.3548 3.53938V3.13491C15.3548 2.96732 15.2189 2.83154 15.0514 2.83154C14.8839 2.83154 14.748 2.96732 14.748 3.13491V3.53941C14.748 3.70697 14.8839 3.84274 15.0514 3.84274Z" fill="white"/>
<path d="M12.6237 5.86524C12.7912 5.86524 12.927 5.72946 12.927 5.56187V5.15737C12.927 4.98978 12.7912 4.854 12.6237 4.854C12.4562 4.854 12.3203 4.98978 12.3203 5.15737V5.56187C12.3203 5.72946 12.4561 5.86524 12.6237 5.86524Z" fill="white"/>
<path d="M13.8375 5.86524C14.0051 5.86524 14.1409 5.72946 14.1409 5.56187V5.15737C14.1409 4.98978 14.0051 4.854 13.8375 4.854C13.67 4.854 13.5342 4.98978 13.5342 5.15737V5.56187C13.5342 5.72946 13.67 5.86524 13.8375 5.86524Z" fill="white"/>
<path d="M15.0514 5.86524C15.219 5.86524 15.3548 5.72946 15.3548 5.56187V5.15737C15.3548 4.98978 15.2189 4.854 15.0514 4.854C14.8839 4.854 14.748 4.98978 14.748 5.15737V5.56187C14.748 5.72946 14.8839 5.86524 15.0514 5.86524Z" fill="white"/>
<path d="M12.6237 7.8877C12.7912 7.8877 12.927 7.75193 12.927 7.58434V7.17983C12.927 7.01224 12.7912 6.87646 12.6237 6.87646C12.4562 6.87646 12.3203 7.01224 12.3203 7.17983V7.58434C12.3203 7.75189 12.4561 7.8877 12.6237 7.8877Z" fill="white"/>
<path d="M13.8375 7.8877C14.0051 7.8877 14.1409 7.75193 14.1409 7.58434V7.17983C14.1409 7.01224 14.0051 6.87646 13.8375 6.87646C13.67 6.87646 13.5342 7.01224 13.5342 7.17983V7.58434C13.5342 7.75189 13.67 7.8877 13.8375 7.8877Z" fill="white"/>
<path d="M15.0514 7.8877C15.219 7.8877 15.3548 7.75193 15.3548 7.58434V7.17983C15.3548 7.01224 15.2189 6.87646 15.0514 6.87646C14.8839 6.87646 14.748 7.01224 14.748 7.17983V7.58434C14.748 7.75189 14.8839 7.8877 15.0514 7.8877Z" fill="white"/>
<path d="M4.12954 8.69654C4.29709 8.69654 4.4329 8.56076 4.4329 8.39317V7.98867C4.4329 7.82108 4.29705 7.6853 4.12954 7.6853C3.96202 7.6853 3.82617 7.82108 3.82617 7.98867V8.39317C3.82617 8.56073 3.96202 8.69654 4.12954 8.69654Z" fill="white"/>
<path d="M5.3434 8.69654C5.51096 8.69654 5.64677 8.56076 5.64677 8.39317V7.98867C5.64677 7.82108 5.51092 7.6853 5.3434 7.6853C5.17588 7.6853 5.04004 7.82108 5.04004 7.98867V8.39317C5.04004 8.56073 5.17585 8.69654 5.3434 8.69654Z" fill="white"/>
<path d="M6.55629 8.69654C6.72385 8.69654 6.85966 8.56076 6.85966 8.39317V7.98867C6.85966 7.82108 6.72381 7.6853 6.55629 7.6853C6.38877 7.6853 6.25293 7.82108 6.25293 7.98867V8.39317C6.25293 8.56073 6.38874 8.69654 6.55629 8.69654Z" fill="white"/>
<path d="M4.12954 10.719C4.29709 10.719 4.4329 10.5832 4.4329 10.4156V10.0111C4.4329 9.84354 4.29705 9.70776 4.12954 9.70776C3.96202 9.70776 3.82617 9.84354 3.82617 10.0111V10.4156C3.82617 10.5832 3.96202 10.719 4.12954 10.719Z" fill="white"/>
<path d="M5.3434 10.719C5.51096 10.719 5.64677 10.5832 5.64677 10.4156V10.0111C5.64677 9.84354 5.51092 9.70776 5.3434 9.70776C5.17588 9.70776 5.04004 9.84354 5.04004 10.0111V10.4156C5.04004 10.5832 5.17585 10.719 5.3434 10.719Z" fill="white"/>
<path d="M6.55629 10.719C6.72385 10.719 6.85966 10.5832 6.85966 10.4156V10.0111C6.85966 9.84354 6.72381 9.70776 6.55629 9.70776C6.38877 9.70776 6.25293 9.84354 6.25293 10.0111V10.4156C6.25293 10.5832 6.38874 10.719 6.55629 10.719Z" fill="white"/>
<path d="M4.12954 12.7415C4.29709 12.7415 4.4329 12.6057 4.4329 12.4381V12.0336C4.4329 11.866 4.29705 11.7302 4.12954 11.7302C3.96202 11.7302 3.82617 11.866 3.82617 12.0336V12.4381C3.82617 12.6057 3.96202 12.7415 4.12954 12.7415Z" fill="white"/>
<path d="M5.3434 12.7415C5.51096 12.7415 5.64677 12.6057 5.64677 12.4381V12.0336C5.64677 11.866 5.51092 11.7302 5.3434 11.7302C5.17588 11.7302 5.04004 11.866 5.04004 12.0336V12.4381C5.04004 12.6057 5.17585 12.7415 5.3434 12.7415Z" fill="white"/>
<path d="M6.55629 12.7415C6.72385 12.7415 6.85966 12.6057 6.85966 12.4381V12.0336C6.85966 11.866 6.72381 11.7302 6.55629 11.7302C6.38877 11.7302 6.25293 11.866 6.25293 12.0336V12.4381C6.25293 12.6057 6.38874 12.7415 6.55629 12.7415Z" fill="white"/>
<path d="M4.12954 14.7642C4.29709 14.7642 4.4329 14.6284 4.4329 14.4608V14.0563C4.4329 13.8887 4.29705 13.7529 4.12954 13.7529C3.96202 13.7529 3.82617 13.8887 3.82617 14.0563V14.4608C3.82617 14.6284 3.96202 14.7642 4.12954 14.7642Z" fill="white"/>
<path d="M5.3434 14.7642C5.51096 14.7642 5.64677 14.6284 5.64677 14.4608V14.0563C5.64677 13.8887 5.51092 13.7529 5.3434 13.7529C5.17588 13.7529 5.04004 13.8887 5.04004 14.0563V14.4608C5.04004 14.6284 5.17585 14.7642 5.3434 14.7642Z" fill="white"/>
<path d="M6.55629 14.7642C6.72385 14.7642 6.85966 14.6284 6.85966 14.4608V14.0563C6.85966 13.8887 6.72381 13.7529 6.55629 13.7529C6.38877 13.7529 6.25293 13.8887 6.25293 14.0563V14.4608C6.25293 14.6284 6.38874 14.7642 6.55629 14.7642Z" fill="white"/>
<path d="M15.0514 9.91016C15.219 9.91016 15.3548 9.77439 15.3548 9.6068V9.20229C15.3548 9.0347 15.2189 8.89893 15.0514 8.89893C14.8839 8.89893 14.748 9.0347 14.748 9.20229V9.6068C14.748 9.77435 14.8839 9.91016 15.0514 9.91016Z" fill="white"/>
<path d="M15.0514 11.9326C15.219 11.9326 15.3548 11.7968 15.3548 11.6293V11.2247C15.3548 11.0572 15.2189 10.9214 15.0514 10.9214C14.8839 10.9214 14.748 11.0572 14.748 11.2247V11.6293C14.748 11.7968 14.8839 11.9326 15.0514 11.9326Z" fill="white"/>
<path d="M15.0514 13.9551C15.219 13.9551 15.3548 13.8193 15.3548 13.6517V13.2472C15.3548 13.0796 15.2189 12.9438 15.0514 12.9438C14.8839 12.9438 14.748 13.0796 14.748 13.2472V13.6517C14.748 13.8193 14.8839 13.9551 15.0514 13.9551Z" fill="white"/>
<path d="M15.0514 15.9775C15.219 15.9775 15.3548 15.8418 15.3548 15.6742V15.2697C15.3548 15.1021 15.2189 14.9663 15.0514 14.9663C14.8839 14.9663 14.748 15.1021 14.748 15.2697V15.6742C14.748 15.8417 14.8839 15.9775 15.0514 15.9775Z" fill="white"/>
<path d="M9.69191 4.75283C9.69191 4.58524 9.55606 4.44946 9.38854 4.44946H6.96157C6.79401 4.44946 6.6582 4.58524 6.6582 4.75283C6.6582 4.92042 6.79405 5.05619 6.96157 5.05619H9.38854C9.5561 5.05619 9.69191 4.92042 9.69191 4.75283Z" fill="white"/>
</svg>
