<svg width="19" height="19" viewBox="0 0 19 19" fill="none" xmlns="http://www.w3.org/2000/svg">
<g clip-path="url(#clip0_1_8104)">
<path d="M8.05205 12.5974L9.50539 11.144H18.1815V10.5575H17.3017V5.8655C17.6278 5.8655 17.9252 5.68692 18.078 5.39981C18.1885 5.19249 18.212 4.95464 18.1433 4.72974C18.0747 4.50482 17.9228 4.32009 17.7304 4.21803L14.1003 2.00429C13.7238 1.77439 13.2555 1.77439 12.879 2.00429L10.3016 3.57669C10.0764 3.24825 9.72243 3.02009 9.31306 2.955C9.05677 1.92421 8.11778 1.1735 7.03802 1.1735C6.80166 1.1735 6.57382 1.21075 6.3577 1.27673C5.88348 0.495481 5.02894 0.000488281 4.1055 0.000488281C2.97677 0.000488281 1.98473 0.715438 1.61758 1.76586C0.713494 1.83831 0 2.59693 0 3.51948C0 4.48983 0.789133 5.279 1.75952 5.279H3.23338C3.50142 5.63294 3.92194 5.8655 4.39875 5.8655H9.67343C9.67488 5.8655 9.67605 5.86579 9.67723 5.86579V10.5575H9.26256L7.55408 12.266C7.10187 11.9809 6.63945 11.7358 6.1582 11.547V10.7693C6.85614 10.5109 7.33121 9.84991 7.33121 9.09128C7.33121 8.08134 6.84882 7.11682 6.0409 6.51067L5.86494 6.37871L5.68899 6.51067C4.88107 7.11682 4.39868 8.0813 4.39868 9.09128C4.39868 9.85023 4.87404 10.5115 5.57169 10.7695V11.3508C5.10514 11.22 4.61981 11.144 4.10543 11.144C3.31804 11.144 2.6289 11.2704 2.05266 11.4414V10.4886C2.91481 10.2094 3.51892 9.3992 3.51892 8.47576C3.51892 7.48692 2.99226 6.55645 2.14417 6.04764L1.75944 5.81685L1.37471 6.04764C0.526669 6.55638 0 7.48688 0 8.47573C0 9.39917 0.604083 10.2094 1.46626 10.4886V11.6431C0.629048 11.9742 0.14517 12.3534 0.109979 12.3812L0.475958 12.8395C0.490021 12.8284 1.89939 11.7305 4.1055 11.7305C6.13536 11.7305 7.69488 12.9929 9.50102 14.4542C10.9333 15.6134 12.4159 16.8084 14.3253 17.5319C14.3405 17.5544 14.3605 17.5735 14.3769 17.5952H0V18.1817H15.5422H15.8355H16.422H16.7153H18.1815V17.5952H17.8806C18.0668 17.3498 18.1815 17.0471 18.1815 16.7157V16.4225H17.3018C16.8205 16.4225 16.3962 16.6589 16.1287 17.0181C15.8613 16.6589 15.437 16.4225 14.9557 16.4225H14.076V16.7157C14.076 16.7448 14.0827 16.7717 14.0845 16.8002C12.5112 16.1152 11.2162 15.0873 9.96664 14.0765H10.8502H11.1435H11.73H12.0232H15.5422H15.8355H16.422H16.7152H18.1815V13.49H17.8806C18.0668 13.2442 18.1815 12.9416 18.1815 12.6102V12.317H17.3017C16.8205 12.317 16.3962 12.5533 16.1287 12.9125C15.8613 12.5533 15.437 12.317 14.9557 12.317H14.0759V12.6102C14.0759 12.9416 14.1906 13.2442 14.3768 13.49H13.1889C13.3748 13.2442 13.4894 12.9416 13.4894 12.6102V12.317H12.6097C12.1285 12.317 11.7041 12.5533 11.4367 12.9125C11.1692 12.5533 10.7449 12.317 10.2637 12.317H9.3839V12.6102C9.3839 12.9416 9.49857 13.2442 9.68479 13.49H9.23788C8.84353 13.1762 8.45031 12.8751 8.05205 12.5974ZM15.5422 10.5575H13.7827V8.79799H15.5422V10.5575ZM15.5422 8.21149H13.7827V7.03848H15.5422V8.21149ZM13.1963 8.21149H11.4367V7.03848H13.1963V8.21149ZM11.4367 8.79799H13.1963V10.5575H11.4367V8.79799ZM13.1839 2.50485C13.2784 2.44736 13.3839 2.41863 13.4895 2.41863C13.5951 2.41863 13.7007 2.44736 13.7951 2.50485L17.4402 4.72712C17.5091 4.76377 17.5598 4.82534 17.5827 4.90041C17.6056 4.9752 17.5976 5.05467 17.5607 5.12389C17.5094 5.21948 17.4103 5.279 17.3015 5.279C17.2537 5.279 17.2062 5.26696 17.1803 5.25407L13.7989 3.15148C13.6083 3.03301 13.371 3.03301 13.1799 3.15148L9.81423 5.24498C9.67815 5.31827 9.49225 5.26199 9.41863 5.12385C9.3811 5.05347 9.37346 4.97634 9.39665 4.90038C9.41952 4.82531 9.46995 4.76373 9.55414 4.71828L13.1839 2.50485ZM1.75952 4.69249C1.11261 4.69249 0.586505 4.16639 0.586505 3.51948C0.586505 2.87318 1.11172 2.34736 1.75834 2.34736H1.76012C1.77976 2.34999 1.79943 2.35265 1.81996 2.3535L2.05983 2.36583L2.11907 2.13298C2.35014 1.22272 3.16715 0.586958 4.10554 0.586958C4.79968 0.586958 5.44627 0.945019 5.82194 1.51714C5.29616 1.83824 4.90347 2.35936 4.75745 2.97929C4.63955 2.94878 4.51903 2.93294 4.39882 2.93294C3.59034 2.93294 2.93256 3.59072 2.93256 4.39921C2.93256 4.49949 2.94282 4.59775 2.96218 4.69246H1.75952V4.69249ZM3.51899 4.39924C3.51899 3.91419 3.9137 3.51948 4.39875 3.51948C4.55213 3.51948 4.70166 3.56171 4.84275 3.64498L5.25507 3.88838L5.28441 3.41039C5.34101 2.4849 6.11136 1.75997 7.03802 1.75997C7.90724 1.75997 8.655 2.40894 8.77758 3.26963L8.81423 3.52623L9.07346 3.52154L9.10688 3.51948C9.38458 3.52446 9.6403 3.66348 9.80042 3.88195L9.26377 4.20922C9.05613 4.31948 8.90425 4.50421 8.83593 4.72946C8.7805 4.91185 8.78841 5.10219 8.85148 5.27871H4.39875C3.9137 5.279 3.51899 4.88429 3.51899 4.39924ZM10.2638 5.65553L13.4895 3.6497L16.7153 5.65496V10.5575H16.1287V6.45201H10.8502V10.5575H10.2637V5.65553H10.2638ZM4.98526 9.09125C4.98526 8.3411 5.31047 7.62147 5.86502 7.12413C6.41956 7.62147 6.74477 8.3411 6.74477 9.09125C6.74477 9.52438 6.51427 9.90971 6.15827 10.1238V8.62615L6.36558 8.41852L5.95063 8.00417L5.57176 8.38336V10.1238C5.21576 9.90971 4.98526 9.52438 4.98526 9.09125ZM0.586505 8.47573C0.586505 7.69157 1.00408 6.95407 1.67653 6.55055L1.75952 6.5007L1.84251 6.55055C2.51491 6.95407 2.93253 7.6916 2.93253 8.47573C2.93253 9.0763 2.57741 9.60886 2.05277 9.85723V8.2807L2.31495 7.75577L1.79034 7.49359L1.4663 8.14228V9.85691C0.941618 9.60882 0.586505 9.0763 0.586505 8.47573ZM17.3018 17.009H17.5449C17.4237 17.3503 17.0977 17.5955 16.7153 17.5955H16.4721C16.5933 17.2542 16.9194 17.009 17.3018 17.009ZM14.9558 17.009C15.3382 17.009 15.6643 17.2542 15.7854 17.5955H15.5423C15.1599 17.5955 14.8338 17.3503 14.7127 17.009H14.9558ZM17.3018 12.9035H17.5449C17.4237 13.2448 17.0977 13.49 16.7153 13.49H16.4721C16.5933 13.1487 16.9194 12.9035 17.3018 12.9035ZM14.7127 12.9035H14.9558C15.3382 12.9035 15.6643 13.1487 15.7854 13.49H15.5423C15.1599 13.49 14.8338 13.2448 14.7127 12.9035ZM12.6098 12.9035H12.8529C12.7317 13.2448 12.4057 13.49 12.0232 13.49H11.7801C11.9013 13.1487 12.2274 12.9035 12.6098 12.9035ZM10.0207 12.9035H10.2638C10.6462 12.9035 10.9723 13.1487 11.0934 13.49H10.8503C10.4679 13.49 10.1418 13.2448 10.0207 12.9035Z" fill="white"/>
<path d="M13.4891 5.86549C13.9742 5.86549 14.3689 5.47078 14.3689 4.98572C14.3689 4.50067 13.9742 4.10596 13.4891 4.10596C13.0041 4.10596 12.6094 4.50067 12.6094 4.98572C12.6094 5.47078 13.0041 5.86549 13.4891 5.86549ZM13.4891 4.69247C13.6507 4.69247 13.7824 4.82415 13.7824 4.98572C13.7824 5.1473 13.6507 5.27898 13.4891 5.27898C13.3276 5.27898 13.1959 5.1473 13.1959 4.98572C13.1959 4.82415 13.3276 4.69247 13.4891 4.69247Z" fill="white"/>
</g>
<defs>
<clipPath id="clip0_1_8104">
<rect width="18.182" height="18.182" fill="white"/>
</clipPath>
</defs>
</svg>
