<svg width="135" height="19" viewBox="0 0 135 19" fill="none" xmlns="http://www.w3.org/2000/svg">
<path d="M0.536821 1.21891C0.652495 1.21891 0.925157 1.21891 1.35481 1.21891C1.80098 1.20238 2.28847 1.19412 2.81726 1.19412C3.34606 1.19412 3.87486 1.19412 4.40366 1.19412C4.93246 1.1776 5.36211 1.16933 5.69261 1.16933C7.8078 1.16933 9.3942 1.62377 10.4518 2.53264C11.5094 3.42499 12.0382 4.67262 12.0382 6.27555C12.0382 8.04372 11.4433 9.37397 10.2535 10.2663C9.0637 11.1421 7.43599 11.5801 5.37037 11.5801H4.62675L4.62675 18H0.536821L0.536821 1.21891ZM4.62675 8.87823H5.66782C6.22967 8.87823 6.71715 8.68819 7.13028 8.30811C7.5434 7.91152 7.74996 7.30009 7.74996 6.47384C7.74996 5.7798 7.57645 5.17664 7.22943 4.66436C6.89893 4.15209 6.33708 3.88769 5.54388 3.87116C5.32906 3.87116 5.14728 3.87943 4.99856 3.89595C4.84983 3.89595 4.7259 3.90421 4.62675 3.92074L4.62675 8.87823ZM19.8507 9.1261C19.6689 9.1261 19.4706 9.17567 19.2558 9.27482C19.041 9.37397 18.8344 9.53096 18.6361 9.74579C18.4378 9.94409 18.2725 10.2085 18.1403 10.539C18.0081 10.853 17.9421 11.233 17.9421 11.6792V18H14.0256L14.0256 11.5553C14.0256 10.5638 13.9513 9.74579 13.8025 9.10131C13.6703 8.44031 13.5134 7.90325 13.3316 7.49013C13.1333 7.02743 12.9102 6.65562 12.6623 6.3747L15.8103 5.3832C15.9425 5.54845 16.083 5.73848 16.2317 5.95331C16.3474 6.13508 16.4713 6.36643 16.6035 6.64736C16.7357 6.92828 16.8431 7.25052 16.9258 7.61407C17.3389 6.82087 17.8264 6.25076 18.3882 5.90373C18.9666 5.55671 19.6441 5.3832 20.4208 5.3832C20.7678 5.3832 21.0735 5.41625 21.3379 5.48235C21.6189 5.53192 21.8502 5.58976 22.032 5.65586L21.0157 9.39876C20.9 9.33266 20.743 9.27482 20.5447 9.22525C20.363 9.15915 20.1316 9.1261 19.8507 9.1261ZM27.9107 5.30884C29.8771 5.30884 31.3065 5.87068 32.1989 6.99438C33.1078 8.11808 33.5622 9.67142 33.5622 11.6544C33.5622 12.5963 33.4383 13.4722 33.1904 14.2819C32.959 15.0751 32.5955 15.7691 32.0997 16.364C31.6205 16.9424 31.0091 17.4051 30.2655 17.7521C29.5384 18.0826 28.6873 18.2479 27.7124 18.2479C26.7209 18.2479 25.8616 18.1074 25.1345 17.8265C24.4239 17.529 23.8373 17.1077 23.3746 16.5623C22.9284 16.017 22.5896 15.356 22.3583 14.5793C22.1435 13.7861 22.036 12.9021 22.036 11.9271C22.036 10.9852 22.1517 10.1093 22.3831 9.29961C22.6309 8.48989 22.9945 7.79584 23.4737 7.21747C23.9695 6.62257 24.5809 6.15987 25.308 5.82937C26.0516 5.48235 26.9192 5.30884 27.9107 5.30884ZM27.6876 8.25854C27.3901 8.25854 27.1423 8.34943 26.944 8.5312C26.7457 8.69645 26.5887 8.93606 26.473 9.25004C26.3738 9.54749 26.2995 9.90277 26.2499 10.3159C26.2169 10.729 26.2003 11.1752 26.2003 11.6544C26.2003 12.1502 26.2251 12.6211 26.2747 13.0673C26.3243 13.5135 26.4069 13.9018 26.5226 14.2323C26.6548 14.5628 26.8365 14.8272 27.0679 15.0255C27.2992 15.2073 27.5884 15.2982 27.9355 15.2982C28.2329 15.2982 28.4808 15.2073 28.6791 15.0255C28.8774 14.8437 29.0261 14.6041 29.1252 14.3067C29.2409 13.9927 29.3153 13.6291 29.3483 13.216C29.3979 12.8029 29.4227 12.365 29.4227 11.9023C29.4227 11.39 29.3979 10.9191 29.3483 10.4894C29.2988 10.0432 29.2079 9.6549 29.0757 9.3244C28.96 8.9939 28.7865 8.73776 28.5551 8.55599C28.3238 8.35769 28.0346 8.25854 27.6876 8.25854ZM44.2835 18.1983L44.1348 18.0248C44.0357 17.9256 43.92 17.7687 43.7878 17.5538C43.6556 17.339 43.5234 17.0829 43.3912 16.7854C43.259 16.4714 43.1598 16.1162 43.0937 15.7196C42.8128 16.4962 42.3997 17.0994 41.8544 17.529C41.309 17.9422 40.5902 18.1487 39.6979 18.1487C38.8881 18.1487 38.1776 18 37.5661 17.7026C36.9712 17.4051 36.4755 16.992 36.0789 16.4632C35.6823 15.9179 35.3849 15.2651 35.1866 14.505C35.0048 13.7448 34.9139 12.9021 34.9139 11.9767C34.9139 11.0347 35.0626 10.1589 35.3601 9.34919C35.674 8.53946 36.1037 7.84542 36.649 7.26704C37.1943 6.67214 37.8471 6.20945 38.6072 5.87895C39.3674 5.54845 40.2101 5.3832 41.1355 5.3832C41.2843 5.3832 41.4412 5.39146 41.6065 5.40799C41.7883 5.42451 41.97 5.44103 42.1518 5.45756V0.0538999L46.0682 0.698374V12.0262C46.0682 13.0012 46.1343 13.8192 46.2665 14.4802C46.4153 15.1412 46.5722 15.6782 46.7375 16.0914C46.9027 16.488 47.0597 16.7689 47.2085 16.9341L47.4315 17.2068L44.2835 18.1983ZM40.3423 15.2734C40.5902 15.2734 40.8216 15.166 41.0364 14.9511C41.2677 14.7363 41.466 14.4471 41.6313 14.0836C41.7965 13.72 41.9205 13.3069 42.0031 12.8442C42.1022 12.365 42.1518 11.861 42.1518 11.3322V8.45684C42.0361 8.40726 41.8709 8.36595 41.6561 8.3329C41.4578 8.28333 41.2843 8.25854 41.1355 8.25854C40.7389 8.25854 40.4084 8.34943 40.144 8.5312C39.8796 8.69645 39.6648 8.93606 39.4996 9.25004C39.3508 9.54749 39.2434 9.91104 39.1773 10.3407C39.1112 10.7703 39.0782 11.233 39.0782 11.7288C39.0782 12.1915 39.0864 12.6377 39.103 13.0673C39.1195 13.4804 39.1691 13.8522 39.2517 14.1827C39.3508 14.5132 39.483 14.7776 39.6483 14.9759C39.8135 15.1742 40.0449 15.2734 40.3423 15.2734ZM55.8331 5.55671H59.7495V12.0262C59.7495 13.0177 59.8156 13.844 59.9478 14.505C60.08 15.166 60.237 15.6948 60.4188 16.0914C60.6171 16.5706 60.8484 16.9424 61.1128 17.2068L57.9648 18.1983C57.8161 18.0496 57.6674 17.8595 57.5187 17.6282C57.3865 17.4464 57.2543 17.2151 57.1221 16.9341C56.9899 16.6367 56.8825 16.2979 56.7998 15.9179C56.3702 16.6945 55.7753 17.2646 55.0151 17.6282C54.2715 17.9752 53.4618 18.1487 52.586 18.1487C51.9415 18.1487 51.3879 18.0496 50.9252 17.8513C50.479 17.6365 50.1072 17.3473 49.8098 16.9837C49.5289 16.6036 49.3223 16.1492 49.1901 15.6204C49.0744 15.0916 49.0166 14.4967 49.0166 13.8357V5.55671H52.9578V13.3152C52.9578 13.8935 53.0239 14.3645 53.1561 14.7281C53.3048 15.0751 53.5692 15.2486 53.9493 15.2486C54.412 15.2486 54.8416 14.9429 55.2382 14.3315C55.6348 13.7035 55.8331 12.8442 55.8331 11.7536V5.55671ZM69.9035 9.07652C69.7052 8.84518 69.4986 8.64688 69.2838 8.48163C69.069 8.31638 68.7963 8.23375 68.4658 8.23375C68.2675 8.23375 68.0444 8.2668 67.7965 8.3329C67.5487 8.399 67.3173 8.55599 67.1025 8.80386C66.8877 9.03521 66.7059 9.38224 66.5572 9.84493C66.425 10.2911 66.3589 10.9108 66.3589 11.704C66.3589 12.4807 66.4332 13.1086 66.582 13.5878C66.7472 14.0505 66.9455 14.4058 67.1769 14.6537C67.4247 14.9016 67.6891 15.0668 67.9701 15.1494C68.2675 15.2321 68.5484 15.2734 68.8128 15.2734C69.0111 15.2734 69.226 15.2486 69.4573 15.199C69.6886 15.1494 69.9035 15.0999 70.1018 15.0503C70.3166 14.9842 70.4984 14.9264 70.6471 14.8768C70.7958 14.8107 70.8784 14.7776 70.895 14.7776L71.6138 17.3803L71.3411 17.5043C71.1594 17.6034 70.9032 17.7108 70.5727 17.8265C70.2588 17.9256 69.8704 18.0165 69.4077 18.0991C68.9616 18.1818 68.4658 18.2231 67.9205 18.2231C66.9125 18.2231 66.0449 18.0744 65.3178 17.7769C64.5907 17.4795 63.9958 17.0663 63.5331 16.5375C63.0704 16.0087 62.7316 15.3725 62.5168 14.6289C62.302 13.8688 62.1946 13.0343 62.1946 12.1254C62.1946 11.0182 62.3433 10.0432 62.6408 9.20046C62.9547 8.34116 63.3761 7.62233 63.9049 7.04396C64.4502 6.46558 65.0864 6.03593 65.8135 5.75501C66.5572 5.45756 67.3586 5.30884 68.2179 5.30884C69.0277 5.30884 69.7382 5.47408 70.3496 5.80458C70.9611 6.11856 71.4568 6.53994 71.8369 7.06874L69.9035 9.07652ZM72.1578 5.65586H74.1903L74.6117 3.10275L78.0076 2.35913V5.65586H80.9325L80.4616 8.5312H78.0076V14.0588C78.0076 14.7859 78.3877 15.1494 79.1478 15.1494C79.561 15.1494 79.9576 15.1081 80.3376 15.0255C80.5359 14.9759 80.7342 14.9264 80.9325 14.8768L81.6018 17.5043C81.2713 17.6199 80.8086 17.7521 80.2137 17.9009C79.6353 18.033 78.9247 18.0991 78.082 18.0991C76.8426 18.0991 75.8676 17.843 75.1571 17.3307C74.463 16.8185 74.116 15.9509 74.116 14.7281V8.5312H72.1578V5.65586ZM88.1854 0.995822C88.7637 0.995822 89.3173 1.05366 89.8461 1.16933C90.3749 1.26848 90.8541 1.39242 91.2838 1.54115C91.73 1.67335 92.1018 1.81381 92.3992 1.96253C92.7132 2.11126 92.928 2.22693 93.0437 2.30956L91.8291 4.44127L91.5069 4.26776C91.2921 4.15209 91.0111 4.01989 90.6641 3.87116C90.3171 3.72244 89.937 3.59024 89.5239 3.47457C89.1108 3.35889 88.7142 3.30105 88.3341 3.30105C87.7392 3.30105 87.2187 3.44152 86.7725 3.72244C86.3428 4.00336 86.128 4.44128 86.128 5.03617C86.128 5.7798 86.3676 6.39122 86.8468 6.87044C87.3261 7.33314 88.078 7.76279 89.1025 8.15939C89.7635 8.42379 90.3501 8.70471 90.8624 9.00216C91.3912 9.28309 91.8374 9.61359 92.2009 9.99366C92.5645 10.3737 92.8371 10.8116 93.0189 11.3074C93.2172 11.8031 93.3164 12.398 93.3164 13.0921C93.3164 13.72 93.1924 14.3397 92.9446 14.9511C92.7132 15.5626 92.3579 16.1079 91.8787 16.5871C91.416 17.0498 90.8376 17.4299 90.1436 17.7273C89.4495 18.0083 88.6481 18.1487 87.7392 18.1487C87.0947 18.1487 86.4833 18.0826 85.9049 17.9504C85.3266 17.8182 84.7978 17.6695 84.3185 17.5043C83.8558 17.3225 83.451 17.1407 83.1039 16.9589C82.7734 16.7772 82.5256 16.6367 82.3603 16.5375L83.4014 14.2571L83.8476 14.505C84.145 14.6702 84.5086 14.852 84.9382 15.0503C85.3679 15.2486 85.8223 15.4304 86.3015 15.5956C86.7807 15.7609 87.1939 15.8435 87.5409 15.8435C88.4167 15.8435 89.0695 15.6287 89.4991 15.199C89.9288 14.7694 90.1436 14.1662 90.1436 13.3895C90.1436 13.026 90.0857 12.712 89.9701 12.4476C89.8544 12.1667 89.6891 11.9271 89.4743 11.7288C89.2595 11.5305 88.9951 11.357 88.6811 11.2082C88.3837 11.043 88.0449 10.886 87.6648 10.7373C86.9212 10.4233 86.2519 10.1093 85.6571 9.79536C85.0787 9.48139 84.5829 9.1261 84.1698 8.7295C83.7567 8.31638 83.4427 7.85368 83.2279 7.34141C83.0131 6.81261 82.9056 6.18466 82.9056 5.45756C82.9056 4.84614 83.0378 4.27603 83.3022 3.74723C83.5666 3.2019 83.9302 2.73094 84.3929 2.33434C84.8556 1.92122 85.4092 1.59898 86.0536 1.36763C86.6981 1.11976 87.4087 0.995822 88.1854 0.995822ZM93.6773 5.65586H95.9082L96.404 2.75573L98.734 2.23519V5.65586H101.783L101.436 7.66364H98.734V15.0007C98.734 15.4304 98.8496 15.7113 99.081 15.8435C99.3123 15.9592 99.5685 16.017 99.8494 16.017C100.081 16.017 100.312 16.0005 100.543 15.9674C100.775 15.9344 100.981 15.8931 101.163 15.8435C101.378 15.7939 101.585 15.7361 101.783 15.67L102.254 17.529L102.031 17.6034C101.882 17.6695 101.659 17.7439 101.361 17.8265C101.081 17.8926 100.742 17.9504 100.345 18C99.9651 18.0661 99.5437 18.0991 99.081 18.0991C98.6183 18.0991 98.1886 18.0496 97.792 17.9504C97.412 17.8513 97.0815 17.6943 96.8005 17.4795C96.5196 17.2481 96.2965 16.9589 96.1313 16.6119C95.9826 16.2649 95.9082 15.8352 95.9082 15.323V7.66364H93.6773V5.65586ZM108.542 5.35841C110.442 5.35841 111.822 5.92026 112.681 7.04396C113.541 8.16765 113.97 9.71274 113.97 11.6792C113.97 12.6046 113.855 13.4722 113.623 14.2819C113.392 15.0751 113.037 15.7691 112.557 16.364C112.095 16.9424 111.508 17.4051 110.798 17.7521C110.087 18.0826 109.261 18.2479 108.319 18.2479C107.377 18.2479 106.559 18.1074 105.865 17.8265C105.187 17.529 104.625 17.1077 104.179 16.5623C103.733 16.017 103.403 15.356 103.188 14.5793C102.989 13.8027 102.89 12.9268 102.89 11.9519C102.89 11.0099 103.006 10.1424 103.237 9.34919C103.469 8.53946 103.816 7.84542 104.278 7.26704C104.758 6.67214 105.353 6.20945 106.063 5.87895C106.774 5.53192 107.6 5.35841 108.542 5.35841ZM108.294 7.44055C107.815 7.44055 107.418 7.54797 107.104 7.76279C106.807 7.97762 106.567 8.28333 106.385 8.67993C106.22 9.06 106.104 9.51444 106.038 10.0432C105.972 10.5555 105.939 11.1091 105.939 11.704C105.939 12.3154 105.972 12.8938 106.038 13.4391C106.121 13.9844 106.261 14.4637 106.46 14.8768C106.658 15.2734 106.922 15.5874 107.253 15.8187C107.6 16.0501 108.038 16.1657 108.567 16.1657C109.046 16.1657 109.434 16.0583 109.732 15.8435C110.046 15.6287 110.285 15.3312 110.45 14.9511C110.632 14.5545 110.756 14.1001 110.822 13.5878C110.888 13.0756 110.921 12.522 110.921 11.9271C110.921 11.3157 110.88 10.7373 110.798 10.192C110.731 9.64664 110.599 9.16741 110.401 8.75429C110.203 8.34116 109.93 8.01893 109.583 7.78758C109.252 7.55623 108.823 7.44055 108.294 7.44055ZM121.967 8.23375C121.669 8.23375 121.372 8.30811 121.074 8.45684C120.777 8.60556 120.513 8.81213 120.281 9.07652C120.05 9.3244 119.86 9.63011 119.711 9.99366C119.562 10.3572 119.488 10.7621 119.488 11.2082V18H116.662V11.7536C116.662 10.7621 116.596 9.93582 116.464 9.27482C116.332 8.5973 116.191 8.05198 116.043 7.63885C115.861 7.15963 115.662 6.77129 115.448 6.47384L117.679 5.5815C117.827 5.76327 117.984 5.98636 118.149 6.25076C118.282 6.48211 118.414 6.75477 118.546 7.06874C118.678 7.38272 118.786 7.75453 118.868 8.18418C119.199 7.22573 119.678 6.53994 120.306 6.12682C120.934 5.69717 121.645 5.48235 122.438 5.48235C122.818 5.48235 123.173 5.53192 123.504 5.63107C123.834 5.7137 123.991 5.75501 123.975 5.75501L123.181 8.50641C123.198 8.50641 123.099 8.4651 122.884 8.38248C122.686 8.28333 122.38 8.23375 121.967 8.23375ZM124.095 12.1254C124.095 11.0182 124.244 10.0432 124.541 9.20046C124.855 8.35769 125.277 7.65538 125.806 7.09353C126.351 6.51516 126.987 6.08551 127.714 5.80458C128.441 5.50713 129.226 5.35841 130.069 5.35841C130.813 5.35841 131.441 5.4493 131.953 5.63107C132.482 5.81285 132.911 6.06072 133.242 6.3747C133.572 6.68867 133.812 7.06048 133.961 7.49013C134.126 7.91978 134.208 8.38248 134.208 8.87823C134.208 9.47312 134.043 10.0432 133.713 10.5886C133.382 11.1174 132.903 11.5883 132.275 12.0014C131.664 12.398 130.92 12.7203 130.044 12.9682C129.168 13.1995 128.185 13.3234 127.094 13.34C127.144 13.72 127.218 14.0836 127.318 14.4306C127.433 14.7611 127.59 15.0586 127.789 15.323C128.003 15.5708 128.276 15.7691 128.607 15.9179C128.937 16.0666 129.35 16.1409 129.846 16.1409C130.209 16.1409 130.598 16.0996 131.011 16.017C131.424 15.9344 131.804 15.8352 132.151 15.7196C132.564 15.5874 132.969 15.4386 133.366 15.2734L134.109 17.0333C133.68 17.2481 133.217 17.4382 132.721 17.6034C132.292 17.7521 131.796 17.8843 131.234 18C130.672 18.1157 130.077 18.1735 129.449 18.1735C128.491 18.1735 127.673 18.033 126.995 17.7521C126.318 17.4547 125.764 17.0416 125.335 16.5128C124.905 15.984 124.591 15.3477 124.393 14.6041C124.194 13.8605 124.095 13.0343 124.095 12.1254ZM129.846 7.29183C129.301 7.29183 128.846 7.42403 128.483 7.68843C128.136 7.9363 127.855 8.2668 127.64 8.67993C127.425 9.07652 127.268 9.53096 127.169 10.0432C127.086 10.539 127.037 11.043 127.02 11.5553C127.813 11.5222 128.483 11.4231 129.028 11.2578C129.59 11.076 130.044 10.8612 130.391 10.6133C130.738 10.3489 130.986 10.068 131.135 9.77057C131.3 9.47312 131.383 9.17567 131.383 8.87823C131.383 8.399 131.242 8.01893 130.961 7.738C130.68 7.44055 130.309 7.29183 129.846 7.29183Z" fill="#3A1C36"/>
</svg>
