<svg width="11" height="11" viewBox="0 0 11 11" fill="none" xmlns="http://www.w3.org/2000/svg">
<g clip-path="url(#clip0_1_3379)">
<path d="M7.65904 0H1.31427C0.633288 0.000881218 0.0814476 0.552722 0.0805664 1.23371V7.56385C0.0814476 8.24483 0.633288 8.79667 1.31427 8.79755H3.25295V8.44506H1.31427C0.827839 8.44449 0.433626 8.05028 0.433054 7.56385V4.58233H1.56489C1.66934 4.57469 1.74783 4.48384 1.74019 4.37937C1.73871 4.35923 1.73404 4.33945 1.72633 4.32079C1.56969 3.96434 1.73166 3.5484 2.08811 3.39176C2.44457 3.23513 2.8605 3.3971 3.01714 3.75355C3.09656 3.93429 3.09656 4.14005 3.01714 4.32079C2.9736 4.41186 3.01216 4.52098 3.10323 4.56451C3.12678 4.57577 3.15249 4.58185 3.17858 4.58236H4.31041V5.63982C4.25219 5.6299 4.19323 5.62501 4.13417 5.62519C3.55014 5.62499 3.07655 6.09827 3.07633 6.68228C3.07618 7.10304 3.3255 7.48383 3.71118 7.65199L3.85218 7.32911C3.49515 7.1738 3.33162 6.75848 3.48691 6.40145C3.59896 6.14385 3.85326 5.97737 4.13417 5.97768C4.2313 5.97765 4.32735 5.99794 4.41616 6.03725C4.50536 6.07617 4.60926 6.03542 4.64818 5.94622C4.65788 5.92401 4.66288 5.90004 4.6629 5.87581V4.58233H5.5591C5.54907 4.64054 5.54405 4.69951 5.54412 4.75858C5.54518 5.26074 5.8983 5.69333 6.39009 5.79489L6.46058 5.44963C6.13273 5.3818 5.89733 5.09337 5.89661 4.75858C5.89658 4.66144 5.91687 4.56539 5.95618 4.47659C5.9951 4.38739 5.95435 4.28349 5.86515 4.24456C5.84294 4.23487 5.81897 4.22987 5.79474 4.22985H4.6629V3.33365C4.7211 3.34367 4.78008 3.34869 4.83914 3.34863C5.42317 3.34863 5.89661 2.87519 5.89661 2.29117C5.89661 1.70714 5.42317 1.23371 4.83914 1.23371C4.78008 1.23364 4.7211 1.23866 4.6629 1.24869V0.352487H7.65904C8.14547 0.35306 8.53969 0.747273 8.54026 1.23371V4.22985H7.40842C7.31109 4.22989 7.23222 4.30885 7.23227 4.40618C7.23229 4.43041 7.23729 4.45438 7.24698 4.47659C7.28629 4.56539 7.30658 4.66144 7.30655 4.75858H7.65904C7.65911 4.69951 7.65408 4.64054 7.64406 4.58233H8.7165C8.81383 4.58233 8.89275 4.50342 8.89275 4.40609V1.23371C8.89186 0.552722 8.34002 0.000881218 7.65904 0ZM4.83914 1.58619C5.22849 1.58619 5.54412 1.90182 5.54412 2.29117C5.54412 2.68051 5.22849 2.99614 4.83914 2.99614C4.74201 2.99616 4.64596 2.97587 4.55715 2.93657C4.46795 2.89764 4.36406 2.9384 4.32513 3.0276C4.31544 3.04981 4.31043 3.07378 4.31041 3.09801V4.21522H3.41545C3.42428 4.16179 3.42886 4.10775 3.42919 4.0536C3.42919 4.05043 3.42919 4.04761 3.42919 4.04444C3.42919 4.04127 3.42919 4.04074 3.42919 4.03897C3.42919 3.45495 2.95576 2.98151 2.37173 2.98151C1.78771 2.98151 1.31427 3.45495 1.31427 4.03897C1.31427 4.04074 1.31427 4.04268 1.31427 4.04444C1.31427 4.0462 1.31427 4.05043 1.31427 4.0536C1.3146 4.10775 1.31918 4.16179 1.32802 4.21522H0.433054V1.23371C0.433626 0.747273 0.827839 0.35306 1.31427 0.352487H4.31041V1.48432C4.31046 1.58165 4.38941 1.66052 4.48674 1.66048C4.51098 1.66046 4.53495 1.65546 4.55715 1.64576C4.64596 1.60646 4.74201 1.58617 4.83914 1.58619Z" fill="white"/>
<path d="M10.2781 7.57522L8.79643 6.55495L8.22734 5.03449C8.1934 4.94326 8.09192 4.89685 8.0007 4.93079C7.99743 4.93201 7.9942 4.93333 7.991 4.93474L6.84542 5.44144C6.75954 5.47935 6.71848 5.57794 6.75201 5.66562C6.77104 5.71497 6.78884 5.75233 6.8077 5.79111C6.82656 5.82988 6.84401 5.86619 6.86533 5.92346C7.00214 6.28902 6.81795 6.69645 6.4531 6.83517C6.08843 6.97156 5.68223 6.78653 5.54582 6.42184C5.51161 6.33037 5.49678 6.23279 5.50227 6.13531C5.50738 6.03811 5.43272 5.95517 5.33552 5.95006C5.31115 5.94878 5.28681 5.95257 5.26398 5.96118L4.03944 6.42241C3.94852 6.45667 3.90248 6.55805 3.93652 6.64906L4.37607 7.82337C4.3178 7.83399 4.26059 7.84979 4.20511 7.8706C3.65666 8.07498 3.37776 8.68527 3.58214 9.23372C3.78651 9.78216 4.3968 10.0611 4.94525 9.85669C5.00171 9.83565 5.05628 9.80983 5.10836 9.7795L5.42349 10.6212C5.45763 10.7124 5.55919 10.7586 5.65035 10.7244C5.65046 10.7244 5.65055 10.7244 5.65066 10.7243L7.39688 10.0664C7.50657 10.3022 7.70842 10.4824 7.95505 10.5648L8.06643 10.23C7.92116 10.181 7.80044 10.0779 7.72946 9.94199L8.26083 9.74196C8.43538 10.2329 8.90035 10.5606 9.42139 10.5599V10.2074C8.93595 10.2044 8.54315 9.81164 8.54018 9.3262C8.54018 9.27945 8.52158 9.23464 8.48854 9.20159L7.87486 8.58792C7.78387 8.49614 7.7736 8.35166 7.85071 8.24794C7.89561 8.18734 7.96492 8.14958 8.04017 8.14466C8.11554 8.13832 8.18976 8.16608 8.2425 8.22027L9.47303 9.4508L9.72224 9.20159L9.35812 8.83748C9.44783 8.56921 9.4423 8.27821 9.34244 8.01354L9.01216 7.13144L10.0772 7.86479C10.2184 7.96388 10.3025 8.12552 10.3026 8.29799V10.5745H10.6551V8.29799C10.6549 8.00999 10.5141 7.74023 10.2781 7.57522ZM9.01233 8.13708C9.06102 8.26649 9.07864 8.4055 9.0638 8.54297L8.49171 7.97106C8.25557 7.72888 7.86783 7.72401 7.62565 7.96014C7.38347 8.19628 7.3786 8.58402 7.61472 8.8262C7.61831 8.82988 7.62195 8.83353 7.62565 8.83712L8.18311 9.39458L5.69243 10.3327L5.35651 9.43512C5.33561 9.37934 5.28793 9.33792 5.22979 9.32497C5.21724 9.32219 5.20441 9.32076 5.19155 9.32074C5.14544 9.32069 5.10116 9.33874 5.06818 9.37097C4.78517 9.63835 4.33897 9.62568 4.07159 9.34266C3.8042 9.05965 3.81687 8.61345 4.0999 8.34607C4.16647 8.28317 4.24464 8.23386 4.33007 8.20086C4.38618 8.18007 4.44478 8.1668 4.50437 8.16138C4.54103 8.15689 4.578 8.15566 4.61488 8.15768C4.71208 8.16277 4.79502 8.08811 4.80011 7.99091C4.80139 7.96674 4.79767 7.94258 4.78918 7.91993L4.32884 6.69081L5.16811 6.3748C5.27826 6.94834 5.8325 7.32398 6.40604 7.21385C6.46464 7.2026 6.52219 7.1864 6.57806 7.16543C7.12457 6.95808 7.40081 6.34812 7.19614 5.8006C7.17993 5.75724 7.1653 5.72288 7.1512 5.69221L7.96192 5.3332L9.01233 8.13708Z" fill="white"/>
</g>
<defs>
<clipPath id="clip0_1_3379">
<rect width="10.7358" height="10.7358" fill="white"/>
</clipPath>
</defs>
</svg>
