<svg width="12" height="12" viewBox="0 0 12 12" fill="none" xmlns="http://www.w3.org/2000/svg">
<g clip-path="url(#clip0_1_3339)">
<path d="M4.84564 4.58887H3.31609C3.17431 4.58887 3.05933 4.70382 3.05933 4.84563V6.37518C3.05933 6.517 3.17431 6.63195 3.31609 6.63195H4.84564C4.98743 6.63195 5.10241 6.517 5.10241 6.37518V4.84563C5.10241 4.70382 4.98743 4.58887 4.84564 4.58887ZM4.58888 6.11842H3.57286V5.1024H4.58888V6.11842Z" fill="white"/>
<path d="M7.9047 4.58887H6.37517C6.23339 4.58887 6.11841 4.70382 6.11841 4.84563V6.37518C6.11841 6.517 6.23339 6.63195 6.37517 6.63195H7.9047C8.04649 6.63195 8.16147 6.517 8.16147 6.37518V4.84563C8.16147 4.70382 8.04651 4.58887 7.9047 4.58887ZM7.64793 6.11842H6.63194V5.1024H7.64793V6.11842Z" fill="white"/>
<path d="M10.9641 6.11818H9.69136V3.3161C9.69136 3.17429 9.57638 3.05934 9.43459 3.05934H8.16155V1.78655C8.16155 1.64474 8.04657 1.52979 7.90478 1.52979H3.31613C3.17434 1.52979 3.05936 1.64474 3.05936 1.78655V3.05934H1.78632C1.64453 3.05934 1.52955 3.17429 1.52955 3.3161V6.11818H0.256766C0.11498 6.11818 0 6.23314 0 6.37495V9.43457C0 9.57638 0.11498 9.69133 0.256766 9.69133H1.78629C1.92808 9.69133 2.04306 9.57638 2.04306 9.43457V8.16152H3.05934V9.43457C3.05934 9.57638 3.17431 9.69133 3.3161 9.69133H4.84565C4.98744 9.69133 5.10242 9.57638 5.10242 9.43457V8.16152H6.11844V9.43457C6.11844 9.57638 6.23342 9.69133 6.37521 9.69133H7.90473C8.04652 9.69133 8.1615 9.57638 8.1615 9.43457V8.16152H9.17777V9.43457C9.17777 9.57638 9.29275 9.69133 9.43454 9.69133H10.9641C11.1059 9.69133 11.2209 9.57638 11.2209 9.43457V6.37495C11.2209 6.23314 11.1059 6.11818 10.9641 6.11818ZM10.7074 9.1778H9.69136V7.90476C9.69136 7.76295 9.57638 7.64799 9.43459 7.64799H7.90478C7.763 7.64799 7.64802 7.76295 7.64802 7.90476V9.1778H6.632V7.90476C6.632 7.76295 6.51702 7.64799 6.37523 7.64799H4.84568C4.70389 7.64799 4.58891 7.76295 4.58891 7.90476V9.1778H3.57289V7.90476C3.57289 7.76295 3.45791 7.64799 3.31613 7.64799H1.78632C1.64453 7.64799 1.52955 7.76295 1.52955 7.90476V9.1778H0.513531V6.63172H1.78629C1.92808 6.63172 2.04306 6.51676 2.04306 6.37495V3.57287H3.3161C3.45789 3.57287 3.57287 3.45791 3.57287 3.3161V2.04332H7.64799V3.3161C7.64799 3.45791 7.76297 3.57287 7.90476 3.57287H9.1778V6.37495C9.1778 6.51676 9.29278 6.63172 9.43457 6.63172H10.7074V9.1778H10.7074Z" fill="white"/>
</g>
<defs>
<clipPath id="clip0_1_3339">
<rect width="11.2209" height="11.2209" fill="white"/>
</clipPath>
</defs>
</svg>
