<svg width="16" height="17" viewBox="0 0 16 17" fill="none" xmlns="http://www.w3.org/2000/svg">
<path fill-rule="evenodd" clip-rule="evenodd" d="M2.575 13.15V6.95H1.025V13.15C1.025 14.8621 2.41292 16.25 4.125 16.25H11.875C13.5871 16.25 14.975 14.8621 14.975 13.15V6.95H13.425V13.15C13.425 14.006 12.731 14.7 11.875 14.7H10.325V12.375C10.325 11.0909 9.28406 10.05 8 10.05C6.71594 10.05 5.675 11.0909 5.675 12.375V14.7H4.125C3.26896 14.7 2.575 14.006 2.575 13.15ZM7.225 14.7H8.775V12.375C8.775 11.947 8.42802 11.6 8 11.6C7.57198 11.6 7.225 11.947 7.225 12.375V14.7Z" fill="#3A1C36"/>
<path fill-rule="evenodd" clip-rule="evenodd" d="M4.5943 0.75C3.31305 0.75 2.05032 1.38849 1.35605 2.57142C1.13367 2.95033 0.882254 3.40328 0.68167 3.83608C0.581565 4.05208 0.48285 4.28705 0.406519 4.52103C0.338036 4.73096 0.25 5.05007 0.25 5.4C0.25 6.01779 0.401441 6.80166 0.94832 7.45791C1.53664 8.16389 2.396 8.5 3.35 8.5C4.25567 8.5 4.95751 8.07767 5.40794 7.70064C5.56154 7.57208 5.78846 7.57208 5.94206 7.70064C6.39249 8.07767 7.09433 8.5 8 8.5C8.90567 8.5 9.60751 8.07768 10.0579 7.70064C10.2115 7.57208 10.4385 7.57208 10.5921 7.70064C11.0425 8.07768 11.7443 8.5 12.65 8.5C13.604 8.5 14.4634 8.16389 15.0517 7.45791C15.5986 6.80166 15.75 6.01779 15.75 5.4C15.75 5.05007 15.662 4.73096 15.5935 4.52103C15.5171 4.28705 15.4184 4.05208 15.3183 3.83608C15.1177 3.40328 14.8663 2.95033 14.6439 2.57142C13.9497 1.38849 12.6869 0.75 11.4057 0.75H4.5943ZM4.5943 2.3C3.81693 2.3 3.08631 2.68555 2.69283 3.35598C2.27033 4.07585 1.8 4.97309 1.8 5.4C1.8 6.175 2.1875 6.95 3.35 6.95C4.16508 6.95 4.78967 6.18801 5.09019 5.73256C5.22098 5.53434 5.43751 5.4 5.675 5.4C5.91249 5.4 6.12901 5.53434 6.25981 5.73256C6.56033 6.18801 7.18492 6.95 8 6.95C8.81508 6.95 9.43967 6.18801 9.74019 5.73256C9.87099 5.53434 10.0875 5.4 10.325 5.4C10.5625 5.4 10.779 5.53434 10.9098 5.73256C11.2103 6.18801 11.8349 6.95 12.65 6.95C13.8125 6.95 14.2 6.175 14.2 5.4C14.2 4.97309 13.7297 4.07585 13.3072 3.35598C12.9137 2.68555 12.1831 2.3 11.4057 2.3H4.5943Z" fill="#3A1C36"/>
</svg>
