<svg width="13" height="12" viewBox="0 0 13 12" fill="none" xmlns="http://www.w3.org/2000/svg">
<g clip-path="url(#clip0_9_1927)">
<path fill-rule="evenodd" clip-rule="evenodd" d="M11.3168 6.78524C11.3168 4.9323 9.8147 3.4302 7.96176 3.4302L2.40858 3.4302L3.50755 4.52916C3.69472 4.71634 3.69472 5.01981 3.50755 5.20699C3.32037 5.39416 3.0169 5.39416 2.82972 5.20699L0.912553 3.28982C0.822668 3.19993 0.772172 3.07802 0.772172 2.9509C0.772172 2.82379 0.822668 2.70188 0.912553 2.61199L2.82972 0.694825C3.0169 0.507649 3.32037 0.507649 3.50755 0.694825C3.69472 0.882 3.69472 1.18547 3.50755 1.37265L2.40858 2.47161L7.96176 2.47161C10.3441 2.47161 12.2754 4.40289 12.2754 6.78524C12.2754 9.1676 10.3441 11.0989 7.96176 11.0989L3.16863 11.0989C2.90393 11.0989 2.68934 10.8843 2.68934 10.6196C2.68934 10.3549 2.90393 10.1403 3.16863 10.1403L7.96176 10.1403C9.8147 10.1403 11.3168 8.63819 11.3168 6.78524Z" fill="white"/>
</g>
<defs>
<clipPath id="clip0_9_1927">
<rect width="11.503" height="11.503" fill="white" transform="translate(0.771484 0.0751953)"/>
</clipPath>
</defs>
</svg>
