<svg width="16" height="16" viewBox="0 0 16 16" fill="none" xmlns="http://www.w3.org/2000/svg">
<path fill-rule="evenodd" clip-rule="evenodd" d="M8.55749 7.802C8.55749 8.21958 8.21897 8.5581 7.80139 8.5581L1.38569 8.5581C0.968109 8.5581 0.629592 8.21958 0.629592 7.802C0.629592 7.38442 0.968109 7.0459 1.38569 7.0459L7.04529 7.0459L7.04529 1.3863C7.04529 0.96872 7.38381 0.630204 7.80139 0.630204C8.21897 0.630203 8.55749 0.96872 8.55749 1.3863L8.55749 7.802Z" fill="white"/>
<path d="M14.3276 7.15641L7.9119 7.15641C7.49432 7.15641 7.1558 7.49493 7.1558 7.91251L7.1558 14.3282C7.1558 14.7458 7.49432 15.0843 7.9119 15.0843C8.32948 15.0843 8.668 14.7458 8.668 14.3282L8.668 8.66861L14.3276 8.66861C14.7452 8.66861 15.0837 8.33009 15.0837 7.91251C15.0837 7.49493 14.7452 7.15641 14.3276 7.15641Z" fill="white"/>
</svg>
