<svg width="149" height="19" viewBox="0 0 149 19" fill="none" xmlns="http://www.w3.org/2000/svg">
<path d="M13.7151 5.9406C13.3197 5.21572 12.776 4.66382 12.0841 4.28491C11.3922 3.90599 10.5849 3.71653 9.66235 3.71653C8.64092 3.71653 7.73482 3.94718 6.94404 4.40846C6.15326 4.86975 5.53546 5.52874 5.09065 6.38541C4.64583 7.24209 4.42343 8.23057 4.42343 9.35084C4.42343 10.5041 4.64583 11.509 5.09065 12.3657C5.55194 13.2224 6.18621 13.8814 6.99346 14.3426C7.80072 14.8039 8.73977 15.0346 9.81062 15.0346C11.1286 15.0346 12.2077 14.6886 13.0479 13.9967C13.8881 13.2883 14.44 12.308 14.7036 11.056H8.77272V8.41179L18.1138 8.41179L18.1138 11.4266C17.8832 12.6293 17.3889 13.7413 16.6311 14.7627C15.8733 15.7842 14.893 16.6079 13.6904 17.2339C12.5042 17.8435 11.1698 18.1483 9.68706 18.1483C8.02312 18.1483 6.5157 17.7776 5.16478 17.0362C3.83034 16.2784 2.77597 15.2323 2.00166 13.8978C1.24383 12.5634 0.864916 11.0477 0.864916 9.35084C0.864916 7.65396 1.24383 6.1383 2.00166 4.80385C2.77597 3.45294 3.83034 2.4068 5.16478 1.66545C6.5157 0.907615 8.01489 0.528699 9.66235 0.528699C11.6063 0.528699 13.295 1.00646 14.7283 1.96199C16.1616 2.90104 17.15 4.22724 17.6937 5.9406L13.7151 5.9406ZM24.1331 15.257H29.8168V18H20.6734L20.6734 0.751106L24.1331 0.751106L24.1331 15.257ZM42.5925 14.7133H35.7226L34.5858 18L30.9532 18L37.1559 0.726393L41.1839 0.726393L47.3866 18H43.7292L42.5925 14.7133ZM41.6534 11.9456L39.1575 4.72972L36.6616 11.9456L41.6534 11.9456ZM55.6606 18.173C54.458 18.173 53.3706 17.9671 52.3986 17.5552C51.4431 17.1433 50.6853 16.5502 50.1252 15.7759C49.565 15.0016 49.2767 14.0873 49.2602 13.0329L52.967 13.0329C53.0164 13.7413 53.2636 14.3015 53.7084 14.7133C54.1697 15.1252 54.7957 15.3311 55.5865 15.3311C56.3937 15.3311 57.028 15.1417 57.4893 14.7627C57.9506 14.3674 58.1812 13.8566 58.1812 13.2306C58.1812 12.7199 58.0247 12.2998 57.7117 11.9703C57.3987 11.6408 57.0033 11.3855 56.5255 11.2042C56.0642 11.0065 55.4217 10.7924 54.598 10.5617C53.4777 10.2322 52.5634 9.91098 51.855 9.59796C51.1631 9.26847 50.5617 8.78247 50.051 8.13996C49.5568 7.48098 49.3097 6.60782 49.3097 5.5205C49.3097 4.49907 49.565 3.60945 50.0757 2.85162C50.5864 2.09378 51.3031 1.51717 52.2257 1.12178C53.1482 0.70992 54.2026 0.503988 55.3888 0.503988C57.168 0.503988 58.6096 0.940564 59.7134 1.81372C60.8336 2.6704 61.4514 3.87304 61.5668 5.42165L57.7611 5.42165C57.7282 4.82857 57.4728 4.34257 56.9951 3.96365C56.5338 3.56826 55.916 3.37057 55.1417 3.37057C54.4662 3.37057 53.9225 3.54355 53.5107 3.88951C53.1153 4.23548 52.9176 4.73796 52.9176 5.39694C52.9176 5.85823 53.0659 6.24538 53.3624 6.5584C53.6754 6.85494 54.0543 7.10206 54.4992 7.29975C54.9604 7.48098 55.603 7.69514 56.4267 7.94226C57.547 8.27176 58.4613 8.60125 59.1697 8.93074C59.8781 9.26023 60.4877 9.75447 60.9984 10.4135C61.5091 11.0724 61.7645 11.9374 61.7645 13.0082C61.7645 13.9308 61.5256 14.7875 61.0478 15.5782C60.57 16.369 59.8699 17.0033 58.9473 17.4811C58.0247 17.9423 56.9292 18.173 55.6606 18.173ZM70.7194 18.173C69.5168 18.173 68.4295 17.9671 67.4574 17.5552C66.5019 17.1433 65.7441 16.5502 65.184 15.7759C64.6238 15.0016 64.3355 14.0873 64.319 13.0329H68.0258C68.0752 13.7413 68.3224 14.3015 68.7672 14.7133C69.2285 15.1252 69.8545 15.3311 70.6453 15.3311C71.4525 15.3311 72.0868 15.1417 72.5481 14.7627C73.0094 14.3674 73.24 13.8566 73.24 13.2306C73.24 12.7199 73.0835 12.2998 72.7705 11.9703C72.4575 11.6408 72.0621 11.3855 71.5843 11.2042C71.123 11.0065 70.4805 10.7924 69.6568 10.5617C68.5365 10.2322 67.6222 9.91098 66.9138 9.59796C66.2219 9.26847 65.6205 8.78247 65.1098 8.13996C64.6156 7.48098 64.3685 6.60782 64.3685 5.5205C64.3685 4.49907 64.6238 3.60945 65.1345 2.85162C65.6452 2.09378 66.3619 1.51717 67.2845 1.12178C68.207 0.70992 69.2614 0.503988 70.4476 0.503988C72.2268 0.503988 73.6684 0.940564 74.7722 1.81372C75.8924 2.6704 76.5102 3.87304 76.6256 5.42165L72.8199 5.42165C72.787 4.82857 72.5316 4.34257 72.0539 3.96365C71.5926 3.56826 70.9748 3.37057 70.2005 3.37057C69.525 3.37057 68.9813 3.54355 68.5695 3.88951C68.1741 4.23548 67.9764 4.73796 67.9764 5.39694C67.9764 5.85823 68.1247 6.24538 68.4212 6.5584C68.7342 6.85494 69.1131 7.10206 69.558 7.29975C70.0192 7.48098 70.6618 7.69514 71.4855 7.94226C72.6058 8.27176 73.5201 8.60125 74.2285 8.93074C74.9369 9.26023 75.5465 9.75447 76.0572 10.4135C76.5679 11.0724 76.8233 11.9374 76.8233 13.0082C76.8233 13.9308 76.5844 14.7875 76.1066 15.5782C75.6288 16.369 74.9287 17.0033 74.0061 17.4811C73.0835 17.9423 71.988 18.173 70.7194 18.173ZM102.879 0.751106L98.06 18H93.9826L90.7453 5.71819L87.3598 18L83.307 18.0247L78.6612 0.751106L82.368 0.751106L85.4075 14.1449L88.9166 0.751106L92.7717 0.751106L96.0831 14.0708L99.1473 0.751106L102.879 0.751106ZM108.598 3.54355V7.86813H114.405V10.6111H108.598V15.1828H115.146V18H105.138V0.726393L115.146 0.726393V3.54355L108.598 3.54355ZM128.867 14.7133H121.997L120.86 18H117.228L123.43 0.726393L127.458 0.726393L133.661 18H130.004L128.867 14.7133ZM127.928 11.9456L125.432 4.72972L122.936 11.9456L127.928 11.9456ZM144.876 18L141.07 11.2784H139.439V18H135.979V0.751106L142.454 0.751106C143.788 0.751106 144.925 0.989988 145.864 1.46775C146.803 1.92904 147.503 2.56331 147.965 3.37057C148.442 4.16135 148.681 5.05097 148.681 6.03945C148.681 7.1762 148.352 8.20586 147.693 9.12843C147.034 10.0345 146.054 10.6606 144.752 11.0065L148.879 18H144.876ZM139.439 8.68362H142.33C143.269 8.68362 143.97 8.46121 144.431 8.0164C144.892 7.55511 145.123 6.92084 145.123 6.11358C145.123 5.3228 144.892 4.71324 144.431 4.28491C143.97 3.84009 143.269 3.61768 142.33 3.61768L139.439 3.61768V8.68362Z" fill="black"/>
</svg>
