<svg width="126" height="15" viewBox="0 0 126 15" fill="none" xmlns="http://www.w3.org/2000/svg">
<path d="M13.3245 14H11.4532V12.241C10.4303 13.5634 8.95193 14.2246 7.01826 14.2246C5.59607 14.2246 4.37349 13.9189 3.35051 13.3076C2.32754 12.6963 1.54783 11.8605 1.01139 10.8001C0.487428 9.7272 0.225446 8.51086 0.225446 7.15105C0.225446 5.79124 0.487428 4.57489 1.01139 3.50202C1.54783 2.42914 2.32754 1.58705 3.35051 0.975764C4.37349 0.364473 5.59607 0.0588271 7.01826 0.0588271C8.44045 0.0588271 9.66303 0.364473 10.686 0.975764C11.709 1.58705 12.4887 2.43538 13.0251 3.52073L10.7983 4.15697C10.0123 2.65993 8.75233 1.91141 7.01826 1.91141C5.98281 1.91141 5.12825 2.15468 4.45458 2.64122C3.78091 3.12776 3.28814 3.77024 2.97625 4.56866C2.66437 5.3546 2.50843 6.2154 2.50843 7.15105C2.50843 8.0867 2.66437 8.94749 2.97625 9.73344C3.28814 10.5194 3.78091 11.1556 4.45458 11.6422C5.12825 12.1287 5.98281 12.372 7.01826 12.372C8.19094 12.372 9.15778 12.0351 9.91877 11.3615C10.6922 10.6753 11.2037 9.79582 11.4532 8.72294V8.44224H6.75628V6.6458H13.3245V14ZM18.3607 0.283383L18.3607 12.1848L27.5862 12.1848V14H16.321L16.321 0.283383H18.3607ZM41.2785 14H38.8833L37.4236 9.92057L31.9969 9.92057L30.5373 14H28.142L33.4003 0.283383L36.0202 0.283383L41.2785 14ZM34.7103 2.3231L32.6518 8.10541L36.7687 8.10541L34.7103 2.3231ZM48.1677 14.2246C46.496 14.2246 45.1736 13.9376 44.2005 13.3638C43.2399 12.7774 42.5475 12.0726 42.1234 11.2492L43.8263 9.958C44.6122 11.5548 46.0843 12.3533 48.2425 12.3533C49.1033 12.3533 49.8331 12.1973 50.4319 11.8854C51.0432 11.5735 51.3489 11.0745 51.3489 10.3884C51.3489 9.87691 51.1742 9.4777 50.8249 9.19076C50.4881 8.90383 49.9641 8.64809 49.253 8.42353C48.6043 8.22393 48.1989 8.10541 48.0367 8.06798C46.9638 7.7561 46.1903 7.51283 45.7163 7.33818C44.5186 6.88907 43.7265 6.37134 43.3397 5.785C42.953 5.19866 42.7596 4.58737 42.7596 3.95113C42.7596 3.42716 42.9218 2.86577 43.2462 2.26696C43.583 1.65567 44.1069 1.13794 44.818 0.713782C45.5416 0.277145 46.4461 0.0588271 47.5314 0.0588271C48.7415 0.0588271 49.752 0.221006 50.5629 0.545365C51.3738 0.869724 52.1598 1.41864 52.9208 2.19211L51.0308 3.44588C50.2698 2.46033 49.1595 1.96755 47.6998 1.96755C46.9513 1.96755 46.3712 2.07983 45.9595 2.30439C45.5603 2.52894 45.2921 2.77845 45.1549 3.0529C45.0301 3.32736 44.9677 3.57063 44.9677 3.78271C44.9677 4.23182 45.1424 4.59361 45.4917 4.86806C45.841 5.14252 46.3587 5.39203 47.0449 5.61658C47.1073 5.64153 47.5876 5.785 48.4858 6.04698C49.0472 6.19669 49.6273 6.3651 50.2261 6.55223C51.536 6.98887 52.4093 7.54402 52.8459 8.21769C53.295 8.89136 53.5196 9.54007 53.5196 10.1638C53.5196 10.8375 53.3574 11.48 53.033 12.0913C52.7212 12.7026 52.166 13.2141 51.3676 13.6257C50.5816 14.025 49.515 14.2246 48.1677 14.2246ZM61.1973 14.2246C59.5256 14.2246 58.2032 13.9376 57.2302 13.3638C56.2696 12.7774 55.5772 12.0726 55.153 11.2492L56.8559 9.958C57.6418 11.5548 59.1139 12.3533 61.2722 12.3533C62.133 12.3533 62.8628 12.1973 63.4616 11.8854C64.0729 11.5735 64.3785 11.0745 64.3785 10.3884C64.3785 9.87691 64.2039 9.4777 63.8546 9.19076C63.5177 8.90383 62.9938 8.64809 62.2827 8.42353C61.634 8.22393 61.2285 8.10541 61.0663 8.06798C59.9934 7.7561 59.22 7.51283 58.7459 7.33818C57.5483 6.88907 56.7561 6.37134 56.3694 5.785C55.9826 5.19866 55.7893 4.58737 55.7893 3.95113C55.7893 3.42716 55.9514 2.86577 56.2758 2.26696C56.6126 1.65567 57.1366 1.13794 57.8477 0.713782C58.5713 0.277145 59.4757 0.0588271 60.5611 0.0588271C61.7712 0.0588271 62.7817 0.221006 63.5926 0.545365C64.4035 0.869724 65.1894 1.41864 65.9504 2.19211L64.0604 3.44588C63.2994 2.46033 62.1891 1.96755 60.7295 1.96755C59.981 1.96755 59.4009 2.07983 58.9892 2.30439C58.59 2.52894 58.3218 2.77845 58.1845 3.0529C58.0598 3.32736 57.9974 3.57063 57.9974 3.78271C57.9974 4.23182 58.172 4.59361 58.5214 4.86806C58.8707 5.14252 59.3884 5.39203 60.0745 5.61658C60.1369 5.64153 60.6172 5.785 61.5154 6.04698C62.0768 6.19669 62.6569 6.3651 63.2557 6.55223C64.5657 6.98887 65.4389 7.54402 65.8756 8.21769C66.3247 8.89136 66.5492 9.54007 66.5492 10.1638C66.5492 10.8375 66.387 11.48 66.0627 12.0913C65.7508 12.7026 65.1957 13.2141 64.3972 13.6257C63.6113 14.025 62.5446 14.2246 61.1973 14.2246ZM80.4958 10.4258L83.2466 0.283383L85.436 0.283383L81.5063 14H79.5227L76.6035 3.83885L73.6843 14H71.7007L67.7523 0.283383L69.9604 0.283383L72.7112 10.4258L75.5743 0.283383L77.6327 0.283383L80.4958 10.4258ZM98.2405 0.283383V2.07983L89.5577 2.07983V5.99084L95.0219 5.99084V7.78729L89.5577 7.78729V12.2036L98.2405 12.2036V14L87.518 14V0.283383L98.2405 0.283383ZM112.384 14H109.989L108.529 9.92057H103.103L101.643 14H99.2477L104.506 0.283383L107.126 0.283383L112.384 14ZM105.816 2.3231L103.758 8.10541H107.874L105.816 2.3231ZM125.879 14H123.446L119.685 8.27383H118.974H116.092V14H114.052V0.283383L118.974 0.283383L121.032 0.283383C122.305 0.283383 123.347 0.607742 124.157 1.25646C124.968 1.8927 125.374 2.89696 125.374 4.26925C125.374 5.4544 125.062 6.3651 124.438 7.00134C123.814 7.62511 122.985 8.01808 121.949 8.18026L125.879 14ZM116.092 2.07983V6.45867H119.872C120.571 6.45867 121.151 6.42124 121.612 6.34639C122.087 6.27154 122.486 6.07193 122.81 5.74757C123.147 5.42322 123.315 4.93044 123.315 4.26925C123.315 3.60806 123.147 3.11528 122.81 2.79092C122.486 2.46657 122.087 2.26696 121.612 2.19211C121.151 2.11726 120.571 2.07983 119.872 2.07983L116.092 2.07983Z" fill="white"/>
</svg>
