<svg width="9" height="9" viewBox="0 0 9 9" fill="none" xmlns="http://www.w3.org/2000/svg">
<path fill-rule="evenodd" clip-rule="evenodd" d="M4.67112 4.24243C4.67112 4.47912 4.47924 4.67099 4.24255 4.67099L0.606079 4.67099C0.36939 4.67099 0.177516 4.47912 0.177517 4.24243C0.177516 4.00574 0.36939 3.81387 0.606079 3.81387L3.81399 3.81387L3.81399 0.605958C3.81399 0.369269 4.00586 0.177395 4.24255 0.177396C4.47924 0.177395 4.67112 0.369269 4.67112 0.605958L4.67112 4.24243Z" fill="white"/>
<path d="M7.94165 3.87649L4.30518 3.87649C4.06849 3.87649 3.87661 4.06837 3.87661 4.30505L3.87661 7.94153C3.87661 8.17822 4.06849 8.37009 4.30518 8.37009C4.54186 8.37009 4.73374 8.17822 4.73374 7.94153L4.73374 4.73362H7.94165C8.17834 4.73362 8.37021 4.54174 8.37021 4.30505C8.37021 4.06837 8.17834 3.87649 7.94165 3.87649Z" fill="white"/>
</svg>
