<svg width="66" height="13" viewBox="0 0 66 13" fill="none" xmlns="http://www.w3.org/2000/svg">
<path d="M0.913987 4.82425C0.951311 4.69081 1.05063 4.59359 1.17018 4.57342L4.52856 4.00673L6.0305 0.473002C6.08397 0.347207 6.19429 0.267578 6.3151 0.267578C6.4359 0.267578 6.54624 0.347232 6.59971 0.473002L8.10174 4.00675L11.4601 4.57342C11.5796 4.59359 11.6789 4.69084 11.7162 4.82425C11.7536 4.95766 11.7224 5.10412 11.6359 5.20202L9.20589 7.95268L9.77947 11.8367C9.79989 11.9749 9.75092 12.1147 9.65319 12.1971C9.55548 12.2795 9.42594 12.2904 9.31894 12.2252L6.31513 10.3914L3.31139 12.2252C3.26495 12.2535 3.21425 12.2675 3.16372 12.2675C3.09792 12.2675 3.03241 12.2438 2.97715 12.1971C2.87941 12.1147 2.83045 11.9749 2.85087 11.8367L3.42461 7.95268L0.994305 5.20205C0.907787 5.10412 0.876641 4.95766 0.913987 4.82425ZM3.98716 7.56009C4.06198 7.64475 4.09613 7.76676 4.07844 7.88632L3.58521 11.2252L6.16739 9.64882C6.25986 9.59238 6.37033 9.59238 6.46279 9.64882L9.04513 11.2253L8.55204 7.88629C8.53439 7.76674 8.56852 7.64478 8.6433 7.56011L10.7323 5.19546L7.84531 4.70828C7.74193 4.69084 7.6526 4.61546 7.60635 4.50669L6.31513 1.4688L5.02395 4.50666C4.97769 4.61543 4.88836 4.69084 4.78498 4.70828L1.89792 5.19544L3.98716 7.56009Z" fill="#00A76B"/>
<path d="M4.74404 4.13799L5.94252 1.7026C6.1048 1.37282 6.51607 1.37884 6.67115 1.71326L7.68619 3.90217C7.74177 4.02203 7.83827 4.10915 7.952 4.14217L10.4628 4.87104C10.7608 4.95756 10.8785 5.3761 10.6818 5.65015L9.13924 7.7996C9.06538 7.90253 9.03157 8.03641 9.04589 8.16935L9.34661 10.9629C9.38726 11.3405 9.05393 11.6223 8.75696 11.4614L6.49131 10.2336C6.37963 10.1731 6.25059 10.1731 6.13891 10.2336L3.92536 11.4331C3.61795 11.5997 3.27711 11.2927 3.33963 10.9055L3.7746 8.21178C3.79995 8.05481 3.75695 7.89342 3.6597 7.78049L1.87368 5.7066C1.63675 5.43148 1.76219 4.96065 2.09152 4.88894L4.45905 4.37348C4.5792 4.34732 4.68339 4.26123 4.74404 4.13799Z" fill="#00A76B"/>
<path d="M14.455 4.82425C14.4923 4.69081 14.5916 4.59359 14.7112 4.57342L18.0696 4.00673L19.5715 0.473002C19.625 0.347207 19.7353 0.267578 19.8561 0.267578C19.9769 0.267578 20.0873 0.347232 20.1407 0.473002L21.6428 4.00675L25.0011 4.57342C25.1206 4.59359 25.2199 4.69084 25.2573 4.82425C25.2946 4.95766 25.2635 5.10412 25.177 5.20202L22.7469 7.95268L23.3205 11.8367C23.3409 11.9749 23.2919 12.1147 23.1942 12.1971C23.0965 12.2795 22.967 12.2904 22.86 12.2252L19.8561 10.3914L16.8524 12.2252C16.806 12.2535 16.7553 12.2675 16.7047 12.2675C16.6389 12.2675 16.5734 12.2438 16.5182 12.1971C16.4204 12.1147 16.3715 11.9749 16.3919 11.8367L16.9656 7.95268L14.5353 5.20205C14.4488 5.10412 14.4177 4.95766 14.455 4.82425ZM17.5282 7.56009C17.603 7.64475 17.6371 7.76676 17.6195 7.88632L17.1262 11.2252L19.7084 9.64882C19.8009 9.59238 19.9113 9.59238 20.0038 9.64882L22.5861 11.2253L22.0931 7.88629C22.0754 7.76674 22.1095 7.64478 22.1843 7.56011L24.2734 5.19546L21.3863 4.70828C21.2829 4.69084 21.1936 4.61546 21.1474 4.50669L19.8561 1.4688L18.565 4.50666C18.5187 4.61543 18.4294 4.69084 18.326 4.70828L15.4389 5.19544L17.5282 7.56009Z" fill="#00A76B"/>
<path d="M18.2851 4.13799L19.4835 1.7026C19.6458 1.37282 20.0571 1.37884 20.2122 1.71326L21.2272 3.90217C21.2828 4.02203 21.3793 4.10915 21.493 4.14217L24.0038 4.87104C24.3018 4.95756 24.4195 5.3761 24.2228 5.65015L22.6803 7.7996C22.6064 7.90253 22.5726 8.03641 22.5869 8.16935L22.8876 10.9629C22.9283 11.3405 22.5949 11.6223 22.298 11.4614L20.0323 10.2336C19.9206 10.1731 19.7916 10.1731 19.6799 10.2336L17.4664 11.4331C17.159 11.5997 16.8181 11.2927 16.8806 10.9055L17.3156 8.21178C17.341 8.05481 17.298 7.89342 17.2007 7.78049L15.4147 5.7066C15.1778 5.43148 15.3032 4.96065 15.6325 4.88894L18.0001 4.37348C18.1202 4.34732 18.2244 4.26123 18.2851 4.13799Z" fill="#00A76B"/>
<path d="M27.9999 4.82437C28.0372 4.69093 28.1366 4.59371 28.2561 4.57354L31.6145 4.00685L33.1164 0.473124C33.1699 0.347329 33.2802 0.2677 33.401 0.2677C33.5218 0.2677 33.6322 0.347354 33.6856 0.473124L35.1877 4.00688L38.546 4.57354C38.6655 4.59371 38.7649 4.69096 38.8022 4.82437C38.8395 4.95778 38.8084 5.10424 38.7219 5.20215L36.2918 7.9528L36.8654 11.8368C36.8858 11.975 36.8369 12.1148 36.7391 12.1972C36.6414 12.2796 36.5119 12.2905 36.4049 12.2253L33.4011 10.3915L30.3973 12.2253C30.3509 12.2537 30.3002 12.2676 30.2497 12.2676C30.1839 12.2676 30.1183 12.2439 30.0631 12.1972C29.9653 12.1148 29.9164 11.9751 29.9368 11.8368L30.5106 7.9528L28.0802 5.20217C27.9937 5.10424 27.9626 4.95778 27.9999 4.82437ZM31.0731 7.56021C31.1479 7.64487 31.1821 7.76689 31.1644 7.88644L30.6711 11.2254L33.2533 9.64894C33.3458 9.59251 33.4563 9.59251 33.5487 9.64894L36.1311 11.2254L35.638 7.88642C35.6203 7.76686 35.6545 7.6449 35.7292 7.56023L37.8183 5.19559L34.9313 4.7084C34.8279 4.69096 34.7385 4.61558 34.6923 4.50681L33.4011 1.46892L32.1099 4.50679C32.0636 4.61555 31.9743 4.69096 31.8709 4.7084L28.9839 5.19556L31.0731 7.56021Z" fill="#00A76B"/>
<path d="M31.83 4.13811L33.0285 1.70272C33.1907 1.37294 33.602 1.37896 33.7571 1.71338L34.7721 3.90229C34.8277 4.02215 34.9242 4.10927 35.0379 4.14229L37.5487 4.87116C37.8468 4.95768 37.9644 5.37622 37.7678 5.65028L36.2252 7.79972C36.1513 7.90265 36.1175 8.03653 36.1318 8.16947L36.4325 10.963C36.4732 11.3406 36.1399 11.6224 35.8429 11.4615L33.5773 10.2338C33.4656 10.1732 33.3365 10.1732 33.2248 10.2338L31.0113 11.4333C30.7039 11.5998 30.363 11.2928 30.4256 10.9057L30.8605 8.2119C30.8859 8.05493 30.8429 7.89355 30.7456 7.78062L28.9596 5.70672C28.7227 5.43161 28.8481 4.96077 29.1775 4.88907L31.545 4.3736C31.6651 4.34745 31.7693 4.26135 31.83 4.13811Z" fill="#00A76B"/>
<path d="M41.539 4.82437C41.5763 4.69093 41.6756 4.59371 41.7952 4.57354L45.1536 4.00685L46.6555 0.473124C46.709 0.347329 46.8193 0.2677 46.9401 0.2677C47.0609 0.2677 47.1712 0.347354 47.2247 0.473124L48.7267 4.00688L52.0851 4.57354C52.2046 4.59371 52.3039 4.69096 52.3412 4.82437C52.3786 4.95778 52.3474 5.10424 52.2609 5.20215L49.8309 7.9528L50.4045 11.8368C50.4249 11.975 50.3759 12.1148 50.2782 12.1972C50.1805 12.2796 50.0509 12.2905 49.9439 12.2253L46.9401 10.3915L43.9364 12.2253C43.8899 12.2537 43.8393 12.2676 43.7887 12.2676C43.7229 12.2676 43.6574 12.2439 43.6021 12.1972C43.5044 12.1148 43.4555 11.9751 43.4759 11.8368L44.0496 7.9528L41.6193 5.20217C41.5328 5.10424 41.5016 4.95778 41.539 4.82437ZM44.6122 7.56021C44.687 7.64487 44.7211 7.76689 44.7034 7.88644L44.2102 11.2254L46.7924 9.64894C46.8849 9.59251 46.9953 9.59251 47.0878 9.64894L49.6701 11.2254L49.177 7.88642C49.1594 7.76686 49.1935 7.6449 49.2683 7.56023L51.3573 5.19559L48.4703 4.7084C48.3669 4.69096 48.2776 4.61558 48.2313 4.50681L46.9401 1.46892L45.6489 4.50679C45.6027 4.61555 45.5134 4.69096 45.41 4.7084L42.5229 5.19556L44.6122 7.56021Z" fill="#00A76B"/>
<path d="M45.369 4.13811L46.5675 1.70272C46.7298 1.37294 47.1411 1.37896 47.2962 1.71338L48.3112 3.90229C48.3668 4.02215 48.4633 4.10927 48.577 4.14229L51.0878 4.87116C51.3858 4.95768 51.5035 5.37622 51.3068 5.65028L49.7642 7.79972C49.6904 7.90265 49.6566 8.03653 49.6709 8.16947L49.9716 10.963C50.0123 11.3406 49.6789 11.6224 49.382 11.4615L47.1163 10.2338C47.0046 10.1732 46.8756 10.1732 46.7639 10.2338L44.5504 11.4333C44.243 11.5998 43.9021 11.2928 43.9646 10.9057L44.3996 8.2119C44.4249 8.05493 44.382 7.89355 44.2847 7.78062L42.4987 5.70672C42.2617 5.43161 42.3872 4.96077 42.7165 4.88907L45.0841 4.3736C45.2042 4.34745 45.3084 4.26135 45.369 4.13811Z" fill="#00A76B"/>
<path d="M55.082 4.82437C55.1193 4.69093 55.2186 4.59371 55.3381 4.57354L58.6965 4.00685L60.1985 0.473124C60.2519 0.347329 60.3623 0.2677 60.4831 0.2677C60.6039 0.2677 60.7142 0.347354 60.7677 0.473124L62.2697 4.00688L65.628 4.57354C65.7476 4.59371 65.8469 4.69096 65.8842 4.82437C65.9216 4.95778 65.8904 5.10424 65.8039 5.20215L63.3739 7.9528L63.9474 11.8368C63.9679 11.975 63.9189 12.1148 63.8212 12.1972C63.7234 12.2796 63.5939 12.2905 63.4869 12.2253L60.4831 10.3915L57.4794 12.2253C57.4329 12.2537 57.3822 12.2676 57.3317 12.2676C57.2659 12.2676 57.2004 12.2439 57.1451 12.1972C57.0474 12.1148 56.9984 11.9751 57.0188 11.8368L57.5926 7.9528L55.1623 5.20217C55.0758 5.10424 55.0446 4.95778 55.082 4.82437ZM58.1551 7.56021C58.23 7.64487 58.2641 7.76688 58.2464 7.88644L57.7532 11.2254L60.3354 9.64894C60.4278 9.59251 60.5383 9.59251 60.6308 9.64894L63.2131 11.2254L62.72 7.88642C62.7024 7.76686 62.7365 7.6449 62.8113 7.56023L64.9003 5.19559L62.0133 4.7084C61.9099 4.69096 61.8206 4.61558 61.7743 4.50681L60.4831 1.46892L59.1919 4.50679C59.1457 4.61555 59.0563 4.69096 58.9529 4.7084L56.0659 5.19556L58.1551 7.56021Z" fill="#00A76B"/>
<path d="M58.912 4.13811L60.1105 1.70272C60.2728 1.37294 60.684 1.37896 60.8391 1.71338L61.8542 3.90229C61.9097 4.02215 62.0062 4.10927 62.12 4.14229L64.6308 4.87116C64.9288 4.95768 65.0465 5.37622 64.8498 5.65028L63.3072 7.79972C63.2333 7.90265 63.1995 8.03653 63.2139 8.16947L63.5146 10.963C63.5552 11.3406 63.2219 11.6224 62.9249 11.4615L60.6593 10.2338C60.5476 10.1732 60.4186 10.1732 60.3069 10.2338L58.0933 11.4333C57.7859 11.5998 57.4451 11.2928 57.5076 10.9057L57.9426 8.2119C57.9679 8.05493 57.9249 7.89355 57.8277 7.78062L56.0416 5.70672C55.8047 5.43161 55.9302 4.96077 56.2595 4.88907L58.627 4.3736C58.7472 4.34745 58.8514 4.26135 58.912 4.13811Z" fill="#00A76B"/>
</svg>
