<svg width="12" height="11" viewBox="0 0 12 11" fill="none" xmlns="http://www.w3.org/2000/svg">
<path fill-rule="evenodd" clip-rule="evenodd" d="M11.4605 6.00095C11.7371 5.72433 11.7371 5.27584 11.4605 4.99921L7.2105 0.749214C6.93388 0.472592 6.48539 0.472592 6.20877 0.749214C5.93215 1.02584 5.93215 1.47433 6.20877 1.75095L9.9579 5.50008L6.20877 9.24921C5.93215 9.52584 5.93215 9.97433 6.20877 10.2509C6.48539 10.5276 6.93388 10.5276 7.2105 10.2509L11.4605 6.00095ZM1.54384 10.2509L5.79384 6.00095C6.07046 5.72433 6.07046 5.27584 5.79384 4.99921L1.54384 0.749214C1.26721 0.472592 0.818723 0.472592 0.542102 0.749214C0.26548 1.02583 0.26548 1.47433 0.542102 1.75095L4.29123 5.50008L0.542101 9.24921C0.26548 9.52584 0.26548 9.97433 0.542101 10.2509C0.818722 10.5276 1.26721 10.5276 1.54384 10.2509Z" fill="white"/>
</svg>
