<svg width="11" height="12" viewBox="0 0 11 12" fill="none" xmlns="http://www.w3.org/2000/svg">
<g clip-path="url(#clip0_11_9405)">
<path fill-rule="evenodd" clip-rule="evenodd" d="M2.6335e-08 5.83642C-3.75419e-06 6.07986 0.197347 6.27722 0.440795 6.27722L9.05212 6.27736L8.0163 7.28361C7.84168 7.45324 7.83764 7.73231 8.00727 7.90693C8.17691 8.08155 8.45598 8.08559 8.6306 7.91596L10.4456 6.15275C10.5311 6.06975 10.5793 5.9557 10.5793 5.83658C10.5793 5.71745 10.5311 5.6034 10.4456 5.5204L8.6306 3.7572C8.45598 3.58756 8.17691 3.5916 8.00727 3.76622C7.83764 3.94084 7.84168 4.21991 8.0163 4.38954L9.05208 5.39576L0.440808 5.39562C0.19736 5.39562 3.83314e-06 5.59297 2.6335e-08 5.83642Z" fill="black"/>
</g>
<defs>
<clipPath id="clip0_11_9405">
<path d="M0 5.83649C0 2.91512 2.36824 0.546875 5.28962 0.546875C8.21099 0.546875 10.5792 2.91512 10.5792 5.83649C10.5792 8.75787 8.21099 11.1261 5.28962 11.1261C2.36824 11.1261 0 8.75787 0 5.83649Z" fill="white"/>
</clipPath>
</defs>
</svg>
