<svg width="5" height="5" viewBox="0 0 5 5" fill="none" xmlns="http://www.w3.org/2000/svg">
<path d="M0.4375 2.1875C0.195875 2.1875 0 2.32741 0 2.5C0 2.67259 0.195875 2.8125 0.4375 2.8125H3.9375C4.17912 2.8125 4.375 2.67259 4.375 2.5C4.375 2.32741 4.17912 2.1875 3.9375 2.1875H0.4375Z" fill="white"/>
<path d="M2.5 0.75C2.5 0.508375 2.36009 0.3125 2.1875 0.3125C2.01491 0.3125 1.875 0.508375 1.875 0.75L1.875 4.25C1.875 4.49162 2.01491 4.6875 2.1875 4.6875C2.36009 4.6875 2.5 4.49162 2.5 4.25L2.5 0.75Z" fill="white"/>
</svg>
