<svg width="29" height="29" viewBox="0 0 29 29" fill="none" xmlns="http://www.w3.org/2000/svg">
<path d="M13.292 22.3104C12.0087 23.4624 10.3184 24.1679 8.45914 24.1679V21.7511C11.1242 21.7511 13.2873 19.5906 13.292 16.9251C13.292 16.9215 13.292 16.919 13.292 16.9171V14.5H2.41699V29H13.292V22.3104Z" fill="white"/>
<path d="M15.708 14.5V16.9168C15.708 19.5844 17.8725 21.75 20.5416 21.75V24.1668C18.6816 24.1668 16.992 23.461 15.708 22.3093V29H26.583V14.5H15.708Z" fill="white"/>
<path d="M22.288 7.25C22.7034 6.53624 22.9582 5.71844 22.9582 4.83321C22.9582 2.16413 20.7941 0 18.125 0C16.6735 0 15.386 0.653588 14.5 1.6675C13.6137 0.65395 12.3268 0 10.875 0C8.20591 0 6.04179 2.16413 6.04179 4.83321C6.04179 5.71808 6.29735 6.53588 6.71205 7.25H0V12.0832H29V7.25H22.288ZM15.7082 4.83321C15.7082 3.49958 16.7928 2.41643 18.125 2.41643C19.4572 2.41643 20.5418 3.49958 20.5418 4.83321C20.5418 6.1654 19.4572 7.25 18.125 7.25H15.7082V4.83321ZM8.45821 4.83321C8.45821 3.49958 9.54245 2.41643 10.875 2.41643C12.2076 2.41643 13.2918 3.49958 13.2918 4.83321V7.25H10.875C9.54281 7.25 8.45821 6.1654 8.45821 4.83321Z" fill="white"/>
</svg>
