<svg width="35" height="35" viewBox="0 0 35 35" fill="none" xmlns="http://www.w3.org/2000/svg">
<path d="M7.58691 14.7997C9.64535 17.2904 13.3134 18.9582 17.4998 18.9582C21.6867 18.9582 25.3525 17.2904 27.4118 14.7997C26.5604 14.1645 25.6202 13.6036 24.5952 13.1447L20.4109 5.82181C20.8668 5.21369 21.1459 4.466 21.1459 3.64569C21.1455 1.63056 19.5149 0 17.4998 0C15.489 0 13.8541 1.63056 13.8541 3.64569C13.8541 4.46469 14.1341 5.21237 14.59 5.82181L10.4057 13.1447C9.37935 13.6036 8.4396 14.1645 7.58691 14.7997Z" fill="#5FFFCA"/>
<path d="M31.206 19.38C30.7873 18.4542 30.2203 17.5853 29.5409 16.7852C26.9137 19.8573 22.5019 21.875 17.5 21.875C12.4967 21.875 8.085 19.8555 5.45825 16.7852C4.77838 17.5858 4.21137 18.4529 3.79356 19.38C1.55794 20.0778 0 21.5802 0 23.3332C0 25.0867 1.55794 26.5887 3.794 27.2869C5.8205 31.78 11.1838 35 17.5 35C23.8149 35 29.1778 31.7818 31.206 27.2869C33.4416 26.5904 35 25.088 35 23.3332C35 21.5788 33.4416 20.0765 31.206 19.38ZM12.3957 26.9793C11.5903 26.9793 10.9375 26.327 10.9375 25.5207C10.9375 24.7148 11.5907 24.0625 12.3957 24.0625C13.2007 24.0625 13.8539 24.7148 13.8539 25.5207C13.8543 26.327 13.2011 26.9793 12.3957 26.9793ZM13.8543 30.625L14.4134 29.278C16.4036 30.104 18.5942 30.104 20.5879 29.278L21.1457 30.625C18.893 31.5595 16.2838 31.6335 13.8543 30.625ZM22.6043 26.9793C21.798 26.9793 21.1457 26.327 21.1457 25.5207C21.1457 24.7148 21.798 24.0625 22.6043 24.0625C23.4102 24.0625 24.0625 24.7148 24.0625 25.5207C24.0625 26.327 23.4102 26.9793 22.6043 26.9793Z" fill="#5FFFCA"/>
</svg>
