<svg width="36" height="36" viewBox="0 0 36 36" fill="none" xmlns="http://www.w3.org/2000/svg">
<path d="M23.2718 6.30181C21.9533 4.98196 19.5705 5.00851 16.9016 6.11866C16.749 4.82221 16.9088 3.49381 17.4182 2.26755L15.1506 0C13.8429 2.3409 13.5176 5.06566 14.1197 7.61581C13.1486 8.25302 12.1761 9.01757 11.2325 9.88922C8.18686 8.02711 4.74031 7.07671 1.2861 7.07536L0 7.07671V10.0751L1.2861 10.0769V10.0737L1.28745 10.0751C4.07476 10.0769 6.74686 10.7901 9.11432 12.1113C8.56082 12.7764 8.05501 13.4487 7.61446 14.1224C5.06566 13.5203 2.34135 13.8443 0 15.152L2.2662 17.4195C3.49246 16.9097 4.82221 16.749 6.11731 16.9029C5.00671 19.5705 4.98241 21.9533 6.30181 23.2718C8.64542 25.6158 14.3406 23.7155 19.0283 19.0283C23.7128 14.3438 25.6158 8.64542 23.2718 6.30181Z" fill="white"/>
<path d="M27.4704 12.3061C27.3458 11.9591 27.1865 11.5883 27.0092 11.2148C26.3607 14.3891 24.3564 17.9424 21.1497 21.1491C18.0267 24.2752 14.46 26.3479 11.2344 27.0184C11.6007 27.1917 11.9656 27.3478 12.3054 27.4711L36.0002 36L27.4704 12.3061Z" fill="white"/>
</svg>
