<svg width="30" height="29" viewBox="0 0 30 29" fill="none" xmlns="http://www.w3.org/2000/svg">
<path d="M19.233 4.9921C18.1886 3.94655 16.301 3.96758 14.1868 4.84701C14.0659 3.82 14.1925 2.76768 14.596 1.79629L12.7997 0C11.7638 1.85439 11.5061 4.01286 11.983 6.03301C11.2137 6.53778 10.4434 7.14343 9.69586 7.83393C7.28323 6.35883 4.55298 5.60595 1.81666 5.60488L0.797852 5.60595V7.98115L1.81666 7.98258V7.98008L1.81773 7.98115C4.02575 7.98258 6.1425 8.5476 8.01793 9.59421C7.57946 10.1211 7.17878 10.6537 6.82979 11.1873C4.81071 10.7103 2.6526 10.967 0.797852 12.0029L2.59307 13.7992C3.56447 13.3953 4.61785 13.2681 5.64379 13.39C4.76401 15.5032 4.74476 17.3907 5.78995 18.4352C7.64648 20.2921 12.158 18.7867 15.8715 15.0736C19.5824 11.3627 21.0899 6.84863 19.233 4.9921Z" fill="#BF677E"/>
<path d="M22.5589 9.74849C22.4602 9.47365 22.334 9.17991 22.1936 8.88403C21.6799 11.3986 20.0921 14.2134 17.5519 16.7536C15.0779 19.2301 12.2525 20.872 9.69727 21.4031C9.98744 21.5404 10.2765 21.6641 10.5457 21.7617L29.316 28.5181L22.5589 9.74849Z" fill="#BF677E"/>
</svg>
