<svg width="122" height="48" viewBox="0 0 122 48" fill="none" xmlns="http://www.w3.org/2000/svg">
<path d="M2.39103 30L2.39103 5.17551L6.32919 5.17551L16.1043 20.4007H14.1L23.8399 5.17551L27.8133 5.17551L27.8133 30H22.2928V14.4935L23.2774 14.7396L16.913 24.6554H13.2561L6.92695 14.7396L7.87632 14.4935L7.87632 30H2.39103ZM40.5208 30.3868C38.6689 30.3868 37.0163 30.0117 35.563 29.2616C34.133 28.488 33.0078 27.4214 32.1874 26.0618C31.3669 24.7022 30.9567 23.1668 30.9567 21.4556C30.9567 19.7444 31.3552 18.2207 32.1522 16.8845C32.9727 15.5249 34.0744 14.4583 35.4575 13.6848C36.8405 12.9112 38.3994 12.5244 40.134 12.5244C41.8218 12.5244 43.3103 12.8877 44.5996 13.6144C45.8889 14.3411 46.8969 15.3491 47.6236 16.6384C48.3737 17.9277 48.7488 19.4045 48.7488 21.0688C48.7488 21.3735 48.7253 21.7017 48.6784 22.0534C48.655 22.3815 48.5964 22.7683 48.5026 23.2137L33.7697 23.2489L33.7697 19.5568L46.2171 19.5217L43.8964 21.0688C43.8729 20.0843 43.7206 19.2755 43.4393 18.6426C43.158 17.9863 42.736 17.494 42.1734 17.1658C41.6343 16.8142 40.9662 16.6384 40.1692 16.6384C39.3253 16.6384 38.5869 16.8376 37.954 17.2361C37.3445 17.6112 36.864 18.1504 36.5123 18.8536C36.1842 19.5568 36.0201 20.4125 36.0201 21.4204C36.0201 22.4284 36.1959 23.2957 36.5475 24.0224C36.9226 24.7257 37.4383 25.2765 38.0946 25.6751C38.7744 26.0501 39.5714 26.2376 40.4857 26.2376C41.3295 26.2376 42.0914 26.097 42.7712 25.8157C43.451 25.511 44.0488 25.0656 44.5645 24.4795L47.5181 27.4332C46.6742 28.4177 45.6545 29.1561 44.459 29.6484C43.2635 30.1406 41.9507 30.3868 40.5208 30.3868ZM62.6326 30L62.6326 20.2601C62.6326 19.3693 62.3513 18.6543 61.7887 18.1152C61.2496 17.5526 60.558 17.2713 59.7141 17.2713C59.1281 17.2713 58.6124 17.4002 58.167 17.6581C57.7216 17.8925 57.37 18.2441 57.1121 18.7129C56.8543 19.1583 56.7254 19.674 56.7254 20.2601L54.6508 19.2404C54.6508 17.9042 54.9438 16.7321 55.5298 15.7242C56.1159 14.7162 56.9246 13.9426 57.956 13.4035C59.0109 12.8409 60.1947 12.5596 61.5074 12.5596C62.7732 12.5596 63.8867 12.8643 64.8478 13.4738C65.8324 14.0598 66.6059 14.8451 67.1685 15.8296C67.7311 16.8142 68.0124 17.8925 68.0124 19.0646V30H62.6326ZM51.3455 30L51.3455 12.9112H56.7254L56.7254 30L51.3455 30ZM79.7307 30.3868C77.9726 30.3868 76.3786 30 74.9487 29.2264C73.5188 28.4529 72.3936 27.3863 71.5731 26.0267C70.7527 24.6671 70.3424 23.1434 70.3424 21.4556C70.3424 19.7444 70.7527 18.2207 71.5731 16.8845C72.417 15.5249 73.5539 14.4583 74.9839 13.6848C76.4138 12.9112 78.0195 12.5244 79.8011 12.5244C81.1372 12.5244 82.3562 12.7588 83.4579 13.2276C84.5831 13.673 85.5794 14.3528 86.4467 15.2671L83.0008 18.7129C82.6023 18.2676 82.1335 17.9394 81.5943 17.7284C81.0786 17.5174 80.4809 17.4119 79.8011 17.4119C79.0275 17.4119 78.336 17.5878 77.7265 17.9394C77.1405 18.2676 76.6716 18.7364 76.32 19.3459C75.9918 19.9319 75.8277 20.6234 75.8277 21.4204C75.8277 22.2174 75.9918 22.9207 76.32 23.5302C76.6716 24.1396 77.1522 24.6202 77.7617 24.9718C78.3711 25.3234 79.0509 25.4992 79.8011 25.4992C80.5043 25.4992 81.1255 25.382 81.6647 25.1476C82.2273 24.8898 82.7078 24.5381 83.1063 24.0928L86.517 27.5386C85.6263 28.4763 84.6183 29.1913 83.4931 29.6835C82.3679 30.1524 81.1138 30.3868 79.7307 30.3868ZM88.9114 30V4.47227L94.2912 4.47227V30H88.9114ZM106.308 30.3868C104.549 30.3868 102.955 30 101.526 29.2264C100.119 28.4294 99.0056 27.3511 98.1851 25.9915C97.3647 24.6319 96.9544 23.1082 96.9544 21.4204C96.9544 19.7326 97.3647 18.2207 98.1851 16.8845C99.0056 15.5484 100.119 14.4935 101.526 13.7199C102.932 12.9229 104.526 12.5244 106.308 12.5244C108.089 12.5244 109.683 12.9112 111.09 13.6848C112.496 14.4583 113.61 15.5249 114.43 16.8845C115.25 18.2207 115.661 19.7326 115.661 21.4204C115.661 23.1082 115.25 24.6319 114.43 25.9915C113.61 27.3511 112.496 28.4294 111.09 29.2264C109.683 30 108.089 30.3868 106.308 30.3868ZM106.308 25.4992C107.081 25.4992 107.761 25.3352 108.347 25.007C108.933 24.6554 109.378 24.1748 109.683 23.5653C110.011 22.9324 110.175 22.2174 110.175 21.4204C110.175 20.6234 110.011 19.9319 109.683 19.3459C109.355 18.7364 108.898 18.2676 108.312 17.9394C107.749 17.5878 107.081 17.4119 106.308 17.4119C105.557 17.4119 104.889 17.5878 104.303 17.9394C103.717 18.2676 103.26 18.7364 102.932 19.3459C102.604 19.9553 102.44 20.6586 102.44 21.4556C102.44 22.2292 102.604 22.9324 102.932 23.5653C103.26 24.1748 103.717 24.6554 104.303 25.007C104.889 25.3352 105.557 25.4992 106.308 25.4992Z" fill="white"/>
<path d="M1.05961 47.7837L1.05961 41.3948H1.93206L4.52214 45.539H4.0223L6.60329 41.3948H7.47574L7.47574 47.7837H6.24886V43.5123L6.48515 43.585L4.68572 46.475H3.84963L2.0502 43.585L2.29558 43.5123L2.29558 47.7837H1.05961ZM12.4979 47.8837C12.0313 47.8837 11.5951 47.7988 11.1892 47.6292C10.7893 47.4596 10.4379 47.2263 10.135 46.9294C9.8381 46.6265 9.60484 46.2751 9.4352 45.8752C9.26555 45.4693 9.18073 45.0361 9.18073 44.5756C9.18073 44.1152 9.26252 43.688 9.42611 43.2942C9.59575 42.8943 9.82901 42.546 10.1259 42.2491C10.4288 41.9462 10.7802 41.7129 11.1801 41.5493C11.58 41.3797 12.0132 41.2949 12.4797 41.2949C12.9523 41.2949 13.3885 41.3797 13.7883 41.5493C14.1882 41.7129 14.5366 41.9462 14.8335 42.2491C15.1364 42.546 15.3727 42.8943 15.5423 43.2942C15.712 43.6941 15.7968 44.1243 15.7968 44.5847C15.7968 45.0452 15.712 45.4753 15.5423 45.8752C15.3727 46.2751 15.1364 46.6265 14.8335 46.9294C14.5366 47.2263 14.1882 47.4596 13.7883 47.6292C13.3945 47.7988 12.9644 47.8837 12.4979 47.8837ZM12.4797 46.7295C12.8917 46.7295 13.2491 46.6386 13.5521 46.4568C13.855 46.2751 14.0913 46.0236 14.2609 45.7025C14.4366 45.3814 14.5245 45.0058 14.5245 44.5756C14.5245 44.2606 14.476 43.9728 14.3791 43.7123C14.2821 43.4517 14.1428 43.2276 13.961 43.0398C13.7793 42.8459 13.5642 42.6974 13.3158 42.5944C13.0674 42.4914 12.7887 42.4399 12.4797 42.4399C12.0798 42.4399 11.7254 42.5308 11.4164 42.7126C11.1134 42.8883 10.8741 43.1367 10.6984 43.4578C10.5288 43.7789 10.444 44.1515 10.444 44.5756C10.444 44.8967 10.4924 45.1906 10.5894 45.4572C10.6924 45.7237 10.8317 45.9509 11.0074 46.1388C11.1892 46.3266 11.4043 46.472 11.6527 46.575C11.9071 46.678 12.1828 46.7295 12.4797 46.7295ZM18.3488 47.7837V46.684H19.9755C20.3875 46.684 20.748 46.5992 21.057 46.4296C21.366 46.2539 21.6053 46.0085 21.7749 45.6935C21.9506 45.3784 22.0385 45.0058 22.0385 44.5756C22.0385 44.1576 21.9506 43.7941 21.7749 43.4851C21.5992 43.17 21.3569 42.9277 21.0479 42.758C20.7389 42.5823 20.3814 42.4945 19.9755 42.4945H18.3215V41.3948H19.9937C20.4663 41.3948 20.9025 41.4736 21.3024 41.6311C21.7083 41.7886 22.0597 42.0128 22.3566 42.3036C22.6595 42.5884 22.8928 42.9246 23.0563 43.3124C23.226 43.7001 23.3108 44.1243 23.3108 44.5847C23.3108 45.0452 23.226 45.4723 23.0563 45.8661C22.8928 46.2539 22.6625 46.5932 22.3656 46.884C22.0688 47.1687 21.7174 47.3899 21.3114 47.5474C20.9116 47.7049 20.4784 47.7837 20.0119 47.7837H18.3488ZM17.5036 47.7837V41.3948H18.7395V47.7837H17.5036ZM25.02 47.7837V41.3948H26.256V47.7837H25.02ZM25.9288 47.7837V46.6931H29.464V47.7837L25.9288 47.7837ZM25.9288 45.0482V43.994H29.1459V45.0482H25.9288ZM25.9288 42.4854V41.3948H29.4186V42.4854H25.9288ZM32.1228 45.1118V44.1485H33.6042C33.9071 44.1485 34.1404 44.0728 34.3039 43.9213C34.4736 43.7638 34.5584 43.5487 34.5584 43.276C34.5584 43.0276 34.4736 42.8216 34.3039 42.6581C34.1404 42.4884 33.9071 42.4036 33.6042 42.4036H32.1228V41.3948H33.7132C34.1252 41.3948 34.4857 41.4766 34.7947 41.6402C35.1097 41.7977 35.3521 42.0158 35.5217 42.2945C35.6974 42.5732 35.7853 42.8943 35.7853 43.2579C35.7853 43.6335 35.6974 43.9607 35.5217 44.2394C35.3521 44.512 35.1097 44.7271 34.7947 44.8846C34.4796 45.0361 34.1131 45.1118 33.695 45.1118H32.1228ZM31.214 47.7837V41.3948H32.45V47.7837H31.214ZM34.7038 47.7837L32.5954 45.0209L33.7314 44.6665L36.2033 47.7837H34.7038ZM37.6299 47.7837V41.3948H38.4933L38.8659 42.6308V47.7837H37.6299ZM42.0467 47.7837L38.257 42.8762L38.4933 41.3948L42.283 46.3023L42.0467 47.7837ZM42.0467 47.7837L41.6923 46.5841V41.3948H42.9373V47.7837H42.0467ZM46.5776 47.7837L44.5056 41.3948H45.7234L47.2592 46.3114H46.8503L48.3589 41.3948H49.2768L50.7854 46.3114H50.3673L51.9123 41.3948H53.1301L51.0489 47.7837H50.1311L48.6134 42.8762H49.0132L47.5046 47.7837H46.5776ZM54.704 47.7837V41.3948H55.94V47.7837H54.704ZM55.6128 47.7837V46.6931H59.1481V47.7837H55.6128ZM55.6128 45.0482V43.994H58.83V45.0482H55.6128ZM55.6128 42.4854V41.3948H59.1026V42.4854H55.6128ZM60.4255 47.7837L62.9974 41.3948H64.0062L66.569 47.7837H65.2512L63.27 42.5399H63.7244L61.716 47.7837L60.4255 47.7837ZM61.7887 46.5932V45.5571L65.224 45.5571V46.5932L61.7887 46.5932ZM68.9594 45.1118V44.1485H70.4408C70.7437 44.1485 70.9769 44.0728 71.1405 43.9213C71.3102 43.7638 71.395 43.5487 71.395 43.276C71.395 43.0276 71.3102 42.8216 71.1405 42.6581C70.9769 42.4884 70.7437 42.4036 70.4408 42.4036H68.9594V41.3948H70.5498C70.9618 41.3948 71.3223 41.4766 71.6313 41.6402C71.9463 41.7977 72.1887 42.0158 72.3583 42.2945C72.534 42.5732 72.6219 42.8943 72.6219 43.2579C72.6219 43.6335 72.534 43.9607 72.3583 44.2394C72.1887 44.512 71.9463 44.7271 71.6313 44.8846C71.3162 45.0361 70.9497 45.1118 70.5316 45.1118H68.9594ZM68.0506 47.7837V41.3948H69.2866V47.7837H68.0506ZM71.5404 47.7837L69.432 45.0209L70.568 44.6665L73.0399 47.7837H71.5404Z" fill="white"/>
</svg>
