<svg width="100" height="38" viewBox="0 0 100 38" fill="none" xmlns="http://www.w3.org/2000/svg">
<path d="M14.618 29.4309C12.607 29.4309 10.7135 29.0653 8.93759 28.334C7.18776 27.6028 5.65993 26.5973 4.35409 25.3175C3.04824 24.0117 2.01663 22.4969 1.25924 20.7732C0.527972 19.0234 0.162337 17.143 0.162337 15.132C0.162337 13.121 0.541031 11.2536 1.29842 9.52992C2.05581 7.8062 3.10048 6.30449 4.43244 5.02476C5.79051 3.71892 7.37058 2.71343 9.17264 2.00827C10.9747 1.277 12.9073 0.911367 14.9706 0.911367C17.3472 0.911367 19.5018 1.34229 21.4345 2.20415C23.3932 3.066 25.0125 4.25432 26.2922 5.76909L22.1005 9.96084C21.2125 8.8117 20.1678 7.94985 18.9664 7.37528C17.7651 6.80071 16.407 6.51342 14.8922 6.51342C13.273 6.51342 11.8235 6.87906 10.5438 7.61033C9.26405 8.31548 8.25855 9.32098 7.52728 10.6268C6.82212 11.9065 6.46955 13.4083 6.46955 15.132C6.46955 16.8557 6.82212 18.3705 7.52728 19.6763C8.23243 20.9821 9.19875 22.0007 10.4262 22.732C11.6537 23.4632 13.064 23.8289 14.6572 23.8289C16.2764 23.8289 17.6475 23.5285 18.7706 22.9278C19.9197 22.301 20.7946 21.4131 21.3953 20.2639C22.0221 19.0887 22.3355 17.6653 22.3355 15.9938L26.4097 18.7361L14.0695 18.5402V13.3299L28.6035 13.3299V14.2309C28.6035 17.5478 28.0029 20.3423 26.8015 22.6144C25.6262 24.8605 23.9809 26.5581 21.8654 27.7072C19.7761 28.8564 17.3603 29.4309 14.618 29.4309ZM31.7829 29L31.7829 9.96084H37.7767L37.7767 29H31.7829ZM34.7994 7.3361C33.8591 7.3361 33.0756 7.0227 32.4488 6.3959C31.8482 5.74298 31.5478 4.95947 31.5478 4.04538C31.5478 3.10518 31.8482 2.32167 32.4488 1.69487C33.0756 1.06807 33.8591 0.754665 34.7994 0.754665C35.7396 0.754665 36.51 1.06807 37.1107 1.69487C37.7114 2.32167 38.0117 3.10518 38.0117 4.04538C38.0117 4.95947 37.7114 5.74298 37.1107 6.3959C36.51 7.0227 35.7396 7.3361 34.7994 7.3361ZM44.4264 29L44.4264 8.31548C44.4264 6.77459 44.7659 5.3904 45.4449 4.16291C46.1501 2.9093 47.1294 1.92992 48.3831 1.22477C49.6367 0.493496 51.1253 0.127861 52.849 0.127861C54.1549 0.127861 55.291 0.349854 56.2573 0.79384C57.2497 1.21171 58.1116 1.79934 58.8428 2.55673L55.082 6.31755C54.8208 6.05638 54.5205 5.8605 54.181 5.72992C53.8676 5.57322 53.4889 5.49487 53.0449 5.49487C52.2353 5.49487 51.5954 5.72992 51.1253 6.20002C50.6552 6.67012 50.4202 7.30999 50.4202 8.11961L50.4202 29H44.4264ZM40.2346 15.0536V9.96084L55.9047 9.96084V15.0536L40.2346 15.0536ZM60.6538 29V2.08662L66.6476 2.08662V29H60.6538ZM56.3445 15.0536V9.96084L70.9569 9.96084V15.0536L56.3445 15.0536ZM79.4741 29.0784L71.6391 9.96084L78.103 9.96084L83.0782 25.1217H80.6885L85.7813 9.96084H92.2452L84.0968 29.0784H79.4741ZM74.5772 37.0309L80.2968 24.6907L84.0968 29.0784L80.7277 37.0309H74.5772ZM95.6073 29.4309C94.5887 29.4309 93.7399 29.0784 93.0609 28.3732C92.3818 27.668 92.0423 26.8192 92.0423 25.8268C92.0423 24.7821 92.3818 23.9203 93.0609 23.2412C93.7399 22.5361 94.5887 22.1835 95.6073 22.1835C96.6519 22.1835 97.5007 22.5361 98.1536 23.2412C98.8327 23.9203 99.1722 24.7821 99.1722 25.8268C99.1722 26.8192 98.8327 27.668 98.1536 28.3732C97.5007 29.0784 96.6519 29.4309 95.6073 29.4309Z" fill="#5FFFCA"/>
</svg>
