<svg width="13" height="10" viewBox="0 0 13 10" fill="none" xmlns="http://www.w3.org/2000/svg">
<path fill-rule="evenodd" clip-rule="evenodd" d="M6.82879 2.20172C6.61383 2.41043 6.27441 2.41043 6.05945 2.20172L5.67479 1.82823C5.22455 1.39109 4.61631 1.12417 3.94412 1.12417C2.56341 1.12417 1.44412 2.25661 1.44412 3.65354C1.44412 4.99278 2.16067 6.09864 3.1951 7.00725C4.23041 7.91664 5.46823 8.51976 6.20781 8.82756C6.36245 8.89192 6.52579 8.89192 6.68043 8.82756C7.42001 8.51975 8.65783 7.91663 9.69314 7.00725C10.7276 6.09864 11.4441 4.99278 11.4441 3.65354C11.4441 2.25661 10.3248 1.12417 8.94412 1.12417C8.27193 1.12417 7.66369 1.39109 7.21345 1.82823L6.82879 2.20172ZM6.44412 1.01713C5.79529 0.387166 4.91439 0 3.94412 0C1.94976 0 0.333008 1.63575 0.333008 3.65354C0.333008 7.23304 4.20542 9.20975 5.78511 9.8672C6.21054 10.0443 6.67769 10.0443 7.10312 9.8672C8.68282 9.20975 12.5552 7.23304 12.5552 3.65354C12.5552 1.63575 10.9385 0 8.94412 0C7.97385 0 7.09295 0.387166 6.44412 1.01713Z" fill="white"/>
</svg>
