<svg width="80" height="21" viewBox="0 0 80 21" fill="none" xmlns="http://www.w3.org/2000/svg">
<path d="M9.71897 20.2707C8.40165 20.2707 7.16554 20.0271 6.01064 19.5398C4.87378 19.0346 3.87226 18.3398 3.00608 17.4556C2.15794 16.5714 1.49027 15.5428 1.00304 14.3698C0.515814 13.1969 0.272201 11.9337 0.272201 10.5803C0.272201 9.2269 0.515814 7.97274 1.00304 6.81784C1.49027 5.64488 2.16697 4.6163 3.03315 3.73207C3.89933 2.84785 4.90987 2.16212 6.06477 1.6749C7.23772 1.18767 8.50993 0.944057 9.88138 0.944057C11.3791 0.944057 12.7596 1.23278 14.0228 1.81024C15.286 2.38769 16.3416 3.21778 17.1898 4.3005L15.4303 6.05993C14.8348 5.19375 14.0499 4.53509 13.0754 4.08396C12.101 3.61478 11.0363 3.38019 9.88138 3.38019C8.50993 3.38019 7.29186 3.68696 6.22718 4.3005C5.18055 4.91405 4.35948 5.76218 3.76399 6.8449C3.18653 7.92763 2.89781 9.17276 2.89781 10.5803C2.89781 12.0059 3.19556 13.26 3.79105 14.3428C4.38655 15.4255 5.18957 16.2736 6.20011 16.8872C7.21066 17.5007 8.36556 17.8075 9.66483 17.8075C10.9821 17.8075 12.119 17.5548 13.0754 17.0496C14.0499 16.5443 14.7987 15.8044 15.3221 14.83C15.8454 13.8375 16.107 12.6285 16.107 11.2029L17.6499 12.3127L9.52949 12.3127V9.9848L18.7326 9.9848V10.3638C18.7326 12.5473 18.3447 14.3789 17.5687 15.8586C16.8108 17.3203 15.7461 18.421 14.3747 19.1609C13.0213 19.9008 11.4694 20.2707 9.71897 20.2707ZM27.1897 20.2707C26.0168 20.2707 24.9521 19.982 23.9957 19.4045C23.0393 18.809 22.2814 18.006 21.722 16.9954C21.1806 15.9849 20.9099 14.848 20.9099 13.5849C20.9099 12.3217 21.1806 11.1848 21.722 10.1743C22.2814 9.16374 23.0303 8.36072 23.9686 7.76522C24.925 7.16972 25.9987 6.87197 27.1897 6.87197C28.1642 6.87197 29.0304 7.07949 29.7883 7.49454C30.5642 7.89154 31.1868 8.45094 31.656 9.17276C32.1251 9.87653 32.3868 10.6976 32.4409 11.636V15.5067C32.3868 16.427 32.1251 17.2481 31.656 17.9699C31.2048 18.6917 30.5913 19.2601 29.8153 19.6752C29.0574 20.0722 28.1822 20.2707 27.1897 20.2707ZM27.5958 17.9699C28.8048 17.9699 29.7792 17.5639 30.5191 16.7518C31.259 15.9217 31.6289 14.8661 31.6289 13.5849C31.6289 12.7006 31.4575 11.9337 31.1146 11.2841C30.7898 10.6164 30.3206 10.1021 29.7071 9.74119C29.0935 9.36224 28.3807 9.17276 27.5687 9.17276C26.7566 9.17276 26.0348 9.36224 25.4032 9.74119C24.7897 10.1201 24.3025 10.6435 23.9416 11.3111C23.5987 11.9608 23.4273 12.7097 23.4273 13.5578C23.4273 14.424 23.5987 15.1909 23.9416 15.8586C24.3025 16.5082 24.7987 17.0225 25.4303 17.4015C26.0619 17.7804 26.7837 17.9699 27.5958 17.9699ZM31.4665 20L31.4665 16.5353L31.9266 13.3954L31.4665 10.2826V7.14265H33.9297L33.9297 20L31.4665 20ZM37.4765 20L37.4765 7.14265L39.9126 7.14265L39.9126 20H37.4765ZM46.1653 20L46.1653 12.2315C46.1653 11.275 45.8676 10.5262 45.2721 9.9848C44.6946 9.4254 43.9638 9.14569 43.0796 9.14569C42.4841 9.14569 41.9517 9.27201 41.4825 9.52465C41.0134 9.77728 40.6344 10.1292 40.3457 10.5803C40.0569 11.0314 39.9126 11.5728 39.9126 12.2044L38.9111 11.7172C38.9111 10.7427 39.1186 9.89458 39.5336 9.17276C39.9667 8.45094 40.5532 7.89154 41.2931 7.49454C42.0329 7.07949 42.863 6.87197 43.7833 6.87197C44.6856 6.87197 45.4976 7.07047 46.2195 7.46747C46.9593 7.86447 47.5368 8.42388 47.9518 9.14569C48.3849 9.86751 48.6014 10.7247 48.6014 11.7172L48.6014 20H46.1653ZM54.8542 20L54.8542 12.2315C54.8542 11.275 54.5564 10.5262 53.9609 9.9848C53.3835 9.4254 52.6617 9.14569 51.7955 9.14569C51.2 9.14569 50.6586 9.27201 50.1714 9.52465C49.7022 9.77728 49.3233 10.1292 49.0345 10.5803C48.7458 11.0314 48.6014 11.5728 48.6014 12.2044L47.221 11.7172C47.2751 10.7247 47.5368 9.87653 48.0059 9.17276C48.4932 8.45094 49.1157 7.89154 49.8736 7.49454C50.6316 7.07949 51.4616 6.87197 52.3639 6.87197C53.3023 6.87197 54.1414 7.07047 54.8812 7.46747C55.6211 7.86447 56.2076 8.42388 56.6407 9.14569C57.0918 9.86751 57.3174 10.7337 57.3174 11.7442L57.3174 20H54.8542ZM66.5874 20.2707C65.3061 20.2707 64.1512 19.982 63.1226 19.4045C62.094 18.809 61.282 18.006 60.6865 16.9954C60.091 15.9849 59.7933 14.839 59.7933 13.5578C59.7933 12.2946 60.082 11.1578 60.6594 10.1472C61.2549 9.13667 62.0489 8.34267 63.0414 7.76522C64.052 7.16972 65.1798 6.87197 66.4249 6.87197C67.6159 6.87197 68.6626 7.14265 69.5648 7.68402C70.4852 8.22538 71.198 8.97426 71.7032 9.93067C72.2265 10.8871 72.4882 11.9698 72.4882 13.1788C72.4882 13.3593 72.4792 13.5578 72.4611 13.7743C72.4431 13.9728 72.407 14.2074 72.3529 14.4781H61.4985V12.448L71.0536 12.448L70.1603 13.233C70.1603 12.3668 70.007 11.636 69.7002 11.0405C69.3934 10.4269 68.9603 9.95774 68.4009 9.63292C67.8415 9.29006 67.1648 9.11862 66.3708 9.11862C65.5407 9.11862 64.8099 9.29908 64.1783 9.65999C63.5467 10.0209 63.0595 10.5262 62.7166 11.1758C62.3738 11.8254 62.2023 12.5924 62.2023 13.4766C62.2023 14.3789 62.3828 15.1729 62.7437 15.8586C63.1046 16.5263 63.6189 17.0496 64.2866 17.4285C64.9542 17.7894 65.7212 17.9699 66.5874 17.9699C67.3092 17.9699 67.9678 17.8436 68.5633 17.5909C69.1769 17.3383 69.7002 16.9594 70.1333 16.4541L71.7032 18.0511C71.0897 18.7729 70.3318 19.3233 69.4295 19.7023C68.5453 20.0812 67.5979 20.2707 66.5874 20.2707ZM77.2828 20.2707C76.7776 20.2707 76.3535 20.0992 76.0106 19.7564C75.6858 19.3955 75.5234 18.9714 75.5234 18.4842C75.5234 17.9789 75.6858 17.5639 76.0106 17.2391C76.3535 16.8962 76.7776 16.7248 77.2828 16.7248C77.7881 16.7248 78.2032 16.8962 78.528 17.2391C78.8708 17.5639 79.0423 17.9789 79.0423 18.4842C79.0423 18.9714 78.8708 19.3955 78.528 19.7564C78.2032 20.0992 77.7881 20.2707 77.2828 20.2707Z" fill="white"/>
</svg>
