<svg width="15" height="15" viewBox="0 0 15 15" fill="none" xmlns="http://www.w3.org/2000/svg">
<path fill-rule="evenodd" clip-rule="evenodd" d="M8.39025 12.636V11.06L14.2425 4.756C15.2525 3.668 15.2525 1.904 14.2425 0.816001C13.2324 -0.272 11.5949 -0.272 10.5848 0.816001L0.539316 11.637C-0.612777 12.878 0.203182 15 1.83249 15H6.19566C7.4077 15 8.39025 13.9416 8.39025 12.636ZM6.92719 11.0601L5.03558 9.02244L1.57385 12.7514C1.34343 12.9996 1.50663 13.424 1.83249 13.424H6.19566C6.59968 13.424 6.92719 13.0712 6.92719 12.636V11.0601ZM6.13287 7.84044L11.6194 1.9304C12.058 1.45787 12.7693 1.45787 13.2079 1.9304C13.6466 2.40294 13.6466 3.16907 13.2079 3.6416L7.72144 9.55164L6.13287 7.84044Z" fill="#CDC6BE"/>
</svg>
