<svg width="32" height="33" viewBox="0 0 32 33" fill="none" xmlns="http://www.w3.org/2000/svg">
<path fill-rule="evenodd" clip-rule="evenodd" d="M3.97607 16.4381C3.97607 15.7062 4.56945 15.1128 5.30142 15.1128H26.5069C27.2389 15.1128 27.8322 15.7062 27.8322 16.4381V23.0648C27.8322 25.9927 25.4587 28.3662 22.5309 28.3662H9.27744C6.34958 28.3662 3.97607 25.9927 3.97607 23.0648V16.4381ZM7.28943 17.7635C6.92345 17.7635 6.62676 18.0602 6.62676 18.4261V23.0648C6.62676 24.5288 7.81351 25.7155 9.27744 25.7155H22.5309C23.9948 25.7155 25.1816 24.5288 25.1816 23.0648V18.4261C25.1816 18.0602 24.8849 17.7635 24.5189 17.7635H7.28943Z" fill="#173334"/>
<path fill-rule="evenodd" clip-rule="evenodd" d="M25.1817 11.1368H6.62691C5.89494 11.1368 5.30156 11.7301 5.30156 12.4621V13.7875C5.30156 14.5194 5.89494 15.1128 6.62691 15.1128H25.1817C25.9137 15.1128 26.507 14.5194 26.507 13.7875V12.4621C26.507 11.7301 25.9137 11.1368 25.1817 11.1368ZM6.62691 8.48608C4.43101 8.48608 2.65088 10.2662 2.65088 12.4621V13.7875C2.65088 15.9834 4.43101 17.7635 6.62691 17.7635H25.1817C27.3776 17.7635 29.1577 15.9834 29.1577 13.7875V12.4621C29.1577 10.2662 27.3776 8.48608 25.1817 8.48608H6.62691Z" fill="#173334"/>
<path d="M14.5786 8.48608H17.2293V28.3662H14.5786V8.48608Z" fill="#173334"/>
<path fill-rule="evenodd" clip-rule="evenodd" d="M13.2534 11.1369C11.0575 11.1369 9.27734 9.35674 9.27734 7.16084C9.27734 4.96494 11.0575 3.18481 13.2534 3.18481C14.2717 3.18481 15.2006 3.56764 15.9041 4.19724C16.6075 3.56764 17.5364 3.18481 18.5547 3.18481C20.7506 3.18481 22.5308 4.96494 22.5308 7.16084C22.5308 9.35674 20.7506 11.1369 18.5547 11.1369H13.2534ZM13.2534 5.8355C13.9853 5.8355 14.5787 6.42888 14.5787 7.16084V8.48618H13.2534C12.5214 8.48618 11.928 7.89281 11.928 7.16084C11.928 6.42888 12.5214 5.8355 13.2534 5.8355ZM17.2294 8.48618H18.5547C19.2867 8.48618 19.8801 7.89281 19.8801 7.16084C19.8801 6.42888 19.2867 5.8355 18.5547 5.8355C17.8228 5.8355 17.2294 6.42888 17.2294 7.16084V8.48618Z" fill="#173334"/>
</svg>
