<svg width="20" height="20" viewBox="0 0 20 20" fill="none" xmlns="http://www.w3.org/2000/svg">
<path d="M11.3369 19.6584C11.3482 19.6584 11.3558 19.6584 11.3671 19.6584C13.5102 19.6509 15.5174 18.8057 17.019 17.2814C17.7699 16.5193 18.3358 15.6402 18.7018 14.6667C19.0489 13.7424 19.2111 12.7538 19.1847 11.7276C19.1281 9.73922 18.3471 7.72445 16.9888 6.05301C15.9098 4.72869 14.3478 3.41192 12.699 2.43849C10.5182 1.1519 8.24683 0.446352 5.95286 0.344482C4.54553 0.280341 3.0703 0.884019 1.90822 1.99705C0.697086 3.15536 -0.000915527 4.7136 -0.000915527 6.27185C-0.000915527 7.18868 0.387703 7.9961 1.15739 8.67901C2.99861 10.3165 4.23992 12.6029 4.65118 15.112C4.80587 16.0514 5.14544 16.7758 5.69252 17.3229C7.20172 18.8283 9.20517 19.6584 11.3369 19.6584ZM5.74912 1.4726C5.79817 1.4726 5.85099 1.4726 5.90004 1.47638C10.4163 1.67635 14.2232 4.45327 16.1097 6.76988C18.649 9.88637 18.6905 13.9725 16.2116 16.4853C14.9212 17.7945 13.197 18.519 11.3595 18.5265C11.352 18.5265 11.3445 18.5265 11.3331 18.5265C9.50324 18.5265 7.78653 17.8134 6.4924 16.5231C6.11887 16.1495 5.88117 15.6289 5.76798 14.9309C5.31522 12.1653 3.94563 9.6449 1.90822 7.83386C1.37622 7.36224 1.13098 6.86798 1.13098 6.27185C1.13098 5.02299 1.7007 3.76281 2.68922 2.81579C3.5872 1.95555 4.69645 1.4726 5.74912 1.4726Z" fill="white"/>
<path d="M11.3369 17.5435C12.9027 17.5435 14.3779 16.9323 15.4834 15.8268C15.491 15.8192 15.4985 15.8117 15.5136 15.7966C16.8568 14.4345 17.102 12.865 17.0719 11.7859C17.0304 10.2578 16.4191 8.69582 15.3514 7.3866C13.9327 5.64725 10.3408 2.6515 5.85854 2.45153C5.00584 2.4138 4.04751 2.84015 3.30045 3.5872C2.54586 4.3418 2.11574 5.319 2.11574 6.26602C2.11574 6.56786 2.24779 6.81688 2.56472 7.09608C4.76437 9.05426 6.24716 11.7784 6.73765 14.7666C6.81688 15.257 6.96403 15.6042 7.18663 15.8268C8.29589 16.9323 9.77113 17.5435 11.3369 17.5435ZM14.6836 15.0269C13.7894 15.9211 12.6009 16.4116 11.3369 16.4116C10.073 16.4116 8.88448 15.9211 7.99028 15.0269C7.96764 14.9967 7.89973 14.8684 7.85445 14.5817C7.32246 11.3369 5.71139 8.37889 3.31177 6.24715C3.28159 6.22074 3.25895 6.19811 3.24386 6.18301C3.27027 5.5567 3.57588 4.90397 4.09655 4.3833C4.60968 3.87017 5.28127 3.55324 5.80572 3.57965C9.88809 3.76076 13.1744 6.50372 14.4723 8.09592C15.3816 9.21272 15.906 10.5333 15.94 11.8123C15.9626 12.6688 15.7702 13.9176 14.7062 14.9967L14.6836 15.0269Z" fill="white"/>
<path d="M11.6762 14.4738C12.3176 14.4738 12.959 14.2285 13.4457 13.7418C14.4191 12.7684 14.4191 11.1799 13.4457 10.2027C12.4723 9.2293 10.8838 9.2293 9.90665 10.2027C8.93322 11.1762 8.93322 12.7646 9.90665 13.7418C10.3934 14.2323 11.0348 14.4738 11.6762 14.4738ZM11.6762 10.6064C12.0271 10.6064 12.378 10.7385 12.6458 11.0064C13.1778 11.5421 13.1778 12.4099 12.6458 12.9419C12.1101 13.4777 11.2423 13.4777 10.7103 12.9419C10.1783 12.4099 10.1783 11.5384 10.7103 11.0064C10.9744 10.7385 11.3253 10.6064 11.6762 10.6064Z" fill="white"/>
</svg>
