<svg width="22" height="22" viewBox="0 0 22 22" fill="none" xmlns="http://www.w3.org/2000/svg">
<path d="M0.681881 12.2068C1.15852 12.7221 1.80693 13.0183 2.50686 13.0398C3.2068 13.0613 3.87238 12.8036 4.37909 12.3184L5.0919 11.6314V16.5266C5.0919 19.2147 7.27759 21.4004 9.96569 21.4004H13.9635C16.6516 21.4004 18.8373 19.2147 18.8373 16.5266V4.88535C19.1722 4.80376 19.6231 4.66635 20.0697 4.46453C21.7272 3.71307 22.0235 2.66102 21.9805 1.90955C21.9505 1.38567 21.6628 0.96056 21.1904 0.750151C20.9671 0.651386 20.7138 0.599857 20.4475 0.599857C19.8635 0.599857 19.2194 0.831738 18.6741 1.26544C17.9097 1.8709 17.4975 2.73831 17.4889 3.72165H6.67212C5.90348 3.72165 5.15631 4.03942 4.62385 4.59335L0.716234 8.65985C-0.224171 9.64319 -0.241346 11.2019 0.681881 12.2068ZM19.7863 2.07273C20.2672 1.82367 20.6365 1.88808 20.688 1.93961C20.688 1.93961 20.6923 1.95249 20.6966 1.98255C20.7224 2.48496 20.3445 2.92296 19.563 3.28366C19.2967 3.40819 19.0262 3.49836 18.79 3.56707C18.863 2.63096 19.5458 2.19726 19.7863 2.07273ZM1.64805 9.55302L5.55566 5.48652C5.84766 5.18594 6.2556 5.00988 6.67212 5.00988H17.5533V6.38828H6.89112C6.53471 6.38828 6.24701 6.67598 6.24701 7.03239C6.24701 7.3888 6.53471 7.67651 6.89112 7.67651H17.5533V16.5266C17.5533 18.5019 15.9473 20.1122 13.9678 20.1122H9.96998C7.9947 20.1122 6.38442 18.5062 6.38442 16.5266V10.1155C6.38442 9.8579 6.22983 9.62172 5.99366 9.52296C5.75749 9.4199 5.48266 9.47143 5.29372 9.65178L3.49021 11.3909C3.23686 11.6356 2.90192 11.7645 2.54981 11.7559C2.19769 11.7473 1.87134 11.597 1.63087 11.3351C1.16711 10.8284 1.1757 10.0468 1.64805 9.55302Z" fill="white"/>
</svg>
