<svg width="21" height="22" viewBox="0 0 21 22" fill="none" xmlns="http://www.w3.org/2000/svg">
<path d="M20.3477 6.02607L15.253 0.927372C15.0165 0.690876 14.6357 0.690876 14.4032 0.927372L9.87772 5.45286C9.40473 5.92586 9.14418 6.57923 9.16823 7.24863L9.2003 8.26276C9.21232 8.63554 9.36464 8.98427 9.6292 9.24883L10.4028 10.0225L6.38239 14.0469C5.60876 13.626 4.61468 13.7423 3.96131 14.3996L0.177372 18.1796C-0.059124 18.4161 -0.059124 18.7969 0.177372 19.0293L2.22166 21.0736C2.3379 21.1899 2.49423 21.25 2.64655 21.25C2.79887 21.25 2.9552 21.1899 3.07144 21.0736L6.85538 17.2897C7.50073 16.6443 7.62499 15.6743 7.22415 14.9047L11.2526 10.8762L11.906 11.5296C12.1465 11.7701 12.4671 11.9224 12.8079 11.9505L13.9302 12.0547C14.0064 12.0627 14.0785 12.0667 14.1547 12.0667C14.796 12.0667 15.4133 11.8142 15.8703 11.3532L20.3477 6.87585C20.5842 6.63935 20.5842 6.25855 20.3477 6.02607ZM6.00159 16.4399L2.64655 19.7949L1.45205 18.6004L4.81109 15.2414C5.13978 14.9127 5.6729 14.9127 6.0056 15.2414C6.33028 15.5741 6.33028 16.1112 6.00159 16.4399ZM15.0205 10.5035C14.76 10.764 14.4032 10.8923 14.0425 10.8562L12.9201 10.752C12.86 10.748 12.8039 10.7199 12.7598 10.6758L10.479 8.39504C10.4309 8.34694 10.4068 8.28681 10.4028 8.21867L10.3708 7.20454C10.3587 6.86783 10.491 6.53514 10.7315 6.29463L14.8281 2.20605L19.073 6.45096L15.0205 10.5035Z" fill="white"/>
<path d="M12.4977 6.31191C12.2612 6.54841 12.2612 6.92921 12.4977 7.16169C12.6139 7.27794 12.7703 7.33806 12.9226 7.33806C13.0749 7.33806 13.2312 7.27794 13.3475 7.16169L15.4078 5.10137C15.6443 4.86488 15.6443 4.48408 15.4078 4.25159C15.1713 4.01509 14.7905 4.01509 14.558 4.25159L12.4977 6.31191Z" fill="white"/>
<path d="M14.1149 8.77498C14.2311 8.89122 14.3874 8.95135 14.5398 8.95135C14.6921 8.95135 14.8484 8.89122 14.9647 8.77498L17.025 6.71465C17.2615 6.47816 17.2615 6.09736 17.025 5.86487C16.7885 5.62838 16.4077 5.62838 16.1752 5.86487L14.1149 7.92519C13.8784 8.16169 13.8784 8.54249 14.1149 8.77498Z" fill="white"/>
</svg>
