<svg width="21" height="20" viewBox="0 0 21 20" fill="none" xmlns="http://www.w3.org/2000/svg">
<path d="M17.7986 0.17386C17.5667 -0.0579534 17.1935 -0.0579534 16.9656 0.17386L5.5871 11.5524L4.15693 12.9825L0.172878 16.9666C0.0628647 17.0766 0 17.2259 0 17.3831C0 17.5402 0.0628647 17.6895 0.172878 17.7995L2.20026 19.8269C2.31421 19.9409 2.46744 19.9998 2.61674 19.9998C2.76605 19.9998 2.91928 19.9409 3.03322 19.8269L7.01727 15.8429L8.03096 14.8292L10.7656 17.5638C10.8795 17.6777 11.0327 17.7367 11.1821 17.7367C11.3314 17.7367 11.4846 17.6777 11.5985 17.5638L17.7986 11.3716C19.2955 9.87466 20.1167 7.88657 20.1167 5.77274C20.1167 3.65892 19.2916 1.67082 17.7986 0.17386ZM2.61674 18.5775L1.42231 17.3831L4.5734 14.232L5.76783 15.4264L2.61674 18.5775ZM6.60472 14.5934L5.41029 13.399L6.0075 12.8018L7.20193 13.9962L6.60472 14.5934ZM16.9656 10.5387L11.186 16.3144L6.83653 11.9688L17.3624 1.44294C18.384 2.65309 18.938 4.16969 18.938 5.77274C18.938 7.57224 18.2386 9.26566 16.9656 10.5387Z" fill="white"/>
</svg>
