<svg width="9" height="11" viewBox="0 0 9 11" fill="none" xmlns="http://www.w3.org/2000/svg">
<path fill-rule="evenodd" clip-rule="evenodd" d="M8.44954 6.92546C8.68036 6.69464 8.68036 6.32042 8.44954 6.08961C8.21873 5.8588 7.84451 5.8588 7.6137 6.08961L4.68824 9.01507L1.76279 6.08961C1.53198 5.8588 1.15776 5.8588 0.926945 6.08961C0.696133 6.32042 0.696134 6.69464 0.926946 6.92545L4.27032 10.2688C4.50114 10.4996 4.87536 10.4996 5.10617 10.2688L8.44954 6.92546ZM8.44954 1.91039C8.68036 1.67958 8.68036 1.30536 8.44954 1.07454C8.21873 0.843732 7.84451 0.843733 7.6137 1.07454L4.68825 4L1.76279 1.07454C1.53198 0.843732 1.15776 0.843733 0.926946 1.07455C0.696134 1.30536 0.696133 1.67958 0.926945 1.91039L4.27032 5.25377C4.50113 5.48458 4.87536 5.48458 5.10617 5.25377L8.44954 1.91039Z" fill="white"/>
</svg>
