<svg width="24" height="24" viewBox="0 0 24 24" fill="none" xmlns="http://www.w3.org/2000/svg">
<g clip-path="url(#clip0_2_6756)">
<path fill-rule="evenodd" clip-rule="evenodd" d="M1.29289 12.7071C1.10536 12.5196 0.999999 12.2652 0.999999 12C0.999999 11.7348 1.10536 11.4804 1.29289 11.2929L12.2929 0.292894C12.6834 -0.0976306 13.3166 -0.0976306 13.7071 0.292894C14.0976 0.683418 14.0976 1.31658 13.7071 1.70711L3.41421 12L13.7071 22.2929C14.0976 22.6834 14.0976 23.3166 13.7071 23.7071C13.3166 24.0976 12.6834 24.0976 12.2929 23.7071L1.29289 12.7071ZM10.2929 12.7071C10.1054 12.5196 10 12.2652 10 12C10 11.7348 10.1054 11.4804 10.2929 11.2929L21.2929 0.292894C21.6834 -0.0976302 22.3166 -0.0976302 22.7071 0.292894C23.0976 0.683419 23.0976 1.31658 22.7071 1.70711L12.4142 12L22.7071 22.2929C23.0976 22.6834 23.0976 23.3166 22.7071 23.7071C22.3166 24.0976 21.6834 24.0976 21.2929 23.7071L10.2929 12.7071Z" fill="#173334"/>
</g>
<defs>
<clipPath id="clip0_2_6756">
<rect width="24" height="24" fill="white" transform="translate(24) rotate(90)"/>
</clipPath>
</defs>
</svg>
