<svg width="15" height="13" viewBox="0 0 15 13" fill="none" xmlns="http://www.w3.org/2000/svg">
<path fill-rule="evenodd" clip-rule="evenodd" d="M12.2919 8.13529H5.50403C4.58559 8.13555 3.79748 7.48102 3.6291 6.57815L2.74566 1.79231C2.68975 1.48654 2.42089 1.26607 2.11009 1.27114H0.63557C0.284554 1.27114 0 0.986585 0 0.63557C0 0.284554 0.284554 7.71206e-08 0.63557 7.71206e-08H2.1228C3.04124 -0.000259399 3.82935 0.654274 3.99773 1.55715L4.88117 6.34299C4.93708 6.64875 5.20595 6.86922 5.51674 6.86415H12.2983C12.6091 6.86922 12.8779 6.64875 12.9338 6.34299L13.7347 2.02111C13.769 1.8338 13.7175 1.64099 13.5944 1.49571C13.4712 1.35044 13.2895 1.26802 13.0991 1.27114H5.72013C5.36911 1.27114 5.08456 0.986585 5.08456 0.63557C5.08456 0.284554 5.36911 7.71206e-08 5.72013 7.71206e-08H13.0927C13.6597 -0.000160116 14.1974 0.252022 14.5597 0.688096C14.9221 1.12417 15.0716 1.6989 14.9677 2.25627L14.1668 6.57815C13.9985 7.48102 13.2104 8.13555 12.2919 8.13529ZM8.26269 10.678C8.26269 9.62499 7.40902 8.77133 6.35598 8.77133C6.00496 8.77133 5.72041 9.05588 5.72041 9.4069C5.72041 9.75791 6.00496 10.0425 6.35598 10.0425C6.70699 10.0425 6.99155 10.327 6.99155 10.678C6.99155 11.0291 6.70699 11.3136 6.35598 11.3136C6.00496 11.3136 5.72041 11.0291 5.72041 10.678C5.72041 10.327 5.43585 10.0425 5.08484 10.0425C4.73382 10.0425 4.44927 10.327 4.44927 10.678C4.44927 11.7311 5.30293 12.5847 6.35598 12.5847C7.40902 12.5847 8.26269 11.7311 8.26269 10.678ZM12.0765 11.9491C12.0765 11.5981 11.7919 11.3135 11.4409 11.3135C11.0899 11.3135 10.8053 11.029 10.8053 10.6779C10.8053 10.3269 11.0899 10.0424 11.4409 10.0424C11.7919 10.0424 12.0765 10.3269 12.0765 10.6779C12.0765 11.029 12.361 11.3135 12.712 11.3135C13.063 11.3135 13.3476 11.029 13.3476 10.6779C13.3476 9.6249 12.4939 8.77124 11.4409 8.77124C10.3878 8.77124 9.53418 9.6249 9.53418 10.6779C9.53418 11.731 10.3878 12.5847 11.4409 12.5847C11.7919 12.5847 12.0765 12.3001 12.0765 11.9491Z" fill="#F2DFCE"/>
</svg>
